<?xml version="1.0" encoding="utf-8"?>
<!-- Generator: Adobe Illustrator 16.0.0, SVG Export Plug-In . SVG Version: 6.00 Build 0)  -->
<!DOCTYPE svg PUBLIC "-//W3C//DTD SVG 1.1//EN" "http://www.w3.org/Graphics/SVG/1.1/DTD/svg11.dtd" [
	<!ENTITY ns_flows "http://ns.adobe.com/Flows/1.0/">
	<!ENTITY ns_extend "http://ns.adobe.com/Extensibility/1.0/">
	<!ENTITY ns_ai "http://ns.adobe.com/AdobeIllustrator/10.0/">
	<!ENTITY ns_graphs "http://ns.adobe.com/Graphs/1.0/">
]>
<svg version="1.1" id="artboard2" xmlns:x="&ns_extend;" xmlns:i="&ns_ai;" xmlns:graph="&ns_graphs;"
	 xmlns="http://www.w3.org/2000/svg" xmlns:xlink="http://www.w3.org/1999/xlink" xmlns:a="http://ns.adobe.com/AdobeSVGViewerExtensions/3.0/"
	 x="0px" y="0px" width="1200px" height="382.6px" viewBox="0 0 1200 382.6" style="enable-background:new 0 0 1200 382.6;"
	 xml:space="preserve">
<style type="text/css">
<![CDATA[
	.st0{fill:#488427;}
	.st1{opacity:0.3;fill:#488427;adobe-blending-mode:multiply;}
	.st2{fill:#4AAE42;}
	.st3{opacity:0.3;fill:#4AAE42;adobe-blending-mode:multiply;}
	.st4{adobe-knockout:true;}
	.st5{fill:#7D501B;adobe-knockout:false;adobe-blending-mode:normal;}
	.st6{display:inline;fill:#F1D183;}
	.st7{fill:#91581F;adobe-knockout:false;adobe-blending-mode:normal;}
	.st8{opacity:0.3;adobe-knockout:true;adobe-blending-mode:multiply;}
	.st9{fill-rule:evenodd;clip-rule:evenodd;fill:#51C6DB;}
	.st10{fill-rule:evenodd;clip-rule:evenodd;fill:#F1D183;}
	.st11{display:inline;}
	.st12{fill-rule:evenodd;clip-rule:evenodd;fill:#F8D992;}
	.st13{fill:#7D501B;adobe-knockout:false;}
	.st14{fill-rule:evenodd;clip-rule:evenodd;fill:#2FA5CC;}
	.st15{fill:#91581F;adobe-knockout:false;}
	.st16{fill-rule:evenodd;clip-rule:evenodd;fill:#FFE19F;}
	.st17{fill-rule:evenodd;clip-rule:evenodd;fill:#FFFFFF;}
	.st18{display:none;fill-rule:evenodd;clip-rule:evenodd;fill:#C8E7DF;}
	.st19{display:inline;fill:#DDC079;}
	.st20{display:none;}
]]>
</style>
<rect class="st9" width="1200" height="382.6"/>
<rect y="-417.4" class="st18" width="1200" height="427.7"/>
<path class="st14" d="M0,0v34.3c151.5-1.3,451.4,21.4,696.2,1.3C846.6,23.3,1030,18.7,1200,29.4V0H0z"/>
<path class="st17" d="M0,80.8C487.3,121.1,882.2,9.1,1200,75v307.6H0V80.8z"/>
<path class="st16" d="M0,84.4c417.1,43.4,820.6-49.1,1200,0v298.2H0V84.4z"/>
<path class="st12" d="M1200,211.5v171H0V142.7c506.4-44,673,84,802.1,64.3C931.2,187.3,1092.5,179.4,1200,211.5z"/>
<path class="st10" d="M1200,237v145.5H0V269.9c168.4-46.6,461.3-5.7,594.7,14.7C728.2,305,968.8,213.9,1200,237z"/>
<g class="st20">
	<g class="st11">
		<g class="st4">
			<path class="st15" d="M677.3-13.9c-1.6,0.1-7.7,4.9-6.5,7.8c1.2,2.8,5,3.7,6.9,3.4c1.9-0.4,5.5-3.2,5-5.1S680.6-13.4,677.3-13.9z
				"/>
			<path class="st15" d="M684.4-10.4c-1.6,0.1-9.5,5-8.4,7.9c1.1,2.8,5.6,6.9,7.5,6.6c1.9-0.3,7-3.2,6.5-5.1
				C689.4-3,687.7-9.8,684.4-10.4z"/>
			<path class="st15" d="M690.9-2.4c-1.6,0-11.4,5.1-10.4,8c1,2.9,6.2,10,8,9.7c1.9-0.2,8.5-3.2,8.1-5.1
				C696.2,8.3,694.1-1.6,690.9-2.4z"/>
			<path class="st15" d="M700.5,7.7c-1.6,0-13.2,5.2-12.3,8.1c0.9,2.9,6.8,13.1,8.6,12.9c1.9-0.2,10-3.3,9.6-5.2
				C706.1,21.7,703.8,8.6,700.5,7.7z"/>
			<path class="st15" d="M709.6,21.8c-1.6-0.1-15,5.3-14.2,8.3c0.8,2.9,7.3,16.2,9.2,16.1c1.9-0.1,11.4-3.3,11.2-5.2
				C715.4,39,712.7,22.8,709.6,21.8z"/>
			<path class="st15" d="M718.9,38.1c-1.6-0.2-16.8,5.4-16.2,8.4c0.7,2.9,7.9,19.3,9.8,19.3c1.9,0,12.9-3.4,12.7-5.3
				C725,58.5,722,39.1,718.9,38.1z"/>
			<path class="st15" d="M729.1,56c-1.6-0.2-18.6,5.5-18.1,8.5c0.6,3,8.5,22.5,10.3,22.5c1.9,0,14.4-3.4,14.2-5.3
				C735.4,79.7,732.1,57.2,729.1,56z"/>
			<path class="st15" d="M737.1,79.3c-1.6-0.3-20.5,5.6-20,8.6c0.4,3,9,25.6,10.9,25.7c1.9,0.1,15.9-3.4,15.8-5.4
				C743.7,106.2,740.2,80.6,737.1,79.3z"/>
			<path class="st15" d="M748.2,105.9c-1.6-0.3-22.3,5.7-22,8.7c0.3,3,9.6,28.7,11.5,28.9c1.9,0.2,17.3-3.5,17.3-5.4
				C755.1,136.1,751.2,107.3,748.2,105.9z"/>
			<path class="st15" d="M757.7,133.8c-1.6-0.4-24.1,5.8-23.9,8.9c0.2,3,10.2,31.8,12,32.1c1.9,0.3,18.8-3.5,18.9-5.5
				C764.8,167.3,760.7,135.4,757.7,133.8z"/>
			<path class="st15" d="M769.1,164.2c-1.6-0.5-25.9,5.9-25.8,9c0.1,3.1,10.7,34.9,12.6,35.2c1.9,0.3,20.3-3.6,20.4-5.5
				C776.4,201,772,165.9,769.1,164.2z"/>
			<path class="st15" d="M779.3,198.7c-1.6-0.5-27.8,6-27.7,9.1c0,3.1,11.3,38,13.2,38.4c1.9,0.4,21.8-3.6,22-5.6
				C786.9,238.7,782.2,200.5,779.3,198.7z"/>
		</g>
		<g class="st8">
			<path class="st7" d="M672.4-10.5c-1.3,1.4-2.2,3.1-1.6,4.3c1.2,2.8,5,3.7,6.9,3.4c0.4-0.1,0.9-0.3,1.5-0.6
				C677.2-5.9,674.9-8.3,672.4-10.5z"/>
			<path class="st7" d="M677.2-5.7c-1,1.1-1.6,2.3-1.3,3.2c1.1,2.8,5.6,6.9,7.5,6.6c0.2,0,0.6-0.1,0.9-0.3
				C682.2,0.4,679.9-2.8,677.2-5.7z"/>
			<path class="st7" d="M683,1.8c-1.7,1.3-2.9,2.8-2.5,3.9c1,2.9,6.2,10,8,9.7c0.4,0,1.1-0.2,1.8-0.5C688.2,10.3,685.8,5.9,683,1.8z
				"/>
			<path class="st7" d="M689.6,13.3c-1,0.9-1.6,1.8-1.4,2.5c0.8,2.8,6.2,12.1,8.3,12.9C694.3,23.5,692.1,18.4,689.6,13.3z"/>
			<path class="st7" d="M696.3,28.1c-0.7,0.7-1.1,1.4-1,1.9c0.8,2.9,7.3,16.2,9.2,16.1c0,0,0.1,0,0.1,0
				C701.6,40.3,698.9,34.2,696.3,28.1z"/>
			<path class="st7" d="M714.5,57.7c-2.1-0.6-4.2-1.9-5.8-4.5c-1.8-2.8-3.4-5.7-4.9-8.6c-0.8,0.7-1.2,1.3-1.1,1.8
				c0.7,2.9,7.9,19.3,9.8,19.3c0.9,0,3.7-0.8,6.5-1.7C717.6,61.8,716,59.7,714.5,57.7z"/>
			<path class="st7" d="M716.4,60.2c-3.2,1.5-5.6,3.1-5.4,4.2c0.6,3,8.5,22.5,10.3,22.5c1,0,5-1,8.5-2.2
				C726.8,76.1,721.7,67.5,716.4,60.2z"/>
			<path class="st7" d="M731.9,107.2c2.1-7.8,0.3-16.8-3.3-25.6c-5.6,1.9-11.8,4.6-11.5,6.3c0.4,3,9,25.6,10.9,25.7
				c0.6,0,2.2-0.3,4.2-0.7C731.5,111.1,731.3,109.2,731.9,107.2z"/>
			<path class="st7" d="M743.8,138.8c-3.4-6.3-3.6-13-4.4-19.6c-3.8-1.1-7.2-4.2-7.8-8.3c-3.2,1.4-5.5,2.7-5.4,3.8
				c0.3,3,9.6,28.7,11.5,28.9c0.9,0.1,4.7-0.7,8.6-1.7C745.4,141.1,744.5,140.1,743.8,138.8z"/>
			<path class="st7" d="M750.1,143.5c-2.5-0.4-4.7-1.9-6.3-4.7c-0.2-0.4-0.4-0.8-0.6-1.2c-5.1,1.8-9.5,3.7-9.4,5.1
				c0.2,3,10.2,31.8,12,32.1c0.9,0.1,5.4-0.7,9.8-1.8C753.8,163.4,752.8,153,750.1,143.5z"/>
			<path class="st7" d="M765.7,181.6c-4.3,0-8.7-2.6-9.6-7.1c-0.5-2.2-0.9-4.5-1.3-6.9c-6,1.9-11.6,4.1-11.5,5.6
				c0.1,3.1,10.7,34.9,12.6,35.2c1,0.2,6.7-0.9,11.9-2.2C767.4,198.2,767.4,189.4,765.7,181.6z"/>
			<path class="st7" d="M776.1,241.8c-0.9-5.4-0.6-12.9-1.1-19.6c-3.3-0.7-6.1-3-6.6-6.7c-0.6-4.5-0.8-9.3-0.9-14.3
				c-7.6,2.1-16,4.9-16,6.7c0,3.1,11.3,38,13.2,38.4c1,0.2,6.6-0.7,11.9-2C776.5,243.4,776.3,242.6,776.1,241.8z"/>
		</g>
		<path class="st2" d="M676.4-19.5c0,0,34.2-27.2,80.2-28.8l-7.1,9.5c0,0,38.5-2.9,59.9,16.2c0,0-23.9,3.2-28.1,7
			c0,0,22.4,26.7,57.4,30.5c0,0-44.4,5.1-81.9-14.7c0,0,9.7,17.3,20.4,25.7c0,0-74.4-15.9-99.5-41.1c0,0,38.7-6.9,68.9,2.8
			C746.6-12.4,723.5-29.6,676.4-19.5z"/>
		<path class="st3" d="M790.8,2.4c-12.1-2.4-23.4-7.2-35.3-10.2c-2.1,3.7-6.3,6.3-11,4.8c-11.2-3.5-24-11.5-36.1-9
			c-7.7,1.6-14.9,3.5-22.4,3.7c30.1,21.2,91.2,34.2,91.2,34.2c-10.7-8.4-20.4-25.7-20.4-25.7c37.4,19.8,81.9,14.7,81.9,14.7
			c-12.2-1.3-22.8-5.4-31.5-10.1C801.7,4.2,796.2,3.4,790.8,2.4z"/>
		<path class="st2" d="M674.2-15.8c0,0-30.2-31.6-75.5-39.5l5.7,10.4c0,0-37.7-8.2-61.6,7.8c0,0,23.3,6.5,26.9,10.8
			c0,0-25.9,23.4-61.1,22.3c0,0,43.3,11.1,83.1-3.4c0,0-12,15.8-23.7,22.7c0,0,75.9-5.5,104.2-27c0,0-37.4-12.1-68.6-6.7
			C603.7-18.4,628.9-32.3,674.2-15.8z"/>
		<path class="st3" d="M568.1,15.3c0,0,73.6-5.4,102.8-26.1c-0.9,0.4-1.8,0.6-2.9,0.7c-22.5,2.5-44.6,7.8-67.3,8.8
			c-7.8,0.4-12.1-9.6-8.2-15.3c-6,2.4-11.9,5-17.7,7.5c-9,3.9-18.5,6.6-28,9c13.7-0.1,29.6-1.8,45-7.4
			C591.8-7.3,579.9,8.5,568.1,15.3z"/>
		<path class="st2" d="M675.6-22.1c0,0,31.4-37.1,78.9-35c0,0-5-7.3-9-7.4c0,0,26.3-22,65.9-11.5c0,0-7.7-18.3-53.9-17.2
			c0,0,2.9-10.4,12.4-14.3c0,0-46.7-3.1-72.2,23.4c0,0-5.3-6.9-2.3-12.4c0,0-37.8,23.8-22.9,75.4c0,0,0-39.4,31.1-53
			C703.5-74.2,682.9-57.3,675.6-22.1z"/>
		<path class="st3" d="M778.3-85.6c-13.6,0.1-26.2,4.2-38.9,8.7c-1.2,0.4-2.3,0.6-3.3,0.6c-23.5,7.9-45.9,20.5-57.4,42.7
			c-1.2,3.6-2.2,7.5-3.1,11.6c0,0,31.4-37.1,78.9-35c0,0-5-7.3-9-7.4c0,0,26.3-22,65.9-11.5c0,0-0.4-1-1.7-2.6
			C799.2-80.5,789-85.6,778.3-85.6z"/>
		<path class="st2" d="M672.6-3.5c0,0-15.4,46.1,11.1,85.6c0,0-8.8-0.5-11-3.8c0,0-5.1,33.8,24.4,62.3c0,0-19.6,2.9-42.7-37.1
			c0,0-7.4,7.9-5.8,18c0,0-26.9-38.3-17.5-73.8c0,0-8.7-0.9-11.8,4.5c0,0,0.7-44.7,52.5-58.8c0,0-33.7,20.5-29.1,54.1
			C642.7,47.5,646.4,21.1,672.6-3.5z"/>
		<path class="st3" d="M672.7,78.3c2.1,3.3,11,3.8,11,3.8c-15.2-22.7-16.6-47.6-15-64.7c-2.7,12.9-4,26-0.1,38.6
			c2.3,7.2-3.9,12.2-9.9,12c-2.7,14-2.7,30.5,1.3,44.4c20.6,30.6,37.1,28.2,37.1,28.2C667.6,112.1,672.7,78.3,672.7,78.3z"/>
	</g>
	<g class="st11">
		<g>
			<g class="st4">
				<path class="st13" d="M927.9-171.6c2.7,0.2,12.6,7.6,10.8,12.2c-1.8,4.6-8,6.3-11,5.7c-3-0.5-9.1-4.8-8.2-7.9
					C920.3-164.6,922.5-170.6,927.9-171.6z"/>
				<path class="st13" d="M916.6-165.6c2.6,0.1,15.6,7.7,13.9,12.3c-1.7,4.6-8.7,11.3-11.8,10.9c-3-0.4-11.4-4.8-10.7-7.9
					C908.8-153.3,911.3-164.4,916.6-165.6z"/>
				<path class="st13" d="M906.5-152.3c2.6,0,18.5,7.8,17,12.4c-1.5,4.7-9.5,16.4-12.5,16.1c-3-0.3-13.8-4.8-13.2-7.9
					C898.4-134.9,901.3-151,906.5-152.3z"/>
				<path class="st13" d="M891.4-135.6c2.6-0.1,21.5,7.8,20.2,12.5c-1.3,4.7-10.3,21.4-13.3,21.2c-3-0.2-16.2-4.8-15.7-7.9
					C883-112.8,886.2-134.1,891.4-135.6z"/>
				<path class="st13" d="M877.5-112.5c2.6-0.2,24.4,7.9,23.3,12.7c-1.1,4.7-11.1,26.5-14.1,26.4c-3-0.1-18.6-4.8-18.2-8
					C868.8-84.5,872.4-110.8,877.5-112.5z"/>
				<path class="st13" d="M863.1-85.9c2.6-0.3,27.4,8,26.4,12.8c-0.9,4.8-11.9,31.5-14.9,31.6c-3,0-21-4.8-20.7-8
					C854.2-52.6,858.2-84,863.1-85.9z"/>
				<path class="st13" d="M847.6-56.6c2.6-0.4,30.3,8.1,29.5,12.9c-0.8,4.8-12.6,36.6-15.6,36.7c-3,0.2-23.3-4.8-23.2-8
					C838.4-18.1,842.7-54.5,847.6-56.6z"/>
				<path class="st13" d="M835.6-18.6c2.5-0.5,33.2,8.2,32.7,13c-0.6,4.8-13.4,41.6-16.4,41.9c-3,0.3-25.7-4.8-25.7-8
					C826.2,25.1,830.8-16.4,835.6-18.6z"/>
				<path class="st13" d="M819,24.8c2.5-0.6,36.2,8.2,35.8,13.1c-0.4,4.9-14.2,46.7-17.2,47.1c-3,0.4-28.1-4.8-28.2-8
					C809.2,73.8,814.2,27.2,819,24.8z"/>
				<path class="st13" d="M804.9,70.2c2.5-0.7,39.1,8.3,38.9,13.2c-0.2,4.9-15,51.7-18,52.2c-3,0.5-30.5-4.8-30.7-8
					C795,124.5,800.2,72.8,804.9,70.2z"/>
				<path class="st13" d="M788,119.7c2.5-0.8,42.1,8.4,42,13.3c0,4.9-15.7,56.8-18.7,57.4c-3,0.6-32.9-4.8-33.2-8
					C777.7,179.3,783.4,122.5,788,119.7z"/>
				<path class="st13" d="M773.1,175.8c2.5-0.9,45,8.5,45.1,13.4c0.1,5-16.5,61.8-19.5,62.5c-3,0.7-35.2-4.8-35.7-8
					C762.5,240.6,768.5,178.8,773.1,175.8z"/>
			</g>
			<g class="st8">
				<path class="st5" d="M919.7-162.2c0.9-3.2,3.2-8.5,8.2-9.4c0.4,0,1.1,0.3,1.8,0.6c-0.2,1-0.5,1.9-0.8,2.7
					C925.6-166.4,922.5-164.4,919.7-162.2z"/>
				<path class="st5" d="M908.1-149.3c-0.1-0.3-0.1-0.7-0.1-1c0.7-3.1,3.3-14.2,8.6-15.3c0.8,0,2.7,0.8,4.8,2
					C916.2-159.7,911.7-155.1,908.1-149.3z"/>
				<path class="st5" d="M904-141.2c-1.8,4.5-2.8,8.8-3.2,13.1c-1.9-1.3-3.3-2.6-3-3.7c0.6-3.1,3.5-19.2,8.7-20.6
					c0.5,0,1.6,0.3,3,0.9C907.4-148.4,905.5-145,904-141.2z"/>
				<path class="st5" d="M900.6-122.3c-0.5,0.4-1,0.7-1.5,1c-7.2,4.4-11.5,9-14,14.6c-1.7-1.1-2.8-2.1-2.7-3.1
					c0.5-3.1,3.7-24.3,8.9-25.8c1.2-0.1,5.6,1.5,10,3.7C900.8-128.7,900.6-125.5,900.6-122.3z"/>
				<path class="st5" d="M881.8-85.9c0,3.5-2.1,6.7-4.8,9.9c-4.5-1.6-8.7-3.7-8.5-5.4c0.4-3.1,3.9-29.4,9-31.1
					c1-0.1,4.9,1.1,9.3,2.9C882.9-103.3,881.9-95.8,881.8-85.9z"/>
				<path class="st5" d="M865.6-63c-3,5.4-5.5,10.9-7.6,16.7c-2.4-1.1-4.1-2.2-4-3.2c0.2-3.1,4.2-34.5,9.2-36.4
					c1.5-0.2,10,2.4,17,5.5C876.7-74.2,868.8-68.6,865.6-63z"/>
				<path class="st5" d="M854.3-34.8c-2.2,8.3-4,16.7-5.8,25c-5.4-1.6-10.3-3.6-10.2-5.1c0.1-3.1,4.4-39.6,9.3-41.6
					c1.1-0.2,7,1.3,13.2,3.5C858.2-47.2,856-41.1,854.3-34.8z"/>
				<path class="st5" d="M847.3-4.5c-0.9,4.2-0.3,8.3-2.3,12.2c-1.9,3.9-4.7,8.4-5.5,12.7c-0.8,4-0.5,9.2-2.7,12.7
					c-5.7-1.6-10.7-3.5-10.7-5c0-3.1,4.6-44.7,9.5-46.9c1.1-0.2,7.3,1.2,14.1,3.4C848.9-11.7,848.1-8.1,847.3-4.5z"/>
				<path class="st5" d="M836.9,33.3c-2.1,3.3-5.5,6.4-7.1,10c-3,6.8-1.7,12.1-0.3,19.2c1.2,6.2-0.1,2.1-4.7,3.5
					c-2.8,0.9-6,2-7.9,4.3c-2.4,2.9-3.6,5.8-4.2,9c-2-0.8-3.4-1.7-3.4-2.4c-0.1-3.1,4.8-49.7,9.6-52.2c1.3-0.3,10.6,1.8,19.4,4.6
					C838,30.8,837.6,32.2,836.9,33.3z"/>
				<path class="st5" d="M812.6,86.9c0.9,8.1,3.7,13-2.6,19.1c-4.2,4.1-4.8,12.9-3.3,18.3c0.5,1.9-1.2,4.4-3.6,7.1
					c-4.5-1.3-7.8-2.6-7.9-3.7c-0.2-3.1,5.1-54.8,9.8-57.4c0.8-0.2,5.2,0.6,10.7,1.9C812.6,76.6,812,81.1,812.6,86.9z"/>
				<path class="st5" d="M788,119.7c1.1-0.4,9.5,1.2,18.5,3.6c0.1,0.3,0.1,0.7,0.2,1c1.3,4.5-10.7,12.8-12.6,18.2
					c-1.7,4.8-2.1,9-1.4,13.2c-4.2,1.9-7.9,4.9-8.9,9.7c-1.3,6.9,0.9,13.1,0.5,19.9c0,0.1,0,0.2,0,0.3c-3.6-1.1-6.1-2.2-6.2-3.1
					C777.7,179.3,783.4,122.5,788,119.7z"/>
				<path class="st5" d="M773.1,175.8c0.8-0.3,5.1,0.4,10.8,1.6c0.3,2.6,0.5,5.2,0.4,7.9c-0.5,9-4.6,16.7-3.6,26.1
					c1,9.8,1.2,19.5,5,28.7c3.1,7.7,13.2,6.4,14.1-1.9c0.2-1.7,0.3-3.4,0.4-5.1c0-0.1,0.1-0.1,0.1-0.2c0.7-1.3,1.3-2.6,2-3.9
					c0,0.1,0,0.1,0,0.2c0.3,2.4,1.6,4.3,3.3,5.6c-3.1,9.5-5.9,16.8-7,17.1c-3,0.7-35.2-4.8-35.7-8
					C762.5,240.6,768.5,178.8,773.1,175.8z"/>
			</g>
		</g>
		<g>
			<path class="st0" d="M929.1-180.6c0,0-56.4-42.3-130.5-42.8l11.9,15c0,0-62.1-3-95.9,28.8c0,0,38.7,4.1,45.6,10.1
				c0,0-34.9,44-91.2,51.7c0,0,71.9,6.2,131.3-27.4c0,0-14.8,28.4-31.7,42.4c0,0,119.3-29,158.5-70.7c0,0-62.6-9.3-111,7.5
				C816.2-165.9,852.6-194.7,929.1-180.6z"/>
			<path class="st1" d="M730-142.4c16.9-1.6,33.6-4.4,50.5-6.8c4.1-0.6,16.1-2.2,17.8-2.5c0.6-0.1,1.3-0.2,1.9-0.3
				c10.7,10.9,27.4,16.4,42.3,11.7c20.7-6.6,41.4-12.6,62.9-15.8c-49.9,32.1-136.8,53.2-136.8,53.2c16.8-14,31.7-42.4,31.7-42.4
				C740.9-111.6,669-117.8,669-117.8C693.9-121.2,714.7-131.7,730-142.4z"/>
		</g>
		<g>
			<path class="st0" d="M932.7-174.8c0,0,47.2-52.3,119.8-67.1l-8.8,17c0,0,60.4-14.9,99.6,9.8c0,0-37.2,11.5-42.8,18.6
				c0,0,42.7,36.5,99.4,33.2c0,0-69.3,19.9-134.1-1.7c0,0,20,25,39.2,35.5c0,0-122.6-5.5-169.2-38.9c0,0,59.7-21.2,110.3-13.9
				C1046.3-182.1,1005-203.3,932.7-174.8z"/>
			<path class="st1" d="M1069.1-163.8c3.1-3.2,5.7-6.9,7.6-11.2c8.7,2.7,17.4,5.4,26.2,7.9c17.8,5.1,35.6,9.2,53.4,11.3
				C1131.9-153.7,1100.1-154.2,1069.1-163.8z"/>
			<path class="st1" d="M954.3-164.7c1.7,0.2,2.8,0.3,3.5,0.3c0.4,0.1,0.9,0.1,1.5,0.2c2.8,0.4,5.6,0.9,8.5,1.3
				c7.2,1.2,14.3,2.5,21.4,3.9c12.4,2.4,24.8,5,37.3,7.3c15.4,2.9,30.9-0.9,41.4-10.9c5.5,6.4,21.6,24.6,37.3,33.2
				c0,0-122.6-5.5-169.2-38.9c0,0,0.6-0.2,1.8-0.6C942.9-166.7,948.5-165.3,954.3-164.7z"/>
		</g>
		<g>
			<path class="st0" d="M930.2-184.8c0,0-52.2-58.4-128.7-52.9c0,0,7.8-12,14.1-12.3c0,0-43.3-34.2-106.7-15.5
				c0,0,11.6-29.8,86.1-30.2c0,0-5.2-16.6-20.6-22.5c0,0,75.2-7,117.4,34.5c0,0,8.2-11.4,3.2-20.2c0,0,62,36.6,40.4,120.5
				c0,0-1.8-63.5-52.5-84C882.8-267.5,916.8-241.2,930.2-184.8z"/>
			<path class="st1" d="M729.8-281.3c1.5-0.2,2.5-0.4,3.2-0.6c0.5,0,1-0.1,1.6-0.1c8.5-0.8,17-1.1,25.5-1c8.2,0.1,16.4,0.2,24.6,0.3
				c5.7,8.1,14,14.2,23.8,16.6c7,1.7,13.9,3.5,20.7,5.9c3,1,5.9,2.1,8.9,3.2c0.2,0.1,1.4,0.7,3.7,1.7c11.1,5.4,21.9,11.4,32.1,18.4
				c3.4,2.3,6.8,4.7,10.1,7.2c1,0.7,1.7,1.3,2.3,1.7c3.9,3.2,7.8,6.4,11.7,9.8c9.7,8.6,19,17.5,28.2,26.6c1,1,2.1,2,3.2,2.9
				c0.3,1.3,0.7,2.6,1,3.9c0,0-52.2-58.4-128.7-52.9c0,0,7.8-12,14.1-12.3c0,0-43.3-34.2-106.7-15.5c0,0,2.8-7.2,14.5-14.5
				C725.5-280.5,727.7-280.9,729.8-281.3z"/>
		</g>
		<g>
			<path class="st0" d="M935.8-154.9c0,0,26.9,73.6-14,138.5c0,0,14.2-1.2,17.5-6.7c0,0,9.8,54.3-36.6,101.5c0,0,31.8,3.8,67.2-61.7
				c0,0,12.2,12.4,10.2,28.8c0,0,41.6-63,24.9-119.8c0,0,13.9-1.8,19.3,6.7c0,0-3.1-72-87.3-92.4c0,0,55.2,31.5,49.4,85.9
				C986.4-74.2,979.3-116.5,935.8-154.9z"/>
			<path class="st1" d="M952.3-126.5c0.6,1,1.3,2.6,1.8,3.7c1.1,3.5,2.1,7.1,2.8,10.7c0.3,1.4,0.7,5.1,0.9,6
				c0.1,1.3,0.2,2.5,0.3,3.8c0.3,5.2,0.5,10.4,0.5,15.7C958.5-77,958-67.5,957-58c-0.3,1.8-1.5,9.7-1.9,11.9
				c-0.7,3.6-1.5,7.1-2.4,10.7c-4,15.4,0.4,28.7,8.9,38.3c-2.1,4.4-4.3,8.8-6.7,13.1c-9,16.1-17.1,32.6-26,48.7
				c-1.1,2-2.2,4-3.3,5.9c-13.8,8.9-22.8,7.8-22.8,7.8c46.4-47.2,36.6-101.5,36.6-101.5c-3.3,5.4-17.5,6.7-17.5,6.7
				c40.9-64.9,14-138.5,14-138.5c2.1,1.9,4.1,3.8,6.1,5.7C943.2-141.1,946.8-133.2,952.3-126.5z"/>
		</g>
	</g>
	<path class="st19" d="M770.4,253.7c31.5-74.4,90.4-8.8,90.4-8.8L770.4,253.7z"/>
	<path class="st6" d="M708.9,243.6c80.6-58.6,127.2,23.5,127.2,23.5L708.9,243.6z"/>
</g>
</svg>
