<?xml version="1.0" encoding="utf-8"?>
<!-- Generator: Adobe Illustrator 16.0.0, SVG Export Plug-In . SVG Version: 6.00 Build 0)  -->
<!DOCTYPE svg PUBLIC "-//W3C//DTD SVG 1.1//EN" "http://www.w3.org/Graphics/SVG/1.1/DTD/svg11.dtd" [
	<!ENTITY ns_flows "http://ns.adobe.com/Flows/1.0/">
	<!ENTITY ns_extend "http://ns.adobe.com/Extensibility/1.0/">
	<!ENTITY ns_ai "http://ns.adobe.com/AdobeIllustrator/10.0/">
	<!ENTITY ns_graphs "http://ns.adobe.com/Graphs/1.0/">
]>
<svg version="1.1" id="right_top" xmlns:x="&ns_extend;" xmlns:i="&ns_ai;" xmlns:graph="&ns_graphs;"
	 xmlns="http://www.w3.org/2000/svg" xmlns:xlink="http://www.w3.org/1999/xlink" xmlns:a="http://ns.adobe.com/AdobeSVGViewerExtensions/3.0/"
	 x="0px" y="0px" width="1200px" height="800px" viewBox="0 0 1200 800" style="enable-background:new 0 0 1200 800;"
	 xml:space="preserve">
<style type="text/css">
<![CDATA[
	.st0{fill:#EFF1D2;}
	.st1{fill:#8E6737;}
	.st2{fill:#65A43F;}
	.st3{fill:#9EBD37;}
]]>
</style>
<g id="palm_trees_copy">
	<g>
		<path class="st2" d="M1183.8,5.6c0,0-0.2-2.8-0.5-6.6h-30.2L1183.8,5.6z"/>
		<path class="st2" d="M1152.9-1H1102c0,10.4,0.5,32.5,5.7,35.8c6.8,4.3,23.6,54.5,33.6,68.5c4.3-36.3,40.7-70.1,40.7-70.1
			l-23.1-22.6l24.6,8.5l-30.9-15.7l33.9,7.1L1152.9-1z"/>
	</g>
	<path class="st2" d="M1064.2-1c-3.5,7.8-6.7,15-6.7,15l-0.1-15h-8.2l-4.5,9.1l-0.3-9.1h-202c11.6,13.4,27.2,27.2,42.1,31.6
		c7.8,2.9,11.3,3.9,11.3,3.9l4.4-14.3l4.7,19.9l10-17.9L912,33.8c0,0,14.5-0.5,20.2,1.4c5.7,1.9,15.7,8.8,15.7,8.8l9.2-34.8
		l2.7,34.5l15.1-34.1l9.2,36.4c0,0,17.2-2.9,28.5,1c11.3,3.9,22.4,15,22.4,15l13.8-16.1l1.1,18.5l16-8.8l-3.7,13.8
		c0,0,62.1,20.2,79.1,33.8c0,0-41.1-74.1-61.9-104.3H1064.2z"/>
	<g>
		<g>
			<g>
				<path class="st2" d="M1131.2,299.8c0,0-20.4,5.1-29.7,18.6c8.7,2.7,9.6,4.8,9.6,4.8s-7.6-1.1-14.8-1.5c6.3,3.8,11,4.4,10.4,4.1
					c-0.6-0.3-13-1.1-14.8,3.9c-1.7,5-3.1,13.9,1.6,16.3c4.7,2.3,8.4,2.4,8.4,2.4l-13.6,1.1l12.8,3.5l-12.1,0.3c0,0,0.9,16,3.2,18.3
					c2.3,2.3,6.4,2.3,6.4,2.3l-8,0.2l0,3.6c0,0,8.5,0.8,9.8-1.1c-2.7,2.8-6.9,2.6-7.7,4.2c-0.9,1.6,1.8,16.8,17.6,24.9
					c2.1-3.9,9.5-18.7,12.1-22.3c2.6-3.5,7.5-5.1,7.5-5.1s-9.7-4.7-14.9-5.3c6.5-0.5,11.8-4.6,17.9-0.1c-0.6-4.8-0.8-22.5-0.8-22.5
					s-5.9-4.9-10.2-7.2c6,2.9,13.3,6.2,13.3,6.2s-5-9.7-8-11.2c5.4,2.5,9.8,5.3,9.8,5.3s-11.5-8.6-14.1-9.7
					c5.3,1.8,15.7,6.5,15.7,6.5S1141,308.7,1131.2,299.8z"/>
				<path class="st3" d="M1131.2,299.8"/>
				<path class="st2" d="M1132.2,299.1c-12-5.2-72.3-23.5-97.7,14.3c-20.4,32.3-12.1,42.7-10.6,48.4c2.4-1.7,15.2-12.7,15.2-12.7
					s-0.5-9.2-0.2-14.2c3,11.8,4.6,14.8,4.6,14.8s-0.7-14.5-1.1-20.5c4.1,12.7,7.4,20.1,7.4,20.1s10.6-16.8,18.6-16.1
					c-1.1-4.3-2.5-19.8,1.5-25.2c0.5,12.5,1.7,22.7,1.7,22.7s5.9-10.2,8.9-10.7c3-0.5,2.2-8.6,3.5-10.7c1.3-2.1,6.4-7.2,6.4-7.2
					s-4.1,10-2.5,17.9c4.7-5.4,11-14.1,11-14.1s-4.3,6.5-1.7,12.2c3.2-4.1,12.5-12.1,14.6-10c-1.8,2.4-2.2,5.2-3.3,6.3
					C1112,316.6,1119.2,301.5,1132.2,299.1z"/>
				<path class="st2" d="M1131.2,299.8c0,0-4-22.4-31.7-36.2c-27.7-13.8-63.7-9.7-74.8,10.8c-11.1,20.5-8.6,28.6-7.4,34.3
					c2.4-3.8,5.9-16.4,9.9-21.6c-2.2,7.3-3.2,10.7-2.1,14.8c2-3.1,5.5-7.4,6.1-7.6c0.6-0.2,10-3.5,11.6-2.8c1.2-1.8,1.2-8.8,1.2-8.8
					l2.1,8.8l2.7-8.4l4.2,7.2c0,0,7.8-10.9,19.7-10.1c1.5-4.3,3.8-6.6,3.8-6.6s-2.3,7.4-0.9,9.9c1.6-3.2,5.9-8.7,7.5-9.5
					c-1.3,3.1-2,4.4-2,4.4l1.3,0.6c0,0-1.1,3-1.5,4.3c2.1-1.2,15.8-6.2,31.3,2.3c15.6,8.5,15.6,10.8,19.5,14.2"/>
			</g>
		</g>
		<path class="st0" d="M1127.1,298.7c0,0-49.6-19.6-79.4,1.5c-29.7,21.1-28.6,48.9-24.5,59.5c2.4-23.2-1.8-38.5,29.3-57.9
			C1083.6,282.4,1120.7,296.7,1127.1,298.7z"/>
		<path class="st0" d="M1130.2,296.3c0,0-9.2-29.9-46.3-38.4c-37.1-8.5-56.8,8.6-62.4,23.2c-5.7,14.6-6.4,20.9-4.1,27.7
			c0.4-5.6-2.2-24.8,17.9-43.4c16.6-15.3,56.2-2.4,63.6,0.4C1106.4,268.6,1128.6,286.9,1130.2,296.3z"/>
	</g>
	<path class="st0" d="M1128.7,301.7c0,0-37.6,40.2-21.2,99.4c-0.5-24.6-4.9-54.8,21.9-100.8"/>
	<path class="st1" d="M1200,415.8c-29.1-75.7-68.3-117.6-68.3-117.6c48.6,68.5,63.7,163.9,68.3,217V415.8z"/>
	<path class="st1" d="M1200,232.6c-34.4-89-71.1-139-71.1-139c39.8,73.7,60.7,159.1,71.1,238.9V232.6z"/>
	<path class="st2" d="M1200,302c-1.3,1.3-2.2,2.1-2.2,2.1s0.9-1.7,2.2-3.9v-10.2c-4.4-1.6-10.4-4.8-13.3-5.8
		c-4.5-1.7-9.5,8.6-9.5,8.6l-2.9-1.4c0,0,1-3.4,5.7-10.5c-4.8,3.9-17.7-0.3-27.3,3c-9.6,3.3-23.6,16.1-23.6,16.1
		c8.5-0.1,39.7,22.8,39.7,22.8s-0.3-7-2.5-10.5c5,2.9,4.3,9.6,4.3,9.6l2.3,1.5l11.5,4.1l5.2-9.6l1.6,1.1l-3.4,8.8
		c0,0,4.5,1.3,8.6,3.2c1.7,0.8,2.7,1.8,3.6,2.8V302z"/>
	<path class="st0" d="M1200,309.2c-0.8-0.3-1.5-0.7-2.3-1c-38-16.1-61.9-8.6-61.9-8.6c8.5,2.4,8.7-8.5,59.4,9.6
		c1.7,0.6,3.3,1.2,4.8,1.8V309.2z"/>
	<path class="st2" d="M1200,209.2c-23.1-0.1-45.8,12.9-57.7,41.9c-16.9,41.2-10.5,49.1-10.5,49.1s19.4-25.6,32.3-29.3
		c2.1-3.9,2.7-7.6,2.7-7.6s-1.2-0.3-2.6-1c-1.4-0.7-12.8-12.1-11.6-15c3.7,3.2,13.3,16,18.2,15.4c-1.1-2-11.9-8.6-12.7-14.2
		c4.4,1.3,10.3,7.9,15.5,11.7c-1.2-2.9-3.8-11.6-8.7-14.2c1.4-0.4,7.6-1.1,13.9,11.4c2.4-4.6,11.3-18.4,21.3-16.4V209.2z"/>
	<path class="st0" d="M1200,209.1c-53.6-3.4-67.9,67.6-69.4,85.7c3.8-0.5,12.7-81.4,66.8-82.9c0.9,0,1.7,0,2.6,0V209.1z"/>
	<g>
		<path class="st2" d="M1200,103.8c-7.6-4.4-15.6-12.1-15.6-12.1l-44.4,8.5c-1.3,9.4,11.8,37.6,21.6,40.4
			c12.1,4.2,24.8,21.4,24.8,21.4s5.8-1.2,13.6-6V103.8z"/>
		<path class="st2" d="M1200,156.3c-6.4,8.4-7.1,17.9-7.1,17.9s2.6-2.3,7.1-4.9V156.3z"/>
		<path class="st2" d="M1200,178.2c-0.2,0.6-0.4,1.2-0.6,1.8c0.2,0.1,0.4,0.1,0.6,0.2V178.2z"/>
	</g>
	<g>
		<path class="st2" d="M1146.4,99.5c0,0-17.3,55.5-14,80.1c-10.7-4-24.9-5.6-34-2.6c14.1,4.9,31.7,13.3,31.1,18.4
			c-15.6-7-32.4-13.5-36.7-12.7c10.5,4.6,30.1,25.5,34,26.8c-7.6,5.1-21.6,15.7-27.3,41c-6.2-4.5-1.7,4.8-1.7,4.8
			s-15.4-12.7-24.7-15.6c-9.3-2.9-12.7,2.7-12.7,2.7s31.5,17.2,28.7,26.4c-2.7,4.8-20.5-3.4-28-6c8.8,8.4,19.1,20,17.1,26
			c-10.2-5.5-16-15.3-27.5-13.9c11.6,4.7,29.7,19.3,26.2,28.2c-7.7,3.1-43.2,23.1-51.9,37.8c-7.3-8.6-37.2-74-18.3-110.8
			c4.6-12.2,5.8-8.4,5.8-8.4l13-0.5l-11.7-6.4l-5.1-8.5c0,0,22.4,4.2,25.3,4.4c-3-3.4-12.5-11.2-10.9-16.3c1-0.7,4.7-0.4,4.7-0.4
			l3.3-8.1c0,0-1.1-5.3,1.4-12.6c2.5-7.4,15.3,0.4,15.3,0.4l2.2-4.1c0,0-12.1-6.5-10.1-11.6c2.6,0.4,12.4,3.4,12.4,3.4l1-2.3
			l-10.1-12.1C1043,147.2,1092.5,91.7,1146.4,99.5z"/>
		<path class="st2" d="M908.1,208.5c0,0,12.9-34.3,25.3-43.1c-4.3-3.5-2.8-7-2.8-7l12.5,4.3c0,0,10.3-7.5,14.3-14.2
			c-1.3-10.5-6.3-35.9-6.3-35.9l19.3,30.3c0,0,23.7-16,36.3-11.2c-5.9-11.6-7.3-37.8-7.3-37.8l12.5,37.1c0,0,22.8-50.1,27.5-47.9
			c4.8,2.1,6,36.8,6,36.8l1.8-25.6l7.7,20.3c0,0,43.6-21.1,84.7-17.3c0,0-19.9-17.3-44-25.6c-24.1-8.3-144-39.1-183.5,75.7
			c-17.5,57.4-6,60.4-6,60.4"/>
		<path class="st0" d="M1137.8,102.5c0,0-38.4,3.4-84.8,99.7c-46.4,96.3-27.7,111.7-28.3,130.4c5.4-23.1-12.7-46.9,38.3-132.1
			C1114,115.3,1125.4,111.5,1137.8,102.5z"/>
		<path class="st0" d="M1126.5,92.7c0,0-25.3-23.2-78.3-27c-53-3.8-106.7,17.3-129.7,79.8c-23,62.6-11.5,61.6-11.5,61.6
			s4.6-77.7,46.7-110.5C995.7,63.8,1048.9,55.5,1126.5,92.7z"/>
	</g>
	<path class="st0" d="M1200,126.8c-25.5-15.1-50.5-23.2-50.5-23.2c11.6,4.4,17.1,9.2,50.5,34.1V126.8z"/>
	<path class="st0" d="M1021.7-1h-22.1c33.1,11.8,71.2,34.7,125.3,84.4C1125,83.4,1083.6,25.6,1021.7-1z"/>
	<path class="st0" d="M1138.8-1c3.8,42.6,2.5,79.1,4.7,93.3c2.4-35.6,2.2-66.5,0.1-93.3H1138.8z"/>
</g>
<path class="st2" d="M1200,80.1v-4.2l-2.2-3.8c0,0,0.8,0.5,2.2,1.4V29.8c-37.8,34.6-61.7,71.8-60,70.5
	c12.7-10.2,54.8-14.7,55.8-14.3c1,0.3-3.1-14.5-3.1-14.5L1200,80.1z"/>
</svg>
