<?xml version="1.0" encoding="utf-8"?>
<!-- Generator: Adobe Illustrator 16.0.0, SVG Export Plug-In . SVG Version: 6.00 Build 0)  -->
<!DOCTYPE svg PUBLIC "-//W3C//DTD SVG 1.1//EN" "http://www.w3.org/Graphics/SVG/1.1/DTD/svg11.dtd" [
	<!ENTITY ns_flows "http://ns.adobe.com/Flows/1.0/">
	<!ENTITY ns_extend "http://ns.adobe.com/Extensibility/1.0/">
	<!ENTITY ns_ai "http://ns.adobe.com/AdobeIllustrator/10.0/">
	<!ENTITY ns_graphs "http://ns.adobe.com/Graphs/1.0/">
]>
<svg version="1.1" id="sky" xmlns:x="&ns_extend;" xmlns:i="&ns_ai;" xmlns:graph="&ns_graphs;"
	 xmlns="http://www.w3.org/2000/svg" xmlns:xlink="http://www.w3.org/1999/xlink" xmlns:a="http://ns.adobe.com/AdobeSVGViewerExtensions/3.0/"
	 x="0px" y="0px" width="1200px" height="800px" viewBox="0 0 1200 800" style="enable-background:new 0 0 1200 800;"
	 xml:space="preserve">
<style type="text/css">
<![CDATA[
	.st0{fill:#FFFFFF;}
	.st1{fill:#A5DBDE;}
]]>
</style>
<path class="st1" d="M1121.2,99.9c-4,0-7.9,0.4-11.5,1.1c-9.6-6.3-23.9-10.3-39.8-10.3c-11.9,0-22.9,2.2-31.7,6
	c-11.7-8.3-29.8-13.6-50.2-13.6c-19.2,0-36.4,4.7-48.1,12.2c-8.5-3.4-19-5.4-30.3-5.4c-16.5,0-31.3,4.3-40.9,11
	c-5.3-1.6-11.3-2.6-17.8-2.6c-20.2,0-36.6,9.2-36.6,20.6s16.4,20.6,36.6,20.6c6.1,0,11.9-0.9,17-2.4c9.6,7,24.6,11.6,41.6,11.6
	c11.5,0,22.2-2.1,30.8-5.6C952,150.4,969,155,987.9,155c19.3,0,36.5-4.8,48.3-12.4c9.1,4.3,20.8,6.9,33.6,6.9
	c16.2,0,30.7-4.1,40.3-10.6c3.5,0.6,7.2,1,11,1c19.6,0,35.5-8.9,35.5-20C1156.8,108.8,1140.9,99.9,1121.2,99.9z"/>
<path class="st0" d="M1110,91.8c-3.2,0-6.2,0.3-9,0.8c-6.5-8.7-21.8-14.8-39.7-14.8c-0.9,0-1.8,0-2.7,0c0.1-0.6,0.1-1.2,0.1-1.8
	c0-14.8-21.4-26.9-47.9-26.9c-17.3,0-32.4,5.1-40.8,12.9c-5.8-1.2-12.1-1.8-18.7-1.8c-26.3,0-48.3,10.4-53.7,24.2
	c-9.4,1.9-17.2,5.6-21.9,10.5c-2-0.2-4.2-0.4-6.3-0.4c-16.7,0-30.3,7.6-30.3,17s13.6,17,30.3,17c7.2,0,13.9-1.4,19.1-3.8
	c6.5,2.5,14.3,3.9,22.8,3.9c11.7,0,22.2-2.8,29.6-7.2c3.4,0.4,6.9,0.6,10.5,0.6c23.2,0,43-8.1,51.1-19.5c2.7,0.3,5.5,0.4,8.4,0.4
	c2.5,0,5-0.1,7.4-0.3c0.6,13.1,19.6,23.6,43,23.6c10.3,0,19.7-2,27.1-5.4c5.5,3.2,13.2,5.1,21.7,5.1c16.7,0,30.3-7.6,30.3-17
	S1126.7,91.8,1110,91.8z"/>
</svg>
