<?xml version="1.0" encoding="utf-8"?>
<!-- Generator: Adobe Illustrator 16.0.0, SVG Export Plug-In . SVG Version: 6.00 Build 0)  -->
<!DOCTYPE svg PUBLIC "-//W3C//DTD SVG 1.1//EN" "http://www.w3.org/Graphics/SVG/1.1/DTD/svg11.dtd" [
	<!ENTITY ns_flows "http://ns.adobe.com/Flows/1.0/">
	<!ENTITY ns_extend "http://ns.adobe.com/Extensibility/1.0/">
	<!ENTITY ns_ai "http://ns.adobe.com/AdobeIllustrator/10.0/">
	<!ENTITY ns_graphs "http://ns.adobe.com/Graphs/1.0/">
]>
<svg version="1.1" xmlns:x="&ns_extend;" xmlns:i="&ns_ai;" xmlns:graph="&ns_graphs;"
	 xmlns="http://www.w3.org/2000/svg" xmlns:xlink="http://www.w3.org/1999/xlink" xmlns:a="http://ns.adobe.com/AdobeSVGViewerExtensions/3.0/"
	 x="0px" y="0px" width="1200px" height="800px" viewBox="0 0 1200 800" style="enable-background:new 0 0 1200 800;"
	 xml:space="preserve">
<style type="text/css">
<![CDATA[
	.st0{fill:#488427;}
	.st1{opacity:0.3;fill:#488427;adobe-blending-mode:multiply;}
	.st2{fill:#4AAE42;}
	.st3{opacity:0.3;fill:#4AAE42;adobe-blending-mode:multiply;}
	.st4{fill-rule:evenodd;clip-rule:evenodd;fill:#DFF0E0;}
	.st5{adobe-knockout:true;}
	.st6{fill:#7D501B;adobe-knockout:false;adobe-blending-mode:normal;}
	.st7{fill:#51C6DB;}
	.st8{display:inline;fill:#F1D183;}
	.st9{fill:#91581F;adobe-knockout:false;adobe-blending-mode:normal;}
	.st10{opacity:0.3;adobe-knockout:true;adobe-blending-mode:multiply;}
	.st11{fill:#C8E7DF;}
	.st12{fill:#2FA5CC;}
	.st13{display:inline;}
	.st14{fill:#7D501B;adobe-knockout:false;}
	.st15{fill:#0076AD;}
	.st16{fill:#91581F;adobe-knockout:false;}
	.st17{fill-rule:evenodd;clip-rule:evenodd;fill:#FFFCE1;}
	.st18{display:inline;fill:#DDC079;}
	.st19{display:none;}
	.st20{fill:#A5DBDE;}
]]>
</style>
<g id="sky">
	<rect y="0" class="st4" width="1200" height="512.3"/>
	<path class="st17" d="M0,459.5v-41.8c287.5-39.4,451.4-46.8,696.2-22.4c150.3,15,333.7,41.4,503.8,28.3v35.9H0z"/>
	<g class="st19">
		<g class="st13">
			<g class="st5">
				<path class="st16" d="M677.3,403.5c-1.6,0.1-7.7,4.9-6.5,7.8c1.2,2.8,5,3.7,6.9,3.4c1.9-0.4,5.5-3.2,5-5.1
					S680.6,404,677.3,403.5z"/>
				<path class="st16" d="M684.4,407c-1.6,0.1-9.5,5-8.4,7.9c1.1,2.8,5.6,6.9,7.5,6.6c1.9-0.3,7-3.2,6.5-5.1
					C689.4,414.4,687.7,407.6,684.4,407z"/>
				<path class="st16" d="M690.9,415c-1.6,0-11.4,5.1-10.4,8c1,2.9,6.2,10,8,9.7c1.9-0.2,8.5-3.2,8.1-5.1
					C696.2,425.7,694.1,415.8,690.9,415z"/>
				<path class="st16" d="M700.5,425.2c-1.6,0-13.2,5.2-12.3,8.1c0.9,2.9,6.8,13.1,8.6,12.9c1.9-0.2,10-3.3,9.6-5.2
					C706.1,439.1,703.8,426,700.5,425.2z"/>
				<path class="st16" d="M709.6,439.2c-1.6-0.1-15,5.3-14.2,8.3c0.8,2.9,7.3,16.2,9.2,16.1c1.9-0.1,11.4-3.3,11.2-5.2
					C715.4,456.4,712.7,440.2,709.6,439.2z"/>
				<path class="st16" d="M718.9,455.5c-1.6-0.2-16.8,5.4-16.2,8.4c0.7,2.9,7.9,19.3,9.8,19.3c1.9,0,12.9-3.4,12.7-5.3
					C725,475.9,722,456.6,718.9,455.5z"/>
				<path class="st16" d="M729.1,473.4c-1.6-0.2-18.6,5.5-18.1,8.5c0.6,3,8.5,22.5,10.3,22.5c1.9,0,14.4-3.4,14.2-5.3
					C735.4,497.1,732.1,474.6,729.1,473.4z"/>
				<path class="st16" d="M737.1,496.7c-1.6-0.3-20.5,5.6-20,8.6c0.4,3,9,25.6,10.9,25.7c1.9,0.1,15.9-3.4,15.8-5.4
					C743.7,523.7,740.2,498,737.1,496.7z"/>
				<path class="st16" d="M748.2,523.3c-1.6-0.3-22.3,5.7-22,8.7c0.3,3,9.6,28.7,11.5,28.9c1.9,0.2,17.3-3.5,17.3-5.4
					C755.1,553.5,751.2,524.7,748.2,523.3z"/>
				<path class="st16" d="M757.7,551.2c-1.6-0.4-24.1,5.8-23.9,8.9c0.2,3,10.2,31.8,12,32.1c1.9,0.3,18.8-3.5,18.9-5.5
					C764.8,584.7,760.7,552.8,757.7,551.2z"/>
				<path class="st16" d="M769.1,581.6c-1.6-0.5-25.9,5.9-25.8,9c0.1,3.1,10.7,34.9,12.6,35.2c1.9,0.3,20.3-3.6,20.4-5.5
					C776.4,618.4,772,583.3,769.1,581.6z"/>
				<path class="st16" d="M779.3,616.1c-1.6-0.5-27.8,6-27.7,9.1c0,3.1,11.3,38,13.2,38.4c1.9,0.4,21.8-3.6,22-5.6
					C786.9,656.1,782.2,617.9,779.3,616.1z"/>
			</g>
			<g class="st10">
				<path class="st9" d="M672.4,406.9c-1.3,1.4-2.2,3.1-1.6,4.3c1.2,2.8,5,3.7,6.9,3.4c0.4-0.1,0.9-0.3,1.5-0.6
					C677.2,411.5,674.9,409.1,672.4,406.9z"/>
				<path class="st9" d="M677.2,411.7c-1,1.1-1.6,2.3-1.3,3.2c1.1,2.8,5.6,6.9,7.5,6.6c0.2,0,0.6-0.1,0.9-0.3
					C682.2,417.8,679.9,414.7,677.2,411.7z"/>
				<path class="st9" d="M683,419.2c-1.7,1.3-2.9,2.8-2.5,3.9c1,2.9,6.2,10,8,9.7c0.4,0,1.1-0.2,1.8-0.5
					C688.2,427.7,685.8,423.3,683,419.2z"/>
				<path class="st9" d="M689.6,430.8c-1,0.9-1.6,1.8-1.4,2.5c0.8,2.8,6.2,12.1,8.3,12.9C694.3,441,692.1,435.8,689.6,430.8z"/>
				<path class="st9" d="M696.3,445.5c-0.7,0.7-1.1,1.4-1,1.9c0.8,2.9,7.3,16.2,9.2,16.1c0,0,0.1,0,0.1,0
					C701.6,457.8,698.9,451.6,696.3,445.5z"/>
				<path class="st9" d="M714.5,475.1c-2.1-0.6-4.2-1.9-5.8-4.5c-1.8-2.8-3.4-5.7-4.9-8.6c-0.8,0.7-1.2,1.3-1.1,1.8
					c0.7,2.9,7.9,19.3,9.8,19.3c0.9,0,3.7-0.8,6.5-1.7C717.6,479.2,716,477.1,714.5,475.1z"/>
				<path class="st9" d="M716.4,477.7c-3.2,1.5-5.6,3.1-5.4,4.2c0.6,3,8.5,22.5,10.3,22.5c1,0,5-1,8.5-2.2
					C726.8,493.5,721.7,484.9,716.4,477.7z"/>
				<path class="st9" d="M731.9,524.6c2.1-7.8,0.3-16.8-3.3-25.6c-5.6,1.9-11.8,4.6-11.5,6.3c0.4,3,9,25.6,10.9,25.7
					c0.6,0,2.2-0.3,4.2-0.7C731.5,528.6,731.3,526.6,731.9,524.6z"/>
				<path class="st9" d="M743.8,556.2c-3.4-6.3-3.6-13-4.4-19.6c-3.8-1.1-7.2-4.2-7.8-8.3c-3.2,1.4-5.5,2.7-5.4,3.8
					c0.3,3,9.6,28.7,11.5,28.9c0.9,0.1,4.7-0.7,8.6-1.7C745.4,558.5,744.5,557.5,743.8,556.2z"/>
				<path class="st9" d="M750.1,560.9c-2.5-0.4-4.7-1.9-6.3-4.7c-0.2-0.4-0.4-0.8-0.6-1.2c-5.1,1.8-9.5,3.7-9.4,5.1
					c0.2,3,10.2,31.8,12,32.1c0.9,0.1,5.4-0.7,9.8-1.8C753.8,580.8,752.8,570.4,750.1,560.9z"/>
				<path class="st9" d="M765.7,599c-4.3,0-8.7-2.6-9.6-7.1c-0.5-2.2-0.9-4.5-1.3-6.9c-6,1.9-11.6,4.1-11.5,5.6
					c0.1,3.1,10.7,34.9,12.6,35.2c1,0.2,6.7-0.9,11.9-2.2C767.4,615.6,767.4,606.8,765.7,599z"/>
				<path class="st9" d="M776.1,659.2c-0.9-5.4-0.6-12.9-1.1-19.6c-3.3-0.7-6.1-3-6.6-6.7c-0.6-4.5-0.8-9.3-0.9-14.3
					c-7.6,2.1-16,4.9-16,6.7c0,3.1,11.3,38,13.2,38.4c1,0.2,6.6-0.7,11.9-2C776.5,660.8,776.3,660,776.1,659.2z"/>
			</g>
			<path class="st2" d="M676.4,397.9c0,0,34.2-27.2,80.2-28.8l-7.1,9.5c0,0,38.5-2.9,59.9,16.2c0,0-23.9,3.2-28.1,7
				c0,0,22.4,26.7,57.4,30.5c0,0-44.4,5.1-81.9-14.7c0,0,9.7,17.3,20.4,25.7c0,0-74.4-15.9-99.5-41.1c0,0,38.7-6.9,68.9,2.8
				C746.6,405,723.5,387.9,676.4,397.9z"/>
			<path class="st3" d="M790.8,419.8c-12.1-2.4-23.4-7.2-35.3-10.2c-2.1,3.7-6.3,6.3-11,4.8c-11.2-3.5-24-11.5-36.1-9
				c-7.7,1.6-14.9,3.5-22.4,3.7c30.1,21.2,91.2,34.2,91.2,34.2c-10.7-8.4-20.4-25.7-20.4-25.7c37.4,19.8,81.9,14.7,81.9,14.7
				c-12.2-1.3-22.8-5.4-31.5-10.1C801.7,421.6,796.2,420.9,790.8,419.8z"/>
			<path class="st2" d="M674.2,401.6c0,0-30.2-31.6-75.5-39.5l5.7,10.4c0,0-37.7-8.2-61.6,7.8c0,0,23.3,6.5,26.9,10.8
				c0,0-25.9,23.4-61.1,22.3c0,0,43.3,11.1,83.1-3.4c0,0-12,15.8-23.7,22.7c0,0,75.9-5.5,104.2-27c0,0-37.4-12.1-68.6-6.7
				C603.7,399,628.9,385.1,674.2,401.6z"/>
			<path class="st3" d="M568.1,432.8c0,0,73.6-5.4,102.8-26.1c-0.9,0.4-1.8,0.6-2.9,0.7c-22.5,2.5-44.6,7.8-67.3,8.8
				c-7.8,0.4-12.1-9.6-8.2-15.3c-6,2.4-11.9,5-17.7,7.5c-9,3.9-18.5,6.6-28,9c13.7-0.1,29.6-1.8,45-7.4
				C591.8,410.1,579.9,425.9,568.1,432.8z"/>
			<path class="st2" d="M675.6,395.3c0,0,31.4-37.1,78.9-35c0,0-5-7.3-9-7.4c0,0,26.3-22,65.9-11.5c0,0-7.7-18.3-53.9-17.2
				c0,0,2.9-10.4,12.4-14.3c0,0-46.7-3.1-72.2,23.4c0,0-5.3-6.9-2.3-12.4c0,0-37.8,23.8-22.9,75.4c0,0,0-39.4,31.1-53
				C703.5,343.3,682.9,360.1,675.6,395.3z"/>
			<path class="st3" d="M778.3,331.8c-13.6,0.1-26.2,4.2-38.9,8.7c-1.2,0.4-2.3,0.6-3.3,0.6c-23.5,7.9-45.9,20.5-57.4,42.7
				c-1.2,3.6-2.2,7.5-3.1,11.6c0,0,31.4-37.1,78.9-35c0,0-5-7.3-9-7.4c0,0,26.3-22,65.9-11.5c0,0-0.4-1-1.7-2.6
				C799.2,336.9,789,331.8,778.3,331.8z"/>
			<path class="st2" d="M672.6,413.9c0,0-15.4,46.1,11.1,85.6c0,0-8.8-0.5-11-3.8c0,0-5.1,33.8,24.4,62.3c0,0-19.6,2.9-42.7-37.1
				c0,0-7.4,7.9-5.8,18c0,0-26.9-38.3-17.5-73.8c0,0-8.7-0.9-11.8,4.5c0,0,0.7-44.7,52.5-58.8c0,0-33.7,20.5-29.1,54.1
				C642.7,464.9,646.4,438.5,672.6,413.9z"/>
			<path class="st3" d="M672.7,495.7c2.1,3.3,11,3.8,11,3.8c-15.2-22.7-16.6-47.6-15-64.7c-2.7,12.9-4,26-0.1,38.6
				c2.3,7.2-3.9,12.2-9.9,12c-2.7,14-2.7,30.5,1.3,44.4c20.6,30.6,37.1,28.2,37.1,28.2C667.6,529.5,672.7,495.7,672.7,495.7z"/>
		</g>
		<g class="st13">
			<g>
				<g class="st5">
					<path class="st14" d="M927.9,245.8c2.7,0.2,12.6,7.6,10.8,12.2c-1.8,4.6-8,6.3-11,5.7c-3-0.5-9.1-4.8-8.2-7.9
						C920.3,252.8,922.5,246.8,927.9,245.8z"/>
					<path class="st14" d="M916.6,251.8c2.6,0.1,15.6,7.7,13.9,12.3c-1.7,4.6-8.7,11.3-11.8,10.9c-3-0.4-11.4-4.8-10.7-7.9
						C908.8,264.1,911.3,253,916.6,251.8z"/>
					<path class="st14" d="M906.5,265.1c2.6,0,18.5,7.8,17,12.4c-1.5,4.7-9.5,16.4-12.5,16.1c-3-0.3-13.8-4.8-13.2-7.9
						C898.4,282.5,901.3,266.4,906.5,265.1z"/>
					<path class="st14" d="M891.4,281.8c2.6-0.1,21.5,7.8,20.2,12.5c-1.3,4.7-10.3,21.4-13.3,21.2c-3-0.2-16.2-4.8-15.7-7.9
						C883,304.6,886.2,283.3,891.4,281.8z"/>
					<path class="st14" d="M877.5,304.9c2.6-0.2,24.4,7.9,23.3,12.7c-1.1,4.7-11.1,26.5-14.1,26.4c-3-0.1-18.6-4.8-18.2-8
						C868.8,332.9,872.4,306.6,877.5,304.9z"/>
					<path class="st14" d="M863.1,331.5c2.6-0.3,27.4,8,26.4,12.8c-0.9,4.8-11.9,31.5-14.9,31.6c-3,0-21-4.8-20.7-8
						C854.2,364.8,858.2,333.4,863.1,331.5z"/>
					<path class="st14" d="M847.6,360.8c2.6-0.4,30.3,8.1,29.5,12.9c-0.8,4.8-12.6,36.6-15.6,36.7c-3,0.2-23.3-4.8-23.2-8
						C838.4,399.3,842.7,362.9,847.6,360.8z"/>
					<path class="st14" d="M835.6,398.8c2.5-0.5,33.2,8.2,32.7,13c-0.6,4.8-13.4,41.6-16.4,41.9c-3,0.3-25.7-4.8-25.7-8
						C826.2,442.5,830.8,401,835.6,398.8z"/>
					<path class="st14" d="M819,442.2c2.5-0.6,36.2,8.2,35.8,13.1c-0.4,4.9-14.2,46.7-17.2,47.1c-3,0.4-28.1-4.8-28.2-8
						C809.2,491.2,814.2,444.6,819,442.2z"/>
					<path class="st14" d="M804.9,487.6c2.5-0.7,39.1,8.3,38.9,13.2c-0.2,4.9-15,51.7-18,52.2c-3,0.5-30.5-4.8-30.7-8
						C795,541.9,800.2,490.2,804.9,487.6z"/>
					<path class="st14" d="M788,537.1c2.5-0.8,42.1,8.4,42,13.3c0,4.9-15.7,56.8-18.7,57.4c-3,0.6-32.9-4.8-33.2-8
						C777.7,596.7,783.4,539.9,788,537.1z"/>
					<path class="st14" d="M773.1,593.2c2.5-0.9,45,8.5,45.1,13.4c0.1,5-16.5,61.8-19.5,62.5c-3,0.7-35.2-4.8-35.7-8
						C762.5,658,768.5,596.2,773.1,593.2z"/>
				</g>
				<g class="st10">
					<path class="st6" d="M919.7,255.2c0.9-3.2,3.2-8.5,8.2-9.4c0.4,0,1.1,0.3,1.8,0.6c-0.2,1-0.5,1.9-0.8,2.7
						C925.6,251,922.5,253,919.7,255.2z"/>
					<path class="st6" d="M908.1,268.1c-0.1-0.3-0.1-0.7-0.1-1c0.7-3.1,3.3-14.2,8.6-15.3c0.8,0,2.7,0.8,4.8,2
						C916.2,257.7,911.7,262.3,908.1,268.1z"/>
					<path class="st6" d="M904,276.2c-1.8,4.5-2.8,8.8-3.2,13.1c-1.9-1.3-3.3-2.6-3-3.7c0.6-3.1,3.5-19.2,8.7-20.6
						c0.5,0,1.6,0.3,3,0.9C907.4,269,905.5,272.4,904,276.2z"/>
					<path class="st6" d="M900.6,295.1c-0.5,0.4-1,0.7-1.5,1c-7.2,4.4-11.5,9-14,14.6c-1.7-1.1-2.8-2.1-2.7-3.1
						c0.5-3.1,3.7-24.3,8.9-25.8c1.2-0.1,5.6,1.5,10,3.7C900.8,288.7,900.6,291.9,900.6,295.1z"/>
					<path class="st6" d="M881.8,331.5c0,3.5-2.1,6.7-4.8,9.9c-4.5-1.6-8.7-3.7-8.5-5.4c0.4-3.1,3.9-29.4,9-31.1
						c1-0.1,4.9,1.1,9.3,2.9C882.9,314.1,881.9,321.6,881.8,331.5z"/>
					<path class="st6" d="M865.6,354.4c-3,5.4-5.5,10.9-7.6,16.7c-2.4-1.1-4.1-2.2-4-3.2c0.2-3.1,4.2-34.5,9.2-36.4
						c1.5-0.2,10,2.4,17,5.5C876.7,343.2,868.8,348.8,865.6,354.4z"/>
					<path class="st6" d="M854.3,382.6c-2.2,8.3-4,16.7-5.8,25c-5.4-1.6-10.3-3.6-10.2-5.1c0.1-3.1,4.4-39.6,9.3-41.6
						c1.1-0.2,7,1.3,13.2,3.5C858.2,370.2,856,376.3,854.3,382.6z"/>
					<path class="st6" d="M847.3,412.9c-0.9,4.2-0.3,8.3-2.3,12.2c-1.9,3.9-4.7,8.4-5.5,12.7c-0.8,4-0.5,9.2-2.7,12.7
						c-5.7-1.6-10.7-3.5-10.7-5c0-3.1,4.6-44.7,9.5-46.9c1.1-0.2,7.3,1.2,14.1,3.4C848.9,405.7,848.1,409.3,847.3,412.9z"/>
					<path class="st6" d="M836.9,450.7c-2.1,3.3-5.5,6.4-7.1,10c-3,6.8-1.7,12.1-0.3,19.2c1.2,6.2-0.1,2.1-4.7,3.5
						c-2.8,0.9-6,2-7.9,4.3c-2.4,2.9-3.6,5.8-4.2,9c-2-0.8-3.4-1.7-3.4-2.4c-0.1-3.1,4.8-49.7,9.6-52.2c1.3-0.3,10.6,1.8,19.4,4.6
						C838,448.2,837.6,449.6,836.9,450.7z"/>
					<path class="st6" d="M812.6,504.3c0.9,8.1,3.7,13-2.6,19.1c-4.2,4.1-4.8,12.9-3.3,18.3c0.5,1.9-1.2,4.4-3.6,7.1
						c-4.5-1.3-7.8-2.6-7.9-3.7c-0.2-3.1,5.1-54.8,9.8-57.4c0.8-0.2,5.2,0.6,10.7,1.9C812.6,494,812,498.5,812.6,504.3z"/>
					<path class="st6" d="M788,537.1c1.1-0.4,9.5,1.2,18.5,3.6c0.1,0.3,0.1,0.7,0.2,1c1.3,4.5-10.7,12.8-12.6,18.2
						c-1.7,4.8-2.1,9-1.4,13.2c-4.2,1.9-7.9,4.9-8.9,9.7c-1.3,6.9,0.9,13.1,0.5,19.9c0,0.1,0,0.2,0,0.3c-3.6-1.1-6.1-2.2-6.2-3.1
						C777.7,596.7,783.4,539.9,788,537.1z"/>
					<path class="st6" d="M773.1,593.2c0.8-0.3,5.1,0.4,10.8,1.6c0.3,2.6,0.5,5.2,0.4,7.9c-0.5,9-4.6,16.7-3.6,26.1
						c1,9.8,1.2,19.5,5,28.7c3.1,7.7,13.2,6.4,14.1-1.9c0.2-1.7,0.3-3.4,0.4-5.1c0-0.1,0.1-0.1,0.1-0.2c0.7-1.3,1.3-2.6,2-3.9
						c0,0.1,0,0.1,0,0.2c0.3,2.4,1.6,4.3,3.3,5.6c-3.1,9.5-5.9,16.8-7,17.1c-3,0.7-35.2-4.8-35.7-8
						C762.5,658,768.5,596.2,773.1,593.2z"/>
				</g>
			</g>
			<g>
				<path class="st0" d="M929.1,236.8c0,0-56.4-42.3-130.5-42.8l11.9,15c0,0-62.1-3-95.9,28.8c0,0,38.7,4.1,45.6,10.1
					c0,0-34.9,44-91.2,51.7c0,0,71.9,6.2,131.3-27.4c0,0-14.8,28.4-31.7,42.4c0,0,119.3-29,158.5-70.7c0,0-62.6-9.3-111,7.5
					C816.2,251.5,852.6,222.7,929.1,236.8z"/>
				<path class="st1" d="M730,275c16.9-1.6,33.6-4.4,50.5-6.8c4.1-0.6,16.1-2.2,17.8-2.5c0.6-0.1,1.3-0.2,1.9-0.3
					c10.7,10.9,27.4,16.4,42.3,11.7c20.7-6.6,41.4-12.6,62.9-15.8c-49.9,32.1-136.8,53.2-136.8,53.2c16.8-14,31.7-42.4,31.7-42.4
					C740.9,305.8,669,299.6,669,299.6C693.9,296.2,714.7,285.7,730,275z"/>
			</g>
			<g>
				<path class="st0" d="M932.7,242.6c0,0,47.2-52.3,119.8-67.1l-8.8,17c0,0,60.4-14.9,99.6,9.8c0,0-37.2,11.5-42.8,18.6
					c0,0,42.7,36.5,99.4,33.2c0,0-69.3,19.9-134.1-1.7c0,0,20,25,39.2,35.5c0,0-122.6-5.5-169.2-38.9c0,0,59.7-21.2,110.3-13.9
					C1046.3,235.3,1005,214.1,932.7,242.6z"/>
				<path class="st1" d="M1069.1,253.6c3.1-3.2,5.7-6.9,7.6-11.2c8.7,2.7,17.4,5.4,26.2,7.9c17.8,5.1,35.6,9.2,53.4,11.3
					C1131.9,263.7,1100.1,263.2,1069.1,253.6z"/>
				<path class="st1" d="M954.3,252.7c1.7,0.2,2.8,0.3,3.5,0.3c0.4,0.1,0.9,0.1,1.5,0.2c2.8,0.4,5.6,0.9,8.5,1.3
					c7.2,1.2,14.3,2.5,21.4,3.9c12.4,2.4,24.8,5,37.3,7.3c15.4,2.9,30.9-0.9,41.4-10.9c5.5,6.4,21.6,24.6,37.3,33.2
					c0,0-122.6-5.5-169.2-38.9c0,0,0.6-0.2,1.8-0.6C942.9,250.7,948.5,252.1,954.3,252.7z"/>
			</g>
			<g>
				<path class="st0" d="M930.2,232.6c0,0-52.2-58.4-128.7-52.9c0,0,7.8-12,14.1-12.3c0,0-43.3-34.2-106.7-15.5
					c0,0,11.6-29.8,86.1-30.2c0,0-5.2-16.6-20.6-22.5c0,0,75.2-7,117.4,34.5c0,0,8.2-11.4,3.2-20.2c0,0,62,36.6,40.4,120.5
					c0,0-1.8-63.5-52.5-84C882.8,150,916.8,176.2,930.2,232.6z"/>
				<path class="st1" d="M729.8,136.1c1.5-0.2,2.5-0.4,3.2-0.6c0.5,0,1-0.1,1.6-0.1c8.5-0.8,17-1.1,25.5-1
					c8.2,0.1,16.4,0.2,24.6,0.3c5.7,8.1,14,14.2,23.8,16.6c7,1.7,13.9,3.5,20.7,5.9c3,1,5.9,2.1,8.9,3.2c0.2,0.1,1.4,0.7,3.7,1.7
					c11.1,5.4,21.9,11.4,32.1,18.4c3.4,2.3,6.8,4.7,10.1,7.2c1,0.7,1.7,1.3,2.3,1.7c3.9,3.2,7.8,6.4,11.7,9.8
					c9.7,8.6,19,17.5,28.2,26.6c1,1,2.1,2,3.2,2.9c0.3,1.3,0.7,2.6,1,3.9c0,0-52.2-58.4-128.7-52.9c0,0,7.8-12,14.1-12.3
					c0,0-43.3-34.2-106.7-15.5c0,0,2.8-7.2,14.5-14.5C725.5,136.9,727.7,136.5,729.8,136.1z"/>
			</g>
			<g>
				<path class="st0" d="M935.8,262.5c0,0,26.9,73.6-14,138.5c0,0,14.2-1.2,17.5-6.7c0,0,9.8,54.3-36.6,101.5
					c0,0,31.8,3.8,67.2-61.7c0,0,12.2,12.4,10.2,28.8c0,0,41.6-63,24.9-119.8c0,0,13.9-1.8,19.3,6.7c0,0-3.1-72-87.3-92.4
					c0,0,55.2,31.5,49.4,85.9C986.4,343.2,979.3,300.9,935.8,262.5z"/>
				<path class="st1" d="M952.3,290.9c0.6,1,1.3,2.6,1.8,3.7c1.1,3.5,2.1,7.1,2.8,10.7c0.3,1.4,0.7,5.1,0.9,6
					c0.1,1.3,0.2,2.5,0.3,3.8c0.3,5.2,0.5,10.4,0.5,15.7c-0.1,9.6-0.6,19.1-1.6,28.6c-0.3,1.8-1.5,9.7-1.9,11.9
					c-0.7,3.6-1.5,7.1-2.4,10.7c-4,15.4,0.4,28.7,8.9,38.3c-2.1,4.4-4.3,8.8-6.7,13.1c-9,16.1-17.1,32.6-26,48.7
					c-1.1,2-2.2,4-3.3,5.9c-13.8,8.9-22.8,7.8-22.8,7.8c46.4-47.2,36.6-101.5,36.6-101.5c-3.3,5.4-17.5,6.7-17.5,6.7
					c40.9-64.9,14-138.5,14-138.5c2.1,1.9,4.1,3.8,6.1,5.7C943.2,276.3,946.8,284.2,952.3,290.9z"/>
			</g>
		</g>
		<path class="st18" d="M770.4,671.1c31.5-74.4,90.4-8.8,90.4-8.8L770.4,671.1z"/>
		<path class="st8" d="M708.9,661c80.6-58.6,127.2,23.5,127.2,23.5L708.9,661z"/>
	</g>
	<path class="st11" d="M0,283.9c0,0,578.5-62.9,877.5-33.9c178.9,17.4,322.5-4.7,322.5-4.7V0H0V283.9z"/>
</g>
<g id="sea_2">
	<path class="st20" d="M1195.1,441.7c-7.5,7.2-20,12-34.3,12c-14.2,0-26.8-4.7-34.3-12c-7.5,7.2-20,12-34.3,12
		c-14.2,0-26.8-4.7-34.3-12c-7.5,7.2-20,12-34.3,12c-14.2,0-26.8-4.7-34.3-12c-7.5,7.2-20,12-34.3,12s-26.8-4.7-34.3-12
		c-7.5,7.2-20,12-34.3,12c-14.2,0-26.8-4.7-34.3-12c-7.5,7.2-20,12-34.3,12c-14.2,0-26.8-4.7-34.3-12c-7.5,7.2-20,12-34.3,12
		c-14.2,0-26.8-4.7-34.3-12c-7.5,7.2-20,12-34.3,12c-14.2,0-26.8-4.7-34.3-12c-7.5,7.2-20,12-34.3,12c-14.2,0-26.8-4.7-34.3-12
		c-7.5,7.2-20,12-34.3,12c-14.2,0-26.8-4.7-34.3-12c-7.5,7.2-20,12-34.3,12c-14.2,0-26.8-4.7-34.3-12c-7.5,7.2-20,12-34.3,12
		c-14.2,0-26.8-4.7-34.3-12c-7.5,7.2-20,12-34.3,12c-14.2,0-26.8-4.7-34.3-12c-7.5,7.2-20,12-34.3,12s-26.8-4.7-34.3-12
		c-7.5,7.2-20,12-34.3,12c-14.2,0-26.8-4.7-34.3-12c-7.5,7.2-20,12-34.3,12c-14.2,0-26.8-4.7-34.3-12c-7.5,7.2-20,12-34.3,12
		c-14.2,0-26.8-4.7-34.3-12c-6.8,6.6-17.8,11.1-30.4,11.8v84.2c9.9-2.8,18.3-7.4,24.3-13.1c10.1,9.7,26.9,16.1,46,16.1
		c19.1,0,35.9-6.4,46-16.1c10.1,9.7,26.9,16.1,46,16.1c19.1,0,35.9-6.4,46-16.1c10.1,9.7,26.9,16.1,46,16.1c19.1,0,35.9-6.4,46-16.1
		c10.1,9.7,26.9,16.1,46,16.1c19.1,0,35.9-6.4,46-16.1c10.1,9.7,26.9,16.1,46,16.1c19.1,0,35.9-6.4,46-16.1
		c10.1,9.7,26.9,16.1,46,16.1c19.1,0,35.9-6.4,46-16.1c10.1,9.7,26.9,16.1,46,16.1c19.1,0,35.9-6.4,46-16.1
		c10.1,9.7,26.9,16.1,46,16.1c19.1,0,35.9-6.4,46-16.1c10.1,9.7,26.9,16.1,46,16.1s35.9-6.4,46-16.1c10.1,9.7,26.9,16.1,46,16.1
		c19.1,0,35.9-6.4,46-16.1c10.1,9.7,26.9,16.1,46,16.1c19.1,0,35.9-6.4,46-16.1c10.1,9.7,26.9,16.1,46,16.1c19.1,0,35.9-6.4,46-16.1
		c10.1,9.7,26.9,16.1,46,16.1c9.4,0,18.2-1.5,26-4.3v-90.8C1198.2,444.4,1196.6,443.1,1195.1,441.7z"/>
	<path class="st7" d="M0,800V537.7c9.9-2.8,18.3-7.4,24.3-13.1c10.1,9.7,26.9,16.1,46,16.1c19.1,0,35.9-6.4,46-16.1
		c10.1,9.7,26.9,16.1,46,16.1c19.1,0,35.9-6.4,46-16.1c10.1,9.7,26.9,16.1,46,16.1c19.1,0,35.9-6.4,46-16.1
		c10.1,9.7,26.9,16.1,46,16.1c19.1,0,35.9-6.4,46-16.1c10.1,9.7,26.9,16.1,46,16.1c19.1,0,35.9-6.4,46-16.1
		c10.1,9.7,26.9,16.1,46,16.1c19.1,0,35.9-6.4,46-16.1c10.1,9.7,26.9,16.1,46,16.1c19.1,0,35.9-6.4,46-16.1
		c10.1,9.7,26.9,16.1,46,16.1c19.1,0,35.9-6.4,46-16.1c10.1,9.7,26.9,16.1,46,16.1s35.9-6.4,46-16.1c10.1,9.7,26.9,16.1,46,16.1
		c19.1,0,35.9-6.4,46-16.1c10.1,9.7,26.9,16.1,46,16.1c19.1,0,35.9-6.4,46-16.1c10.1,9.7,26.9,16.1,46,16.1c19.1,0,35.9-6.4,46-16.1
		c10.1,9.7,26.9,16.1,46,16.1c9.4,0,18.2-1.5,26-4.3V800H0z"/>
</g>
<g id="sea_top">
	<path class="st12" d="M1131.5,603.7c-13.3,16.8-35.6,27.8-60.9,27.8c-25.3,0-47.6-11-60.9-27.8c-13.3,16.8-35.6,27.8-60.9,27.8
		c-25.3,0-47.6-11-60.9-27.8c-13.3,16.8-35.6,27.8-60.9,27.8c-25.3,0-47.6-11-60.9-27.8c-13.3,16.8-35.6,27.8-60.9,27.8
		c-25.3,0-47.6-11-60.9-27.8c-13.3,16.8-35.6,27.8-60.9,27.8c-25.3,0-47.6-11-60.9-27.8c-13.3,16.8-35.6,27.8-60.9,27.8
		c-25.3,0-47.6-11-60.9-27.8c-13.3,16.8-35.6,27.8-60.9,27.8c-25.3,0-47.6-11-60.9-27.8c-13.3,16.8-35.6,27.8-60.9,27.8
		c-25.3,0-47.6-11-60.9-27.8c-13.3,16.8-35.6,27.8-60.9,27.8c-25.3,0-47.6-11-60.9-27.8c-8.5,10.6-20.5,18.9-34.6,23.6V800h1200
		V631.1c-2.5,0.2-5,0.4-7.6,0.4C1167.1,631.4,1144.8,620.4,1131.5,603.7z"/>
	<path class="st15" d="M1131.5,707.2c-13.3,16.8-35.6,27.8-60.9,27.8c-25.3,0-47.6-11-60.9-27.8c-13.3,16.8-35.6,27.8-60.9,27.8
		c-25.3,0-47.6-11-60.9-27.8c-13.3,16.8-35.6,27.8-60.9,27.8c-25.3,0-47.6-11-60.9-27.8c-13.3,16.8-35.6,27.8-60.9,27.8
		c-25.3,0-47.6-11-60.9-27.8c-13.3,16.8-35.6,27.8-60.9,27.8c-25.3,0-47.6-11-60.9-27.8c-13.3,16.8-35.6,27.8-60.9,27.8
		c-25.3,0-47.6-11-60.9-27.8c-13.3,16.8-35.6,27.8-60.9,27.8c-25.3,0-47.6-11-60.9-27.8c-13.3,16.8-35.6,27.8-60.9,27.8
		c-25.3,0-47.6-11-60.9-27.8c-13.3,16.8-35.6,27.8-60.9,27.8c-25.3,0-47.6-11-60.9-27.8c-8.5,10.6-20.5,18.9-34.6,23.6V800h1200
		v-65.4c-2.5,0.2-5,0.4-7.6,0.4C1167.1,734.9,1144.8,723.9,1131.5,707.2z"/>
</g>
</svg>
