<?xml version="1.0" encoding="utf-8"?>
<!-- Generator: Adobe Illustrator 16.0.0, SVG Export Plug-In . SVG Version: 6.00 Build 0)  -->
<!DOCTYPE svg PUBLIC "-//W3C//DTD SVG 1.1//EN" "http://www.w3.org/Graphics/SVG/1.1/DTD/svg11.dtd" [
	<!ENTITY ns_flows "http://ns.adobe.com/Flows/1.0/">
	<!ENTITY ns_extend "http://ns.adobe.com/Extensibility/1.0/">
	<!ENTITY ns_ai "http://ns.adobe.com/AdobeIllustrator/10.0/">
	<!ENTITY ns_graphs "http://ns.adobe.com/Graphs/1.0/">
]>
<svg version="1.1" xmlns:x="&ns_extend;" xmlns:i="&ns_ai;" xmlns:graph="&ns_graphs;"
	 xmlns="http://www.w3.org/2000/svg" xmlns:xlink="http://www.w3.org/1999/xlink" xmlns:a="http://ns.adobe.com/AdobeSVGViewerExtensions/3.0/"
	 x="0px" y="0px" width="1200px" height="800px" viewBox="0 0 1200 800" style="enable-background:new 0 0 1200 800;"
	 xml:space="preserve">
<style type="text/css">
<![CDATA[
	.st0{display:inline;opacity:0.3;fill:#FFD261;adobe-blending-mode:multiply;}
	.st1{fill:#488427;}
	.st2{opacity:0.3;fill:#488427;adobe-blending-mode:multiply;}
	.st3{fill:#E0E0E0;}
	.st4{fill:url(#SVGID_2_);stroke:#00418E;stroke-width:2;stroke-miterlimit:10;}
	.st5{display:inline;fill:#9D6F37;stroke:#9D6F37;stroke-miterlimit:10;}
	.st6{display:inline;fill:none;stroke:#D39613;stroke-width:2;stroke-linecap:round;stroke-linejoin:round;stroke-miterlimit:10;}
	.st7{fill:#4AAE42;}
	.st8{fill-rule:evenodd;clip-rule:evenodd;fill:#A5DBDE;}
	.st9{fill:none;stroke:#00418E;stroke-width:3;stroke-miterlimit:10;}
	.st10{fill-rule:evenodd;clip-rule:evenodd;fill:#DAEEFB;}
	.st11{fill:#4C3511;}
	.st12{opacity:0.3;fill:#4AAE42;adobe-blending-mode:multiply;}
	.st13{fill-rule:evenodd;clip-rule:evenodd;fill:#DFF0E0;}
	.st14{adobe-knockout:true;}
	.st15{fill:#1A1A1A;}
	.st16{fill:#B58F6F;}
	.st17{fill:#7D501B;adobe-knockout:false;adobe-blending-mode:normal;}
	.st18{fill:#EC2024;}
	.st19{fill:#ED2224;}
	.st20{fill:#51C6DB;}
	.st21{display:inline;fill:#F1D183;}
	.st22{fill:#543D18;}
	.st23{fill:#BBD0DB;}
	.st24{fill:#BF2525;}
	.st25{fill:#91581F;adobe-knockout:false;adobe-blending-mode:normal;}
	.st26{opacity:0.3;adobe-knockout:true;adobe-blending-mode:multiply;}
	.st27{fill:#F8B375;}
	.st28{display:inline;fill:#614200;}
	.st29{fill:#C1282D;}
	.st30{display:inline;fill:#FF8C21;}
	.st31{display:inline;fill:#FFCA72;}
	.st32{display:inline;fill:#FFD261;}
	.st33{fill:url(#SVGID_1_);}
	.st34{fill:#C8E7DF;}
	.st35{fill:#FCC698;}
	.st36{display:inline;fill:#9D6F37;}
	.st37{fill:#2FA5CC;}
	.st38{fill:#FEE232;}
	.st39{fill:#FFCA72;}
	.st40{fill:#FFCF01;}
	.st41{fill:#FFE400;}
	.st42{fill:#FFFFFF;}
	.st43{display:inline;fill:#CFA65F;}
	.st44{fill-rule:evenodd;clip-rule:evenodd;fill:#F5DA9A;}
	.st45{display:inline;}
	.st46{fill-rule:evenodd;clip-rule:evenodd;fill:#F8D992;}
	.st47{fill:#CF3530;}
	.st48{fill:#7D501B;adobe-knockout:false;}
	.st49{fill:#FDFEFF;stroke:#DFD7E1;stroke-width:2;stroke-miterlimit:10;}
	.st50{fill:#6A4E26;}
	.st51{fill:#372500;}
	.st52{fill:#39B3AB;}
	.st53{fill:#6DCEF5;}
	.st54{fill:#00418E;}
	.st55{fill:#0076AD;}
	.st56{fill:#00BFF2;}
	.st57{fill:#91581F;adobe-knockout:false;}
	.st58{fill-rule:evenodd;clip-rule:evenodd;fill:#FFFCE1;}
	.st59{fill-rule:evenodd;clip-rule:evenodd;fill:#FFFFFF;}
	.st60{fill:url(#SVGID_3_);stroke:#00418E;stroke-width:2;stroke-miterlimit:10;}
	.st61{display:inline;fill:#DDC079;}
	.st62{display:none;}
	.st63{fill:#A17540;}
	.st64{fill:#A36629;}
	.st65{fill:#A5DBDE;}
	.st66{fill:#412312;}
	.st67{fill:#C06915;stroke:#7E380E;stroke-miterlimit:10;}
	.st68{fill:#44C7F4;}
	.st69{fill:none;stroke:#F05123;stroke-width:3;stroke-miterlimit:10;}
]]>
</style>
<g id="sea" class="st62">
	<g class="st45">
		<path class="st53" d="M1366.2,907.1V421.2c0,0-73.3,58.9-122.8-16.5c0,0-84,88.4-165.9,15.1c0,0-75.4,99.1-163.8,15.1
			c0,0-74.7,91.2-142.2-18c0,0-70.4,87.6-132.2,14.4c0,0-94.8,81.9-145.1-17.2c0,0-58.9,81.9-127.9,7.2c0,0-48.8,69-117.8-2.9
			c0,0-47.4,89.1-139.4-2.9c0,0-57.5,74.7-119.2,0c0,0-44.5,63.2-109.2-7.2v503.1L1366.2,907.1z"/>
		<path class="st68" d="M-119.3,908.4v-342c0,0,73.3,41.5,122.8-11.6c0,0,84,62.2,165.9,10.6c0,0,75.4,69.8,163.8,10.6
			c0,0,74.7,64.2,142.2-12.6c0,0,70.4,61.7,132.2,10.1c0,0,94.8,57.6,145.1-12.1c0,0,58.9,57.6,127.9,5.1c0,0,48.8,48.5,117.8-2
			c0,0,47.4,62.7,139.4-2c0,0,57.5,52.6,119.2,0c0,0,44.5,44.5,109.2-5.1v354.2L-119.3,908.4z"/>
		<path class="st56" d="M1366.2,905.3V696c0,0-73.3,41.5-122.8-11.6c0,0-84,62.2-165.9,10.6c0,0-75.4,69.8-163.8,10.6
			c0,0-74.7,64.2-142.2-12.6c0,0-70.4,61.7-132.2,10.1c0,0-94.8,57.6-145.1-12.1c0,0-58.9,57.6-127.9,5.1c0,0-48.8,48.5-117.8-2
			c0,0-47.4,62.7-139.4-2c0,0-57.5,52.6-119.2,0c0,0-44.5,44.5-109.2-5.1v221.4L1366.2,905.3z"/>
	</g>
</g>
<g id="sky">
	<rect y="0" class="st13" width="1200" height="512.3"/>
	<path class="st58" d="M0,459.5v-41.8c287.5-39.4,451.4-46.8,696.2-22.4c150.3,15,333.7,41.4,503.8,28.3v35.9H0z"/>
	<path class="st59" d="M0,498.2c487.3,40.3,882.2-71.6,1200-5.8V800H0V498.2z"/>
	<path class="st46" d="M368.7,599.5c57.7,0,104.8-7.6,104.8-16.8c0-9.3-47.1-16.8-104.8-16.8c-57.7,0-104.8,7.6-104.8,16.8
		C264,592,311,599.5,368.7,599.5z"/>
	<path class="st44" d="M312.1,641.1c14.4,0,26.1-5.9,26.1-13.1c0-7.2-11.7-13.1-26.1-13.1c-14.4,0-26.1,5.9-26.1,13.1
		C286.1,635.2,297.8,641.1,312.1,641.1z"/>
	<g class="st62">
		<g class="st45">
			<g class="st14">
				<path class="st57" d="M677.3,403.5c-1.6,0.1-7.7,4.9-6.5,7.8c1.2,2.8,5,3.7,6.9,3.4c1.9-0.4,5.5-3.2,5-5.1
					S680.6,404,677.3,403.5z"/>
				<path class="st57" d="M684.4,407c-1.6,0.1-9.5,5-8.4,7.9c1.1,2.8,5.6,6.9,7.5,6.6c1.9-0.3,7-3.2,6.5-5.1
					C689.4,414.4,687.7,407.6,684.4,407z"/>
				<path class="st57" d="M690.9,415c-1.6,0-11.4,5.1-10.4,8c1,2.9,6.2,10,8,9.7c1.9-0.2,8.5-3.2,8.1-5.1
					C696.2,425.7,694.1,415.8,690.9,415z"/>
				<path class="st57" d="M700.5,425.2c-1.6,0-13.2,5.2-12.3,8.1c0.9,2.9,6.8,13.1,8.6,12.9c1.9-0.2,10-3.3,9.6-5.2
					C706.1,439.1,703.8,426,700.5,425.2z"/>
				<path class="st57" d="M709.6,439.2c-1.6-0.1-15,5.3-14.2,8.3c0.8,2.9,7.3,16.2,9.2,16.1c1.9-0.1,11.4-3.3,11.2-5.2
					C715.4,456.4,712.7,440.2,709.6,439.2z"/>
				<path class="st57" d="M718.9,455.5c-1.6-0.2-16.8,5.4-16.2,8.4c0.7,2.9,7.9,19.3,9.8,19.3c1.9,0,12.9-3.4,12.7-5.3
					C725,475.9,722,456.6,718.9,455.5z"/>
				<path class="st57" d="M729.1,473.4c-1.6-0.2-18.6,5.5-18.1,8.5c0.6,3,8.5,22.5,10.3,22.5c1.9,0,14.4-3.4,14.2-5.3
					C735.4,497.1,732.1,474.6,729.1,473.4z"/>
				<path class="st57" d="M737.1,496.7c-1.6-0.3-20.5,5.6-20,8.6c0.4,3,9,25.6,10.9,25.7c1.9,0.1,15.9-3.4,15.8-5.4
					C743.7,523.7,740.2,498,737.1,496.7z"/>
				<path class="st57" d="M748.2,523.3c-1.6-0.3-22.3,5.7-22,8.7c0.3,3,9.6,28.7,11.5,28.9c1.9,0.2,17.3-3.5,17.3-5.4
					C755.1,553.5,751.2,524.7,748.2,523.3z"/>
				<path class="st57" d="M757.7,551.2c-1.6-0.4-24.1,5.8-23.9,8.9c0.2,3,10.2,31.8,12,32.1c1.9,0.3,18.8-3.5,18.9-5.5
					C764.8,584.7,760.7,552.8,757.7,551.2z"/>
				<path class="st57" d="M769.1,581.6c-1.6-0.5-25.9,5.9-25.8,9c0.1,3.1,10.7,34.9,12.6,35.2c1.9,0.3,20.3-3.6,20.4-5.5
					C776.4,618.4,772,583.3,769.1,581.6z"/>
				<path class="st57" d="M779.3,616.1c-1.6-0.5-27.8,6-27.7,9.1c0,3.1,11.3,38,13.2,38.4c1.9,0.4,21.8-3.6,22-5.6
					C786.9,656.1,782.2,617.9,779.3,616.1z"/>
			</g>
			<g class="st26">
				<path class="st25" d="M672.4,406.9c-1.3,1.4-2.2,3.1-1.6,4.3c1.2,2.8,5,3.7,6.9,3.4c0.4-0.1,0.9-0.3,1.5-0.6
					C677.2,411.5,674.9,409.1,672.4,406.9z"/>
				<path class="st25" d="M677.2,411.7c-1,1.1-1.6,2.3-1.3,3.2c1.1,2.8,5.6,6.9,7.5,6.6c0.2,0,0.6-0.1,0.9-0.3
					C682.2,417.8,679.9,414.7,677.2,411.7z"/>
				<path class="st25" d="M683,419.2c-1.7,1.3-2.9,2.8-2.5,3.9c1,2.9,6.2,10,8,9.7c0.4,0,1.1-0.2,1.8-0.5
					C688.2,427.7,685.8,423.3,683,419.2z"/>
				<path class="st25" d="M689.6,430.8c-1,0.9-1.6,1.8-1.4,2.5c0.8,2.8,6.2,12.1,8.3,12.9C694.3,441,692.1,435.8,689.6,430.8z"/>
				<path class="st25" d="M696.3,445.5c-0.7,0.7-1.1,1.4-1,1.9c0.8,2.9,7.3,16.2,9.2,16.1c0,0,0.1,0,0.1,0
					C701.6,457.8,698.9,451.6,696.3,445.5z"/>
				<path class="st25" d="M714.5,475.1c-2.1-0.6-4.2-1.9-5.8-4.5c-1.8-2.8-3.4-5.7-4.9-8.6c-0.8,0.7-1.2,1.3-1.1,1.8
					c0.7,2.9,7.9,19.3,9.8,19.3c0.9,0,3.7-0.8,6.5-1.7C717.6,479.2,716,477.1,714.5,475.1z"/>
				<path class="st25" d="M716.4,477.7c-3.2,1.5-5.6,3.1-5.4,4.2c0.6,3,8.5,22.5,10.3,22.5c1,0,5-1,8.5-2.2
					C726.8,493.5,721.7,484.9,716.4,477.7z"/>
				<path class="st25" d="M731.9,524.6c2.1-7.8,0.3-16.8-3.3-25.6c-5.6,1.9-11.8,4.6-11.5,6.3c0.4,3,9,25.6,10.9,25.7
					c0.6,0,2.2-0.3,4.2-0.7C731.5,528.6,731.3,526.6,731.9,524.6z"/>
				<path class="st25" d="M743.8,556.2c-3.4-6.3-3.6-13-4.4-19.6c-3.8-1.1-7.2-4.2-7.8-8.3c-3.2,1.4-5.5,2.7-5.4,3.8
					c0.3,3,9.6,28.7,11.5,28.9c0.9,0.1,4.7-0.7,8.6-1.7C745.4,558.5,744.5,557.5,743.8,556.2z"/>
				<path class="st25" d="M750.1,560.9c-2.5-0.4-4.7-1.9-6.3-4.7c-0.2-0.4-0.4-0.8-0.6-1.2c-5.1,1.8-9.5,3.7-9.4,5.1
					c0.2,3,10.2,31.8,12,32.1c0.9,0.1,5.4-0.7,9.8-1.8C753.8,580.8,752.8,570.4,750.1,560.9z"/>
				<path class="st25" d="M765.7,599c-4.3,0-8.7-2.6-9.6-7.1c-0.5-2.2-0.9-4.5-1.3-6.9c-6,1.9-11.6,4.1-11.5,5.6
					c0.1,3.1,10.7,34.9,12.6,35.2c1,0.2,6.7-0.9,11.9-2.2C767.4,615.6,767.4,606.8,765.7,599z"/>
				<path class="st25" d="M776.1,659.2c-0.9-5.4-0.6-12.9-1.1-19.6c-3.3-0.7-6.1-3-6.6-6.7c-0.6-4.5-0.8-9.3-0.9-14.3
					c-7.6,2.1-16,4.9-16,6.7c0,3.1,11.3,38,13.2,38.4c1,0.2,6.6-0.7,11.9-2C776.5,660.8,776.3,660,776.1,659.2z"/>
			</g>
			<path class="st7" d="M676.4,397.9c0,0,34.2-27.2,80.2-28.8l-7.1,9.5c0,0,38.5-2.9,59.9,16.2c0,0-23.9,3.2-28.1,7
				c0,0,22.4,26.7,57.4,30.5c0,0-44.4,5.1-81.9-14.7c0,0,9.7,17.3,20.4,25.7c0,0-74.4-15.9-99.5-41.1c0,0,38.7-6.9,68.9,2.8
				C746.6,405,723.5,387.9,676.4,397.9z"/>
			<path class="st12" d="M790.8,419.8c-12.1-2.4-23.4-7.2-35.3-10.2c-2.1,3.7-6.3,6.3-11,4.8c-11.2-3.5-24-11.5-36.1-9
				c-7.7,1.6-14.9,3.5-22.4,3.7c30.1,21.2,91.2,34.2,91.2,34.2c-10.7-8.4-20.4-25.7-20.4-25.7c37.4,19.8,81.9,14.7,81.9,14.7
				c-12.2-1.3-22.8-5.4-31.5-10.1C801.7,421.6,796.2,420.9,790.8,419.8z"/>
			<path class="st7" d="M674.2,401.6c0,0-30.2-31.6-75.5-39.5l5.7,10.4c0,0-37.7-8.2-61.6,7.8c0,0,23.3,6.5,26.9,10.8
				c0,0-25.9,23.4-61.1,22.3c0,0,43.3,11.1,83.1-3.4c0,0-12,15.8-23.7,22.7c0,0,75.9-5.5,104.2-27c0,0-37.4-12.1-68.6-6.7
				C603.7,399,628.9,385.1,674.2,401.6z"/>
			<path class="st12" d="M568.1,432.8c0,0,73.6-5.4,102.8-26.1c-0.9,0.4-1.8,0.6-2.9,0.7c-22.5,2.5-44.6,7.8-67.3,8.8
				c-7.8,0.4-12.1-9.6-8.2-15.3c-6,2.4-11.9,5-17.7,7.5c-9,3.9-18.5,6.6-28,9c13.7-0.1,29.6-1.8,45-7.4
				C591.8,410.1,579.9,425.9,568.1,432.8z"/>
			<path class="st7" d="M675.6,395.3c0,0,31.4-37.1,78.9-35c0,0-5-7.3-9-7.4c0,0,26.3-22,65.9-11.5c0,0-7.7-18.3-53.9-17.2
				c0,0,2.9-10.4,12.4-14.3c0,0-46.7-3.1-72.2,23.4c0,0-5.3-6.9-2.3-12.4c0,0-37.8,23.8-22.9,75.4c0,0,0-39.4,31.1-53
				C703.5,343.3,682.9,360.1,675.6,395.3z"/>
			<path class="st12" d="M778.3,331.8c-13.6,0.1-26.2,4.2-38.9,8.7c-1.2,0.4-2.3,0.6-3.3,0.6c-23.5,7.9-45.9,20.5-57.4,42.7
				c-1.2,3.6-2.2,7.5-3.1,11.6c0,0,31.4-37.1,78.9-35c0,0-5-7.3-9-7.4c0,0,26.3-22,65.9-11.5c0,0-0.4-1-1.7-2.6
				C799.2,336.9,789,331.8,778.3,331.8z"/>
			<path class="st7" d="M672.6,413.9c0,0-15.4,46.1,11.1,85.6c0,0-8.8-0.5-11-3.8c0,0-5.1,33.8,24.4,62.3c0,0-19.6,2.9-42.7-37.1
				c0,0-7.4,7.9-5.8,18c0,0-26.9-38.3-17.5-73.8c0,0-8.7-0.9-11.8,4.5c0,0,0.7-44.7,52.5-58.8c0,0-33.7,20.5-29.1,54.1
				C642.7,464.9,646.4,438.5,672.6,413.9z"/>
			<path class="st12" d="M672.7,495.7c2.1,3.3,11,3.8,11,3.8c-15.2-22.7-16.6-47.6-15-64.7c-2.7,12.9-4,26-0.1,38.6
				c2.3,7.2-3.9,12.2-9.9,12c-2.7,14-2.7,30.5,1.3,44.4c20.6,30.6,37.1,28.2,37.1,28.2C667.6,529.5,672.7,495.7,672.7,495.7z"/>
		</g>
		<g class="st45">
			<g>
				<g class="st14">
					<path class="st48" d="M927.9,245.8c2.7,0.2,12.6,7.6,10.8,12.2c-1.8,4.6-8,6.3-11,5.7c-3-0.5-9.1-4.8-8.2-7.9
						C920.3,252.8,922.5,246.8,927.9,245.8z"/>
					<path class="st48" d="M916.6,251.8c2.6,0.1,15.6,7.7,13.9,12.3c-1.7,4.6-8.7,11.3-11.8,10.9c-3-0.4-11.4-4.8-10.7-7.9
						C908.8,264.1,911.3,253,916.6,251.8z"/>
					<path class="st48" d="M906.5,265.1c2.6,0,18.5,7.8,17,12.4c-1.5,4.7-9.5,16.4-12.5,16.1c-3-0.3-13.8-4.8-13.2-7.9
						C898.4,282.5,901.3,266.4,906.5,265.1z"/>
					<path class="st48" d="M891.4,281.8c2.6-0.1,21.5,7.8,20.2,12.5c-1.3,4.7-10.3,21.4-13.3,21.2c-3-0.2-16.2-4.8-15.7-7.9
						C883,304.6,886.2,283.3,891.4,281.8z"/>
					<path class="st48" d="M877.5,304.9c2.6-0.2,24.4,7.9,23.3,12.7c-1.1,4.7-11.1,26.5-14.1,26.4c-3-0.1-18.6-4.8-18.2-8
						C868.8,332.9,872.4,306.6,877.5,304.9z"/>
					<path class="st48" d="M863.1,331.5c2.6-0.3,27.4,8,26.4,12.8c-0.9,4.8-11.9,31.5-14.9,31.6c-3,0-21-4.8-20.7-8
						C854.2,364.8,858.2,333.4,863.1,331.5z"/>
					<path class="st48" d="M847.6,360.8c2.6-0.4,30.3,8.1,29.5,12.9c-0.8,4.8-12.6,36.6-15.6,36.7c-3,0.2-23.3-4.8-23.2-8
						C838.4,399.3,842.7,362.9,847.6,360.8z"/>
					<path class="st48" d="M835.6,398.8c2.5-0.5,33.2,8.2,32.7,13c-0.6,4.8-13.4,41.6-16.4,41.9c-3,0.3-25.7-4.8-25.7-8
						C826.2,442.5,830.8,401,835.6,398.8z"/>
					<path class="st48" d="M819,442.2c2.5-0.6,36.2,8.2,35.8,13.1c-0.4,4.9-14.2,46.7-17.2,47.1c-3,0.4-28.1-4.8-28.2-8
						C809.2,491.2,814.2,444.6,819,442.2z"/>
					<path class="st48" d="M804.9,487.6c2.5-0.7,39.1,8.3,38.9,13.2c-0.2,4.9-15,51.7-18,52.2c-3,0.5-30.5-4.8-30.7-8
						C795,541.9,800.2,490.2,804.9,487.6z"/>
					<path class="st48" d="M788,537.1c2.5-0.8,42.1,8.4,42,13.3c0,4.9-15.7,56.8-18.7,57.4c-3,0.6-32.9-4.8-33.2-8
						C777.7,596.7,783.4,539.9,788,537.1z"/>
					<path class="st48" d="M773.1,593.2c2.5-0.9,45,8.5,45.1,13.4c0.1,5-16.5,61.8-19.5,62.5c-3,0.7-35.2-4.8-35.7-8
						C762.5,658,768.5,596.2,773.1,593.2z"/>
				</g>
				<g class="st26">
					<path class="st17" d="M919.7,255.2c0.9-3.2,3.2-8.5,8.2-9.4c0.4,0,1.1,0.3,1.8,0.6c-0.2,1-0.5,1.9-0.8,2.7
						C925.6,251,922.5,253,919.7,255.2z"/>
					<path class="st17" d="M908.1,268.1c-0.1-0.3-0.1-0.7-0.1-1c0.7-3.1,3.3-14.2,8.6-15.3c0.8,0,2.7,0.8,4.8,2
						C916.2,257.7,911.7,262.3,908.1,268.1z"/>
					<path class="st17" d="M904,276.2c-1.8,4.5-2.8,8.8-3.2,13.1c-1.9-1.3-3.3-2.6-3-3.7c0.6-3.1,3.5-19.2,8.7-20.6
						c0.5,0,1.6,0.3,3,0.9C907.4,269,905.5,272.4,904,276.2z"/>
					<path class="st17" d="M900.6,295.1c-0.5,0.4-1,0.7-1.5,1c-7.2,4.4-11.5,9-14,14.6c-1.7-1.1-2.8-2.1-2.7-3.1
						c0.5-3.1,3.7-24.3,8.9-25.8c1.2-0.1,5.6,1.5,10,3.7C900.8,288.7,900.6,291.9,900.6,295.1z"/>
					<path class="st17" d="M881.8,331.5c0,3.5-2.1,6.7-4.8,9.9c-4.5-1.6-8.7-3.7-8.5-5.4c0.4-3.1,3.9-29.4,9-31.1
						c1-0.1,4.9,1.1,9.3,2.9C882.9,314.1,881.9,321.6,881.8,331.5z"/>
					<path class="st17" d="M865.6,354.4c-3,5.4-5.5,10.9-7.6,16.7c-2.4-1.1-4.1-2.2-4-3.2c0.2-3.1,4.2-34.5,9.2-36.4
						c1.5-0.2,10,2.4,17,5.5C876.7,343.2,868.8,348.8,865.6,354.4z"/>
					<path class="st17" d="M854.3,382.6c-2.2,8.3-4,16.7-5.8,25c-5.4-1.6-10.3-3.6-10.2-5.1c0.1-3.1,4.4-39.6,9.3-41.6
						c1.1-0.2,7,1.3,13.2,3.5C858.2,370.2,856,376.3,854.3,382.6z"/>
					<path class="st17" d="M847.3,412.9c-0.9,4.2-0.3,8.3-2.3,12.2c-1.9,3.9-4.7,8.4-5.5,12.7c-0.8,4-0.5,9.2-2.7,12.7
						c-5.7-1.6-10.7-3.5-10.7-5c0-3.1,4.6-44.7,9.5-46.9c1.1-0.2,7.3,1.2,14.1,3.4C848.9,405.7,848.1,409.3,847.3,412.9z"/>
					<path class="st17" d="M836.9,450.7c-2.1,3.3-5.5,6.4-7.1,10c-3,6.8-1.7,12.1-0.3,19.2c1.2,6.2-0.1,2.1-4.7,3.5
						c-2.8,0.9-6,2-7.9,4.3c-2.4,2.9-3.6,5.8-4.2,9c-2-0.8-3.4-1.7-3.4-2.4c-0.1-3.1,4.8-49.7,9.6-52.2c1.3-0.3,10.6,1.8,19.4,4.6
						C838,448.2,837.6,449.6,836.9,450.7z"/>
					<path class="st17" d="M812.6,504.3c0.9,8.1,3.7,13-2.6,19.1c-4.2,4.1-4.8,12.9-3.3,18.3c0.5,1.9-1.2,4.4-3.6,7.1
						c-4.5-1.3-7.8-2.6-7.9-3.7c-0.2-3.1,5.1-54.8,9.8-57.4c0.8-0.2,5.2,0.6,10.7,1.9C812.6,494,812,498.5,812.6,504.3z"/>
					<path class="st17" d="M788,537.1c1.1-0.4,9.5,1.2,18.5,3.6c0.1,0.3,0.1,0.7,0.2,1c1.3,4.5-10.7,12.8-12.6,18.2
						c-1.7,4.8-2.1,9-1.4,13.2c-4.2,1.9-7.9,4.9-8.9,9.7c-1.3,6.9,0.9,13.1,0.5,19.9c0,0.1,0,0.2,0,0.3c-3.6-1.1-6.1-2.2-6.2-3.1
						C777.7,596.7,783.4,539.9,788,537.1z"/>
					<path class="st17" d="M773.1,593.2c0.8-0.3,5.1,0.4,10.8,1.6c0.3,2.6,0.5,5.2,0.4,7.9c-0.5,9-4.6,16.7-3.6,26.1
						c1,9.8,1.2,19.5,5,28.7c3.1,7.7,13.2,6.4,14.1-1.9c0.2-1.7,0.3-3.4,0.4-5.1c0-0.1,0.1-0.1,0.1-0.2c0.7-1.3,1.3-2.6,2-3.9
						c0,0.1,0,0.1,0,0.2c0.3,2.4,1.6,4.3,3.3,5.6c-3.1,9.5-5.9,16.8-7,17.1c-3,0.7-35.2-4.8-35.7-8
						C762.5,658,768.5,596.2,773.1,593.2z"/>
				</g>
			</g>
			<g>
				<path class="st1" d="M929.1,236.8c0,0-56.4-42.3-130.5-42.8l11.9,15c0,0-62.1-3-95.9,28.8c0,0,38.7,4.1,45.6,10.1
					c0,0-34.9,44-91.2,51.7c0,0,71.9,6.2,131.3-27.4c0,0-14.8,28.4-31.7,42.4c0,0,119.3-29,158.5-70.7c0,0-62.6-9.3-111,7.5
					C816.2,251.5,852.6,222.7,929.1,236.8z"/>
				<path class="st2" d="M730,275c16.9-1.6,33.6-4.4,50.5-6.8c4.1-0.6,16.1-2.2,17.8-2.5c0.6-0.1,1.3-0.2,1.9-0.3
					c10.7,10.9,27.4,16.4,42.3,11.7c20.7-6.6,41.4-12.6,62.9-15.8c-49.9,32.1-136.8,53.2-136.8,53.2c16.8-14,31.7-42.4,31.7-42.4
					C740.9,305.8,669,299.6,669,299.6C693.9,296.2,714.7,285.7,730,275z"/>
			</g>
			<g>
				<path class="st1" d="M932.7,242.6c0,0,47.2-52.3,119.8-67.1l-8.8,17c0,0,60.4-14.9,99.6,9.8c0,0-37.2,11.5-42.8,18.6
					c0,0,42.7,36.5,99.4,33.2c0,0-69.3,19.9-134.1-1.7c0,0,20,25,39.2,35.5c0,0-122.6-5.5-169.2-38.9c0,0,59.7-21.2,110.3-13.9
					C1046.3,235.3,1005,214.1,932.7,242.6z"/>
				<path class="st2" d="M1069.1,253.6c3.1-3.2,5.7-6.9,7.6-11.2c8.7,2.7,17.4,5.4,26.2,7.9c17.8,5.1,35.6,9.2,53.4,11.3
					C1131.9,263.7,1100.1,263.2,1069.1,253.6z"/>
				<path class="st2" d="M954.3,252.7c1.7,0.2,2.8,0.3,3.5,0.3c0.4,0.1,0.9,0.1,1.5,0.2c2.8,0.4,5.6,0.9,8.5,1.3
					c7.2,1.2,14.3,2.5,21.4,3.9c12.4,2.4,24.8,5,37.3,7.3c15.4,2.9,30.9-0.9,41.4-10.9c5.5,6.4,21.6,24.6,37.3,33.2
					c0,0-122.6-5.5-169.2-38.9c0,0,0.6-0.2,1.8-0.6C942.9,250.7,948.5,252.1,954.3,252.7z"/>
			</g>
			<g>
				<path class="st1" d="M930.2,232.6c0,0-52.2-58.4-128.7-52.9c0,0,7.8-12,14.1-12.3c0,0-43.3-34.2-106.7-15.5
					c0,0,11.6-29.8,86.1-30.2c0,0-5.2-16.6-20.6-22.5c0,0,75.2-7,117.4,34.5c0,0,8.2-11.4,3.2-20.2c0,0,62,36.6,40.4,120.5
					c0,0-1.8-63.5-52.5-84C882.8,150,916.8,176.2,930.2,232.6z"/>
				<path class="st2" d="M729.8,136.1c1.5-0.2,2.5-0.4,3.2-0.6c0.5,0,1-0.1,1.6-0.1c8.5-0.8,17-1.1,25.5-1
					c8.2,0.1,16.4,0.2,24.6,0.3c5.7,8.1,14,14.2,23.8,16.6c7,1.7,13.9,3.5,20.7,5.9c3,1,5.9,2.1,8.9,3.2c0.2,0.1,1.4,0.7,3.7,1.7
					c11.1,5.4,21.9,11.4,32.1,18.4c3.4,2.3,6.8,4.7,10.1,7.2c1,0.7,1.7,1.3,2.3,1.7c3.9,3.2,7.8,6.4,11.7,9.8
					c9.7,8.6,19,17.5,28.2,26.6c1,1,2.1,2,3.2,2.9c0.3,1.3,0.7,2.6,1,3.9c0,0-52.2-58.4-128.7-52.9c0,0,7.8-12,14.1-12.3
					c0,0-43.3-34.2-106.7-15.5c0,0,2.8-7.2,14.5-14.5C725.5,136.9,727.7,136.5,729.8,136.1z"/>
			</g>
			<g>
				<path class="st1" d="M935.8,262.5c0,0,26.9,73.6-14,138.5c0,0,14.2-1.2,17.5-6.7c0,0,9.8,54.3-36.6,101.5
					c0,0,31.8,3.8,67.2-61.7c0,0,12.2,12.4,10.2,28.8c0,0,41.6-63,24.9-119.8c0,0,13.9-1.8,19.3,6.7c0,0-3.1-72-87.3-92.4
					c0,0,55.2,31.5,49.4,85.9C986.4,343.2,979.3,300.9,935.8,262.5z"/>
				<path class="st2" d="M952.3,290.9c0.6,1,1.3,2.6,1.8,3.7c1.1,3.5,2.1,7.1,2.8,10.7c0.3,1.4,0.7,5.1,0.9,6
					c0.1,1.3,0.2,2.5,0.3,3.8c0.3,5.2,0.5,10.4,0.5,15.7c-0.1,9.6-0.6,19.1-1.6,28.6c-0.3,1.8-1.5,9.7-1.9,11.9
					c-0.7,3.6-1.5,7.1-2.4,10.7c-4,15.4,0.4,28.7,8.9,38.3c-2.1,4.4-4.3,8.8-6.7,13.1c-9,16.1-17.1,32.6-26,48.7
					c-1.1,2-2.2,4-3.3,5.9c-13.8,8.9-22.8,7.8-22.8,7.8c46.4-47.2,36.6-101.5,36.6-101.5c-3.3,5.4-17.5,6.7-17.5,6.7
					c40.9-64.9,14-138.5,14-138.5c2.1,1.9,4.1,3.8,6.1,5.7C943.2,276.3,946.8,284.2,952.3,290.9z"/>
			</g>
		</g>
		<path class="st61" d="M770.4,671.1c31.5-74.4,90.4-8.8,90.4-8.8L770.4,671.1z"/>
		<path class="st21" d="M708.9,661c80.6-58.6,127.2,23.5,127.2,23.5L708.9,661z"/>
	</g>
	<path class="st34" d="M0,283.9c0,0,578.5-62.9,877.5-33.9c178.9,17.4,322.5-4.7,322.5-4.7V0H0V283.9z"/>
</g>
<g id="sea_2">
	<path class="st65" d="M1195.1,441.7c-7.5,7.2-20,12-34.3,12c-14.2,0-26.8-4.7-34.3-12c-7.5,7.2-20,12-34.3,12
		c-14.2,0-26.8-4.7-34.3-12c-7.5,7.2-20,12-34.3,12c-14.2,0-26.8-4.7-34.3-12c-7.5,7.2-20,12-34.3,12s-26.8-4.7-34.3-12
		c-7.5,7.2-20,12-34.3,12c-14.2,0-26.8-4.7-34.3-12c-7.5,7.2-20,12-34.3,12c-14.2,0-26.8-4.7-34.3-12c-7.5,7.2-20,12-34.3,12
		c-14.2,0-26.8-4.7-34.3-12c-7.5,7.2-20,12-34.3,12c-14.2,0-26.8-4.7-34.3-12c-7.5,7.2-20,12-34.3,12c-14.2,0-26.8-4.7-34.3-12
		c-7.5,7.2-20,12-34.3,12c-14.2,0-26.8-4.7-34.3-12c-7.5,7.2-20,12-34.3,12c-14.2,0-26.8-4.7-34.3-12c-7.5,7.2-20,12-34.3,12
		c-14.2,0-26.8-4.7-34.3-12c-7.5,7.2-20,12-34.3,12c-14.2,0-26.8-4.7-34.3-12c-7.5,7.2-20,12-34.3,12s-26.8-4.7-34.3-12
		c-7.5,7.2-20,12-34.3,12c-14.2,0-26.8-4.7-34.3-12c-7.5,7.2-20,12-34.3,12c-14.2,0-26.8-4.7-34.3-12c-7.5,7.2-20,12-34.3,12
		c-14.2,0-26.8-4.7-34.3-12c-6.8,6.6-17.8,11.1-30.4,11.8v84.2c9.9-2.8,18.3-7.4,24.3-13.1c10.1,9.7,26.9,16.1,46,16.1
		c19.1,0,35.9-6.4,46-16.1c10.1,9.7,26.9,16.1,46,16.1c19.1,0,35.9-6.4,46-16.1c10.1,9.7,26.9,16.1,46,16.1c19.1,0,35.9-6.4,46-16.1
		c10.1,9.7,26.9,16.1,46,16.1c19.1,0,35.9-6.4,46-16.1c10.1,9.7,26.9,16.1,46,16.1c19.1,0,35.9-6.4,46-16.1
		c10.1,9.7,26.9,16.1,46,16.1c19.1,0,35.9-6.4,46-16.1c10.1,9.7,26.9,16.1,46,16.1c19.1,0,35.9-6.4,46-16.1
		c10.1,9.7,26.9,16.1,46,16.1c19.1,0,35.9-6.4,46-16.1c10.1,9.7,26.9,16.1,46,16.1s35.9-6.4,46-16.1c10.1,9.7,26.9,16.1,46,16.1
		c19.1,0,35.9-6.4,46-16.1c10.1,9.7,26.9,16.1,46,16.1c19.1,0,35.9-6.4,46-16.1c10.1,9.7,26.9,16.1,46,16.1c19.1,0,35.9-6.4,46-16.1
		c10.1,9.7,26.9,16.1,46,16.1c9.4,0,18.2-1.5,26-4.3v-90.8C1198.2,444.4,1196.6,443.1,1195.1,441.7z"/>
	<path class="st20" d="M1128,524.6c-10.1,9.7-26.9,16.1-46,16.1c-19.1,0-35.9-6.4-46-16.1c-10.1,9.7-26.9,16.1-46,16.1
		c-19.1,0-35.9-6.4-46-16.1c-10.1,9.7-26.9,16.1-46,16.1c-19.1,0-35.9-6.4-46-16.1c-10.1,9.7-26.9,16.1-46,16.1s-35.9-6.4-46-16.1
		c-10.1,9.7-26.9,16.1-46,16.1c-19.1,0-35.9-6.4-46-16.1c-10.1,9.7-26.9,16.1-46,16.1c-19.1,0-35.9-6.4-46-16.1
		c-10.1,9.7-26.9,16.1-46,16.1c-19.1,0-35.9-6.4-46-16.1c-10.1,9.7-26.9,16.1-46,16.1c-19.1,0-35.9-6.4-46-16.1
		c-10.1,9.7-26.9,16.1-46,16.1c-19.1,0-35.9-6.4-46-16.1c-10.1,9.7-26.9,16.1-46,16.1c-19.1,0-35.9-6.4-46-16.1
		c-10.1,9.7-26.9,16.1-46,16.1c-19.1,0-35.9-6.4-46-16.1c-10.1,9.7-26.9,16.1-46,16.1c-19.1,0-35.9-6.4-46-16.1
		c-6,5.8-14.4,10.4-24.3,13.1v90.5c14.1-3.6,26.2-9.9,34.6-18.1C48,623,70.3,631.4,95.6,631.4c25.3,0,47.6-8.4,60.9-21.3
		c13.3,12.9,35.6,21.3,60.9,21.3c25.3,0,47.6-8.4,60.9-21.3c13.3,12.9,35.6,21.3,60.9,21.3c25.3,0,47.6-8.4,60.9-21.3
		c13.3,12.9,35.6,21.3,60.9,21.3c25.3,0,47.6-8.4,60.9-21.3c13.3,12.9,35.6,21.3,60.9,21.3c25.3,0,47.6-8.4,60.9-21.3
		c13.3,12.9,35.7,21.3,60.9,21.3c25.3,0,47.6-8.4,60.9-21.3c13.3,12.9,35.6,21.3,60.9,21.3c25.3,0,47.6-8.4,60.9-21.3
		c13.3,12.9,35.6,21.3,60.9,21.3c25.3,0,47.6-8.4,60.9-21.3c13.3,12.9,35.6,21.3,60.9,21.3c25.3,0,47.6-8.4,60.9-21.3
		c13.3,12.9,35.6,21.3,60.9,21.3c2.6,0,5.1-0.1,7.6-0.3v-94.8c-7.8,2.7-16.6,4.3-26,4.3C1154.9,540.6,1138.1,534.3,1128,524.6z"/>
	<path class="st52" d="M1131.5,692c-13.3,19.5-35.6,32.3-60.9,32.3c-25.3,0-47.6-12.8-60.9-32.3c-13.3,19.5-35.6,32.3-60.9,32.3
		c-25.3,0-47.6-12.8-60.9-32.3c-13.3,19.5-35.6,32.3-60.9,32.3c-25.3,0-47.6-12.8-60.9-32.3c-13.3,19.5-35.6,32.3-60.9,32.3
		c-25.3,0-47.6-12.8-60.9-32.3c-13.3,19.5-35.6,32.3-60.9,32.3c-25.3,0-47.6-12.8-60.9-32.3c-13.3,19.5-35.6,32.3-60.9,32.3
		c-25.3,0-47.6-12.8-60.9-32.3c-13.3,19.5-35.6,32.3-60.9,32.3c-25.3,0-47.6-12.8-60.9-32.3c-13.3,19.5-35.6,32.3-60.9,32.3
		c-25.3,0-47.6-12.8-60.9-32.3c-13.3,19.5-35.6,32.3-60.9,32.3c-25.3,0-47.6-12.8-60.9-32.3c-8.5,12.3-20.5,22-34.6,27.4V800h1200
		v-76.1c-2.5,0.3-5,0.4-7.6,0.4C1167.1,724.3,1144.8,711.5,1131.5,692z"/>
</g>
<g id="Layer_2">
	<g>
		<ellipse class="st10" cx="958" cy="103.9" rx="64" ry="35.9"/>
		<ellipse class="st10" cx="1022.3" cy="94" rx="52.4" ry="29.4"/>
		<ellipse class="st8" cx="988" cy="119" rx="64" ry="35.9"/>
		<path class="st8" d="M1069.9,90.7c28.9,0,52.4,13.2,52.4,29.4c0,16.2-23.4,29.4-52.4,29.4c-28.9,0-52.4-13.2-52.4-29.4
			C1017.5,103.8,1041,90.7,1069.9,90.7z"/>
		<ellipse class="st8" cx="909.6" cy="119.3" rx="52.4" ry="29.4"/>
		<path class="st8" d="M1121.2,99.9c19.6,0,35.5,8.9,35.5,20c0,11-15.9,20-35.5,20c-19.6,0-35.5-8.9-35.5-20
			C1085.7,108.8,1101.6,99.9,1121.2,99.9z"/>
		<ellipse class="st8" cx="851" cy="118.9" rx="36.6" ry="20.6"/>
		<ellipse class="st59" cx="951.4" cy="91" rx="55" ry="30.9"/>
		<ellipse class="st59" cx="1010.9" cy="76" rx="47.9" ry="26.9"/>
		<ellipse class="st59" cx="1061.3" cy="102" rx="43" ry="24.2"/>
		<ellipse class="st59" cx="911.3" cy="105.8" rx="40.6" ry="22.8"/>
		<ellipse class="st59" cx="869.4" cy="111.5" rx="30.3" ry="17"/>
		<ellipse class="st59" cx="1110" cy="108.9" rx="30.3" ry="17"/>
	</g>
	<g class="st62">
		<path class="st30" d="M375.3,155.5l27.7-7.3l-23.5-16.4l23.5-16.4l-27.7-7.3l16.5-23.4l-28.5,2.6l7.5-27.6l-25.9,12.2l-2.4-28.5
			l-20.2,20.3l-12-26l-12,26L278,43.3l-2.4,28.5l-25.9-12.2l7.5,27.6l-28.5-2.6l16.5,23.4l-27.7,7.3l23.5,16.4l-23.5,16.4l27.7,7.3
			l-16.5,23.4l28.5-2.6l-7.5,27.6l25.9-12.2l2.4,28.5l20.2-20.3l12,26l12-26l20.2,20.3l2.4-28.5l25.9,12.2l-7.5-27.6l28.5,2.6
			L375.3,155.5z"/>
		<circle class="st32" cx="310.2" cy="131.8" r="69.4"/>
		<path class="st0" d="M368.7,94.4c3.1,7.8,4.9,16.3,4.9,25.1c0,37.7-31.4,69.1-69.1,69.1c-25.7,0-48.6-14.7-60.4-36
			c8.8,28.2,35.1,48.6,66.2,48.6c38.3,0,69.4-31.1,69.4-69.4C379.6,118,375.6,105.2,368.7,94.4z"/>
	</g>
</g>
<g id="avatar" class="st62">
	<g id="caucasic" class="st45">
		<g id="body_4_">
			
				<linearGradient id="SVGID_1_" gradientUnits="userSpaceOnUse" x1="138.9385" y1="349.062" x2="138.9385" y2="349.062" gradientTransform="matrix(1 0 0 1 49.8896 37.7188)">
				<stop  offset="0" style="stop-color:#378840"/>
				<stop  offset="1" style="stop-color:#6BBD45"/>
				<a:midPointStop  offset="0" style="stop-color:#378840"/>
				<a:midPointStop  offset="0.5" style="stop-color:#378840"/>
				<a:midPointStop  offset="1" style="stop-color:#6BBD45"/>
			</linearGradient>
			<path class="st33" d="M188.8,386.8"/>
			<path class="st27" d="M216.5,262.3c-8.1-2.6-20.8-15.7-24.2-29.9c-3.4-14.3,8.3,1.2,8.3,1.2l11.9,11.1c0,0,3.2,4.4,3.8,4.4
				c0.3,0,4.1,2.8,7.2,5.1l1.1,3.8c0,0-0.3,2.1-0.4,4.7C222.6,263.3,220.1,263.5,216.5,262.3z"/>
			<path class="st35" d="M280.7,404.1c0-0.1,0-0.1,0-0.2c6-13.2,14.3-31.7,13.7-33c-1-2.2-11.5-33.1-15.5-44s-14.7-39.2-23.2-45.2
				c-7.8-5.4-20.4-4.1-26.4-6.6c-0.6-0.2-1.1-0.5-1.5-0.8c-3.1-2.1-3.6-7.7-3.5-11.7c-1.6,0.6-4.1,0.8-7.8-0.4
				c-7.6-2.4-19.3-14.1-23.5-27.4c13.9,24.5,35.8,24.9,35.8,24.9c21.6-7.1,29.5-32.5,29.3-40.2c-0.2-7.7,0.8-20-0.4-27.9
				c-1.2-7.9-6.9-20.2-6.9-20.2s-18.4-24.8-55.3-12.9c-36.9,12-26.1,56.9-16.7,67.8c0,0,0.8,3.7,10.6,7.3c1.9,5.1,4,12.3,5.1,21.4
				c0.8,6.1-0.3,11-2.4,14.8c-4.5,8.3-13.5,12.1-19,14.3c-8,3.3-13.7,14.3-16.6,21.7c-3,7.4-11.9,22.9-18.1,43.4
				c-6.2,20.5-5.4,28.5-0.9,36.3c3,5.2,18.9,18.9,29.1,27.4c5,4.2,8.7,7.1,8.7,7.1l9.5-11.9c0,0-5.3-4.9-8.9-8.2
				c-0.7-0.6-1.3-1.2-1.8-1.6c-9.5-8.8-20.8-27.3-20.8-27.3c4.8-17.8,26.5-53.2,26.5-53.2c5.1,2.2,21.1,34.2,26,52.8
				c1.1,4.1,1.6,7.6,1.4,10c-0.7,6.2-6.7,14.9-12.5,25.2c-6.2,10.9-12.4,25.1-12.2,44.4c0.3,37.5,23.8,99.3,24.7,105.2
				c0.9,5.9-3.6,15.2-4.5,31.8c-0.9,16.6,2.4,31.5,3.6,48.5c0,0,4.8,31.6,4.1,34.1c-0.8,3.2-10.6,16.9-8.8,22.7
				c1.2,3.8,6.6,4.7,16.6,4.9c0,0,19.6-1.9,15.1-14.5c0,0-0.5-8.2-0.5-9c1.7,0.4,1.5,9.1,3.1,9.3c4.9,0.6,11.1,3.9,19.2,4.3
				c8.2,0.4,17.6-1,15.2-5.7c-2.6-5.2-21.2-11.8-23.2-17c-8.1-13.9-7.3-71.6,10.5-127.2c17.8-55.6,17.4-105.2,9.3-128l-0.6-2.1
				l5.1,13.9C271.3,421.3,277.4,411.5,280.7,404.1z M258.3,372c0-0.4,0-0.8,0-1.3c0.4-8.1,5.6-27.7,5.6-27.7l13.1,29.7
				c0,0-6,17.5-8.4,22.5l0,0c-0.8,2.1-2.8,6.6-3.5,8C259,385.4,258,378.9,258.3,372z"/>
			<path class="st16" d="M230.8,661.6c-2.5-8.1-5.1-44.2-5.1-44.2c2.7-35.7,12.8-84.4,13.4-116.8c0.6-32.4-1.8-52.2-1.8-52.2
				s5.6,28.4,3.6,57.5c-1.5,22.6-11,87.4-12.2,100.8c-1.2,13.4-2.1,44.9,5.9,55.3l-1.1,11.5l-1.5-0.7L230.8,661.6z"/>
			<path class="st27" d="M190.1,212.2c-2.8-11.7-16.1-17.4-15.3-4c0.8,13.5,12.1,17.2,12.1,17.2"/>
			<path class="st64" d="M181.3,207.4c0,0,5.8,2.8,5.7,10.1C186.9,217.5,184.1,209.4,181.3,207.4z"/>
			<path class="st16" d="M218.3,697.7c-10.1-0.2-15.8-1.1-17.1-5.3c-1.3-4.2,3-12,6.2-17.7c1.3-2.3,2.4-4.3,2.6-5.2
				c0.4-1.7-2.2-21.2-4.2-33.9c-0.4-5.9-1.1-11.6-1.7-17.1c-1.2-10.6-2.4-20.6-1.8-31.5c0.5-8.8,1.9-15.5,3.1-20.8
				c1-4.7,1.8-8.2,1.4-10.9c-0.2-1.3-1.6-5.7-3.6-11.8c-6.8-21-20.9-64.6-21.1-93.5c-0.1-8.5,1.2-17.3,3.8-25.6l-10.7-4.1
				c-1.3-1.1-32.7-28-37.8-34.5c-5.6-7.2-5.4-16.1,0.8-36.7c4.4-14.6,10.1-26.4,14.3-35.1c1.7-3.5,3-6.2,3.9-8.4
				c2.7-6.7,8.5-18.5,16.9-22c5.4-2.2,14.4-5.8,18.8-14.1c2.2-4.2,3-9.1,2.3-14.6c-0.9-7.5-2.6-14.6-5-21.1
				c-8.9-3.3-10.5-6.7-10.7-7.4c-6.2-7.4-12-27.5-7.4-43.9c3.4-12,11.8-20.5,24.4-24.6c36.8-11.9,55.6,12.8,55.8,13
				c0.1,0.2,5.8,12.5,7,20.4c0.8,5.3,0.6,12.5,0.5,18.8c-0.1,3.4-0.1,6.5-0.1,9.2c0.2,8.7-8.2,33.6-29.6,40.6
				c-0.6,0.4-3.6,1.6-14.4-3.8l0.4-0.8c10.9,5.5,13.5,3.8,13.5,3.8l0.1-0.1c22.3-7.4,29.2-33.5,29-39.8c-0.1-2.7,0-5.8,0.1-9.2
				c0.1-6.3,0.3-13.5-0.5-18.7c-1.2-7.8-6.8-19.9-6.9-20c-0.1-0.2-18.6-24.3-54.7-12.6c-12.5,4-20.5,12.1-23.8,24
				c-4.5,16.1,1.2,36,7.3,43.1l0.1,0.1v0.1c0,0,0.9,3.5,10.4,6.9l0.2,0.1l0.1,0.2c2.5,6.6,4.2,13.9,5.1,21.5
				c0.7,5.7-0.1,10.8-2.4,15.1c-4.6,8.5-13.7,12.3-19.2,14.5c-8.1,3.3-13.8,14.9-16.4,21.5c-0.9,2.2-2.2,4.9-3.9,8.4
				c-4.1,8.6-9.8,20.4-14.2,34.9c-6.1,20.2-6.4,28.9-1,35.9c5,6.4,36.1,33,37.6,34.4l11.2,4.3l10.6,5.3l1-0.8l-12.7-9.1l7.1,0.6
				l11.7,5.3l0.6-0.9l-10-6.9l-6.8-3.9l7.4-0.4h0.1l13.7,6.6l0.1-1.2l-11.8-10l-6.1-1l6-2.8l13.1,5.3l0.1-1.5l-13.3-7.6l-15.6,7.2
				l-6.5-7.7l-1.7-1.6c-9.5-8.8-20.8-27.3-20.9-27.4L153,371v-0.2c4.7-17.7,26.3-53,26.5-53.3l0.2-0.3l0.4,0.2
				c5.5,2.3,21.4,34.6,26.3,53.1c1.2,4.5,1.6,7.9,1.4,10.1c-0.5,4.7-4.2,10.8-8.4,18l-0.9,1.6l13.5,8.1l-0.2,3.3l-13.9-5.9l-2.9,1.4
				l3.4,0.5l12.3,10.5l-0.2,3l-14.8-7.1l-4.1,0.2l4.2,2.4l10.8,7.4l-1.5,2.3l-12.4-5.6l-3.6-0.3l11,7.9l-2.4,1.9l-10.9-5.4
				c-2.5,8.2-3.8,16.9-3.7,25.3c0.2,28.9,14.3,72.4,21.1,93.3c2,6.3,3.4,10.5,3.6,11.9c0.4,2.9-0.3,6.4-1.4,11.2
				c-1.2,5.3-2.6,11.9-3.1,20.7c-0.6,10.8,0.6,20.8,1.8,31.3c0.6,5.5,1.3,11.2,1.7,17.1c0.5,3.2,4.7,31.8,4.1,34.2
				c-0.3,1-1.3,3-2.7,5.4c-2.9,5.2-7.3,13.2-6.1,17c1.1,3.6,6.5,4.4,16.2,4.6c0.1,0,10.7-1.1,14.3-6.6c1.3-2,1.4-4.5,0.5-7.2v-0.1
				c0-0.3-0.5-8.2-0.5-9.1v-0.5l0.5,0.1c1.1,0.2,1.4,2.1,1.9,5.1c0.2,1.3,0.7,4.2,1.1,4.2c2,0.3,4,0.9,6.4,1.6
				c3.7,1.1,7.8,2.4,12.8,2.6c6.3,0.3,13.3-0.5,14.8-2.9c0.4-0.6,0.4-1.3,0-2.2c-1.2-2.4-6.3-5.3-11.2-8c-5.6-3.2-10.9-6.2-12-9
				c-4.1-7.1-5.9-25.6-4.5-48.1c1.6-25.9,6.9-54.1,15-79.3c12.5-38.9,17.4-80.1,13.2-110.6l-2.8,7l-1.5-4.7l3.7-12.2l-7.7,10.1
				l-1.3-4.3l7.1-11l-9.2,7.8l-1.3-3.6l8.6-10.4l-9.6,7.1l-0.8-3.4l8.3-9.2l0,0c-5.3-15.9-6.2-21.2-6-28l0,0c0-0.4,0-0.8,0-1.3
				c0.4-8.1,5.4-27,5.6-27.8l0.3-1.2l13.8,31l-0.1,0.2c-0.2,0.7-5.9,17.2-8.3,22.3v0.1c-0.1,0.2-0.2,0.4-0.2,0.6l0,0l-0.1,0.1
				c-0.6,1.1-1.5,1.9-2.4,2.6l-9.9,10.8l0.4,1.6l14.4-10.6L258.8,416l0.7,1.9l12.9-10.9l-10.3,15.7l0.7,2.2l9.6-12.8l-5.1,16.8
				l0.7,2.1l6.3-15.8l6.4-11.5c11.5-25.4,13.8-31.8,13.6-32.7c-0.5-1.1-3.6-10.1-7.2-20.4c-3.2-9.1-6.4-18.5-8.3-23.6
				c-9.1-25-17.3-40.9-23-45c-4.7-3.3-11.2-4.1-17-4.7c-3.6-0.4-7-0.8-9.3-1.8c-0.7-0.3-1.2-0.5-1.6-0.8c-3.2-2.2-3.8-7.8-3.7-12.1
				h0.9c-0.1,4.1,0.4,9.3,3.3,11.3c0.3,0.2,0.8,0.5,1.4,0.7c2.3,0.9,5.6,1.3,9.1,1.7c5.9,0.7,12.5,1.5,17.4,4.9
				c7.6,5.3,16.9,27.6,23.4,45.4c1.9,5.1,5.1,14.5,8.3,23.6c3.4,9.9,6.7,19.2,7.2,20.3c0.2,0.5,0.8,1.7-13.7,33.4l-6.4,11.5
				l-3.9,9.8h0.2c4.5,30.7-0.4,72.6-13.1,112.2c-18,56.1-18.3,113.5-10.5,126.8c1,2.6,6.4,5.7,11.6,8.6c5.3,3,10.2,5.8,11.6,8.4
				c0.6,1.1,0.6,2.2,0,3.1c-1.8,2.9-9.3,3.6-15.6,3.3c-5-0.2-9.2-1.5-13-2.7c-2.4-0.7-4.4-1.4-6.3-1.6c-1.1-0.1-1.4-2-1.9-5
				c-0.1-0.9-0.4-2.3-0.6-3.2c0.1,2,0.3,5.3,0.4,7.3c1.1,3,0.9,5.7-0.6,8C229.6,696.5,218.8,697.6,218.3,697.7z M154,370.9
				c1.2,1.8,11.8,18.8,20.7,27l1.8,1.6l6.1,7.2l15-6.9l1.1-1.8c4.2-7,7.8-13.1,8.3-17.6c0.3-2.2-0.2-5.5-1.3-9.8
				c-4.9-18.8-20.2-49-25.4-52.3C177.9,322.1,158.6,354.2,154,370.9z M264.4,344.3c-1.1,4.5-4.9,19.6-5.2,26.4c0,0.4,0,0.8,0,1.2
				l0,0c-0.2,6.6,0.6,11.7,5.7,27c0.3-0.3,0.6-0.5,1-0.8c0.1-0.1,0.2-0.2,0.3-0.3l2.2-2.4l0.2-0.5c2.2-4.6,7.7-20.4,8.3-22.2
				L264.4,344.3z"/>
			<path class="st16" d="M231.2,661.6c-2.5-8.1-5.1-44.2-5.1-44.2c2.7-35.7,12.8-84.4,13.4-116.8c0.6-32.4-1.8-52.2-1.8-52.2
				s5.6,28.4,3.6,57.5c-1.5,22.6-11,87.4-12.2,100.8c-1.2,13.4-2.1,44.9,5.9,55.3l-1.1,11.5l-1.5-0.7L231.2,661.6z"/>
		</g>
		<g id="cara_4_">
			<path class="st15" d="M245.2,198.4c0,0,6.8-6.8,9.5-2.2C254.7,196.1,252.2,187.2,245.2,198.4z"/>
			<path class="st15" d="M225.3,196.4c0,0-11-8.3-22.6-5.4C202.7,191.1,213.1,183.3,225.3,196.4z"/>
			<path class="st64" d="M243.5,221.3c0,0,3.1,2,3.1,4.5s-2.6,4.1-2.6,4.1s4.7-1.7,5.2-4.4C249.9,222.8,246,220,243.5,221.3z"/>
			<path class="st42" d="M238.9,236.3c0,0-3.2,4.6-3.8,8.5c-0.6,3.9-6.4,3.3-6.4,3.3s-3.4-1.1-3.9-1.6s-6.7-9.8-6.8-10.1
				c-0.2-0.9-0.3-1.8-0.3-1.8s2.4,2.5,11,1.6C237.2,235.3,238.5,235.7,238.9,236.3z"/>
			<path class="st29" d="M217.2,234.2c0,0,4.2,11.7,13,12c0,0,2.7,0.6,4.9-1.3c0,0,1.7,0.5,1.3,3.3s-3.9,4.5-8.2,4
				C223.7,251.6,217.1,245.6,217.2,234.2z"/>
			<path class="st29" d="M216.6,233.7c0,0,1.9,2.4,5.3,3.2c3.4,0.8,14.7-1.4,19.2-0.1c0,0,1.9-1.6-8.7-1.2
				C221.7,236,220.1,237.2,216.6,233.7z"/>
			<g>
				<path class="st42" d="M245.2,209.1c0,0-1.2,2-0.9,5c0.4,3.5,4.1,2.9,6.6-0.8c2.4-3.6,3-7.2,0.8-8.5
					C249.4,203.6,246.1,207.2,245.2,209.1z"/>
				<path class="st42" d="M223,210c0,0,2.2,2.9-0.1,5.6c-1.6,1.8-5.9,1.9-9.2,1.5c-1.7-0.2-3.1-0.5-3.7-0.7c-2.5-0.9-4.4-5-3-7.6
					c1.4-2.6,4.1-3.4,4.4-3.4c0.3,0,3-0.7,3.5-0.5C215.3,205,220.7,206.1,223,210z"/>
				<path class="st66" d="M218.7,206.1c0,0,2.7,9.4-3.5,10.6c-6.1,1.2-7.6-8.9-5.9-10.8C210.9,204.1,218.7,205.7,218.7,206.1z"/>
				<path class="st66" d="M248.4,205.7c0,0,1.1,8.6-1.9,9.9s-1.4-6.4-0.9-7.1C246.1,207.8,248.4,205.7,248.4,205.7z"/>
				<path class="st15" d="M204,200.3c0.1,2.5,2.9,4,4.1,4.6c0.6-0.5,1.3-0.8,2.2-1.1c6.8-1.9,12.3,4.4,13.2,7.1c0,0-5-6.5-10.7-5.5
					s-6.3,4.8-6.3,5.4c0,0-0.6-2.1,0.3-4.1C203.3,204.1,204,200.3,204,200.3z"/>
				<path class="st15" d="M251.1,203.5c1.8,0.1,2.1,2,2,3.8c0.2,0,1.6,0.2,3-1.1c0,0-1.6,2.5-3.3,3.2c-0.1,0.6-0.3,1.1-0.3,1.1
					s0.9-5.6-2.1-5.1c-3.7,0.7-6.2,5.4-6.2,5.4S247.6,203.4,251.1,203.5z"/>
			</g>
		</g>
	</g>
	<path class="st31" d="M210.4,669.7c-0.8,3.2-10.6,16.9-8.8,22.7c1.2,3.8,6.6,4.7,16.6,4.9c0,0,19.6-1.9,15.1-14.5
		c0,0-0.5-8.2-0.5-9c1.7,0.4,1.5,9.1,3.1,9.3c4.9,0.6,11.1,3.9,19.2,4.3c8.2,0.4,17.6-1,15.2-5.7"/>
	<path class="st43" d="M233.5,673.5l-1.5-0.7"/>
	<path class="st28" d="M231.6,662.3c-0.2,2,1.8,11.9,1.8,11.9c3.2,13.3,0.1,16.2,0.1,16.2c-3.8,6.1-14.6,7.2-15.1,7.3
		c-10.1-0.2-15.8-1.1-17.1-5.3c-1.3-4.2,3-12,6.2-17.7c0,0,2.5-3.1,2.4-9.2c0.5-1.9,5.3-0.1,10.6-0.4
		C220.4,665.1,231.8,660.3,231.6,662.3z"/>
	<path class="st28" d="M242.4,660.9c4.3-2.1,5.1-1.8,5.8,1.9s11.2,10.1,11.2,10.1c5.3,3,10.2,5.8,11.6,8.4c0.6,1.1,0.6,2.2,0,3.1
		c-1.8,2.9-9.3,3.6-15.6,3.3c-5-0.2-9.2-1.5-13-2.7c-2.4-0.7-4.4-1.4-6.3-1.6c-1.1-0.1-1.4-2-1.9-5c0,0-3.5-15.5-2.5-16.2
		C232.6,661.4,236.2,663.6,242.4,660.9"/>
	<path class="st6" d="M212.9,669.7c0,0,6.4,1.1,9.5,0"/>
	<path class="st6" d="M211.7,674.6c0,0,6.4,1.1,9.5,0"/>
	<path class="st6" d="M242.5,667.7c0,0,5.4-0.2,7.7-1.7"/>
	<path class="st6" d="M245.8,671.4c0,0,5.3-1,7.4-2.8"/>
	<path class="st5" d="M204.2,693.1c-2.3-0.3-2.2-7.3-2.2-7.3c-2.1,4.9-4.2,12,12.3,11.9c16.5-0.1,18.1-5.9,20-9.3s-0.8-8.4-0.8-8.4
		s-2.9,7.5-6.7,10.6C226.8,690.6,225.4,695.8,204.2,693.1z"/>
	<path class="st36" d="M269.9,685.4c-5.8,2.2-6.4,3.5-23,0.8c-16.6-2.7-12.6-7.3-12.6-7.3s15.7,8.5,32.6,5.9c2.9-0.7,4.9-2.2,3.6-4
		C270.5,680.8,273.7,683.9,269.9,685.4z"/>
	<g id="dungarees_pants" class="st45">
		
			<linearGradient id="SVGID_2_" gradientUnits="userSpaceOnUse" x1="203.2754" y1="371.29" x2="202.3975" y2="138.8566" gradientTransform="matrix(1 0 0 -1 24.9448 791.2793)">
			<stop  offset="0" style="stop-color:#1595C3"/>
			<stop  offset="0.9988" style="stop-color:#0050A2"/>
			<a:midPointStop  offset="0" style="stop-color:#1595C3"/>
			<a:midPointStop  offset="0.5" style="stop-color:#1595C3"/>
			<a:midPointStop  offset="0.9988" style="stop-color:#0050A2"/>
		</linearGradient>
		<path class="st4" d="M263.2,393.4l2.9,7.5c0,0,13.6,28.3,5.3,85.7c-8.3,57.3-33.3,133.7-23.7,169.5c-2.5,4.5-9.2,7.8-16.4,5.5
			c0,0-20,7.4-24.2,0.8s-9.6-69.1,0.5-101.4c-8.6-30.7-48.2-111.3-6.9-167.4C200.7,393.5,222.5,401.2,263.2,393.4z"/>
		<path class="st67" d="M263.4,391.6l3.1,8.6c0,0-21.2,14.3-73.3,3.5c0.4-2,4.5-7,8.3-12.1C206.9,393,232.7,398.7,263.4,391.6z"/>
		<path class="st54" d="M189.4,432.4c0,0,14-0.4,24.8-13.8"/>
		<path class="st54" d="M252.7,415c0,0,5.3,5.9,15.6,7.3"/>
		<path class="st9" d="M231,407.7l2.5,30.4c0,0,0,10.3,6.4,10.2"/>
		<g>
			<g>
				<ellipse class="st38" cx="234.9" cy="405.1" rx="6.8" ry="7.8"/>
				<ellipse class="st69" cx="234.9" cy="405.1" rx="6.8" ry="7.8"/>
			</g>
		</g>
		<path class="st54" d="M231.2,661.6c-2.5-8.1-5.1-44.2-5.1-44.2c2.7-35.7,12.8-84.4,13.4-116.8c0.6-32.4-1.8-52.2-1.8-52.2
			s5.6,28.4,3.6,57.5c-1.5,22.6-11,87.4-12.2,100.8c-1.2,13.4-2.1,45.2,5.9,55.6C235,662.3,233,662.3,231.2,661.6z"/>
		<path class="st54" d="M218.3,407.5c0,0.7-0.7,1.3-1.4,1.3l0,0c-0.7,0-1.3-0.7-1.3-1.4l0.6-13.2c0-0.7,0.7-1.3,1.4-1.3l0,0
			c0.7,0,1.3,0.7,1.3,1.4L218.3,407.5z"/>
		<path class="st54" d="M205.1,405.9c-0.1,0.7-0.9,1.2-1.9,1.1l0,0c-0.9-0.1-1.5-0.9-1.4-1.6l2.1-13c0.1-0.7,0.9-1.2,1.9-1.1l0,0
			c0.9,0.1,1.5,0.9,1.4,1.6L205.1,405.9z"/>
		<path class="st54" d="M252.2,406c0.1,0.7-0.4,1.4-1.2,1.5l0,0c-0.8,0.1-1.5-0.4-1.6-1.1l-2-12.7c-0.1-0.7,0.4-1.4,1.2-1.5l0,0
			c0.8-0.1,1.5,0.4,1.6,1.1L252.2,406z"/>
		<path class="st54" d="M263.6,402.2c0.2,0.6-0.4,1.3-1.2,1.5l0,0c-0.8,0.2-1.6-0.1-1.8-0.7l-2.9-10.6c-0.2-0.6,0.4-1.3,1.2-1.5l0,0
			c0.8-0.2,1.6,0.1,1.8,0.7L263.6,402.2z"/>
	</g>
	<g id="dungarees_top" class="st45">
		<path id="shirt_1_" class="st49" d="M264.5,311.6c2.4,4.2,12,22.1,1.3,32.5c0,0,0.6,33.4-3,47.2c-30.4,3.8-36.2,3.7-60.1-0.2
			c0-8.6,2.9-25.3-5.7-41c-9.3-7.6-8.3-15.6-10-20.8c-1.7-5.2-4.8-9.2-4.8-9.2c-2.6-2.7-5.3,5-12.6,16.8
			c-5.4-0.9-18.5-19.9-18.5-19.9s5.4-11.4,11-22.6c5.6-11.2,20.1-15,20.1-15c19.4,6.6,41.3,6.8,41.3,6.8c11.6-1,10.4-9.9,10.4-9.9
			l3.6-0.1c0,0,12.5-1.4,23,8.1c3.9,3.9,11.6,23.1,11.6,23.1S267.8,311.2,264.5,311.6z"/>
		
			<linearGradient id="SVGID_3_" gradientUnits="userSpaceOnUse" x1="204.6729" y1="512.8789" x2="204.2587" y2="403.2126" gradientTransform="matrix(1 0 0 -1 24.9448 791.2793)">
			<stop  offset="0" style="stop-color:#1595C3"/>
			<stop  offset="0.9988" style="stop-color:#0050A2"/>
			<a:midPointStop  offset="0" style="stop-color:#1595C3"/>
			<a:midPointStop  offset="0.5" style="stop-color:#1595C3"/>
			<a:midPointStop  offset="0.9988" style="stop-color:#0050A2"/>
		</linearGradient>
		<path class="st60" d="M206.1,392.3c8.7-25.4-15.4-122-15.4-122l3.3-4.7c0,0,17.4,60,21.6,65.5c13.9,5.3,41,2.2,44.3-2.4
			c1.9-34.1-30.9-58.2-30.9-58.2l-1.3-3.9c37.3,24.5,40.7,63.7,40.7,63.7s-6.1,46.2-9.2,61.5C259.2,391.7,238.9,396.6,206.1,392.3z"
			/>
		<path class="st54" d="M215.7,347.3c0,0,17.3,3.8,40.3-0.8c0.2,10.4-1.7,19-5.2,22.8C247.1,373,216.2,382.9,215.7,347.3z"/>
		<ellipse class="st41" cx="206.6" cy="334.2" rx="7.4" ry="7"/>
		<ellipse class="st41" cx="261.7" cy="331.9" rx="6.7" ry="6.4"/>
	</g>
	<g id="long_brown_2_" class="st45">
		<g>
			<path class="st11" d="M274.5,315.2c0.3-16.5-9.1-35.8-16.6-45.8c2.7,0.3,5.6-0.5,7.9-2.5c-0.5-0.6-0.9-1.2-1.3-1.8
				c0.1,0,0.1-0.1,0.2-0.1c-0.3-0.3-0.6-0.7-0.8-1.1c-5.9-11.9,5.2-30.6,12.4-53.8c7.8-25.2-13.7-52.3-26.2-52.3
				c-7.8-8.3-37.1-18.1-59.8-6.4S151.2,192,151.6,227c0.2,13.9-2.1,37.3-10,43.4c3.4,2.7,8.5,2.5,11.2,1
				c1.2,15.4,0.3,73.6,60.6,72.9c-23.7-6.6-18.3-33.6-17.5-47.5c4.3,2.5,14.5,11.9,12.4,8.4s-6.5-17.8-6.5-17.8
				c-7.3-16.4-8.1-56.3-2.7-59.6c5.4-3.3,12.3-9.6,19.4-22c7.1-12.4,6.8-41.2,14-40.9c7.1,0.3,7.1-0.8,9.1,1.1
				c6.8,3.8,13.4,11.4,15.4,20.9c3.9,18.3,1.5,33.6,1.5,33.6c0.2,7.7-7.7,33.1-29.3,40.2c0,0-1.6,0-4.3-0.6
				c-0.1,0.9-0.2,2.1-0.2,3.5c-0.1,4.1,0.4,9.6,3.5,11.7c0.4,0.3,1,0.5,1.5,0.8c0,0-2,1.2,16.8,3.3c7.8,0.7,13.4,5.1,18.2,14.7
				C269.5,303.7,274.5,315.2,274.5,315.2z M256.3,267.4c0.1,0,0.2,0,0.3,0c0.1,0.2,0.2,0.4,0.2,0.6
				C256.7,267.9,256.5,267.6,256.3,267.4z"/>
			<path d="M212.4,345.3c-56.3,0-59.2-51-60.3-70.2c0-0.8-0.1-1.6-0.1-2.3c-1.2,0.4-2.5,0.6-3.9,0.6c-2.7,0-5.2-0.8-7.1-2.3
				l-0.9-0.7l0.9-0.7c6.9-5.4,9.9-25.9,9.7-42.7c-0.4-34,15-64,39.2-76.4c7-3.6,15.1-5.5,24-5.5c15.7,0,30.8,5.9,36.6,11.8
				c5.6,0.2,12.6,5.2,18.3,13c9.2,12.5,12.3,27.6,8.3,40.4c-2,6.5-4.3,12.5-6.5,18.4c-5.6,14.8-10,26.5-6,34.7
				c0.2,0.3,0.5,0.6,0.7,0.9l0.6,0.7l-0.2,0.2c0.2,0.4,0.5,0.7,0.8,1l0.6,0.7l-0.7,0.6c-2,1.6-4.3,2.6-6.7,2.8
				c7.9,11.3,16,29.6,15.7,44.9l-0.1,4.1l-1.7-3.8c0-0.1-5-11.6-9.8-21c-4.6-9.1-10-13.5-17.5-14.2c-15.4-1.7-17.2-2.8-17.6-3.6
				c-0.5-0.2-0.8-0.4-1.2-0.6c-3.4-2.4-4-8.1-3.9-12.5c0-1.2,0.1-2.4,0.2-3.6l0.1-1l1,0.2c2.1,0.4,3.6,0.5,4,0.6
				c22-7.4,28.7-33,28.6-39.3v-0.1v-0.1c0-0.2,2.2-15.3-1.5-33.2c-2.1-9.9-9.1-17-15-20.3l-0.2-0.1c-0.9-0.8-1.2-0.9-2-0.9
				c-0.3,0-0.7,0-1.2,0c-1.2,0.1-2.8,0.1-5.4,0l0,0c-3.2,0-4.9,9-6.6,17.7c-1.5,8-3.3,17.1-6.6,22.7c-6.1,10.5-12.7,18-19.7,22.3
				c-4.6,2.8-4.5,41.5,3.1,58.5v0.1c0,0.1,4.4,14.3,6.4,17.6c0.3,0.5,0.6,1.1,0.3,1.6c-0.2,0.3-0.5,0.5-0.9,0.5
				c-0.8,0-1.9-0.8-5.9-4.1c-2-1.6-4.1-3.3-5.8-4.4c-0.1,1.1-0.2,2.4-0.3,3.6c-1.2,14.3-3.1,35.8,17.3,41.4l6.1,1.7l-6.3,0.1
				C213.1,345.3,212.7,345.3,212.4,345.3z M153.5,270l0.1,1.4c0.1,1,0.1,2.2,0.2,3.5c1,18.2,3.8,65.9,54.3,68.4
				c-16.4-7.9-14.7-27.9-13.6-41.5c0.2-1.8,0.3-3.5,0.4-5.1l0.1-1.5l1.3,0.7c1.9,1.1,4.7,3.4,7.3,5.4c0.9,0.8,2,1.6,2.9,2.3
				c-2.2-5-5.3-15.1-5.6-16c-7.1-16-8.7-56.8-2.3-60.7c6.7-4.1,13.2-11.4,19.1-21.6c3.1-5.4,4.8-14.3,6.4-22.2
				c2.1-10.7,3.7-19.2,8.3-19.2h0.1c2.5,0.1,4.1,0,5.2,0c0.5,0,0.9,0,1.2,0c1.4,0,2.1,0.3,3.2,1.3c6.2,3.5,13.5,11,15.7,21.4
				c3.7,17.6,1.7,32.6,1.6,33.8c0.2,8.9-8.4,33.9-29.9,41h-0.1h-0.2c-0.1,0-1.4,0-3.5-0.4c-0.1,0.8-0.1,1.7-0.1,2.5
				c-0.1,5.6,1,9.5,3.2,11c0.3,0.2,0.7,0.4,1.3,0.7l1.6,0.7l-0.3,0.2c1.6,0.5,5.5,1.3,15.2,2.3c8.2,0.8,14,5.4,18.9,15.2
				c3,5.9,6,12.6,7.9,16.8c-1.2-14.5-9-30.8-16.3-40.7l-1-1.3c-0.2-0.2-0.3-0.4-0.5-0.6l-1.5-1.8l3.1,0.4l0.2,0.5
				c0.1,0.2,0.2,0.4,0.2,0.6l0.3,0.8c2.2,0.2,4.6-0.4,6.5-1.8c-0.3-0.4-0.5-0.7-0.8-1.1l-0.4-0.7l0.1-0.1c-0.1-0.1-0.2-0.3-0.3-0.4
				l-0.1-0.1c-4.4-8.9,0.1-21,5.9-36.2c2.2-5.8,4.5-11.8,6.5-18.3c3.8-12.3,0.8-26.8-8-38.8c-5.5-7.3-12.2-12.1-17.3-12.1h-0.4
				l-0.3-0.3c-6.8-7.2-23.4-11.5-35.5-11.5c-8.6,0-16.4,1.8-23.2,5.3C167,164.3,152,193.7,152.4,227c0.1,12.8-1.7,35.8-9.5,43.4
				c1.4,0.8,3.2,1.3,5,1.3c1.6,0,3.2-0.3,4.3-1L153.5,270z"/>
		</g>
		<g>
			<path class="st50" d="M146.6,268.7c54.2-1.1,52.7-113,98.8-110.8C194.3,155.6,191.6,265.3,146.6,268.7z"/>
			<path d="M146.7,269.6l-0.1-1.8c20.9-1.6,32.4-26.7,44.6-53.2c13-28.3,26.4-57.7,52.7-57.7h0.3c0.4,0,0.8,0,1.2,0l0,0l-0.1,1.8
				c-0.4,0-0.8,0-1.1,0h-0.1c-20.9,0-31.6,24.8-43,51C188.3,238.9,175.2,269,146.7,269.6z M223.2,166.5
				c-12.8,10.4-21.7,29.9-30.4,48.9c-9.3,20.3-18.2,39.7-31.3,48.9c17.7-8.8,27.9-32.3,37.9-55.2
				C206.7,192.3,213.7,176.2,223.2,166.5z"/>
		</g>
		<g>
			<path class="st50" d="M158.1,235.3c2.1-68.8,46.1-86.2,66-86.6C208.5,150.7,165.3,168.2,158.1,235.3z"/>
			<path d="M159,235.4l-1.8-0.1c0.9-29.9,10.1-54,26.6-69.6c13.6-12.9,29.7-17.7,40.3-17.9l0.1,1.8c-9,1.2-23.1,6.7-35.6,18.7
				C172.1,184,162.1,206.6,159,235.4z M207.6,152.9c-7.4,2.7-15.3,7.2-22.6,14.1c-11.3,10.7-19.1,25.5-23.1,43.6
				c5.1-17.8,13.6-32.4,25.4-43.6C194,160.6,201,156,207.6,152.9z"/>
		</g>
		<g>
			<path class="st50" d="M252.3,165.9c37,47.4-8.3,83.7,9.5,99.1C247.3,246.9,294.8,209,252.3,165.9z"/>
			<path d="M261.3,265.7c-7.5-6.5-4.5-16.3-0.7-28.7c5.5-17.9,13.1-42.4-8.9-70.6l1.3-1.2c26.9,27.3,18,53.1,11.6,72
				c-4,11.6-7.1,20.8-2,27.2L261.3,265.7z M261.8,179.2c11.3,23,5.2,43.1,0.5,58.3c-0.9,3-1.8,5.9-2.5,8.5c0.8-3,1.9-6.1,3.1-9.4
				C268.4,220.4,275.2,200.7,261.8,179.2z"/>
		</g>
		<g>
			<path class="st50" d="M193.9,232.5c-8.2,14.1-11.1,47.9,10.2,67.8C188.5,279.6,190.1,246,193.9,232.5z"/>
			<path d="M203.5,300.9c-12.3-11.4-15.7-26.2-16.5-36.7c-0.9-12,1.5-24.3,6.1-32.2l3.5-6l-1.8,6.7c-3.4,12.2-5.7,46.1,10,67
				L203.5,300.9z M191.4,240.6c-4.2,13.5-4.5,34.7,6.4,51C189.9,274.7,189.6,253.8,191.4,240.6z"/>
		</g>
		<g>
			<path class="st50" d="M196.6,339.2C155,320,177.2,264.1,186.1,249C171.6,264.1,150.7,320.1,196.6,339.2z"/>
			<path d="M196.2,340.1c-15.1-6.4-24.4-17.1-27.5-31.9c-4.7-22.7,6.7-49.3,16.8-59.7l5.4-5.6l-4,6.7c-5.4,9.1-19.2,40.5-11.6,64.8
				c3.4,10.9,10.7,19,21.7,24.1L196.2,340.1z M180.6,258c-7.5,12.6-13.7,32.6-10.1,49.8c1.3,6.3,3.8,11.8,7.4,16.5
				c-1.8-2.9-3.2-6.1-4.3-9.5c-3.3-10.5-3-23.7,0.7-38.3C176,269.7,178.3,263.3,180.6,258z"/>
		</g>
	</g>
	<g id="asian_1_" class="st45">
		<polygon class="st39" points="264,400.4 268.4,395.6 274.3,415.4 267.5,432.4 266.4,429 270.8,414.5 262.2,425.9 261.2,422.7 
			269.8,409.2 258.8,418.6 257.8,415.9 268.5,402.9 256.5,411.7 255.9,409.3 		"/>
		<path class="st39" d="M182,407.3l15.5-7.1l13.7,8.2l-0.1,2.4l-13.5-5.5l-4.5,2.1l4.8,0.7l12,10.3l-0.2,2.1l-14.3-6.8l-5.8,0.3
			l5.5,3.1l10.4,7.1l-1,1.6l-12-5.5l-5.4-0.4l11.9,8.5l-1.7,1.4l-10.8-5.4l-11.3-4.3c0,0,0-5.6,0.3-6.1
			C175.8,413.4,182,407.3,182,407.3z"/>
	</g>
</g>
<g id="boat">
	<path class="st47" d="M387,381.5C482.7,274.9,707,283.9,707,283.9c-9.1-47.1-55-58.3-79.5-92.3c-24.5-34-48.4-40.6-82.2-33.3
		c-33.8,7.3-17.4,96.6-40.9,95.3c-23.5-1.3-35.6,4.3-65-132.3C410-15.3,314.6-128.1,314.6-128.1C425,49.1,387,381.5,387,381.5z"/>
	<g>
		<path class="st51" d="M401.4,411.3c0,0-105.9-582-195.4-691.8l-11.9,7c0,0,115.5,229.7,168.6,691.3L401.4,411.3z"/>
		<path class="st42" d="M254.6-152.5c0,0,326.9,25,444.1,413.7c0,0-221.2-0.1-311.8,120.3C387,381.5,386.5,23.1,254.6-152.5z"/>
		<path class="st18" d="M298.8,2.5c0,0-52-6.9-77.6,35.2c-25.6,42.1-94.9,20.9-94.9,20.9s32.9,91.6,189.7,40.2
			C316,98.9,311.3,44,298.8,2.5z"/>
		<path class="st3" d="M387,381.5c90.6-120.4,311.8-120.3,311.8-120.3c-40.3-40.1-75.7-18.6-104.5-52
			c-28.8-33.4-37.1-93.4-71.8-82.6c-34.7,10.7-9.5,102.8-34.2,103.6c-24.8,0.8-36.9,7.8-80.1-132.7
			C364.9-43,254.6-152.5,254.6-152.5C386.5,23.1,387,381.5,387,381.5z"/>
		<path class="st24" d="M321.5,99.5c0,0-6.7-23.8-12-49.3c-15.9,6.1-25.9,32.6-62.8,18c-20.6-8.1-22.3,8.5-53.4,22.1
			c-31.1,13.6-67.1-31.6-67.1-31.6S164.7,150.9,321.5,99.5z"/>
		<path class="st22" d="M-49.5,462.3c-21.3,2.4,59.5,199.2,132.8,239.5c20.1,11.1,528.8-27.2,619.2-71.7
			C738.2,612.6,801,294.6,805.6,265C805.6,265,708.2,376.9-49.5,462.3z"/>
		<path class="st63" d="M761.9,467.5c22.5-90.1,41.3-186.9,43.7-202.6c0,0-97.5,111.9-855.1,197.4c-12.9,1.5,11.9,74.9,49.9,141.3
			C352.5,606,655.4,507,761.9,467.5z"/>
		<path class="st51" d="M-8.7,587.1c300.4-13.1,624.3-90,777.5-147.9c11.5-48.5,21.7-96.2,28.4-129.8
			c-63.4,27.4-204.8,80.6-429.1,122.4c-241.5,45-369.7,57-416.9,60.1C-42.1,516-27.6,551.6-8.7,587.1z"/>
		<g>
			<path class="st22" d="M49.7,499.6C29,502,14.2,520.7,16.6,541.4c2.4,20.7,21.1,35.6,41.8,33.2c20.7-2.4,35.6-21.1,33.2-41.9
				C89.2,512,70.5,497.2,49.7,499.6z"/>
			<path class="st22" d="M199.7,481.5c-20.7,2.4-35.6,21.1-33.2,41.9c2.4,20.7,21.1,35.6,41.8,33.2c20.7-2.4,35.6-21.1,33.2-41.9
				C239.1,493.9,220.4,479.1,199.7,481.5z"/>
			<path class="st22" d="M376.7,452c-20.7,2.4-35.6,21.1-33.2,41.9c2.4,20.7,21.1,35.6,41.9,33.2c20.7-2.4,35.6-21.1,33.2-41.9
				C416.1,464.5,397.4,449.6,376.7,452z"/>
			<path class="st22" d="M541.3,419.6c-20.7,2.4-35.6,21.1-33.2,41.8c2.4,20.7,21.1,35.6,41.9,33.2c20.7-2.4,35.6-21.1,33.2-41.9
				C580.8,432,562,417.2,541.3,419.6z"/>
			<path class="st22" d="M684.6,382.1c-20.7,2.4-35.6,21.1-33.2,41.9c2.4,20.7,21.1,35.6,41.8,33.2c20.7-2.4,35.6-21.1,33.2-41.8
				C724,394.6,705.3,379.7,684.6,382.1z"/>
		</g>
		<g>
			<path class="st40" d="M90.5,528.9c2.4,20.7-12.5,39.5-33.2,41.9c-20.7,2.4-39.5-12.5-41.9-33.2c-2.4-20.7,12.4-39.4,33.2-41.8
				C69.4,493.3,88.1,508.1,90.5,528.9z"/>
			<path class="st42" d="M79.5,530.1c1.7,14.6-8.8,27.9-23.4,29.5c-14.6,1.7-27.8-8.8-29.5-23.4c-1.7-14.6,8.8-27.8,23.4-29.5
				S77.8,515.5,79.5,530.1z"/>
			<path class="st23" d="M50.4,511.1c13.9-1.6,26.4,7.8,29.1,21.2c0-0.7,0.1-1.5,0-2.2c-1.7-14.6-14.9-25.1-29.5-23.4
				s-25.1,14.9-23.4,29.5c0.1,0.8,0.3,1.4,0.5,2.2C26.6,524.7,36.6,512.7,50.4,511.1z"/>
		</g>
		<g>
			<path class="st40" d="M240.4,510.8c2.4,20.7-12.4,39.5-33.2,41.9s-39.4-12.4-41.8-33.2c-2.4-20.7,12.4-39.4,33.2-41.8
				C219.3,475.2,238,490,240.4,510.8z"/>
			<path class="st42" d="M229.4,512c1.7,14.6-8.8,27.8-23.4,29.5c-14.6,1.7-27.8-8.8-29.5-23.4c-1.7-14.6,8.8-27.8,23.4-29.5
				C214.5,486.9,227.7,497.4,229.4,512z"/>
			<path class="st23" d="M200.4,493c13.9-1.6,26.4,7.8,29.1,21.2c0-0.7,0.1-1.5,0-2.2c-1.7-14.6-14.9-25.1-29.5-23.4
				c-14.6,1.7-25.1,14.9-23.4,29.5c0.1,0.8,0.3,1.4,0.5,2.2C176.5,506.6,186.5,494.6,200.4,493z"/>
		</g>
		<g>
			<path class="st40" d="M417.4,481.3c2.4,20.7-12.5,39.5-33.2,41.9c-20.7,2.4-39.5-12.5-41.8-33.2c-2.4-20.7,12.5-39.5,33.2-41.8
				C396.3,445.8,415,460.6,417.4,481.3z"/>
			<path class="st42" d="M406.4,482.6c1.7,14.6-8.8,27.9-23.4,29.5c-14.6,1.7-27.8-8.8-29.5-23.4c-1.7-14.6,8.8-27.9,23.4-29.5
				C391.5,457.5,404.7,468,406.4,482.6z"/>
			<path class="st23" d="M377.3,463.6c13.9-1.6,26.4,7.8,29.1,21.2c0-0.7,0.1-1.5,0-2.2c-1.7-14.6-14.9-25.1-29.5-23.4
				c-14.6,1.7-25.1,14.9-23.4,29.5c0.1,0.8,0.3,1.4,0.5,2.2C353.5,477.2,363.5,465.2,377.3,463.6z"/>
		</g>
		<g>
			<path class="st40" d="M582.1,448.9c2.4,20.7-12.4,39.5-33.2,41.9c-20.7,2.4-39.5-12.5-41.8-33.2c-2.4-20.7,12.5-39.5,33.2-41.9
				C560.9,413.3,579.7,428.1,582.1,448.9z"/>
			<path class="st42" d="M571.1,450.1c1.7,14.6-8.8,27.8-23.4,29.5c-14.6,1.7-27.9-8.8-29.5-23.4c-1.7-14.6,8.8-27.8,23.4-29.5
				C556.1,425,569.4,435.5,571.1,450.1z"/>
			<path class="st23" d="M542,431.1c13.9-1.6,26.4,7.8,29.1,21.2c0-0.8,0.1-1.5,0-2.2c-1.7-14.6-14.9-25.1-29.5-23.4
				c-14.6,1.7-25.1,14.9-23.4,29.5c0.1,0.8,0.3,1.4,0.5,2.2C518.1,444.7,528.2,432.7,542,431.1z"/>
		</g>
		<g>
			<path class="st40" d="M725.3,411.4c2.4,20.7-12.5,39.5-33.2,41.9c-20.7,2.4-39.5-12.5-41.9-33.2c-2.4-20.7,12.5-39.5,33.2-41.9
				C704.2,375.8,722.9,390.7,725.3,411.4z"/>
			<path class="st42" d="M714.3,412.7c1.7,14.6-8.8,27.8-23.4,29.5s-27.8-8.8-29.5-23.4c-1.7-14.6,8.8-27.9,23.4-29.5
				C699.4,387.6,712.6,398.1,714.3,412.7z"/>
			<path class="st23" d="M685.3,393.7c13.9-1.6,26.4,7.8,29.1,21.2c0-0.7,0.1-1.5,0-2.2c-1.7-14.6-14.9-25.1-29.5-23.4
				c-14.6,1.7-25.1,14.9-23.4,29.5c0.1,0.8,0.3,1.4,0.5,2.2C661.4,407.3,671.4,395.3,685.3,393.7z"/>
		</g>
	</g>
	<g>
		<path class="st19" d="M-49.5,462.3c0,0,3.4-0.4,9.8-1.3c6.4-0.8,15.8-2.1,27.8-3.7c12-1.6,26.5-3.6,43.2-5.8
			c16.7-2.3,35.5-5,56-7.8c10.2-1.5,20.9-3,32-4.6c11-1.6,22.5-3.3,34.2-5c23.5-3.5,48.2-7.4,73.7-11.4c12.8-2,25.8-4.2,38.9-6.4
			c13.1-2.2,26.4-4.5,39.8-6.8c26.8-4.6,53.9-9.5,81-14.7c27.1-5.1,54.1-10.5,80.7-16.2c6.6-1.4,13.2-2.9,19.8-4.3
			c6.6-1.4,13.1-2.9,19.6-4.3c13-2.9,25.8-5.9,38.3-8.9c25.1-6.1,49.3-12.3,72.1-18.8c11.4-3.2,22.4-6.5,33.1-9.8
			c10.6-3.3,20.9-6.5,30.7-9.9c19.6-6.6,37.3-13.3,52.8-19.7c15.5-6.5,28.7-12.7,39.4-18.3c10.7-5.6,18.8-10.5,24.2-14
			c2.7-1.8,4.8-3.2,6.1-4.1c1.4-1,2.1-1.5,2.1-1.5s-0.7,0.5-2,1.6c-1.3,1-3.3,2.5-5.9,4.4c-5.2,3.8-13.1,9.2-23.6,15.3
			c-10.5,6.1-23.5,13-38.8,20.1c-7.7,3.5-15.9,7.2-24.6,10.8c-8.7,3.6-18,7.2-27.8,10.9c-9.7,3.6-19.9,7.2-30.5,10.8
			c-10.6,3.6-21.6,7.1-33,10.6c-22.8,7-46.9,13.8-72,20.2c-12.6,3.2-25.4,6.4-38.3,9.5c-6.5,1.5-13,3.1-19.6,4.6
			c-6.6,1.5-13.2,2.9-19.9,4.4c-26.6,5.8-53.7,11.3-80.9,16.5c-27.2,5.1-54.4,9.9-81.2,14.4c-13.4,2.3-26.7,4.4-39.9,6.4
			c-13.2,2-26.2,4-39,5.9c-25.6,3.8-50.5,7.1-74,10.1c-11.8,1.5-23.2,3-34.3,4.3c-11.1,1.3-21.8,2.5-32.1,3.7
			c-20.6,2.4-39.5,4.3-56.2,5.9c-16.8,1.7-31.4,3-43.4,4c-12,1.1-21.5,1.7-28,2.2C-46,462.1-49.5,462.3-49.5,462.3z"/>
	</g>
</g>
<g id="sea_top">
	<path class="st37" d="M1131.5,603.7c-13.3,16.8-35.6,27.8-60.9,27.8c-25.3,0-47.6-11-60.9-27.8c-13.3,16.8-35.6,27.8-60.9,27.8
		c-25.3,0-47.6-11-60.9-27.8c-13.3,16.8-35.6,27.8-60.9,27.8c-25.3,0-47.6-11-60.9-27.8c-13.3,16.8-35.6,27.8-60.9,27.8
		c-25.3,0-47.6-11-60.9-27.8c-13.3,16.8-35.6,27.8-60.9,27.8c-25.3,0-47.6-11-60.9-27.8c-13.3,16.8-35.6,27.8-60.9,27.8
		c-25.3,0-47.6-11-60.9-27.8c-13.3,16.8-35.6,27.8-60.9,27.8c-25.3,0-47.6-11-60.9-27.8c-13.3,16.8-35.6,27.8-60.9,27.8
		c-25.3,0-47.6-11-60.9-27.8c-13.3,16.8-35.6,27.8-60.9,27.8c-25.3,0-47.6-11-60.9-27.8c-8.5,10.6-20.5,18.9-34.6,23.6V800h1200
		V631.1c-2.5,0.2-5,0.4-7.6,0.4C1167.1,631.4,1144.8,620.4,1131.5,603.7z"/>
	<path class="st55" d="M1131.5,707.2c-13.3,16.8-35.6,27.8-60.9,27.8c-25.3,0-47.6-11-60.9-27.8c-13.3,16.8-35.6,27.8-60.9,27.8
		c-25.3,0-47.6-11-60.9-27.8c-13.3,16.8-35.6,27.8-60.9,27.8c-25.3,0-47.6-11-60.9-27.8c-13.3,16.8-35.6,27.8-60.9,27.8
		c-25.3,0-47.6-11-60.9-27.8c-13.3,16.8-35.6,27.8-60.9,27.8c-25.3,0-47.6-11-60.9-27.8c-13.3,16.8-35.6,27.8-60.9,27.8
		c-25.3,0-47.6-11-60.9-27.8c-13.3,16.8-35.6,27.8-60.9,27.8c-25.3,0-47.6-11-60.9-27.8c-13.3,16.8-35.6,27.8-60.9,27.8
		c-25.3,0-47.6-11-60.9-27.8c-13.3,16.8-35.6,27.8-60.9,27.8c-25.3,0-47.6-11-60.9-27.8c-8.5,10.6-20.5,18.9-34.6,23.6V800h1200
		v-65.4c-2.5,0.2-5,0.4-7.6,0.4C1167.1,734.9,1144.8,723.9,1131.5,707.2z"/>
</g>
</svg>
