<?xml version="1.0" encoding="utf-8"?>
<!-- Generator: Adobe Illustrator 16.0.0, SVG Export Plug-In . SVG Version: 6.00 Build 0)  -->
<!DOCTYPE svg PUBLIC "-//W3C//DTD SVG 1.1//EN" "http://www.w3.org/Graphics/SVG/1.1/DTD/svg11.dtd">
<svg version="1.1" id="Layer_1" xmlns="http://www.w3.org/2000/svg" xmlns:xlink="http://www.w3.org/1999/xlink" x="0px" y="0px"
	 width="1200px" height="1080.5px" viewBox="0.7 -280.5 1200 1080.5" enable-background="new 0.7 -280.5 1200 1080.5"
	 xml:space="preserve">
<path fill="#543D18" d="M111.774,701.072c17.569,13.788,43.496-1.065,51.521-13.371c14.868,15.419,38.111,24.26,63.288,21.87
	c25.174-2.39,46.337-15.444,58.039-33.385c14.867,15.419,38.111,24.259,63.286,21.869c25.176-2.389,46.341-15.444,58.042-33.385
	c14.867,15.419,38.109,24.26,63.286,21.87c25.173-2.39,46.338-15.445,58.041-33.386c14.867,15.419,38.109,24.26,63.288,21.87
	c25.17-2.39,46.336-15.444,58.036-33.386c14.867,15.42,38.113,24.26,63.289,21.87c3.887-0.369,7.677-0.993,11.352-1.85
	c2.739-0.752,5.386-1.506,7.913-2.264c16.569-5.63,30.21-16.139,38.774-29.272c0.212,0.22,0.431,0.433,0.646,0.649
	C806.582,557.999,855.24,310.921,859.269,285c0,0-97.399,111.9-855.1,197.3C-16.229,484.599,54.669,654.146,111.774,701.072z"/>
<g id="boat">
	<path fill="#CF3530" d="M440.669,401.5c95.7-106.6,320-97.6,320-97.6c-9.1-47.1-55-58.3-79.5-92.3s-48.4-40.6-82.2-33.3
		c-33.8,7.3-17.399,96.6-40.899,95.3c-23.5-1.3-35.601,4.3-65-132.3c-29.4-136.6-124.8-249.4-124.8-249.4
		C478.669,69.1,440.669,401.5,440.669,401.5z"/>
	<g>
		<path fill="#372500" d="M455.069,431.3c0,0-105.9-582-195.4-691.8l-11.9,7c0,0,115.5,229.7,168.6,691.3L455.069,431.3z"/>
		<path fill="#FFFFFF" d="M308.269-132.5c0,0,326.9,25,444.1,413.7c0,0-221.2-0.1-311.8,120.3
			C440.669,401.5,440.169,43.1,308.269-132.5z"/>
		<path fill="#EC2024" d="M285.597-194.115c0,0-52.446,0.984-71.436,46.45c-18.991,45.465-90.688,34.909-90.688,34.909
			s46.278,85.624,193.585,11.268C317.073-101.39,304.185-154.962,285.597-194.115z"/>
		<path fill="#E0E0E0" d="M440.669,401.5c90.6-120.4,311.8-120.3,311.8-120.3c-40.3-40.1-75.7-18.6-104.5-52
			c-28.8-33.4-37.1-93.4-71.8-82.6c-34.7,10.7-9.5,102.8-34.2,103.6c-24.8,0.8-36.899,7.8-80.1-132.7
			c-43.3-140.5-153.6-250-153.6-250C440.169,43.1,440.669,401.5,440.669,401.5z"/>
		<path fill="#BF2525" d="M322.601-101.622c0,0-10.197-22.524-19.265-46.94c-14.804,8.417-20.712,36.118-59.386,27.223
			c-21.583-4.916-20.772,11.751-49.478,29.865c-28.706,18.114-71.083-21.169-71.083-21.169S175.293-27.267,322.601-101.622z"/>
		<path fill="#A17540" d="M815.569,487.5c22.5-90.1,41.3-186.9,43.699-202.6c0,0-97.5,111.9-855.1,197.4
			c-12.9,1.5,11.9,74.9,49.9,141.3C406.169,626,709.069,527,815.569,487.5z"/>
		<path fill="#372500" d="M44.969,607.1c300.4-13.1,624.3-90,777.5-147.899c11.5-48.5,21.7-96.2,28.4-129.8
			c-63.4,27.399-204.8,80.6-429.1,122.399c-241.5,45-369.7,57-416.9,60.101C11.569,536,26.069,571.6,44.969,607.1z"/>
		<g>
			<path fill="#543D18" d="M103.369,519.6c-20.7,2.4-35.5,21.101-33.1,41.801c2.4,20.699,21.1,35.6,41.8,33.199
				c20.7-2.399,35.6-21.1,33.2-41.899C142.869,532,124.169,517.2,103.369,519.6z"/>
			<path fill="#543D18" d="M253.369,501.5c-20.7,2.4-35.6,21.1-33.2,41.9c2.4,20.699,21.1,35.6,41.8,33.199
				c20.7-2.399,35.6-21.1,33.2-41.899S274.069,499.1,253.369,501.5z"/>
			<path fill="#543D18" d="M430.369,472c-20.7,2.4-35.6,21.1-33.2,41.9c2.4,20.699,21.1,35.6,41.9,33.199
				c20.7-2.399,35.6-21.1,33.2-41.899C469.769,484.5,451.069,469.6,430.369,472z"/>
			<path fill="#543D18" d="M594.969,439.6c-20.7,2.4-35.6,21.101-33.2,41.801c2.4,20.699,21.101,35.6,41.9,33.199
				c20.7-2.399,35.6-21.1,33.2-41.899C634.469,452,615.669,437.2,594.969,439.6z"/>
			<path fill="#543D18" d="M738.269,402.1c-20.699,2.4-35.6,21.101-33.199,41.9c2.399,20.7,21.1,35.6,41.8,33.2
				c20.7-2.4,35.6-21.101,33.2-41.8C777.669,414.6,758.969,399.7,738.269,402.1z"/>
		</g>
		<g>
			<path fill="#FFCF01" d="M144.169,548.9c2.4,20.699-12.5,39.5-33.2,41.899c-20.7,2.4-39.5-12.5-41.9-33.2
				c-2.4-20.699,12.4-39.399,33.2-41.8C123.069,513.3,141.769,528.1,144.169,548.9z"/>
			<path fill="#FFFFFF" d="M133.169,550.1c1.7,14.601-8.8,27.9-23.4,29.5c-14.6,1.7-27.8-8.8-29.5-23.399
				c-1.7-14.601,8.8-27.8,23.4-29.5S131.469,535.5,133.169,550.1z"/>
			<path fill="#BBD0DB" d="M104.069,531.1c13.9-1.6,26.4,7.801,29.1,21.2c0-0.7,0.1-1.5,0-2.2c-1.7-14.6-14.9-25.1-29.5-23.399
				s-25.1,14.899-23.4,29.5c0.1,0.8,0.3,1.399,0.5,2.2C80.269,544.7,90.269,532.7,104.069,531.1z"/>
		</g>
		<g>
			<path fill="#FFCF01" d="M294.069,530.8c2.4,20.7-12.4,39.5-33.2,41.9c-20.8,2.399-39.4-12.4-41.8-33.2
				c-2.4-20.7,12.4-39.4,33.2-41.8C272.969,495.2,291.669,510,294.069,530.8z"/>
			<path fill="#FFFFFF" d="M283.069,532c1.7,14.6-8.8,27.8-23.4,29.5s-27.8-8.8-29.5-23.4c-1.7-14.6,8.8-27.8,23.4-29.5
				C268.169,506.9,281.369,517.4,283.069,532z"/>
			<path fill="#BBD0DB" d="M254.069,513c13.9-1.6,26.4,7.8,29.1,21.2c0-0.7,0.1-1.5,0-2.2c-1.7-14.6-14.9-25.1-29.5-23.4
				c-14.6,1.7-25.1,14.9-23.4,29.5c0.1,0.801,0.3,1.4,0.5,2.2C230.169,526.6,240.169,514.6,254.069,513z"/>
		</g>
		<g>
			<path fill="#FFCF01" d="M471.069,501.3c2.399,20.7-12.5,39.5-33.2,41.9c-20.7,2.399-39.5-12.5-41.8-33.2
				c-2.4-20.7,12.5-39.5,33.2-41.8C449.969,465.8,468.669,480.6,471.069,501.3z"/>
			<path fill="#FFFFFF" d="M460.069,502.6c1.699,14.601-8.801,27.9-23.4,29.5c-14.6,1.7-27.8-8.8-29.5-23.399
				c-1.7-14.601,8.8-27.9,23.4-29.5C445.169,477.5,458.369,488,460.069,502.6z"/>
			<path fill="#BBD0DB" d="M430.969,483.6c13.9-1.6,26.4,7.801,29.101,21.2c0-0.7,0.1-1.5,0-2.2c-1.7-14.6-14.9-25.1-29.5-23.399
				s-25.1,14.899-23.4,29.5c0.1,0.8,0.3,1.399,0.5,2.2C407.169,497.2,417.169,485.2,430.969,483.6z"/>
		</g>
		<g>
			<path fill="#FFCF01" d="M635.769,468.9c2.4,20.699-12.399,39.5-33.199,41.899c-20.7,2.4-39.5-12.5-41.801-33.2
				c-2.399-20.699,12.5-39.5,33.2-41.899C614.569,433.3,633.369,448.1,635.769,468.9z"/>
			<path fill="#FFFFFF" d="M624.769,470.1c1.7,14.601-8.8,27.801-23.399,29.5c-14.601,1.7-27.9-8.8-29.5-23.399
				c-1.7-14.601,8.8-27.8,23.399-29.5C609.769,445,623.069,455.5,624.769,470.1z"/>
			<path fill="#BBD0DB" d="M595.669,451.1c13.9-1.6,26.4,7.801,29.1,21.2c0-0.8,0.101-1.5,0-2.2
				c-1.699-14.6-14.899-25.1-29.5-23.399c-14.6,1.7-25.1,14.899-23.399,29.5c0.1,0.8,0.3,1.399,0.5,2.2
				C571.769,464.7,581.869,452.7,595.669,451.1z"/>
		</g>
		<g>
			<path fill="#FFCF01" d="M778.969,431.4c2.4,20.699-12.5,39.5-33.2,41.899c-20.699,2.4-39.5-12.5-41.899-33.2
				c-2.4-20.699,12.5-39.5,33.2-41.899C757.869,395.8,776.569,410.7,778.969,431.4z"/>
			<path fill="#FFFFFF" d="M767.969,432.7c1.7,14.6-8.8,27.8-23.399,29.5c-14.601,1.7-27.801-8.8-29.5-23.4
				c-1.7-14.6,8.8-27.899,23.399-29.5C753.069,407.6,766.269,418.1,767.969,432.7z"/>
			<path fill="#BBD0DB" d="M738.969,413.7c13.9-1.601,26.4,7.8,29.101,21.2c0-0.7,0.1-1.5,0-2.2c-1.7-14.601-14.9-25.101-29.5-23.4
				c-14.601,1.7-25.101,14.9-23.4,29.5c0.1,0.8,0.3,1.4,0.5,2.2C715.069,427.3,725.069,415.3,738.969,413.7z"/>
		</g>
	</g>
	<g>
		<path fill="#ED2224" d="M4.169,482.3c0,0,3.4-0.399,9.8-1.3c6.4-0.8,15.8-2.1,27.8-3.7c12-1.6,26.5-3.6,43.2-5.8
			c16.7-2.3,35.5-5,56-7.8c10.2-1.5,20.9-3,32-4.601c11-1.6,22.5-3.3,34.2-5c23.5-3.5,48.2-7.399,73.7-11.399
			c12.8-2,25.8-4.2,38.9-6.4s26.4-4.5,39.8-6.8c26.8-4.6,53.9-9.5,81-14.7c27.1-5.1,54.1-10.5,80.7-16.2
			c6.601-1.399,13.2-2.899,19.801-4.3c6.6-1.399,13.1-2.899,19.6-4.3c13-2.9,25.8-5.9,38.3-8.9c25.101-6.1,49.3-12.3,72.101-18.8
			c11.399-3.2,22.399-6.5,33.1-9.8c10.6-3.3,20.9-6.5,30.7-9.9c19.6-6.6,37.3-13.3,52.8-19.7c15.5-6.5,28.7-12.7,39.4-18.3
			c10.699-5.6,18.8-10.5,24.199-14c2.7-1.8,4.801-3.2,6.101-4.1c1.399-1,2.1-1.5,2.1-1.5s-0.7,0.5-2,1.6c-1.3,1-3.3,2.5-5.899,4.4
			c-5.2,3.8-13.101,9.2-23.601,15.3c-10.5,6.1-23.5,13-38.8,20.101c-7.7,3.5-15.9,7.199-24.6,10.8c-8.7,3.6-18,7.2-27.801,10.899
			c-9.699,3.601-19.899,7.2-30.5,10.801c-10.6,3.6-21.6,7.1-33,10.6c-22.8,7-46.899,13.8-72,20.2c-12.6,3.2-25.399,6.399-38.3,9.5
			c-6.5,1.5-13,3.1-19.6,4.6c-6.601,1.5-13.2,2.9-19.9,4.4c-26.6,5.8-53.7,11.3-80.9,16.5c-27.2,5.1-54.4,9.899-81.2,14.399
			c-13.4,2.301-26.7,4.4-39.9,6.4c-13.2,2-26.2,4-39,5.9c-25.6,3.8-50.5,7.1-74,10.1c-11.8,1.5-23.2,3-34.3,4.3s-21.8,2.5-32.1,3.7
			c-20.6,2.4-39.5,4.3-56.2,5.9c-16.8,1.699-31.4,3-43.4,4c-12,1.1-21.5,1.699-28,2.199C7.669,482.1,4.169,482.3,4.169,482.3z"/>
	</g>
</g>
<g id="sea_top" display="none">
	<path display="inline" fill="#2FA5CC" d="M1131.5,603.7c-13.3,16.8-35.6,27.8-60.9,27.8c-25.3,0-47.6-11-60.899-27.8
		c-13.3,16.8-35.601,27.8-60.9,27.8s-47.6-11-60.899-27.8C874.6,620.5,852.3,631.5,827,631.5s-47.6-11-60.9-27.8
		c-13.3,16.8-35.6,27.8-60.899,27.8c-25.301,0-47.601-11-60.9-27.8c-13.3,16.8-35.6,27.8-60.9,27.8c-25.3,0-47.6-11-60.899-27.8
		c-13.3,16.8-35.601,27.8-60.9,27.8s-47.6-11-60.899-27.8c-13.3,16.8-35.601,27.8-60.9,27.8s-47.6-11-60.9-27.8
		c-13.3,16.8-35.6,27.8-60.9,27.8c-25.3,0-47.6-11-60.9-27.8c-13.3,16.8-35.6,27.8-60.9,27.8c-25.3,0-47.6-11-60.9-27.8
		c-8.5,10.6-20.5,18.899-34.6,23.6V800h1200V631.1c-2.5,0.2-5,0.4-7.601,0.4C1167.1,631.4,1144.8,620.4,1131.5,603.7z"/>
	<path display="inline" fill="#0076AD" d="M1131.5,707.2c-13.3,16.8-35.6,27.8-60.9,27.8c-25.3,0-47.6-11-60.899-27.8
		C996.4,724,974.1,735,948.8,735s-47.6-11-60.899-27.8C874.6,724,852.3,735,827,735s-47.6-11-60.9-27.8
		C752.8,724,730.5,735,705.2,735c-25.301,0-47.601-11-60.9-27.8C631,724,608.7,735,583.399,735c-25.3,0-47.6-11-60.899-27.8
		C509.2,724,486.899,735,461.6,735S414,724,400.7,707.2C387.4,724,365.1,735,339.8,735s-47.6-11-60.9-27.8
		C265.6,724,243.3,735,218,735c-25.3,0-47.6-11-60.9-27.8C143.8,724,121.5,735,96.2,735c-25.3,0-47.6-11-60.9-27.8
		c-8.5,10.6-20.5,18.899-34.6,23.6V800h1200v-65.4c-2.5,0.2-5,0.4-7.601,0.4C1167.1,734.9,1144.8,723.9,1131.5,707.2z"/>
</g>
<rect x="53.669" y="819" fill="#4E7EC0" width="1" height="1"/>
</svg>
