<?xml version="1.0" encoding="utf-8"?>
<!-- Generator: Adobe Illustrator 16.0.0, SVG Export Plug-In . SVG Version: 6.00 Build 0)  -->
<!DOCTYPE svg PUBLIC "-//W3C//DTD SVG 1.1//EN" "http://www.w3.org/Graphics/SVG/1.1/DTD/svg11.dtd" [
	<!ENTITY ns_flows "http://ns.adobe.com/Flows/1.0/">
	<!ENTITY ns_extend "http://ns.adobe.com/Extensibility/1.0/">
	<!ENTITY ns_ai "http://ns.adobe.com/AdobeIllustrator/10.0/">
	<!ENTITY ns_graphs "http://ns.adobe.com/Graphs/1.0/">
]>
<svg version="1.1" id="Layer_1" xmlns:x="&ns_extend;" xmlns:i="&ns_ai;" xmlns:graph="&ns_graphs;"
	 xmlns="http://www.w3.org/2000/svg" xmlns:xlink="http://www.w3.org/1999/xlink" xmlns:a="http://ns.adobe.com/AdobeSVGViewerExtensions/3.0/"
	 x="0px" y="0px" width="1200px" height="800px" viewBox="0 0 1200 800" style="enable-background:new 0 0 1200 800;"
	 xml:space="preserve">
<style type="text/css">
<![CDATA[
	.st0{fill:#E0E0E0;}
	.st1{fill:#EC2024;}
	.st2{fill:#ED2224;}
	.st3{fill:#51C6DB;}
	.st4{fill:#EFF1D2;}
	.st5{fill:#543D18;}
	.st6{fill:#BBD0DB;}
	.st7{fill:#8E6737;}
	.st8{fill:#BF2525;}
	.st9{fill:#F1D183;}
	.st10{fill:#F5DA9A;}
	.st11{fill:#F8D992;}
	.st12{display:inline;fill:#FF8C21;}
	.st13{display:inline;fill:#FFD261;}
	.st14{fill:#C8E7DF;}
	.st15{fill:#2FA5CC;}
	.st16{fill:#FFCF01;}
	.st17{fill:#FFE19F;}
	.st18{fill:#FFFCE1;}
	.st19{fill:#FFFFFF;}
	.st20{fill:#65A43F;}
	.st21{display:inline;opacity:0.3;fill:#FFD261;adobe-blending-mode:multiply;enable-background:new    ;}
	.st22{fill:#9EBD37;}
	.st23{fill:#CF3530;}
	.st24{fill:#372500;}
	.st25{fill:#0076AD;}
	.st26{display:none;}
	.st27{fill:#A17540;}
	.st28{fill:#74D5D5;}
	.st29{fill:#A5DBDE;}
	.st30{fill:#DAEEFB;}
	.st31{fill:#DBBE78;}
	.st32{fill:#DFF0E0;}
]]>
</style>
<g id="boat_iliustration">
	<g id="Layer_2">
		<g>
			<ellipse class="st30" cx="958" cy="103.9" rx="64" ry="35.9"/>
			<ellipse class="st30" cx="1022.3" cy="94" rx="52.4" ry="29.4"/>
			<ellipse class="st29" cx="988" cy="119" rx="64" ry="35.9"/>
			<path class="st29" d="M1069.9,90.7c28.9,0,52.4,13.2,52.4,29.4c0,16.2-23.4,29.4-52.4,29.4c-28.9,0-52.4-13.2-52.4-29.4
				C1017.5,103.8,1041,90.7,1069.9,90.7z"/>
			<ellipse class="st29" cx="909.6" cy="119.3" rx="52.4" ry="29.4"/>
			<path class="st29" d="M1121.2,99.9c19.6,0,35.5,8.9,35.5,20c0,11-15.9,20-35.5,20c-19.6,0-35.5-8.9-35.5-20
				S1101.6,99.9,1121.2,99.9z"/>
			<ellipse class="st29" cx="851" cy="118.9" rx="36.6" ry="20.6"/>
			<ellipse class="st19" cx="951.4" cy="91" rx="55" ry="30.9"/>
			<ellipse class="st19" cx="1010.9" cy="76" rx="47.9" ry="26.9"/>
			<ellipse class="st19" cx="1061.3" cy="102" rx="43" ry="24.2"/>
			<ellipse class="st19" cx="911.3" cy="105.8" rx="40.6" ry="22.8"/>
			<ellipse class="st19" cx="869.4" cy="111.5" rx="30.3" ry="17"/>
			<ellipse class="st19" cx="1110" cy="108.9" rx="30.3" ry="17"/>
		</g>
		<g class="st26">
			<path class="st12" d="M375.3,155.5l27.7-7.3l-23.5-16.4l23.5-16.4l-27.7-7.3l16.5-23.4l-28.5,2.6l7.5-27.6l-25.9,12.2l-2.4-28.5
				l-20.2,20.3l-12-26l-12,26L278,43.3l-2.4,28.5l-25.9-12.2l7.5,27.6l-28.5-2.6l16.5,23.4l-27.7,7.3l23.5,16.4l-23.5,16.4l27.7,7.3
				l-16.5,23.4l28.5-2.6l-7.5,27.6l25.9-12.2l2.4,28.5l20.2-20.3l12,26l12-26l20.2,20.3l2.4-28.5l25.9,12.2l-7.5-27.6l28.5,2.6
				L375.3,155.5z"/>
			<circle class="st13" cx="310.2" cy="131.8" r="69.4"/>
			<path class="st21" d="M368.7,94.4c3.1,7.8,4.9,16.3,4.9,25.1c0,37.7-31.4,69.1-69.1,69.1c-25.7,0-48.6-14.7-60.4-36
				c8.8,28.2,35.1,48.6,66.2,48.6c38.3,0,69.4-31.1,69.4-69.4C379.6,118,375.6,105.2,368.7,94.4z"/>
		</g>
	</g>
	<g id="sea_top">
		<path class="st15" d="M1131.5,603.7c-13.3,16.8-35.6,27.8-60.9,27.8c-25.3,0-47.6-11-60.9-27.8c-13.3,16.8-35.6,27.8-60.9,27.8
			s-47.6-11-60.9-27.8c-13.3,16.8-35.6,27.8-60.9,27.8s-47.6-11-60.9-27.8c-13.3,16.8-35.6,27.8-60.9,27.8
			c-25.3,0-47.6-11-60.9-27.8c-13.3,16.8-35.6,27.8-60.9,27.8c-25.3,0-47.6-11-60.9-27.8c-13.3,16.8-35.6,27.8-60.9,27.8
			s-47.6-11-60.9-27.8c-13.3,16.8-35.6,27.8-60.9,27.8s-47.6-11-60.9-27.8c-13.3,16.8-35.6,27.8-60.9,27.8
			c-25.3,0-47.6-11-60.9-27.8c-13.3,16.8-35.6,27.8-60.9,27.8c-25.3,0-47.6-11-60.9-27.8c-8.5,10.6-20.5,18.9-34.6,23.6V800h1200
			V631.1c-2.5,0.2-5,0.4-7.6,0.4C1167.1,631.4,1144.8,620.4,1131.5,603.7z"/>
		<path class="st25" d="M1131.5,707.2c-13.3,16.8-35.6,27.8-60.9,27.8c-25.3,0-47.6-11-60.9-27.8C996.4,724,974.1,735,948.8,735
			s-47.6-11-60.9-27.8C874.6,724,852.3,735,827,735s-47.6-11-60.9-27.8C752.8,724,730.5,735,705.2,735c-25.3,0-47.6-11-60.9-27.8
			C631,724,608.7,735,583.4,735c-25.3,0-47.6-11-60.9-27.8C509.2,724,486.9,735,461.6,735s-47.6-11-60.9-27.8
			C387.4,724,365.1,735,339.8,735s-47.6-11-60.9-27.8C265.6,724,243.3,735,218,735c-25.3,0-47.6-11-60.9-27.8
			C143.8,724,121.5,735,96.2,735c-25.3,0-47.6-11-60.9-27.8c-8.5,10.6-20.5,18.9-34.6,23.6V800h1200v-65.4c-2.5,0.2-5,0.4-7.6,0.4
			C1167.1,734.9,1144.8,723.9,1131.5,707.2z"/>
	</g>
</g>
<g id="sky">
	<rect class="st32" width="1200" height="512.3"/>
	<path class="st18" d="M0,445.7v-77.2c287.5-72.7,454.5-19.9,699.5-22c139.5-1.2,328,41.3,500.5,32.9v66.3H0z"/>
	<path class="st19" d="M0,498.2c321.6-20.9,882.2-71.6,1200-5.8V800H0V498.2z"/>
	<path class="st11" d="M368.7,599.5c57.7,0,104.8-7.6,104.8-16.8c0-9.3-47.1-16.8-104.8-16.8s-104.8,7.6-104.8,16.8
		C264,592,311,599.5,368.7,599.5z"/>
	<path class="st10" d="M312.1,641.1c14.4,0,26.1-5.9,26.1-13.1s-11.7-13.1-26.1-13.1S286,620.8,286,628
		C286.1,635.2,297.8,641.1,312.1,641.1z"/>
	<path class="st14" d="M0,283.9c0,0,578.5-62.9,877.5-33.9c178.9,17.4,322.5-4.7,322.5-4.7V0H0V283.9z"/>
</g>
<g id="Layer_11">
	<polygon class="st25" points="0,400.9 321.6,403.6 735.1,394.1 1200,400.9 1200,800 0,800 	"/>
</g>
<g id="Layer_8">
	<path class="st15" d="M42.3,469.2c4,1.3,649.1,51.3,859.1,100.7c210,49.5,210,196.7,85,234c-125,37.3-914.1,75.3-1033.1,54.4
		C-165.8,837.5,42.3,469.2,42.3,469.2z"/>
	<g>
		<g>
			<ellipse class="st3" cx="147.5" cy="673.5" rx="711.2" ry="159.9"/>
			<path class="st28" d="M791,669c0,75.7-289.6,137-646.9,137s-646.9-61.3-646.9-137s289.6-137,646.9-137S791,593.3,791,669z"/>
			<path class="st29" d="M-434.8,670.1c0-73.6,269.4-133.7,609-137.9c-12.6-0.2-25.2-0.2-37.9-0.2c-357.3,0-646.9,61.8-646.9,138.1
				c0,76.3,289.6,138.1,646.9,138.1c12.7,0,25.4-0.1,37.9-0.2C-165.4,803.8-434.8,743.7-434.8,670.1z"/>
			<path class="st29" d="M175.2,530.8c-12.7,0-25.4,0.1-37.9,0.2c339.6,4.2,609,64.3,609,137.9c0,73.6-269.4,133.7-609,137.9
				c12.6,0.2,25.2,0.2,37.9,0.2c357.3,0,646.9-61.8,646.9-138.1C822.1,592.7,532.5,530.8,175.2,530.8z"/>
			<path class="st19" d="M746.1,666.7c0-74.3-268.3-135-606.7-139.2c-338.3,4.2-606.7,64.9-606.7,139.2s268.3,135,606.7,139.2
				C477.8,801.7,746.1,741,746.1,666.7z"/>
			<path class="st11" d="M-416.7,655.7c0,0-9,84.9,563.2,84.9s563.4-84.9,563.4-84.9S612.8,446,151.7,446
				C-309.4,446-393.7,591.8-416.7,655.7z"/>
			<path class="st9" d="M709.9,655.7c0,0-28.1-60.5-125.5-116.5c29.8,72.8-71.9,50.5-91.6,54.1c-24.7,4.5-16.6,42.8-69.7,75.7
				c-53.1,32.9-95-30.8-136.7-35.8c-41.7-5.1-64.1,46.2-131.1,58.8S100,642.7,36.8,625c-63.2-17.7-111.5,23.6-164.6,19.8
				c-53.1-3.8-25.3-90.3-58.1-87.2c-49.6,4.7-44.4,55.1-112.5,44c-56.1-9.2,2.3-73,3.8-75.9c-83.3,44.7-110.5,97.8-122.1,130
				c0,0-9,84.9,563.2,84.9C718.8,740.6,709.9,655.7,709.9,655.7z"/>
			<path class="st31" d="M692.9,630.6c-32,24.9-142.8,85.6-547.8,85.6c-411.5,0-519.2-67.8-549.1-92.4c-4.8,10.9-11.5,23.6-14.1,31
				c0,0-9,102.9,563.2,102.9s563.4-102.9,563.4-102.9S703.9,646.6,692.9,630.6z"/>
			<path class="st17" d="M-133.1,496.6c0,42.9,124.1,77.7,277.2,77.7s277.2-34.8,277.2-77.7c0-9.3-1.7-14.8-12.4-23.1
				c-67.2-14.6-152-27.3-248.8-27.3c-112.8,0-202.9,8.7-275.2,22.9C-126.7,477.6-133.1,486.9-133.1,496.6z"/>
		</g>
	</g>
</g>
<g id="boat_1_">
	<g>
		<path class="st23" d="M552.4,389.5c-30.9-22.6-89.1-7.8-89.1-7.8c-0.2-12.8,11.1-18.3,15.7-28.5c4.5-10.2,10.4-13.3,19.6-13.3
			c9.2,0,9.9,24.3,16,22.7c6.1-1.6,9.5-0.8,9.7-38.2c0.1-37.4,18.8-72.1,18.8-72.1C524,304.7,552.4,389.5,552.4,389.5z"/>
		<g>
			<path class="st24" d="M550.3,398.1c0,0-4.6-158.1,12.8-191.8l3.5,1.2c0,0-17.5,66.5-5.8,190.1L550.3,398.1z"/>
			<path class="st19" d="M557.4,242.5c0,0-84.1,24.7-93.2,132.8c0,0,57.8-12.3,88.2,14.2C552.4,389.5,532.6,295.8,557.4,242.5z"/>
			<path class="st1" d="M554.4,285.5c0,0,13.2-4.7,22.2,4.9s26,0.2,26,0.2s-3.5,25.8-47.4,21C555.3,311.7,553.4,297.1,554.4,285.5z"
				/>
			<path class="st0" d="M552.4,389.5c-30.4-26.5-88.2-14.2-88.2-14.2c8.3-12.7,18.8-9.1,24.4-19.4c5.7-10.3,4.5-26.5,14.2-25.6
				c9.7,0.9,8.2,26.4,14.7,25.2s10.1,0,13.6-39.1c3.5-39.1,26.3-73.9,26.3-73.9C532.6,295.8,552.4,389.5,552.4,389.5z"/>
			<path class="st8" d="M553.8,312.1c0,0,0.4-6.6,0.4-13.6c4.5,0.7,8.6,7.1,17.4,1.2c4.9-3.3,6.3,1,15.2,2.8
				c8.9,1.8,15.8-12,15.8-12S597.7,316.9,553.8,312.1z"/>
			<path class="st5" d="M671,386.5c5.7-0.6-4.5,55.4-21.4,70c-4.7,4-139.8,22.2-165.9,15.6c-10.3-2.6-44.4-82.3-47.2-89.8
				C436.4,382.3,468.1,406.1,671,386.5z"/>
			<path class="st27" d="M459.1,432.8c-10.9-22.3-21.2-46.6-22.7-50.6c0,0,31.7,23.9,234.6,4.2c3.5-0.3,1,20.3-5.2,39.7
				C573.8,446.3,489.1,437.2,459.1,432.8z"/>
			<path class="st24" d="M667.3,421.4c-79.3,13.2-168.3,11.1-211.5,4.4c-5.7-12-11-24-14.6-32.4c18.1,3.7,58,9.7,119,8.2
				c65.7-1.6,99.8-5.6,112.4-7.4C672.1,400.9,670.2,411.1,667.3,421.4z"/>
			<g>
				<circle class="st5" cx="648.1" cy="411.8" r="10.1"/>
				<circle class="st5" cx="607.8" cy="415.4" r="10.1"/>
				<circle class="st5" cx="559.9" cy="417.5" r="10.1"/>
				<circle class="st5" cx="515.1" cy="418.1" r="10.1"/>
				<circle class="st5" cx="475.5" cy="416.2" r="10.1"/>
			</g>
			<g>
				<circle class="st16" cx="648.1" cy="410.7" r="10.1"/>
				<circle class="st19" cx="648.1" cy="410.7" r="7.1"/>
				<path class="st6" d="M647.6,404.8c-3.7,0.3-6.5,3.5-6.4,7.2c0-0.2-0.1-0.4-0.1-0.6c-0.4-3.9,2.5-7.4,6.4-7.8
					c3.9-0.4,7.4,2.5,7.8,6.4c0,0.2,0,0.4,0,0.6C654.6,407,651.3,404.4,647.6,404.8z"/>
			</g>
			<g>
				<circle class="st16" cx="607.9" cy="414.3" r="10.1"/>
				<circle class="st19" cx="607.9" cy="414.3" r="7.1"/>
				<path class="st6" d="M607.4,408.4c-3.7,0.3-6.5,3.5-6.4,7.2c0-0.2-0.1-0.4-0.1-0.6c-0.4-3.9,2.5-7.4,6.4-7.8
					c3.9-0.4,7.4,2.5,7.8,6.4c0,0.2,0,0.4,0,0.6C614.4,410.6,611.1,408,607.4,408.4z"/>
			</g>
			<g>
				<circle class="st16" cx="560" cy="416.4" r="10.1"/>
				<circle class="st19" cx="560" cy="416.4" r="7.1"/>
				<path class="st6" d="M559.4,410.5c-3.7,0.3-6.5,3.5-6.4,7.2c0-0.2-0.1-0.4-0.1-0.6c-0.4-3.9,2.5-7.4,6.4-7.8
					c3.9-0.4,7.4,2.5,7.8,6.4c0,0.2,0,0.4,0,0.6C566.4,412.7,563.2,410.1,559.4,410.5z"/>
			</g>
			<g>
				<circle class="st16" cx="515.1" cy="417" r="10.1"/>
				<circle class="st19" cx="515.1" cy="417" r="7.1"/>
				<path class="st6" d="M514.6,411.1c-3.7,0.3-6.5,3.5-6.4,7.2c0-0.2-0.1-0.4-0.1-0.6c-0.4-3.9,2.5-7.4,6.4-7.8
					c3.9-0.4,7.4,2.5,7.8,6.4c0,0.2,0,0.4,0,0.6C521.6,413.3,518.3,410.8,514.6,411.1z"/>
			</g>
			<g>
				<circle class="st16" cx="475.6" cy="415.2" r="10.1"/>
				<circle class="st19" cx="475.6" cy="415.2" r="7.1"/>
				<path class="st6" d="M475,409.3c-3.7,0.3-6.5,3.5-6.4,7.2c0-0.2-0.1-0.4-0.1-0.6c-0.4-3.9,2.5-7.4,6.4-7.8
					c3.9-0.4,7.4,2.5,7.8,6.4c0,0.2,0,0.4,0,0.6C482,411.5,478.7,408.9,475,409.3z"/>
			</g>
		</g>
		<g>
			<path class="st2" d="M671,386.5c0,0-0.9,0.2-2.6,0.6c-1.7,0.3-4.2,0.9-7.4,1.5c-3.2,0.6-7.1,1.3-11.5,2c-4.5,0.7-9.5,1.5-15,2.3
				c-11,1.5-23.9,3-37.7,4.2c-3.5,0.3-7,0.6-10.5,0.8c-3.6,0.3-7.2,0.5-10.8,0.7c-7.3,0.4-14.7,0.7-22.1,0.8
				c-7.4,0.1-14.8,0.2-22.2,0.1c-3.7,0-7.3-0.1-10.9-0.3c-3.6-0.1-7.1-0.3-10.6-0.5c-13.9-0.9-26.9-2.4-37.9-4.5
				c-5.5-1.1-10.5-2.2-14.9-3.5c-4.4-1.2-8.2-2.6-11.2-3.8c-3-1.2-5.3-2.4-6.9-3.2c-0.8-0.4-1.3-0.8-1.7-1c-0.4-0.2-0.6-0.3-0.6-0.3
				s0.9,0.3,2.5,0.8c1.7,0.5,4.1,1.1,7.2,1.8c6.3,1.4,15.3,2.6,26.3,3.4c10.9,0.8,23.7,1.2,37.5,1.4c3.4,0,6.9,0,10.5,0
				c3.5,0,7.1,0,10.7-0.1c7.2-0.1,14.6-0.2,21.9-0.3c7.3-0.1,14.7-0.3,21.9-0.5c7.2-0.2,14.4-0.4,21.3-0.6
				c13.8-0.4,26.7-0.8,37.8-1.1c5.5-0.1,10.6-0.2,15.1-0.3c4.5-0.1,8.4-0.1,11.7-0.2c3.2-0.1,5.8,0,7.5-0.1
				C670.1,386.5,671,386.5,671,386.5z"/>
		</g>
	</g>
</g>
<g id="palm_trees">
	<g>
		<path class="st7" d="M109.9,161c0,0-118.2,135.9-118.9,360.1c25.4,9,37.3-11.9,37.3-11.9S19.8,298.5,109.9,161z"/>
		<g>
			<g>
				<g>
					<path class="st20" d="M-59,105.6c0,0-5.7-27.9,34.7-50C16,33.6,68.4,43.8,93.1,98.2c24.8,54.4,16.6,65.3,16.6,65.3
						S82.5,130.2,65,125.9c-3-5.1-4-10.1-4-10.1s1.6-0.4,3.4-1.5c1.9-1,16.5-16.9,14.8-20.7c-4.8,4.5-17.1,22.1-23.6,21.6
						C57,112.4,71.2,103,72,95.5c-5.8,1.9-13.4,11.1-20.3,16.5c1.5-4,4.5-15.8,10.9-19.5c-1.8-0.4-10.3-1.1-18,16
						C40.8,102,26.1,81,11.5,89.1C10.4,87.4,8,67.4,8,67.4L3.9,89.7c0,0-7.3-7.1-3-25.1c-1.3,3.6-3.5,17-1.9,24.6
						c-6.1-0.5-27.5-0.8-37,6.4c-0.1-2.1,3.8-11.9,3.8-11.9s-1.7-1.4-5.8,0.9C-44.1,86.7-56.9,102-59,105.6z"/>
					<path class="st20" d="M113.3,163.4c0,0-19.5-16.5-32.5-20.5s-30.2,2.3-36.8-2.7c6.6,9.3,8.2,13.8,8.2,13.8l-3.8,2.1
						c0,0-7.1-13.5-13.1-11.1c-6,2.5-21.4,12.1-24.5,9.5c2.8,5,10.6,17.8,10.6,17.8s-13.6-12.9-18-13.7c2.4,2.2,8.7,9.8,10,13
						c-5.7-4.7-12.4-10.2-14.7-9.2c-2.3,1.1-9.5,15.4-20.1,20.4c-2.9,1.6-0.1,8.3-0.1,8.3s-9.9-3.4-13.9-5.5
						c2.7,3,11.9,15,13.1,18.3c-8.2-3.9-17-6.5-18.7-5.6c1.6,0.4,9.3,4.2,9.3,4.2s-23,20.1-0.3,57.3c2-6.2,14.9-31.9,25.3-36.1
						c0.9,2.4,3.6,4.6,3.6,4.6s-1.4-17.7-0.4-23.3c1.2,5.1,1,19.3,5.4,25.1c-0.6-4,0.9-16.9,1.2-20.1c2.7,6.1,4.3,10.8,10.4,8.2
						c6.1-2.6,5.8-6.8,11.3-9.5c5.4-2.7,11.3-4.8,11.3-4.8l-5-11.6l2-1.5l7.5,12.6l15.2-6.1l3.1-2.1c0,0-1.2-9,5.3-13.2
						c-2.8,4.8-2.9,14.3-2.9,14.3S102,163.8,113.3,163.4z"/>
					<path class="st20" d="M110.5,163.1c0,0,27.6,5.8,40.8,23.5c-11.5,4.1-12.6,6.9-12.6,6.9s10.1-1.8,19.8-2.8
						c-8.3,5.5-14.6,6.4-13.8,6c0.8-0.4,17.4-2.1,20,4.5c2.6,6.6,4.9,18.5-1.3,21.9c-6.2,3.4-11.1,3.6-11.1,3.6l18.3,0.8l-17.1,5.3
						l16.2-0.2c0,0-0.4,21.5-3.3,24.8c-2.9,3.3-8.5,3.4-8.5,3.4l10.8-0.2l0.1,4.8c0,0-11.4,1.5-13.3-1c3.8,3.7,9.3,3.1,10.6,5.3
						c1.3,2.2-1.6,22.6-22.3,34.3c-3-5.1-13.7-24.7-17.4-29.3c-3.7-4.6-10.4-6.4-10.4-6.4s12.8-6.8,19.8-7.9c-8.8-0.3-16-5.6-24,0.8
						c0.5-6.4-0.1-30.3-0.1-30.3s7.7-6.9,13.3-10.1c-8,4.1-17.6,9-17.6,9s6.2-13.2,10.2-15.4c-7.1,3.7-12.9,7.7-12.9,7.7
						s15-12.1,18.4-13.7c-7.1,2.6-20.7,9.5-20.7,9.5S97.8,175.5,110.5,163.1z"/>
					<path class="st22" d="M110.5,163.1"/>
					<path class="st20" d="M109.2,162.2c15.9-7.6,95.8-35.2,131.9,14.2c29,42.3,18.4,56.6,16.6,64.5c-3.3-2.2-21.1-16.3-21.1-16.3
						s0.2-12.3-0.5-19.1c-3.4,16-5.4,20.1-5.4,20.1s0.2-19.5,0.4-27.6c-4.9,17.3-9,27.3-9,27.3s-15.1-22-25.8-20.6
						c1.3-5.8,2.4-26.7-3.3-33.8c0,16.9-1.2,30.6-1.2,30.6s-8.4-13.4-12.5-13.9c-4.1-0.5-3.4-11.4-5.2-14.1c-1.8-2.7-9-9.3-9-9.3
						s6,13.2,4.2,24c-6.5-7-15.5-18.4-15.5-18.4s6.1,8.5,2.9,16.3c-4.5-5.3-17.4-15.5-20.1-12.7c2.5,3.1,3.3,6.9,4.8,8.3
						C137.2,184.7,126.8,164.8,109.2,162.2z"/>
					<path class="st20" d="M110.5,163.1c0,0,4.2-30.3,40.7-50.2s85-16.2,100.9,10.7c16,26.9,13,38,11.7,45.7
						c-3.4-4.9-8.8-21.7-14.4-28.4c3.3,9.7,4.8,14.2,3.6,19.8c-2.8-4-7.8-9.7-8.6-9.9c-0.8-0.2-13.6-4.2-15.7-3.1
						c-1.6-2.4-2-11.8-2-11.8l-2.4,12l-4.1-11.1l-5.3,9.9c0,0-11-14.3-27-12.6c-2.3-5.7-5.4-8.7-5.4-8.7s3.5,9.8,1.7,13.2
						c-2.3-4.3-8.4-11.4-10.5-12.3c2,4.1,3,5.8,3,5.8L175,133c0,0,1.7,4,2.2,5.8c-2.9-1.5-21.5-7.5-41.9,4.6
						c-20.4,12.2-20.4,15.3-25.5,20.1"/>
				</g>
			</g>
			<path class="st4" d="M116,161.4c0,0,65.6-28.8,106.6-2c41,26.8,40.8,64.1,35.9,78.6c-4.3-31.1,0.5-51.8-42.3-76.2
				C173.5,137.3,124.5,158.4,116,161.4z"/>
			<path class="st4" d="M111.7,158.3c0,0,10.9-40.6,60.3-53.9c49.4-13.3,76.6,8.6,85,27.9c8.4,19.3,9.6,27.7,6.9,37
				c-0.8-7.5,1.7-33.5-26.3-57.4c-23.1-19.7-75.6-0.4-85.4,3.8C142.4,119.9,113.4,145.7,111.7,158.3z"/>
		</g>
		<path class="st4" d="M114,165.4c0,0,52.5,52.1,33.5,132.3c-0.5-33.1,3.8-73.8-34.5-134.2"/>
		<path class="st4" d="M104.4,163c0,0-32.4-8.9-82.6,14.6c-50.2,23.5-62.8,48.9-56.7,77.1c1.5-11.1-7.1-49,60.1-75.8
			C92.3,152,93.1,166.6,104.4,163z"/>
		<path class="st4" d="M-54.5,87.4c0,0,26.9-38.7,71.8-39.1c72.7-0.6,88.7,107.5,93.8,108c-3-24.3-26-119.8-98.6-111.4
			C-38.6,50.8-50.2,78-54.5,87.4z"/>
	</g>
	<g>
		<path class="st7" d="M-163.9,328.4c0,0,131.1,40.1,221.1,185.5c-16,15.4-29,7.5-29,7.5S-50.5,381-163.9,328.4z"/>
		<g>
			<path class="st20" d="M-273.6,237.1c0,0,42.6-10.7,69.4,6.1c-10.3,6.2-10.3,6.2-10.3,6.2s10.2-5.6,17.6-5.6
				c-3.7,3.5-11.4,4.7-16.8,11.1c7.7-3.5,26.6-9,34,1.7c-11.7,3.7-22.8,7.3-22.8,7.3s23-4.2,24.9-0.9s9.1,11.5,9.1,11.5l-15.2,7
				l17.9-5.7l-16.4,7.6l17.9-3.1l-13,4.2l16.7,2.2c0,0-4.7,25.6,4.9,42.1c-8.6-2.7-31.4-18.5-35.6-18.2
				c-4.2,0.3-15.3-15.5-15.3-15.5l7-4.9l-8.1,1.5c0,0,3.9-4.9,3.2-7.8c-0.6-2.9-6,3.5-6,3.5s-6.2-6.1-10.5-6.9
				c1.8-2.4,7.8-10.6,7.8-10.6s-11.9,4.8-15.1,7.4c0.9-3.4,6.2-10.9,6.2-10.9l-9,8.4C-230.9,274.7-246.6,241.8-273.6,237.1z"/>
			<path class="st20" d="M-157.1,327.8c-0.6,2.2-7.1-100.2,53.2-119.4c18.9-6.1,39.8,10.4,41.2,21c0,0,3.6,14,1.2,18.2
				c-2.9-8.2-7.8-20.7-7.8-20.7s4.2,15-0.3,16.5c-4.7-5.3-14-6.6-17.2-5.5c-2.2-3.8-9.4-12.2-9.4-12.2s4.5,11.6,4.5,13.8
				c-2.3-3.2-7.2-8.7-8.4-8.6c1.7,2.3,6.1,11,6.6,12.5c-3.2,1-14.8,1.7-20.7,18.9c-5.6-1.3-15.4-5-15.4-5l15.8,8.9
				c0,0-18.7-5-24.2-4c-3.8,1.4,16.6,10.2,19.1,16.3c-4,0.5-15.8-9.4-21.4-7.8c0.7,2.7,13.9,10.8,16.5,14.4
				c-4.3,3-12.6,12.4-14.6,12.6c-1.9,0.2-3.3,0.3-3.3,0.3l9.4,4.1l-11.7-2.7c0,0,6.3,4.9,5.8,5.1
				C-138.8,304.4-155,319.5-157.1,327.8z"/>
			<path class="st20" d="M-157.1,327.8l15.9-17.5c0,0,8.7,1,13.2-0.4c4.5-1.4,6.7-4.2,6.7-4.2l2.2,7l4.9-14.5l1.7,13.8l7.4-12.5
				c0,0,24.6,1.9,33.9,7c-7.4,6.6-9.8,12.2-9.8,12.2s10.9-6.3,15.2-7.3c5.2,1.8,25.9,10.6,33.7,34.9c4,12.5,3.4,17.9,3.4,17.9
				s-16.2-19.8-26.2-16.4c-1.3-2.7-2.7-3.1-2.7-3.1l0.6,3.1l-11.8-0.6c0,0-2.2-5.7-3.8-7.2c0.7,4,1.7,7.1,1.7,7.1s-16-11.8-36.3-4.5
				c-1.4-3.7-2-6.6-0.8-9.2c-2.8,4.6-3.8,8.8-3.8,8.8s-2.8-4.3-2.6-10c-1.8,4.6-3.9,7-3.9,7s-10.8-3.2-17.1-1.2
				C-140.4,339.8-154.8,332.1-157.1,327.8z"/>
			<path class="st20" d="M-154.7,325.5c0,0,10.1,28.7,19.2,38c-5.8,1.7-12.2,5.5-15.1,9.5c7.4-2.4,17.5-4.4,18.8-2
				c-8.7,1.9-17.8,4.5-19.4,6.2c5.9-1.3,20.6,1.3,22.7,0.6c-1.6,4.5-4.1,13.4,1.4,25.7c-4,0.1,0.8,2.5,0.8,2.5s-10.5-0.5-15.2,1.2
				c-4.8,1.7-4.5,5.1-4.5,5.1s18.6-2.6,20.3,2.1c0.3,2.9-9.6,5-13.6,6.3c6.3,0.8,14.3,2.4,15.3,5.6c-6,0.9-11.5-1.4-15.9,2.8
				c6.3-1.7,18.5-1.2,19.8,3.6c-2.3,3.7-10.9,23.2-9.9,32.1c-5.8-1.3-38.8-19.3-42.4-40.7c-1.9-6.5-0.2-5.3-0.2-5.3l5.3-4.3l-6.9,1
				l-4.8-2c0,0,10.7-5.3,12-6.1c-2.3-0.5-8.7-0.8-9.7-3.4c0.2-0.6,1.9-1.6,1.9-1.6l-1.1-4.4c0,0-2.1-1.9-3.4-5.7
				c-1.2-3.9,6.5-4.6,6.5-4.6l-0.4-2.4c0,0-7.1,1-7.9-1.7c1.2-0.7,6.3-2.4,6.3-2.4l-0.3-1.3l-8-1.9
				C-183.1,377.8-179.7,339-154.7,325.5z"/>
			<path class="st20" d="M-220.5,445.8c0,0-5.3-18.4-2.9-26c-2.9-0.1-3.4-2.1-3.4-2.1l6.6-2.1c0,0,2-6.4,1.5-10.4
				c-3.9-4-13.9-13.1-13.9-13.1l17.6,6.7c0,0,4.9-14.1,11.7-16.1c-6.1-3-14.9-13.5-14.9-13.5l16.9,11.6c0,0-6.1-28.1-3.5-28.7
				c2.7-0.6,14.1,13.6,14.1,13.6l-7.2-11.3l9.6,6.1c0,0,11.7-22.5,30.1-33.8c0,0-13.8-1-26.5,3.1c-12.7,4.1-72.6,28.7-53.2,89.2
				c10.6,29.5,16.4,27.2,16.4,27.2"/>
			<path class="st20" d="M-155.7,328.6c0,0-58.8-26.5-66.5-26.4c1.2,5.6,3.4,15.1,3.4,15.1l-9.9-13.1l2.7,14.6l-10.9-13.5
				c0,0-5.3,1.4-13.5,4.3c-8.2,2.9-31.7,18.4-31.7,18.4l8.7,12.4l-20.6-13.3l14.7,11.6l-11.9-5l7.6,9.1l-10.1-5.1
				c0,0-19.4,30-35.8,35.4c6.1,3.6,29.7,10.4,43.3,5.4c4.2-1.2,6-1.9,6-1.9l-2.7-7.4l8.2,6.9l-1.4-10.7l2.4,5.8c0,0,5.9-4.8,8.9-5.7
				c3-1,9.3-1.2,9.3-1.2l-7-17.5l11.9,13.6l-4.4-19l15.3,12.4c0,0,6.3-6.6,12.3-8.5c6-1.9,14.1-0.7,14.1-0.7l0.7-11.1l6.2,7.4
				l3.9-8.7l2.8,7C-199.4,339.2-167.1,328.2-155.7,328.6z"/>
			<path class="st4" d="M-269.5,236.2c0,0,48.6-9.9,111.3,87.1C-170.9,310.9-214,240.4-269.5,236.2z"/>
			<path class="st4" d="M-168.7,325.4c0,0-53.2-16.9-92.3,5.9s-52.2,42.1-68.3,43c15.7-1.6,62.4-37.4,70.5-40.9
				C-239.8,325.2-215.6,320.7-168.7,325.4z"/>
			<path class="st4" d="M-157.3,329.4c0,0-15,13.4-4.3,68.4c10.7,54.9,23.4,55.5,29,63.5c-5-11.4-20-15.7-25.3-67.4
				C-163.3,342.2-159.7,337.1-157.3,329.4z"/>
			<path class="st4" d="M-152.1,326.2c0,0,26.7-9.1,48.9-6.1c22.2,3,54,5.2,70.2,32.9c-11.5-12.1-29.3-28.8-68.4-28.4
				C-140.4,325-144.4,323.9-152.1,326.2z"/>
			<path class="st4" d="M-165.2,328.8c0,0-17.9-1.8-41.3,13.2s-39.3,40.7-29.4,74.1c10,33.4,14.5,29.4,14.5,29.4s-22.4-34-15.1-60.9
				C-229.1,357.6-209.3,337.5-165.2,328.8z"/>
			<path class="st4" d="M-62.1,242.5c0,0,2.3-38.4-41.8-33.4c-39.4,4.5-56,88.4-53.7,112.7c2.3-3.3,8-105.3,55.2-111.8
				C-87,207.8-67.6,210.1-62.1,242.5z"/>
		</g>
	</g>
</g>
</svg>
