<?xml version="1.0" encoding="utf-8"?>
<!-- Generator: Adobe Illustrator 16.0.0, SVG Export Plug-In . SVG Version: 6.00 Build 0)  -->
<!DOCTYPE svg PUBLIC "-//W3C//DTD SVG 1.1//EN" "http://www.w3.org/Graphics/SVG/1.1/DTD/svg11.dtd" [
	<!ENTITY ns_flows "http://ns.adobe.com/Flows/1.0/">
	<!ENTITY ns_extend "http://ns.adobe.com/Extensibility/1.0/">
	<!ENTITY ns_ai "http://ns.adobe.com/AdobeIllustrator/10.0/">
	<!ENTITY ns_graphs "http://ns.adobe.com/Graphs/1.0/">
]>
<svg version="1.1" id="Layer_1" xmlns:x="&ns_extend;" xmlns:i="&ns_ai;" xmlns:graph="&ns_graphs;"
	 xmlns="http://www.w3.org/2000/svg" xmlns:xlink="http://www.w3.org/1999/xlink" xmlns:a="http://ns.adobe.com/AdobeSVGViewerExtensions/3.0/"
	 x="0px" y="0px" width="1200px" height="800px" viewBox="0 0 1200 800" style="enable-background:new 0 0 1200 800;"
	 xml:space="preserve">
<style type="text/css">
<![CDATA[
	.st0{fill:#88E675;}
	.st1{fill:#EC2024;}
	.st2{fill:#ED2224;}
	.st3{fill:#543D18;}
	.st4{fill:#568E39;}
	.st5{fill:#BF2525;}
	.st6{fill:#F8D992;}
	.st7{fill:#FFFFFF;adobe-blending-mode:colorDodge;enable-background:new    ;}
	.st8{fill:#2FA5CC;}
	.st9{fill:#FFF3CA;}
	.st10{fill:#FFFFFF;}
	.st11{fill:#65A43F;}
	.st12{fill:#697366;}
	.st13{fill:#CF3530;}
	.st14{fill:#372500;}
	.st15{fill:#71BB42;}
	.st16{fill:#A17540;}
	.st17{fill:#727D6F;}
	.st18{fill:#A5DBDE;}
	.st19{fill:#DBBE78;}
	.st20{fill:#429C46;}
]]>
</style>
<g id="background_island">
	<path class="st8" d="M714.9,653.8c-71.8,4.8-141.1-8.7-211.9-13.5c-89.6-6.1-202-18.2-279.4-68.5c-60-38.9,28-69.4,67.7-80.8
		c5.8-1.6,10.6-2.9,13.8-3.7c4-1,8-2,12.1-3c63.6-15.5,128.7-24.9,194.1-28c91.4-4.4,183.3,3.3,272.7,23c33.2,7.3,93,17,130.9,40.1
		c12.3,7.5,22.4,16.5,28.4,27.2C988,626.6,752,651.3,714.9,653.8z"/>
	<path class="st18" d="M699.1,623.2c-65,4.5-127.8-8.1-192-12.7c-81.2-5.7-183-17.1-253.1-64.1c-54.3-36.4,25.3-65,61.3-75.6
		c5.3-1.5,9.6-2.7,12.5-3.5c3.6-1,7.3-1.9,10.9-2.8c57.6-14.6,116.6-23.3,175.8-26.2c82.8-4.1,166.1,3,247.1,21.5
		c30,6.8,57.3,9.7,91.7,31.4c11.2,7,29.1,10.2,54.5,39.5C963.8,595,732.7,620.9,699.1,623.2z"/>
	<path class="st6" d="M703.2,596.8c-56.5,3.7-111-6.7-166.7-10.5c-70.5-4.7-158.9-14.1-219.9-53c-47.2-30.1,22-53.8,53.3-62.6
		c4.6-1.3,8.4-2.3,10.8-2.9c3.2-0.8,6.3-1.6,9.5-2.3c50.1-12,101.3-19.3,152.7-21.7c71.9-3.4,144.2,2.5,214.6,17.8
		c26.1,5.7,73.2,13.2,103,31.1c9.7,5.8,17.6,12.7,22.3,21C918.1,575.8,732.3,594.9,703.2,596.8z"/>
	<path class="st19" d="M703.2,584.4c-56.5,3.7-111-6.7-166.8-10.5c-68.1-4.6-143.1-10.6-204.2-44c-8.4-4.6-17.9-7-20.6-17.6
		c-2-7.7,1.2-16.4,7.5-21.1c-7.4,5.4-17.1,10.4-18.5,20.9c-1.2,9.3,9.2,16.9,15.9,21.1c60.9,38.9,149.4,48.3,219.9,53
		c55.7,3.7,110.3,14.2,166.8,10.5c27.7-1.8,197.1-19.2,183.2-74.3C874.1,567.8,728.7,582.7,703.2,584.4z"/>
	<path class="st15" d="M860.4,492.7c0,3.3-1.1,6.5-3.6,8.8c-5.1,4.6-12.8,3-19.6,2.4c-27.2-2.4-51.8,15.2-77.9,23.3
		c-36.7,11.4-76.3,3.9-114.7,6.5c-45.7,3.2-92.6,20.7-135.9,5.7c-22.9-7.9-42.4-24.4-65.8-30.9c-14.7-4.1-30.2-4.1-45.1-7.1
		c-11.3-2.3-31.6-8.6-30.4-23.8c0.2-2.3,1-4.6,2.3-6.8c4.6-1.3,8.4-2.3,10.8-2.9c3.2-0.8,6.3-1.6,9.5-2.3
		c50.1-12,101.3-19.3,152.7-21.7c71.9-3.4,144.2,2.5,214.6,17.8C783.5,467.3,830.6,474.8,860.4,492.7z"/>
	<path class="st0" d="M838.7,483.8c2.9-1.6,6.8,0.7,7.6,3.9s-0.9,6.6-3.4,8.7c-2.5,2.1-5.7,3.1-8.9,3.9c-12.5,3.2-25.4,3.9-38.3,4.6
		c-6.7,0.4-15.2-0.5-21.7,1.4c-5,1.5-9.6,4.6-14.7,6.2c-36.7,11.4-76.3,3.9-114.7,6.5c-45.7,3.2-92.6,20.7-135.9,5.7
		c-20.3-7-37.4-20.3-57.9-26.5c-21.3-6.4-44.5-2.1-65.3-10.3c-4.8-1.9-9.8-4.9-11.3-9.8c-1.5-4.9,2.7-11.4,7.7-10.1
		c-3.3-1.4-7.3-0.8-10.1,1.5c-7.8,6.3-3.9,17.1,2.5,22.4c6.5,5.3,15.4,7.8,23.5,9.5c14.9,3.1,30.4,3,45.1,7.1
		c23.4,6.5,42.8,23,65.8,30.9c43.3,14.9,90.2-2.6,135.9-5.7c38.3-2.6,78,4.9,114.7-6.5c26.1-8.1,50.6-25.7,77.9-23.3
		c6.8,0.6,14.6,2.2,19.6-2.4c2.4-2.2,3.5-5.4,3.6-8.8c-3.7-2.2-7.4-3.8-11-5.6C847,485.9,841.7,482.1,838.7,483.8z"/>
	<path class="st4" d="M627.4,423.3c3.2-1,7.3,1.6,7.1,4.9c-2.3-7.7-1.9-16.6,2.7-23.3c4.6-6.7,13.6-10.5,21.2-7.6
		c7.6,2.8,11.9,12.9,7.7,19.8c0.2-5.8,5.5-10.9,11.3-11.2c5.8-0.3,11.4,3.9,13.2,9.5c1.7,5.6-0.4,12-4.8,15.8
		c4.1-4.6,12.5-3.9,15.9,1.2c3.4,5.1,0.6,13.1-5.2,15.1c1.2-4.2,8.2-3.4,10,0.6c1.7,4-0.5,8.6-3.6,11.7c-9,8.9-23.2,8.9-35.8,8.3
		c-13.5-0.7-31-1-43.8-5.9c-7.9-3-10.3-10.4-7.6-17.8c1.2-3.2,5-4.8,6.4-7.9C623.9,431.9,620.1,425.5,627.4,423.3z"/>
	<path class="st17" d="M545.7,486.5c-19.6-2-39.1-4-58.7-6c-16.2-1.7-35.6-0.3-51.2-3.9c-23-5.2,23-31.8,30.5-37.7
		c17.4-13.7,33.9-28.8,47.7-46.2c7.2-9,26-37.5,40.6-26.3c1,0.8,2.2,1.8,3.5,1.5c1.1-0.2,1.7-1.3,2.7-2c1.7-1.1,4-0.3,5.8,0.6
		c1.8,1,3.7,2.2,5.7,1.9c2-0.3,3.5-3.2,1.9-4.4c5-2,9.7-2.8,15.2-2.4c9.7,0.8,16.9,9.1,23.1,16.7c30.9,37.6,66.1,71.5,104.9,100.8
		c-17.6,11.8-39.8,13.9-61,14.2C619.3,494,582.4,490.3,545.7,486.5z"/>
	<path class="st12" d="M449.3,449.9c11.5-6.4,22.6-13.6,33.1-21.6c9-6.8,19-20.3,29.2-24.7c1.7-0.7,3.8-0.4,4.9,1.1
		c2,3-10.7,25.6-12.4,30.1c-4.6,12.2-8.6,24.6-12,37.2c-12.3-2.8-24.7-5.6-37-8.3c-3.2-0.7-6.7-1.7-8.6-4.4
		c-1.8-2.7-0.1-7.6,3.2-7.2"/>
	<path class="st12" d="M630.2,400.2c0.5,22.2,20.5,39.6,24.1,61.5c0-0.2-22-5-24.3-6c-5.9-2.7-8.4-5.7-12.1-10.7
		c-5.3-7.2-11.3-14.4-17.8-20.5c-3.4-3.1-12-7.9-12.4-12.9c1,12,5.9,22.4,7.9,33.9c1.3,7-2.4,21.9,1.6,27.4
		c-8.2-11.2-18-21.3-28.9-30c2.3,11.2,4.6,22.4,6.9,33.6c0.6,3,1.3,6.2,3.4,8.4c3.3,3.4,8.6,3.3,13.3,3.1
		c41.9-1.6,86.9,16.9,125.3-8.8c-3.4,2.3-42.6-35.4-47-39.4C656.3,427,644.1,413,630.2,400.2z"/>
	<path class="st11" d="M429.6,488.4c-3.4-1.8-15-9.5-14.9-13.5c0.1-3.5,4.2-7,7.6-5.8c-5.8-2-8.6-10-5.3-15.2
		c3.3-5.2,11.6-6.2,16-1.8c-1.1-5.2,2.7-10.8,7.8-12.2c5.1-1.4,10.9,1,14.1,5.3c3.2,4.3,3.7,10.2,2.2,15.3c1.7-7.2,10.2-12,17.2-9.6
		c7,2.4,10.8,11.4,7.7,18.1c5.7-12.4,23-4,16.5,7.1c2.5-7.5,12.6-11.4,19.4-7.4c6.8,4,8.4,14.7,3.1,20.5c1.4-4.7,6.9-7.6,11.6-6.3
		c4.7,1.4,7.7,6.8,6.4,11.5c-1.5,5.3-7.4,8.3-12.9,8.3s-10.6-2.5-15.6-4.9c1.7,1.2,2.3,3.7,1.6,5.6c-4.3,10.8-36.3-11.4-39.6-14.8
		c-3.3,4.1-9,5.3-14.2,4.9s-10.2-2-15.3-2.7C438.5,490.3,433.7,490.5,429.6,488.4z"/>
	<path class="st11" d="M679.9,498c-4.3,1.9-8.8,3.8-13.6,3.7c-4.7-0.2-9.7-3.1-10.6-7.7c-0.9-4.6,4.3-9.7,8.5-7.5
		c-6.3-1.7-9.9-9.8-6.9-15.6c3-5.8,11.8-7.5,16.8-3.2c-2.9-3.5-1.6-9.3,2.1-11.9c3.7-2.6,9-2.2,12.8,0.2s6.4,6.4,8,10.7
		c-2.5-5.6-2.7-12.5,0.5-17.8c3.2-5.3,10.2-8.3,15.9-6c5.7,2.2,8.7,10.2,5.1,15.2c2.7-6,7.2-11.6,13.4-13.8
		c6.2-2.2,14.1-0.4,17.5,5.3c3.4,5.7,0.3,14.5-6.2,15.6c3.3-3.7,10-3.5,13.1,0.4c3.1,3.9,1.7,10.5-2.7,12.8c2.7-1.5,5.9-2.8,8.6-1.4
		s2.3,6.7-0.7,6.5c3.2-1.1,6,3.2,4.9,6.4c-1.1,3.1-4.3,5-7.4,6.2c-8.8,3.6-18.6,4.9-28.1,3.8c1.8,0.2,2.5,2.8,1.5,4.4
		c-1,1.6-2.9,2.2-4.7,2.7c-16.1,4.2-33.6,3.1-49.1-3.3c1.7-1.2,3.4-2.3,5.2-3.5c-1.9,0.1-3.9,0.2-5.8,0.2"/>
	<path class="st20" d="M535.7,489.1c-2.7-8.6,4.1-18.8,13.1-19.7c9-0.9,17.6,7.8,16.7,16.8c-0.5-5.9,0.3-12.2,3.7-17
		c3.4-4.8,10-7.8,15.5-5.7c5.6,2.1,8.5,9.9,4.6,14.5c1.6-7.8,10.6-13.3,18.3-11.2c1.4,3.1,1.7,6.8,0.6,10.1
		c2.8-5.2,10.2-7.4,15.4-4.4c5.1,3,7,10.5,3.9,15.5c4.7-4.8,9.8-9.9,16.4-10.9c6.6-1.1,14.5,4.3,13.3,10.9c2.2-4.8,9.6-5.7,13.4-2.2
		c3.9,3.6,3.9,10.2,0.7,14.4c-3.3,4.2-9.1,5.8-14.3,4.8c-24.8,6.7-51.2,7.2-76.2,1.4c-2.2,6.1-10.4,8-16.5,5.6
		c-6-2.4-10.3-7.7-14.3-12.7c-4.6,2.1-9.9,4.2-14.5,2.1c-4.6-2.1-5.2-10.6-0.2-11.3"/>
	<path class="st12" d="M535.4,383.3c-6.4,12.7-11.7,25.8-18.3,38.4c-3.2,6.2-6.5,12.3-10,18.4c-3.6,6.2-8,12.2-10.8,18.8
		c-0.3,0.7,0.5,1.5,1.1,0.8c4.4-5.1,7.6-11.4,10.9-17.2c3.7-6.5,7.3-13,10.7-19.7c6.5-12.6,13.2-25.6,17.5-39
		C536.8,383.1,535.8,382.6,535.4,383.3z"/>
	<path class="st12" d="M545.8,410.4c-3.9,9.6-7.1,19.5-10.9,29.2c-1.9,5-4,9.9-6,14.8c-2,4.6-4.4,9.2-5.5,14
		c-0.2,0.7,0.8,1.1,1.2,0.5c2.9-4,4.7-9,6.7-13.5c2-4.8,4-9.6,5.8-14.4c3.8-9.8,7.7-19.9,10.2-30.2
		C547.4,409.9,546.1,409.6,545.8,410.4z"/>
	<path class="st12" d="M601.7,365.3c-2,3.4-6,5.1-10,5.4c-3.9,0.3-7.8-0.7-11.6-1.6c8.5,9.5,21.2,15,33.9,14.7
		c-4.4-5.6-8.7-11.3-13.1-16.9"/>
	<path class="st7" d="M886.1,523.7c4.3,19-11.5,36.9-69.4,54.3c-57.9,17.4-131.4,21.3-168.5,18.2c-37.1-3.1-118.7-11.6-137.7-12
		c-19-0.4-78.6-9.5-95.7-13.3c-17.3-3.7-167.7-43-90.5-83.1c0,0-24.2,7.4-27.7,21.2c-3.5,13.7,9.3,24.5,21.3,30.9
		c12,6.4,43.3,32.6,155.1,45.2c111.8,12.6,109.4,11.7,115.6,12.6c6.2,0.9,124.2,12.4,186.1-2.8c61.9-15.1,135.6-41.5,111.6-79.5
		l-7.6-7.7C878.7,507.7,883.7,513,886.1,523.7z"/>
</g>
<g id="island_front">
	<path class="st8" d="M960.7,756c-9.6-21.8-25.7-40-45.6-55.3c-60.9-47-157.1-66.8-210.3-81.7c-143.7-40.2-291.4-55.7-438.2-46.8
		C177,577.7,87.8,592.3,0,616.1V800h969.7C970.4,786.3,967.7,771.7,960.7,756z"/>
	<path class="st18" d="M918.1,739.2c-9-20.4-76.5-61.4-95.1-75.7c-57-44-103.8-67.3-153.6-81.2c-134.4-37.6-272.7-52.2-410-43.8
		c-87.2,5.4-174,20-259.3,43.9V800h921.5C928.6,782.6,928.3,762.4,918.1,739.2z"/>
	<path class="st9" d="M787.6,630c-50.3-33.5-115.5-59.2-152.9-70.7c-120.8-37.2-238.6-150.4-362.1-142.1
		c-88.3,6-178.9,138.2-264.8,167.5c-2.6,0.9-5.2,1.8-7.8,2.7V800h876.1c0.8-0.6,1.5-1.2,2.2-1.8c29.4-28.1,21.6-15.3,29.4-28.1
		C894.5,732,812.6,638.1,787.6,630z"/>
	<path class="st17" d="M589.3,582.7c0,0,13.8-23.1,31.8-27.4s26.9,31.2,21.7,44.2S589.3,582.7,589.3,582.7z"/>
	<path class="st17" d="M568.3,565.9c0,0-16.3,3.1-11.8,10.6S567.2,587.7,568.3,565.9z"/>
	<path class="st12" d="M630.9,594.6c0,0,6.4-21.3-14.1-21.4C596.3,573.1,613.6,593.1,630.9,594.6z"/>
	<path class="st17" d="M523.4,800c50.6-25.2,97.6-79.7,85.7-100.2c0,0-148.3-280.7-286.7-305.6C225.9,376.8,106,444.3,0,507.9v284.5
		c10.1,2.7,20.1,5.2,29.9,7.6H523.4z"/>
	<path class="st12" d="M436.7,659.8c-37-63.2-17.9-199.9-286.5-118.1c0,0-74.1,29.3-150.2,94v54.4c38.6-18.9,78.5-39.3,84-39.4
		c10.7-0.1,20.7,12.6,11.7,37.7c-9,25.1,40.1,45.7,86.1,46.4S473.7,723.1,436.7,659.8z"/>
</g>
<g id="boat_1_">
	<path class="st13" d="M936,503.4c-7.6-5.5-21.8-1.9-21.8-1.9c-0.1-3.1,2.7-4.5,3.8-7s2.5-3.3,4.8-3.2c2.3,0,2.4,5.9,3.9,5.5
		c1.5-0.4,2.3-0.2,2.4-9.3c0-9.1,4.6-17.6,4.6-17.6C929.1,482.7,936,503.4,936,503.4z"/>
	<g>
		<path class="st14" d="M935.5,505.5c0,0-1.1-38.6,3.1-46.9l0.9,0.3c0,0-4.3,16.2-1.4,46.5L935.5,505.5z"/>
		<path class="st10" d="M937.3,467.5c0,0-20.6,6-22.8,32.5c0,0,14.1-3,21.6,3.5C936,503.4,931.2,480.5,937.3,467.5z"/>
		<path class="st1" d="M936.5,478c0,0,3.2-1.1,5.4,1.2c2.2,2.3,6.3,0.1,6.3,0.1s-0.9,6.3-11.6,5.1
			C936.8,484.4,936.3,480.8,936.5,478z"/>
		<path class="st10" d="M936,503.4c-7.4-6.5-21.6-3.5-21.6-3.5c2-3.1,4.6-2.2,6-4.7c1.4-2.5,1.1-6.5,3.5-6.3c2.4,0.2,2,6.4,3.6,6.2
			c1.6-0.3,2.5,0,3.3-9.6c0.9-9.6,6.4-18.1,6.4-18.1C931.2,480.5,936,503.4,936,503.4z"/>
		<path class="st5" d="M936.4,484.5c0,0,0.1-1.6,0.1-3.3c1.1,0.2,2.1,1.7,4.3,0.3c1.2-0.8,1.5,0.2,3.7,0.7c2.2,0.4,3.9-2.9,3.9-2.9
			S947.1,485.6,936.4,484.5z"/>
		<path class="st3" d="M965,502.6c1.4-0.1-1.1,13.5-5.2,17.1c-1.1,1-34.2,5.4-40.5,3.8c-2.5-0.6-10.8-20.1-11.5-21.9
			C907.7,501.6,915.5,507.4,965,502.6z"/>
		<path class="st16" d="M913.2,514c-2.7-5.5-5.2-11.4-5.5-12.4c0,0,7.7,5.8,57.3,1c0.8-0.1,0.3,4.9-1.3,9.7
			C941.3,517.3,920.6,515,913.2,514z"/>
		<path class="st14" d="M964.1,511.2c-19.4,3.2-41.1,2.7-51.7,1.1c-1.4-2.9-2.7-5.9-3.6-7.9c4.4,0.9,14.2,2.4,29.1,2
			c16-0.4,24.4-1.4,27.5-1.8C965.3,506.2,964.8,508.6,964.1,511.2z"/>
		<g>
			<circle class="st3" cx="959.4" cy="508.8" r="2.5"/>
			<circle class="st3" cx="949.6" cy="509.7" r="2.5"/>
			<circle class="st3" cx="937.9" cy="510.2" r="2.5"/>
			<circle class="st3" cx="926.9" cy="510.4" r="2.5"/>
			<circle class="st3" cx="917.3" cy="509.9" r="2.5"/>
		</g>
		<g>
			<circle class="st10" cx="959.4" cy="508.6" r="2.5"/>
			<circle class="st10" cx="959.4" cy="508.6" r="1.7"/>
		</g>
		<g>
			<circle class="st10" cx="949.6" cy="509.4" r="2.5"/>
			<circle class="st10" cx="949.6" cy="509.4" r="1.7"/>
		</g>
		<g>
			<circle class="st10" cx="937.9" cy="509.9" r="2.5"/>
			<circle class="st10" cx="937.9" cy="509.9" r="1.7"/>
		</g>
		<g>
			<circle class="st10" cx="926.9" cy="510.1" r="2.5"/>
			<circle class="st10" cx="926.9" cy="510.1" r="1.7"/>
		</g>
		<g>
			<circle class="st10" cx="917.3" cy="509.6" r="2.5"/>
			<circle class="st10" cx="917.3" cy="509.6" r="1.7"/>
		</g>
	</g>
	<path class="st2" d="M965,502.6c0,0-0.2,0-0.6,0.1c-0.4,0.1-1,0.2-1.8,0.3c-1.6,0.2-3.8,0.5-6.5,0.8c-1.3,0.1-2.8,0.3-4.4,0.4
		c-1.5,0.1-3.2,0.3-4.9,0.4c-1.7,0.1-3.4,0.2-5.2,0.3c-1.8,0.1-3.6,0.1-5.4,0.2c-1.8,0-3.6,0-5.4,0s-3.5-0.1-5.2-0.2
		c-1.7-0.1-3.3-0.2-4.9-0.4c-1.6-0.1-3-0.3-4.4-0.6c-1.3-0.2-2.6-0.5-3.6-0.7c-1.1-0.3-2-0.5-2.7-0.8c-0.7-0.3-1.3-0.5-1.7-0.7
		c-0.2-0.1-0.3-0.2-0.4-0.2c-0.1-0.1-0.1-0.1-0.1-0.1s0.1,0,0.2,0.1c0.1,0,0.3,0.1,0.5,0.2c0.4,0.1,1,0.3,1.7,0.5
		c0.8,0.2,1.7,0.4,2.8,0.6s2.3,0.3,3.6,0.5c1.3,0.1,2.8,0.2,4.3,0.3c1.5,0.1,3.2,0.1,4.9,0.2c1.7,0.1,3.4,0,5.2,0s3.6,0,5.4-0.1
		c1.8,0,3.6-0.1,5.4-0.1c1.8-0.1,3.5-0.1,5.2-0.2c1.7-0.1,3.3-0.2,4.9-0.2c1.5-0.1,3-0.2,4.4-0.2C961.4,502.8,965,502.6,965,502.6z"
		/>
</g>
</svg>
