<?xml version="1.0" encoding="utf-8"?>
<!-- Generator: Adobe Illustrator 16.0.0, SVG Export Plug-In . SVG Version: 6.00 Build 0)  -->
<!DOCTYPE svg PUBLIC "-//W3C//DTD SVG 1.1//EN" "http://www.w3.org/Graphics/SVG/1.1/DTD/svg11.dtd" [
	<!ENTITY ns_flows "http://ns.adobe.com/Flows/1.0/">
	<!ENTITY ns_extend "http://ns.adobe.com/Extensibility/1.0/">
	<!ENTITY ns_ai "http://ns.adobe.com/AdobeIllustrator/10.0/">
	<!ENTITY ns_graphs "http://ns.adobe.com/Graphs/1.0/">
]>
<svg version="1.1" id="main_background_1_" xmlns:x="&ns_extend;" xmlns:i="&ns_ai;" xmlns:graph="&ns_graphs;"
	 xmlns="http://www.w3.org/2000/svg" xmlns:xlink="http://www.w3.org/1999/xlink" xmlns:a="http://ns.adobe.com/AdobeSVGViewerExtensions/3.0/"
	 x="0px" y="0px" width="1200px" height="800px" viewBox="0 0 1200 800" style="enable-background:new 0 0 1200 800;"
	 xml:space="preserve">
<style type="text/css">
<![CDATA[
	.st0{fill-rule:evenodd;clip-rule:evenodd;fill:#DFF0E0;}
	.st1{opacity:0.6;}
	.st2{fill-rule:evenodd;clip-rule:evenodd;fill:#C00514;}
	.st3{fill-rule:evenodd;clip-rule:evenodd;fill:#C6E7D9;}
	.st4{fill:#0076AD;}
	.st5{fill-rule:evenodd;clip-rule:evenodd;fill:#FF4E00;}
	.st6{fill:#02608E;}
	.st7{fill-rule:evenodd;clip-rule:evenodd;fill:#FFAD00;}
	.st8{fill-rule:evenodd;clip-rule:evenodd;fill:#FFDA00;}
	.st9{fill-rule:evenodd;clip-rule:evenodd;fill:#004171;}
	.st10{fill-rule:evenodd;clip-rule:evenodd;fill:#00B4F0;}
	.st11{fill-rule:evenodd;clip-rule:evenodd;fill:#00C400;}
]]>
</style>
<rect x="0.1" class="st3" width="1199.9" height="357.7"/>
<path class="st0" d="M0,445V345c262.6,2.3,405.3-249.4,646.7-207.5c277,48,401,212.8,553.3,207.5v100H0z"/>
<g id="rainbow_1_" class="st1">
	<path class="st2" d="M360.9,605.2c-11.2-30-16-62-16-94.6c0-80.3,37-155.8,104.2-212.6c67.2-56.8,156.5-88.1,251.5-88.1
		c95,0,184.3,31.3,251.5,88.1c67.2,56.8,104.2,132.2,104.2,212.5c0,32.6-6.1,64.6-17.9,94.6h18.1c11.1-29.8,17.1-61.6,17.1-94.6
		c0-174.2-167-315.3-373-315.3s-373,141.1-373,315.3c0,33,4.8,64.8,15.3,94.6H360.9z"/>
	<path class="st5" d="M379.3,605.2c-11.8-29.9-17-61.9-17-94.6c0-76.4,35.2-148.2,99.1-202.2c63.9-54,148.8-83.8,239.2-83.8
		s175.3,29.8,239.2,83.8c63.9,54,99.1,125.7,99.1,202.1c0,32.8-6.5,64.7-18.9,94.6h18.4c11.8-30,17.9-62,17.9-94.6
		c0-80.3-37-155.7-104.2-212.5C884.8,241.2,795.5,210,700.5,210c-95,0-184.3,31.3-251.5,88.1c-67.2,56.8-104.2,132.2-104.2,212.5
		c0,32.6,4.8,64.6,16,94.6H379.3z"/>
	<path class="st7" d="M397.8,605.2c-12.6-29.9-18.2-61.7-18.2-94.6c0-72.5,33.4-140.6,94-191.8c60.6-51.3,141.2-79.5,226.9-79.5
		c85.7,0,166.3,28.3,226.9,79.5c60.6,51.3,94,119.3,94,191.8c0,32.9-6.9,64.7-20.1,94.6h18.5c12.4-29.9,18.9-61.9,18.9-94.6
		c0-76.4-35.2-148.1-99.1-202.1c-63.9-54-148.8-83.8-239.2-83.8s-175.3,29.8-239.2,83.8c-63.9,54-99.1,125.7-99.1,202.1
		c0,32.8,5.2,64.7,17,94.6H397.8z"/>
	<path class="st8" d="M416.5,605.2C403,575.4,397,543.6,397,510.6c0-68.6,31.6-133,88.9-181.5c57.3-48.5,133.6-75.2,214.6-75.2
		s157.3,26.7,214.6,75.2c57.3,48.5,88.9,112.8,88.9,181.4c0,33-7.3,64.8-21.4,94.6h18.7c13.2-29.9,20.1-61.7,20.1-94.6
		c0-72.5-33.4-140.5-94-191.7c-60.6-51.3-141.2-79.5-226.9-79.5c-85.7,0-166.3,28.2-226.9,79.5c-60.6,51.3-94,119.2-94,191.7
		c0,32.9,5.6,64.7,18.2,94.6H416.5z"/>
	<path class="st11" d="M435.2,605.2c-14.3-29.5-20.8-61.5-20.8-94.6c0-64.7,29.8-125.4,83.8-171.1c54.1-45.7,125.9-70.8,202.4-70.8
		c76.4,0,148.3,25.2,202.4,70.9c54.1,45.7,83.8,106.3,83.8,171c0,33.1-7.8,65.1-22.7,94.6h18.7c14-29.8,21.4-61.6,21.4-94.6
		c0-68.6-31.6-132.9-88.9-181.4C857.8,280.7,781.6,254,700.5,254s-157.3,26.7-214.6,75.2C428.5,377.7,397,442,397,510.6
		c0,33,6.1,64.8,19.5,94.6H435.2z"/>
	<path class="st10" d="M454.2,605.2c-15.4-29.4-22.6-61.3-22.6-94.6c0-60.7,28-117.7,78.7-160.7c50.8-42.9,118.3-66.5,190.1-66.5
		c71.8,0,139.3,23.7,190.1,66.6c50.8,42.9,78.7,99.9,78.7,160.6c0,33.3-8.4,65.2-24.4,94.6H964c14.9-29.5,22.7-61.5,22.7-94.6
		c0-64.7-29.8-125.3-83.8-171s-125.9-70.9-202.4-70.9c-76.4,0-148.3,25.2-202.4,70.9c-54.1,45.7-83.8,106.3-83.8,171
		c0,33.1,6.6,65.1,20.8,94.6H454.2z"/>
	<path class="st9" d="M473.5,605.2C456.9,576.1,449,544,449,510.6c0-56.8,26.2-110.1,73.7-150.3c47.5-40.2,110.6-62.2,177.8-62.2
		c67.2,0,130.3,22.1,177.8,62.3c47.5,40.2,73.7,93.4,73.7,150.2c0,33.5-9.1,65.6-26.3,94.6h19.2c16-29.4,24.4-61.3,24.4-94.6
		c0-60.7-28-117.6-78.7-160.6c-50.8-42.9-118.3-66.6-190.1-66.6c-71.8,0-139.3,23.7-190.1,66.6c-50.8,42.9-78.7,99.9-78.7,160.6
		c0,33.3,7.2,65.2,22.6,94.6H473.5z"/>
</g>
<rect y="431" class="st6" width="1200" height="69"/>
<path class="st4" d="M0,488c51.6,0,50,6.1,86.9,8.4c200.9,12.7,233.7-58.8,411.3-61.4c206.6-3.1,418.2,71.5,585.2,56.2
	c41.3-3.8,115.7-4,116.5-3.2v312H0V488z"/>
</svg>
