<?xml version="1.0" encoding="utf-8"?>
<!-- Generator: Adobe Illustrator 16.0.0, SVG Export Plug-In . SVG Version: 6.00 Build 0)  -->
<!DOCTYPE svg PUBLIC "-//W3C//DTD SVG 1.1//EN" "http://www.w3.org/Graphics/SVG/1.1/DTD/svg11.dtd" [
	<!ENTITY ns_flows "http://ns.adobe.com/Flows/1.0/">
	<!ENTITY ns_extend "http://ns.adobe.com/Extensibility/1.0/">
	<!ENTITY ns_ai "http://ns.adobe.com/AdobeIllustrator/10.0/">
	<!ENTITY ns_graphs "http://ns.adobe.com/Graphs/1.0/">
]>
<svg version="1.1" id="Layer_1" xmlns:x="&ns_extend;" xmlns:i="&ns_ai;" xmlns:graph="&ns_graphs;"
	 xmlns="http://www.w3.org/2000/svg" xmlns:xlink="http://www.w3.org/1999/xlink" xmlns:a="http://ns.adobe.com/AdobeSVGViewerExtensions/3.0/"
	 x="0px" y="0px" width="1200px" height="800px" viewBox="0 0 1200 800" style="enable-background:new 0 0 1200 800;"
	 xml:space="preserve">
<style type="text/css">
<![CDATA[
	.st0{fill:#488427;}
	.st1{fill:#4AAE42;}
	.st2{fill:#807146;}
	.st3{opacity:0.3;fill:#488427;adobe-blending-mode:multiply;enable-background:new    ;}
	.st4{adobe-knockout:true;}
	.st5{fill:#867956;}
	.st6{fill:#7D501B;adobe-knockout:false;adobe-blending-mode:normal;}
	.st7{display:inline;fill:#F1D183;}
	.st8{fill:#91581F;adobe-knockout:false;adobe-blending-mode:normal;}
	.st9{opacity:0.3;adobe-knockout:true;adobe-blending-mode:multiply;}
	.st10{opacity:0.3;fill:#4AAE42;adobe-blending-mode:multiply;enable-background:new    ;}
	.st11{fill:#273E40;}
	.st12{display:inline;}
	.st13{fill:#7D501B;adobe-knockout:false;}
	.st14{fill:#00475B;}
	.st15{fill:#91581F;adobe-knockout:false;}
	.st16{fill:#D4D0AB;}
	.st17{display:inline;fill:#DDC079;}
	.st18{display:none;}
	.st19{fill:#0B5C74;}
	.st20{fill:#A6946A;}
]]>
</style>
<g id="bg">
	<rect y="461.8" class="st19" width="1200" height="79"/>
	<g class="st18">
		<g class="st12">
			<g class="st4">
				<path class="st15" d="M522.7,403.5c1.6,0.1,7.7,4.9,6.5,7.8c-1.2,2.8-5,3.7-6.9,3.4c-1.9-0.4-5.5-3.2-5-5.1
					C517.8,407.7,519.4,404,522.7,403.5z"/>
				<path class="st15" d="M515.6,407c1.6,0.1,9.5,5,8.4,7.9c-1.1,2.8-5.6,6.9-7.5,6.6s-7-3.2-6.5-5.1
					C510.6,414.4,512.3,407.6,515.6,407z"/>
				<path class="st15" d="M509.1,415c1.6,0,11.4,5.1,10.4,8s-6.2,10-8,9.7c-1.9-0.2-8.5-3.2-8.1-5.1
					C503.8,425.7,505.9,415.8,509.1,415z"/>
				<path class="st15" d="M499.5,425.2c1.6,0,13.2,5.2,12.3,8.1c-0.9,2.9-6.8,13.1-8.6,12.9c-1.9-0.2-10-3.3-9.6-5.2
					C493.9,439.1,496.2,426,499.5,425.2z"/>
				<path class="st15" d="M490.4,439.2c1.6-0.1,15,5.3,14.2,8.3c-0.8,2.9-7.3,16.2-9.2,16.1c-1.9-0.1-11.4-3.3-11.2-5.2
					C484.6,456.4,487.3,440.2,490.4,439.2z"/>
				<path class="st15" d="M481.1,455.5c1.6-0.2,16.8,5.4,16.2,8.4c-0.7,2.9-7.9,19.3-9.8,19.3s-12.9-3.4-12.7-5.3
					C475,475.9,478,456.6,481.1,455.5z"/>
				<path class="st15" d="M470.9,473.4c1.6-0.2,18.6,5.5,18.1,8.5c-0.6,3-8.5,22.5-10.3,22.5c-1.9,0-14.4-3.4-14.2-5.3
					C464.6,497.1,467.9,474.6,470.9,473.4z"/>
				<path class="st15" d="M462.9,496.7c1.6-0.3,20.5,5.6,20,8.6c-0.4,3-9,25.6-10.9,25.7s-15.9-3.4-15.8-5.4
					C456.3,523.7,459.8,498,462.9,496.7z"/>
				<path class="st15" d="M451.8,523.3c1.6-0.3,22.3,5.7,22,8.7s-9.6,28.7-11.5,28.9c-1.9,0.2-17.3-3.5-17.3-5.4
					C444.9,553.5,448.8,524.7,451.8,523.3z"/>
				<path class="st15" d="M442.3,551.2c1.6-0.4,24.1,5.8,23.9,8.9c-0.2,3-10.2,31.8-12,32.1c-1.9,0.3-18.8-3.5-18.9-5.5
					C435.2,584.7,439.3,552.8,442.3,551.2z"/>
				<path class="st15" d="M430.9,581.6c1.6-0.5,25.9,5.9,25.8,9c-0.1,3.1-10.7,34.9-12.6,35.2c-1.9,0.3-20.3-3.6-20.4-5.5
					C423.6,618.4,428,583.3,430.9,581.6z"/>
				<path class="st15" d="M420.7,616.1c1.6-0.5,27.8,6,27.7,9.1c0,3.1-11.3,38-13.2,38.4c-1.9,0.4-21.8-3.6-22-5.6
					C413.1,656.1,417.8,617.9,420.7,616.1z"/>
			</g>
			<g class="st9">
				<path class="st8" d="M527.6,406.9c1.3,1.4,2.2,3.1,1.6,4.3c-1.2,2.8-5,3.7-6.9,3.4c-0.4-0.1-0.9-0.3-1.5-0.6
					C522.8,411.5,525.1,409.1,527.6,406.9z"/>
				<path class="st8" d="M522.8,411.7c1,1.1,1.6,2.3,1.3,3.2c-1.1,2.8-5.6,6.9-7.5,6.6c-0.2,0-0.6-0.1-0.9-0.3
					C517.8,417.8,520.1,414.7,522.8,411.7z"/>
				<path class="st8" d="M517,419.2c1.7,1.3,2.9,2.8,2.5,3.9c-1,2.9-6.2,10-8,9.7c-0.4,0-1.1-0.2-1.8-0.5
					C511.8,427.7,514.2,423.3,517,419.2z"/>
				<path class="st8" d="M510.4,430.8c1,0.9,1.6,1.8,1.4,2.5c-0.8,2.8-6.2,12.1-8.3,12.9C505.7,441,507.9,435.8,510.4,430.8z"/>
				<path class="st8" d="M503.7,445.5c0.7,0.7,1.1,1.4,1,1.9c-0.8,2.9-7.3,16.2-9.2,16.1h-0.1C498.4,457.8,501.1,451.6,503.7,445.5z
					"/>
				<path class="st8" d="M485.5,475.1c2.1-0.6,4.2-1.9,5.8-4.5c1.8-2.8,3.4-5.7,4.9-8.6c0.8,0.7,1.2,1.3,1.1,1.8
					c-0.7,2.9-7.9,19.3-9.8,19.3c-0.9,0-3.7-0.8-6.5-1.7C482.4,479.2,484,477.1,485.5,475.1z"/>
				<path class="st8" d="M483.6,477.7c3.2,1.5,5.6,3.1,5.4,4.2c-0.6,3-8.5,22.5-10.3,22.5c-1,0-5-1-8.5-2.2
					C473.2,493.5,478.3,484.9,483.6,477.7z"/>
				<path class="st8" d="M468.1,524.6c-2.1-7.8-0.3-16.8,3.3-25.6c5.6,1.9,11.8,4.6,11.5,6.3c-0.4,3-9,25.6-10.9,25.7
					c-0.6,0-2.2-0.3-4.2-0.7C468.5,528.6,468.7,526.6,468.1,524.6z"/>
				<path class="st8" d="M456.2,556.2c3.4-6.3,3.6-13,4.4-19.6c3.8-1.1,7.2-4.2,7.8-8.3c3.2,1.4,5.5,2.7,5.4,3.8
					c-0.3,3-9.6,28.7-11.5,28.9c-0.9,0.1-4.7-0.7-8.6-1.7C454.6,558.5,455.5,557.5,456.2,556.2z"/>
				<path class="st8" d="M449.9,560.9c2.5-0.4,4.7-1.9,6.3-4.7c0.2-0.4,0.4-0.8,0.6-1.2c5.1,1.8,9.5,3.7,9.4,5.1
					c-0.2,3-10.2,31.8-12,32.1c-0.9,0.1-5.4-0.7-9.8-1.8C446.2,580.8,447.2,570.4,449.9,560.9z"/>
				<path class="st8" d="M434.3,599c4.3,0,8.7-2.6,9.6-7.1c0.5-2.2,0.9-4.5,1.3-6.9c6,1.9,11.6,4.1,11.5,5.6
					c-0.1,3.1-10.7,34.9-12.6,35.2c-1,0.2-6.7-0.9-11.9-2.2C432.6,615.6,432.6,606.8,434.3,599z"/>
				<path class="st8" d="M423.9,659.2c0.9-5.4,0.6-12.9,1.1-19.6c3.3-0.7,6.1-3,6.6-6.7c0.6-4.5,0.8-9.3,0.9-14.3
					c7.6,2.1,16,4.9,16,6.7c0,3.1-11.3,38-13.2,38.4c-1,0.2-6.6-0.7-11.9-2C423.5,660.8,423.7,660,423.9,659.2z"/>
			</g>
			<path class="st1" d="M523.6,397.9c0,0-34.2-27.2-80.2-28.8l7.1,9.5c0,0-38.5-2.9-59.9,16.2c0,0,23.9,3.2,28.1,7
				c0,0-22.4,26.7-57.4,30.5c0,0,44.4,5.1,81.9-14.7c0,0-9.7,17.3-20.4,25.7c0,0,74.4-15.9,99.5-41.1c0,0-38.7-6.9-68.9,2.8
				C453.4,405,476.5,387.9,523.6,397.9z"/>
			<path class="st10" d="M409.2,419.8c12.1-2.4,23.4-7.2,35.3-10.2c2.1,3.7,6.3,6.3,11,4.8c11.2-3.5,24-11.5,36.1-9
				c7.7,1.6,14.9,3.5,22.4,3.7c-30.1,21.2-91.2,34.2-91.2,34.2c10.7-8.4,20.4-25.7,20.4-25.7c-37.4,19.8-81.9,14.7-81.9,14.7
				c12.2-1.3,22.8-5.4,31.5-10.1C398.3,421.6,403.8,420.9,409.2,419.8z"/>
			<path class="st1" d="M525.8,401.6c0,0,30.2-31.6,75.5-39.5l-5.7,10.4c0,0,37.7-8.2,61.6,7.8c0,0-23.3,6.5-26.9,10.8
				c0,0,25.9,23.4,61.1,22.3c0,0-43.3,11.1-83.1-3.4c0,0,12,15.8,23.7,22.7c0,0-75.9-5.5-104.2-27c0,0,37.4-12.1,68.6-6.7
				C596.3,399,571.1,385.1,525.8,401.6z"/>
			<path class="st10" d="M631.9,432.8c0,0-73.6-5.4-102.8-26.1c0.9,0.4,1.8,0.6,2.9,0.7c22.5,2.5,44.6,7.8,67.3,8.8
				c7.8,0.4,12.1-9.6,8.2-15.3c6,2.4,11.9,5,17.7,7.5c9,3.9,18.5,6.6,28,9c-13.7-0.1-29.6-1.8-45-7.4
				C608.2,410.1,620.1,425.9,631.9,432.8z"/>
			<path class="st1" d="M524.4,395.3c0,0-31.4-37.1-78.9-35c0,0,5-7.3,9-7.4c0,0-26.3-22-65.9-11.5c0,0,7.7-18.3,53.9-17.2
				c0,0-2.9-10.4-12.4-14.3c0,0,46.7-3.1,72.2,23.4c0,0,5.3-6.9,2.3-12.4c0,0,37.8,23.8,22.9,75.4c0,0,0-39.4-31.1-53
				C496.5,343.3,517.1,360.1,524.4,395.3z"/>
			<path class="st10" d="M421.7,331.8c13.6,0.1,26.2,4.2,38.9,8.7c1.2,0.4,2.3,0.6,3.3,0.6c23.5,7.9,45.9,20.5,57.4,42.7
				c1.2,3.6,2.2,7.5,3.1,11.6c0,0-31.4-37.1-78.9-35c0,0,5-7.3,9-7.4c0,0-26.3-22-65.9-11.5c0,0,0.4-1,1.7-2.6
				C400.8,336.9,411,331.8,421.7,331.8z"/>
			<path class="st1" d="M527.4,413.9c0,0,15.4,46.1-11.1,85.6c0,0,8.8-0.5,11-3.8c0,0,5.1,33.8-24.4,62.3c0,0,19.6,2.9,42.7-37.1
				c0,0,7.4,7.9,5.8,18c0,0,26.9-38.3,17.5-73.8c0,0,8.7-0.9,11.8,4.5c0,0-0.7-44.7-52.5-58.8c0,0,33.7,20.5,29.1,54.1
				C557.3,464.9,553.6,438.5,527.4,413.9z"/>
			<path class="st10" d="M527.3,495.7c-2.1,3.3-11,3.8-11,3.8c15.2-22.7,16.6-47.6,15-64.7c2.7,12.9,4,26,0.1,38.6
				c-2.3,7.2,3.9,12.2,9.9,12c2.7,14,2.7,30.5-1.3,44.4c-20.6,30.6-37.1,28.2-37.1,28.2C532.4,529.5,527.3,495.7,527.3,495.7z"/>
		</g>
		<g class="st12">
			<g>
				<g class="st4">
					<path class="st13" d="M272.1,245.8c-2.7,0.2-12.6,7.6-10.8,12.2c1.8,4.6,8,6.3,11,5.7c3-0.5,9.1-4.8,8.2-7.9
						C279.7,252.8,277.5,246.8,272.1,245.8z"/>
					<path class="st13" d="M283.4,251.8c-2.6,0.1-15.6,7.7-13.9,12.3s8.7,11.3,11.8,10.9c3-0.4,11.4-4.8,10.7-7.9
						C291.2,264.1,288.7,253,283.4,251.8z"/>
					<path class="st13" d="M293.5,265.1c-2.6,0-18.5,7.8-17,12.4c1.5,4.7,9.5,16.4,12.5,16.1c3-0.3,13.8-4.8,13.2-7.9
						C301.6,282.5,298.7,266.4,293.5,265.1z"/>
					<path class="st13" d="M308.6,281.8c-2.6-0.1-21.5,7.8-20.2,12.5c1.3,4.7,10.3,21.4,13.3,21.2s16.2-4.8,15.7-7.9
						C317,304.6,313.8,283.3,308.6,281.8z"/>
					<path class="st13" d="M322.5,304.9c-2.6-0.2-24.4,7.9-23.3,12.7c1.1,4.7,11.1,26.5,14.1,26.4s18.6-4.8,18.2-8
						C331.2,332.9,327.6,306.6,322.5,304.9z"/>
					<path class="st13" d="M336.9,331.5c-2.6-0.3-27.4,8-26.4,12.8c0.9,4.8,11.9,31.5,14.9,31.6c3,0,21-4.8,20.7-8
						C345.8,364.8,341.8,333.4,336.9,331.5z"/>
					<path class="st13" d="M352.4,360.8c-2.6-0.4-30.3,8.1-29.5,12.9c0.8,4.8,12.6,36.6,15.6,36.7c3,0.2,23.3-4.8,23.2-8
						C361.6,399.3,357.3,362.9,352.4,360.8z"/>
					<path class="st13" d="M364.4,398.8c-2.5-0.5-33.2,8.2-32.7,13c0.6,4.8,13.4,41.6,16.4,41.9s25.7-4.8,25.7-8
						S369.2,401,364.4,398.8z"/>
					<path class="st13" d="M381,442.2c-2.5-0.6-36.2,8.2-35.8,13.1c0.4,4.9,14.2,46.7,17.2,47.1c3,0.4,28.1-4.8,28.2-8
						C390.8,491.2,385.8,444.6,381,442.2z"/>
					<path class="st13" d="M395.1,487.6c-2.5-0.7-39.1,8.3-38.9,13.2c0.2,4.9,15,51.7,18,52.2s30.5-4.8,30.7-8
						C405,541.9,399.8,490.2,395.1,487.6z"/>
					<path class="st13" d="M412,537.1c-2.5-0.8-42.1,8.4-42,13.3c0,4.9,15.7,56.8,18.7,57.4c3,0.6,32.9-4.8,33.2-8
						C422.3,596.7,416.6,539.9,412,537.1z"/>
					<path class="st13" d="M426.9,593.2c-2.5-0.9-45,8.5-45.1,13.4c-0.1,5,16.5,61.8,19.5,62.5c3,0.7,35.2-4.8,35.7-8
						C437.5,658,431.5,596.2,426.9,593.2z"/>
				</g>
				<g class="st9">
					<path class="st6" d="M280.3,255.2c-0.9-3.2-3.2-8.5-8.2-9.4c-0.4,0-1.1,0.3-1.8,0.6c0.2,1,0.5,1.9,0.8,2.7
						C274.4,251,277.5,253,280.3,255.2z"/>
					<path class="st6" d="M291.9,268.1c0.1-0.3,0.1-0.7,0.1-1c-0.7-3.1-3.3-14.2-8.6-15.3c-0.8,0-2.7,0.8-4.8,2
						C283.8,257.7,288.3,262.3,291.9,268.1z"/>
					<path class="st6" d="M296,276.2c1.8,4.5,2.8,8.8,3.2,13.1c1.9-1.3,3.3-2.6,3-3.7c-0.6-3.1-3.5-19.2-8.7-20.6
						c-0.5,0-1.6,0.3-3,0.9C292.6,269,294.5,272.4,296,276.2z"/>
					<path class="st6" d="M299.4,295.1c0.5,0.4,1,0.7,1.5,1c7.2,4.4,11.5,9,14,14.6c1.7-1.1,2.8-2.1,2.7-3.1
						c-0.5-3.1-3.7-24.3-8.9-25.8c-1.2-0.1-5.6,1.5-10,3.7C299.2,288.7,299.4,291.9,299.4,295.1z"/>
					<path class="st6" d="M318.2,331.5c0,3.5,2.1,6.7,4.8,9.9c4.5-1.6,8.7-3.7,8.5-5.4c-0.4-3.1-3.9-29.4-9-31.1
						c-1-0.1-4.9,1.1-9.3,2.9C317.1,314.1,318.1,321.6,318.2,331.5z"/>
					<path class="st6" d="M334.4,354.4c3,5.4,5.5,10.9,7.6,16.7c2.4-1.1,4.1-2.2,4-3.2c-0.2-3.1-4.2-34.5-9.2-36.4
						c-1.5-0.2-10,2.4-17,5.5C323.3,343.2,331.2,348.8,334.4,354.4z"/>
					<path class="st6" d="M345.7,382.6c2.2,8.3,4,16.7,5.8,25c5.4-1.6,10.3-3.6,10.2-5.1c-0.1-3.1-4.4-39.6-9.3-41.6
						c-1.1-0.2-7,1.3-13.2,3.5C341.8,370.2,344,376.3,345.7,382.6z"/>
					<path class="st6" d="M352.7,412.9c0.9,4.2,0.3,8.3,2.3,12.2c1.9,3.9,4.7,8.4,5.5,12.7c0.8,4,0.5,9.2,2.7,12.7
						c5.7-1.6,10.7-3.5,10.7-5c0-3.1-4.6-44.7-9.5-46.9c-1.1-0.2-7.3,1.2-14.1,3.4C351.1,405.7,351.9,409.3,352.7,412.9z"/>
					<path class="st6" d="M363.1,450.7c2.1,3.3,5.5,6.4,7.1,10c3,6.8,1.7,12.1,0.3,19.2c-1.2,6.2,0.1,2.1,4.7,3.5
						c2.8,0.9,6,2,7.9,4.3c2.4,2.9,3.6,5.8,4.2,9c2-0.8,3.4-1.7,3.4-2.4c0.1-3.1-4.8-49.7-9.6-52.2c-1.3-0.3-10.6,1.8-19.4,4.6
						C362,448.2,362.4,449.6,363.1,450.7z"/>
					<path class="st6" d="M387.4,504.3c-0.9,8.1-3.7,13,2.6,19.1c4.2,4.1,4.8,12.9,3.3,18.3c-0.5,1.9,1.2,4.4,3.6,7.1
						c4.5-1.3,7.8-2.6,7.9-3.7c0.2-3.1-5.1-54.8-9.8-57.4c-0.8-0.2-5.2,0.6-10.7,1.9C387.4,494,388,498.5,387.4,504.3z"/>
					<path class="st6" d="M412,537.1c-1.1-0.4-9.5,1.2-18.5,3.6c-0.1,0.3-0.1,0.7-0.2,1c-1.3,4.5,10.7,12.8,12.6,18.2
						c1.7,4.8,2.1,9,1.4,13.2c4.2,1.9,7.9,4.9,8.9,9.7c1.3,6.9-0.9,13.1-0.5,19.9c0,0.1,0,0.2,0,0.3c3.6-1.1,6.1-2.2,6.2-3.1
						C422.3,596.7,416.6,539.9,412,537.1z"/>
					<path class="st6" d="M426.9,593.2c-0.8-0.3-5.1,0.4-10.8,1.6c-0.3,2.6-0.5,5.2-0.4,7.9c0.5,9,4.6,16.7,3.6,26.1
						c-1,9.8-1.2,19.5-5,28.7c-3.1,7.7-13.2,6.4-14.1-1.9c-0.2-1.7-0.3-3.4-0.4-5.1c0-0.1-0.1-0.1-0.1-0.2c-0.7-1.3-1.3-2.6-2-3.9
						c0,0.1,0,0.1,0,0.2c-0.3,2.4-1.6,4.3-3.3,5.6c3.1,9.5,5.9,16.8,7,17.1c3,0.7,35.2-4.8,35.7-8
						C437.5,658,431.5,596.2,426.9,593.2z"/>
				</g>
			</g>
			<g>
				<path class="st0" d="M270.9,236.8c0,0,56.4-42.3,130.5-42.8l-11.9,15c0,0,62.1-3,95.9,28.8c0,0-38.7,4.1-45.6,10.1
					c0,0,34.9,44,91.2,51.7c0,0-71.9,6.2-131.3-27.4c0,0,14.8,28.4,31.7,42.4c0,0-119.3-29-158.5-70.7c0,0,62.6-9.3,111,7.5
					C383.8,251.5,347.4,222.7,270.9,236.8z"/>
				<path class="st3" d="M470,275c-16.9-1.6-33.6-4.4-50.5-6.8c-4.1-0.6-16.1-2.2-17.8-2.5c-0.6-0.1-1.3-0.2-1.9-0.3
					c-10.7,10.9-27.4,16.4-42.3,11.7c-20.7-6.6-41.4-12.6-62.9-15.8c49.9,32.1,136.8,53.2,136.8,53.2c-16.8-14-31.7-42.4-31.7-42.4
					c59.4,33.6,131.3,27.4,131.3,27.4C506.1,296.2,485.3,285.7,470,275z"/>
			</g>
			<g>
				<path class="st0" d="M267.3,242.6c0,0-47.2-52.3-119.8-67.1l8.8,17c0,0-60.4-14.9-99.6,9.8c0,0,37.2,11.5,42.8,18.6
					c0,0-42.7,36.5-99.4,33.2c0,0,69.3,19.9,134.1-1.7c0,0-20,25-39.2,35.5c0,0,122.6-5.5,169.2-38.9c0,0-59.7-21.2-110.3-13.9
					C153.7,235.3,195,214.1,267.3,242.6z"/>
				<path class="st3" d="M130.9,253.6c-3.1-3.2-5.7-6.9-7.6-11.2c-8.7,2.7-17.4,5.4-26.2,7.9c-17.8,5.1-35.6,9.2-53.4,11.3
					C68.1,263.7,99.9,263.2,130.9,253.6z"/>
				<path class="st3" d="M245.7,252.7c-1.7,0.2-2.8,0.3-3.5,0.3c-0.4,0.1-0.9,0.1-1.5,0.2c-2.8,0.4-5.6,0.9-8.5,1.3
					c-7.2,1.2-14.3,2.5-21.4,3.9c-12.4,2.4-24.8,5-37.3,7.3c-15.4,2.9-30.9-0.9-41.4-10.9c-5.5,6.4-21.6,24.6-37.3,33.2
					c0,0,122.6-5.5,169.2-38.9c0,0-0.6-0.2-1.8-0.6C257.1,250.7,251.5,252.1,245.7,252.7z"/>
			</g>
			<g>
				<path class="st0" d="M269.8,232.6c0,0,52.2-58.4,128.7-52.9c0,0-7.8-12-14.1-12.3c0,0,43.3-34.2,106.7-15.5
					c0,0-11.6-29.8-86.1-30.2c0,0,5.2-16.6,20.6-22.5c0,0-75.2-7-117.4,34.5c0,0-8.2-11.4-3.2-20.2c0,0-62,36.6-40.4,120.5
					c0,0,1.8-63.5,52.5-84C317.2,150,283.2,176.2,269.8,232.6z"/>
				<path class="st3" d="M470.2,136.1c-1.5-0.2-2.5-0.4-3.2-0.6c-0.5,0-1-0.1-1.6-0.1c-8.5-0.8-17-1.1-25.5-1
					c-8.2,0.1-16.4,0.2-24.6,0.3c-5.7,8.1-14,14.2-23.8,16.6c-7,1.7-13.9,3.5-20.7,5.9c-3,1-5.9,2.1-8.9,3.2
					c-0.2,0.1-1.4,0.7-3.7,1.7c-11.1,5.4-21.9,11.4-32.1,18.4c-3.4,2.3-6.8,4.7-10.1,7.2c-1,0.7-1.7,1.3-2.3,1.7
					c-3.9,3.2-7.8,6.4-11.7,9.8c-9.7,8.6-19,17.5-28.2,26.6c-1,1-2.1,2-3.2,2.9c-0.3,1.3-0.7,2.6-1,3.9c0,0,52.2-58.4,128.7-52.9
					c0,0-7.8-12-14.1-12.3c0,0,43.3-34.2,106.7-15.5c0,0-2.8-7.2-14.5-14.5C474.5,136.9,472.3,136.5,470.2,136.1z"/>
			</g>
			<g>
				<path class="st0" d="M264.2,262.5c0,0-26.9,73.6,14,138.5c0,0-14.2-1.2-17.5-6.7c0,0-9.8,54.3,36.6,101.5
					c0,0-31.8,3.8-67.2-61.7c0,0-12.2,12.4-10.2,28.8c0,0-41.6-63-24.9-119.8c0,0-13.9-1.8-19.3,6.7c0,0,3.1-72,87.3-92.4
					c0,0-55.2,31.5-49.4,85.9C213.6,343.2,220.7,300.9,264.2,262.5z"/>
				<path class="st3" d="M247.7,290.9c-0.6,1-1.3,2.6-1.8,3.7c-1.1,3.5-2.1,7.1-2.8,10.7c-0.3,1.4-0.7,5.1-0.9,6
					c-0.1,1.3-0.2,2.5-0.3,3.8c-0.3,5.2-0.5,10.4-0.5,15.7c0.1,9.6,0.6,19.1,1.6,28.6c0.3,1.8,1.5,9.7,1.9,11.9
					c0.7,3.6,1.5,7.1,2.4,10.7c4,15.4-0.4,28.7-8.9,38.3c2.1,4.4,4.3,8.8,6.7,13.1c9,16.1,17.1,32.6,26,48.7c1.1,2,2.2,4,3.3,5.9
					c13.8,8.9,22.8,7.8,22.8,7.8c-46.4-47.2-36.6-101.5-36.6-101.5c3.3,5.4,17.5,6.7,17.5,6.7c-40.9-64.9-14-138.5-14-138.5
					c-2.1,1.9-4.1,3.8-6.1,5.7C256.8,276.3,253.2,284.2,247.7,290.9z"/>
			</g>
		</g>
		<path class="st17" d="M429.6,671.1c-31.5-74.4-90.4-8.8-90.4-8.8L429.6,671.1z"/>
		<path class="st7" d="M491.1,661c-80.6-58.6-127.2,23.5-127.2,23.5L491.1,661z"/>
	</g>
</g>
<g id="shore">
	<path class="st16" d="M1200,498.2c-487.3,40.3-882.2-71.6-1200-5.8V800h1200V498.2z"/>
	<path class="st20" d="M1200,501.8c-417.1,43.4-820.6-49.1-1200,0V800h1200V501.8z"/>
	<path class="st5" d="M0,628.9v171h1200V560.1c-506.4-44-673,84-802.1,64.3C268.8,604.7,107.5,596.8,0,628.9z"/>
	<path class="st2" d="M0,654.4V800h1200V687.3c-168.4-46.6-461.3-5.7-594.7,14.7C471.8,722.4,231.2,631.4,0,654.4z"/>
</g>
<g id="sea">
	<path class="st11" d="M1118.9,365.3c-25-3.1-47.4-11-60.7-27.8c-13.3,16.8-35.5,27.8-60.7,27.8s-47.4-11-60.7-27.8
		c-13.3,16.8-35.5,27.8-60.7,27.8c-25.2,0-47.4-11-60.7-27.8c-13.3,16.8-35.5,27.8-60.7,27.8s-47.4-11-60.7-27.8
		c-13.3,16.8-35.5,27.8-60.7,27.8s-47.4-11-60.7-27.8c-13.3,16.8-35.5,27.8-60.7,27.8c-25.2,0-47.4-11-60.7-27.8
		c-13.3,16.8-35.5,27.8-60.7,27.8s-47.4-11-60.7-27.8c-13.3,16.8-35.5,27.8-60.7,27.8c-25.2,0-47.4-11-60.7-27.8
		c-13.3,16.8-35.5,27.8-60.7,27.8c-25.2,0-47.4-11-60.7-27.8c-13.3,16.8-35.5,27.8-60.7,27.8c-9,0-17.6-1.4-25.5-3.9V459l1200,2.8
		V335.1C1197.5,335.3,1170.5,371.7,1118.9,365.3z"/>
	<path class="st14" d="M1131.5,377.1c-13.3,16.8-35.6,27.8-60.9,27.8c-25.3,0-47.6-11-60.9-27.8c-13.3,16.8-35.6,27.8-60.9,27.8
		s-47.6-11-60.9-27.8c-13.3,16.8-35.6,27.8-60.9,27.8s-47.6-11-60.9-27.8c-13.3,16.8-35.6,27.8-60.9,27.8c-25.3,0-47.6-11-60.9-27.8
		c-13.3,16.8-35.6,27.8-60.9,27.8c-25.3,0-47.6-11-60.9-27.8c-13.3,16.8-35.6,27.8-60.9,27.8s-47.6-11-60.9-27.8
		c-13.3,16.8-35.6,27.8-60.9,27.8s-47.6-11-60.9-27.8c-13.3,16.8-35.6,27.8-60.9,27.8c-25.3,0-47.6-11-60.9-27.8
		c-13.3,16.8-35.6,27.8-60.9,27.8c-25.3,0-47.6-11-60.9-27.8C26.2,387.7,14.1,396,0,400.6v69.3h1200v-65.4c-2.5,0.2-5,0.4-7.6,0.4
		C1167.1,404.8,1144.8,393.8,1131.5,377.1z"/>
	<path class="st19" d="M68.5,420.5c13.3,16.8,35.6,27.8,60.9,27.8c25.3,0,47.6-11,60.9-27.8c13.3,16.8,35.6,27.8,60.9,27.8
		c25.3,0,47.6-11,60.9-27.8c13.3,16.8,35.6,27.8,60.9,27.8s47.6-11,60.9-27.8c13.3,16.8,35.6,27.8,60.9,27.8s47.6-11,60.9-27.8
		c13.3,16.8,35.6,27.8,60.9,27.8c25.3,0,47.6-11,60.9-27.8c13.3,16.8,35.6,27.8,60.9,27.8c25.3,0,47.6-11,60.9-27.8
		c13.3,16.8,35.6,27.8,60.9,27.8s47.6-11,60.9-27.8c13.3,16.8,35.6,27.8,60.9,27.8s47.6-11,60.9-27.8c13.3,16.8,35.6,27.8,60.9,27.8
		c25.3,0,47.6-11,60.9-27.8c8.5,10.6,20.5,18.9,34.6,23.6v26.3H0V448c2.5,0.2,5,0.4,7.6,0.4C32.9,448.2,55.2,437.2,68.5,420.5z"/>
</g>
</svg>
