<?xml version="1.0" encoding="utf-8"?>
<!-- Generator: Adobe Illustrator 16.0.0, SVG Export Plug-In . SVG Version: 6.00 Build 0)  -->
<!DOCTYPE svg PUBLIC "-//W3C//DTD SVG 1.1//EN" "http://www.w3.org/Graphics/SVG/1.1/DTD/svg11.dtd" [
	<!ENTITY ns_flows "http://ns.adobe.com/Flows/1.0/">
	<!ENTITY ns_extend "http://ns.adobe.com/Extensibility/1.0/">
	<!ENTITY ns_ai "http://ns.adobe.com/AdobeIllustrator/10.0/">
	<!ENTITY ns_graphs "http://ns.adobe.com/Graphs/1.0/">
]>
<svg version="1.1" id="rain" xmlns:x="&ns_extend;" xmlns:i="&ns_ai;" xmlns:graph="&ns_graphs;" opacity="0.5"
	 xmlns="http://www.w3.org/2000/svg" xmlns:xlink="http://www.w3.org/1999/xlink" xmlns:a="http://ns.adobe.com/AdobeSVGViewerExtensions/3.0/"
	 x="0px" y="0px" width="1200px" height="800px" viewBox="0 0 1200 800" style="enable-background:new 0 0 1200 800;"
	 xml:space="preserve">
<style type="text/css">
<![CDATA[
	.st0{opacity:0.3;adobe-blending-mode:softLight;}
	.st1{fill:#FFFFFF;}
	.st2{fill:#FFFFFF;adobe-blending-mode:normal;}
]]>
</style>
<g>
	<g id="XMLID_1819_">
		<g id="XMLID_1911_">
			<g id="XMLID_2044_" class="st0">
				<path id="XMLID_2045_" class="st2" d="M772-61.4c3.6-12.1,7.2-24.3,10.5-36.6c0.1-0.3-0.3-0.5-0.4-0.2
					c-3.9,11.9-7.5,24-11.1,36.2C770.8-61.3,771.8-60.7,772-61.4L772-61.4z"/>
			</g>
			<g id="XMLID_2008_" class="st0">
				<path id="XMLID_2009_" class="st2" d="M861.9-11.4c5.8-19.6,11.8-39.1,17.3-58.8c0.1-0.2-0.3-0.4-0.3-0.2
					c-6.1,19.4-11.8,39.1-17.5,58.7C861.2-11.3,861.7-11,861.9-11.4L861.9-11.4z"/>
			</g>
			<g id="XMLID_2006_" class="st0">
				<path id="XMLID_2007_" class="st2" d="M870.7,49.1c4.3-15.6,9-30.9,13.2-46.4c0.1-0.3-0.3-0.5-0.4-0.2
					c-4.9,15.2-9.3,30.7-14.2,45.9C869.1,49.2,870.4,50.1,870.7,49.1L870.7,49.1z"/>
			</g>
			<g id="XMLID_2004_" class="st0">
				<path id="XMLID_2005_" class="st2" d="M894.5,60.5c2.1-7,4.1-14,6-21.1c0.1-0.3-0.3-0.5-0.4-0.2c-2.3,6.9-4.4,13.8-6.4,20.8
					C893.5,60.6,894.3,61.1,894.5,60.5L894.5,60.5z"/>
			</g>
			<g id="XMLID_2002_" class="st0">
				<path id="XMLID_2003_" class="st2" d="M913.2,126c1-3.5,2.1-7,3.1-10.5c0.1-0.3-0.3-0.5-0.4-0.2c-1.1,3.5-2.1,7-3.1,10.5
					C912.7,126.1,913.1,126.3,913.2,126L913.2,126z"/>
			</g>
			<g id="XMLID_2000_" class="st0">
				<path id="XMLID_2001_" class="st2" d="M936.5,199.4c17.5-58.7,35-117.4,52.2-176.3c0.1-0.2-0.3-0.5-0.3-0.2
					c-17.7,58.6-35,117.4-52.4,176.1C935.8,199.5,936.4,199.8,936.5,199.4L936.5,199.4z"/>
			</g>
			<g id="XMLID_1998_" class="st0">
				<path id="XMLID_1999_" class="st2" d="M969.4,163c10.8-36.3,21.7-72.6,32.2-109.2c0.1-0.4-0.4-0.7-0.5-0.3
					c-11.1,36.2-21.7,72.6-32.5,109C968.5,163,969.2,163.5,969.4,163L969.4,163z"/>
			</g>
			<g id="XMLID_1996_" class="st0">
				<path id="XMLID_1997_" class="st2" d="M1003.3,133.4c1.7-5.6,3.3-11.2,4.8-16.9c0.1-0.3-0.3-0.5-0.3-0.2
					c-1.8,5.5-3.5,11.1-5.1,16.7C1002.6,133.5,1003.2,133.9,1003.3,133.4L1003.3,133.4z"/>
			</g>
			<g id="XMLID_1994_" class="st0">
				<path id="XMLID_1995_" class="st2" d="M1026.9,128.5c2.5-8.4,4.9-16.8,7.3-25.3c0.1-0.5-0.5-0.8-0.6-0.4
					c-2.6,8.3-5.1,16.7-7.6,25.1C1025.8,128.6,1026.7,129.1,1026.9,128.5L1026.9,128.5z"/>
			</g>
			<g id="XMLID_1992_" class="st0">
				<path id="XMLID_1993_" class="st2" d="M945.1,19.1c6.7-22.4,13.3-44.7,19.8-67.2c0.1-0.3-0.3-0.6-0.4-0.3
					c-6.8,22.3-13.4,44.7-20,67.1C944.3,19.2,944.9,19.6,945.1,19.1L945.1,19.1z"/>
			</g>
			<g id="XMLID_1982_">
				<path id="XMLID_1983_" class="st1" d="M1143.9,13.9c2.5-8.4,5-16.7,7.4-25.2c0.1-0.2-0.2-0.4-0.3-0.2
					c-2.6,8.3-5.1,16.7-7.5,25.1C1143.4,13.9,1143.8,14.2,1143.9,13.9L1143.9,13.9z"/>
			</g>
			<g id="XMLID_1980_">
				<path id="XMLID_1981_" class="st1" d="M1155.4,32.1c1.5-5.1,3-10.3,4.5-15.4c0.1-0.3-0.3-0.5-0.4-0.2
					c-1.6,5.1-3.1,10.2-4.7,15.3C1154.7,32.1,1155.3,32.5,1155.4,32.1L1155.4,32.1z"/>
			</g>
			<g id="XMLID_1976_">
				<path id="XMLID_1977_" class="st1" d="M1215.7,43c4.7-15.8,9.4-31.7,14-47.6c0.1-0.2-0.2-0.3-0.3-0.2
					c-4.8,15.8-9.5,31.6-14.2,47.5C1215.2,43,1215.7,43.3,1215.7,43L1215.7,43z"/>
			</g>
			<g id="XMLID_1972_" class="st0">
				<path id="XMLID_1973_" class="st2" d="M752.2,99.8c8.9-29.8,17.8-59.6,26.5-89.6c0.1-0.4-0.4-0.7-0.5-0.3
					c-9,29.7-17.8,59.6-26.7,89.4C751.3,99.8,752,100.3,752.2,99.8L752.2,99.8z"/>
			</g>
			<g id="XMLID_1970_" class="st0">
				<path id="XMLID_1971_" class="st2" d="M780.9,116.4c4.6-15.4,9.4-30.6,13.5-46.3c0.1-0.3-0.3-0.5-0.4-0.3
					c-5,15.1-9.3,30.7-13.9,46C780,116.4,780.7,116.9,780.9,116.4L780.9,116.4z"/>
			</g>
			<g id="XMLID_1968_" class="st0">
				<path id="XMLID_1969_" class="st2" d="M788.7,177c3.6-12.1,7.2-24.3,10.5-36.6c0.1-0.3-0.3-0.5-0.4-0.2
					c-3.9,11.9-7.5,24-11.1,36.2C787.4,177.1,788.5,177.8,788.7,177L788.7,177z"/>
			</g>
			<g id="XMLID_1966_" class="st0">
				<path id="XMLID_1967_" class="st2" d="M705.9,149.3c5.8-19.6,12-38.9,17.3-58.8c0.1-0.3-0.3-0.6-0.4-0.3
					c-6.3,19.3-11.8,39.1-17.5,58.7C705.2,149.4,705.8,149.8,705.9,149.3L705.9,149.3z"/>
			</g>
			<g id="XMLID_1962_">
				<path id="XMLID_1963_" class="st1" d="M1181.9,107.9c6.9-23.3,14.1-46.5,20.7-70c0.1-0.3-0.3-0.5-0.4-0.2
					c-7.2,23.1-13.9,46.6-20.8,69.9C1181.3,107.9,1181.8,108.3,1181.9,107.9L1181.9,107.9z"/>
			</g>
			<g id="XMLID_1960_">
				<path id="XMLID_1961_" class="st1" d="M1151.5,89.4c1.2-4.2,2.5-8.4,3.6-12.6c0.1-0.2-0.2-0.4-0.3-0.2
					c-1.3,4.1-2.6,8.3-3.8,12.5C1150.9,89.5,1151.4,89.8,1151.5,89.4L1151.5,89.4z"/>
			</g>
			<g id="XMLID_1958_">
				<path id="XMLID_1959_" class="st1" d="M1215.6-15.3c3.2-10.7,6.4-21.4,9.4-32.3c0.1-0.3-0.3-0.5-0.4-0.2
					c-3.4,10.6-6.5,21.3-9.7,32.1C1214.8-15.2,1215.5-14.7,1215.6-15.3L1215.6-15.3z"/>
			</g>
			<g id="XMLID_1952_" class="st0">
				<path id="XMLID_1953_" class="st2" d="M816.9-5.4c6.1-20.5,12.3-40.9,18.2-61.6c0.1-0.3-0.3-0.5-0.3-0.2
					c-6.3,20.4-12.2,41-18.3,61.5C816.3-5.3,816.8-5.1,816.9-5.4L816.9-5.4z"/>
			</g>
			<g id="XMLID_1950_" class="st0">
				<path id="XMLID_1951_" class="st2" d="M857-36.4c6.4-21.5,12.7-42.9,18.9-64.4c0.1-0.4-0.4-0.7-0.5-0.3
					c-6.5,21.3-12.9,42.8-19.3,64.2C856-36.3,856.8-35.7,857-36.4L857-36.4z"/>
			</g>
			<g id="XMLID_1948_" class="st0">
				<path id="XMLID_1949_" class="st2" d="M842.2,223.9c10.8-36.3,21.9-72.5,32.3-109.1c0.1-0.3-0.3-0.5-0.4-0.2
					c-11.2,36.1-21.7,72.6-32.5,109C841.4,224,842,224.3,842.2,223.9L842.2,223.9z"/>
			</g>
			<g id="XMLID_1944_" class="st0">
				<path id="XMLID_1945_" class="st2" d="M878.5,227.1c5.8-19.6,11.8-39.1,17.3-58.8c0.1-0.2-0.3-0.4-0.3-0.2
					c-6.1,19.4-11.7,39.1-17.5,58.7C877.8,227.1,878.4,227.5,878.5,227.1L878.5,227.1z"/>
			</g>
			<g id="XMLID_1942_" class="st0">
				<path id="XMLID_1943_" class="st2" d="M887.3,287.5c4.3-15.6,9-30.9,13.2-46.4c0.1-0.3-0.3-0.5-0.4-0.2
					c-4.9,15.2-9.3,30.7-14.2,45.9C885.8,287.7,887.1,288.5,887.3,287.5L887.3,287.5z"/>
			</g>
			<g id="XMLID_1940_" class="st0">
				<path id="XMLID_1941_" class="st2" d="M911.1,298.9c2.1-7,4.1-14,6-21.1c0.1-0.3-0.3-0.5-0.4-0.2c-2.3,6.9-4.4,13.8-6.4,20.8
					C910.1,299,910.9,299.5,911.1,298.9L911.1,298.9z"/>
			</g>
			<g id="XMLID_1938_" class="st0">
				<path id="XMLID_1939_" class="st2" d="M929.9,364.5c1-3.5,2.1-7,3.1-10.5c0.1-0.3-0.3-0.5-0.4-0.2c-1.1,3.5-2.1,7-3.1,10.5
					C929.3,364.5,929.8,364.8,929.9,364.5L929.9,364.5z"/>
			</g>
			<g id="XMLID_1936_" class="st0">
				<path id="XMLID_1937_" class="st2" d="M953.1,437.8c17.5-58.7,35-117.4,52.2-176.3c0.1-0.2-0.3-0.5-0.3-0.2
					c-17.7,58.6-35,117.4-52.4,176.1C952.5,437.9,953,438.2,953.1,437.8L953.1,437.8z"/>
			</g>
			<g id="XMLID_1934_" class="st0">
				<path id="XMLID_1935_" class="st2" d="M986,401.4c10.8-36.3,21.7-72.6,32.2-109.2c0.1-0.4-0.4-0.7-0.5-0.3
					c-11.1,36.2-21.7,72.6-32.5,109C985.1,401.5,985.9,402,986,401.4L986,401.4z"/>
			</g>
			<g id="XMLID_1932_" class="st0">
				<path id="XMLID_1933_" class="st2" d="M961.7,257.5c6.7-22.4,13.3-44.7,19.8-67.2c0.1-0.3-0.3-0.6-0.4-0.3
					c-6.8,22.3-13.4,44.7-20,67.1C960.9,257.6,961.6,258,961.7,257.5L961.7,257.5z"/>
			</g>
			<g id="XMLID_992_" class="st0">
				<path id="XMLID_1931_" class="st2" d="M919.9,133.7c9.9-35.3,20.5-70.1,30.7-105.2c0.1-0.3-0.3-0.5-0.3-0.2
					c-10.6,34.8-20.8,69.9-31.6,104.6C918.3,133.8,919.6,134.6,919.9,133.7L919.9,133.7z"/>
			</g>
			<g id="XMLID_1928_" class="st0">
				<path id="XMLID_1929_" class="st2" d="M883.9,72.2c10-33.5,20.2-67,29.8-100.7c0.1-0.3-0.4-0.6-0.5-0.3
					c-10.3,33.3-20,67.1-30,100.6C883.2,72.2,883.8,72.7,883.9,72.2L883.9,72.2z"/>
			</g>
			<g id="XMLID_1926_" class="st0">
				<path id="XMLID_1927_" class="st2" d="M698.9,284.6c10-33.5,20.2-67,29.8-100.7c0.1-0.3-0.4-0.6-0.5-0.3
					c-10.3,33.3-20,67.1-30,100.6C698.1,284.7,698.8,285.1,698.9,284.6L698.9,284.6z"/>
			</g>
			<g id="XMLID_1924_" class="st0">
				<path id="XMLID_1925_" class="st2" d="M818,65.2c5.5-18.1,10.9-36.3,16.1-54.6c0.1-0.4-0.4-0.7-0.5-0.3
					c-5.6,18-11,36.2-16.3,54.5C817.2,65.2,817.9,65.7,818,65.2L818,65.2z"/>
			</g>
			<g id="XMLID_1922_">
				<path id="XMLID_1923_" class="st1" d="M1187.6-25.7c5.5-18.1,10.9-36.3,16.1-54.6c0.1-0.4-0.4-0.7-0.5-0.3
					c-5.6,18-11,36.2-16.3,54.5C1186.8-25.6,1187.5-25.1,1187.6-25.7L1187.6-25.7z"/>
			</g>
			<g id="XMLID_1920_" class="st0">
				<path id="XMLID_1921_" class="st2" d="M822.3,95.3c3.9-13.3,7.8-26.6,11.6-40c0.1-0.3-0.3-0.5-0.4-0.3
					c-4.1,13.2-8.1,26.4-12,39.7C821.3,95.4,822.1,95.9,822.3,95.3L822.3,95.3z"/>
			</g>
		</g>
		<g id="XMLID_1820_">
			<g id="XMLID_1909_">
				<path id="XMLID_1910_" class="st1" d="M929.7,232.1c5.5-18.6,11.4-37.1,16.5-56c0.1-0.3-0.3-0.6-0.4-0.3
					c-6,18.3-11.2,37.2-16.7,55.9C929,232.1,929.6,232.5,929.7,232.1L929.7,232.1z"/>
			</g>
			<g id="XMLID_1907_">
				<path id="XMLID_1908_" class="st1" d="M942.3,242.6c5.6-22.4,12.6-44.1,19-66.1c0.1-0.2-0.2-0.4-0.3-0.2
					c-6.6,21.8-12.7,44.1-20,65.4C940.7,242.7,942.1,243.6,942.3,242.6L942.3,242.6z"/>
			</g>
			<g id="XMLID_1905_">
				<path id="XMLID_1906_" class="st1" d="M945,305.8c2.5-8.4,5-16.7,7.4-25.2c0.1-0.2-0.2-0.4-0.3-0.2c-2.6,8.3-5.1,16.7-7.5,25.1
					C944.5,305.9,944.9,306.1,945,305.8L945,305.8z"/>
			</g>
			<g id="XMLID_1903_">
				<path id="XMLID_1904_" class="st1" d="M956.5,324c1.5-5.1,3-10.3,4.5-15.4c0.1-0.3-0.3-0.5-0.4-0.2c-1.6,5.1-3.1,10.2-4.7,15.3
					C955.8,324,956.4,324.4,956.5,324L956.5,324z"/>
			</g>
			<g id="XMLID_1901_">
				<path id="XMLID_1902_" class="st1" d="M970.8,357.2c7.6-25.6,15.3-51.2,22.9-76.9c7.6-25.6,16-50.9,22.7-77
					c0.1-0.4-0.4-0.6-0.5-0.3c-8.4,25-15.4,51.2-23,76.8c-7.6,25.6-15.1,51.3-22.7,77C970.2,357.2,970.7,357.5,970.8,357.2
					L970.8,357.2z"/>
			</g>
			<g id="XMLID_1899_">
				<path id="XMLID_1900_" class="st1" d="M1016.9,334.9c4.7-15.8,9.4-31.7,14-47.6c0.1-0.2-0.2-0.3-0.3-0.2
					c-4.8,15.8-9.5,31.6-14.2,47.5C1016.3,335,1016.8,335.2,1016.9,334.9L1016.9,334.9z"/>
			</g>
			<g id="XMLID_1897_">
				<path id="XMLID_1898_" class="st1" d="M1056.5,322.7c8.3-27.9,16.8-55.8,24.8-84c0.1-0.3-0.3-0.6-0.4-0.3
					c-8.6,27.8-16.8,55.8-25,83.8C1055.7,322.8,1056.3,323.2,1056.5,322.7L1056.5,322.7z"/>
			</g>
			<g id="XMLID_1895_">
				<path id="XMLID_1896_" class="st1" d="M1068.9,228.4c2.5-8.4,5.1-16.7,7.4-25.2c0-0.2-0.2-0.3-0.2-0.1c-2.6,8.3-5,16.8-7.5,25.1
					C1068.5,228.4,1068.8,228.6,1068.9,228.4L1068.9,228.4z"/>
			</g>
			<g id="XMLID_1893_">
				<path id="XMLID_1894_" class="st1" d="M1097,122.4c2.9-9.8,5.8-19.6,8.5-29.5c0.1-0.3-0.3-0.5-0.4-0.2c-3.1,9.6-6,19.4-8.9,29.2
					C1096,122.4,1096.8,122.9,1097,122.4L1097,122.4z"/>
			</g>
			<g id="XMLID_1891_">
				<path id="XMLID_1892_" class="st1" d="M863.1,139.9c1.4-4.7,2.8-9.3,4.1-14c0-0.1-0.1-0.2-0.1-0.1c-1.4,4.6-2.8,9.3-4.2,14
					C863,139.9,863.1,140,863.1,139.9L863.1,139.9z"/>
			</g>
			<g id="XMLID_1889_">
				<path id="XMLID_1890_" class="st1" d="M882,76.8c-0.5-1.5-1.1-2.9-1.7-4.3c-0.1-0.3-0.5-0.2-0.4,0.1c0.5,1.5,1,2.9,1.5,4.4
					C881.6,77.5,882.2,77.3,882,76.8L882,76.8z"/>
			</g>
			<g id="XMLID_1887_">
				<path id="XMLID_1888_" class="st1" d="M853.6,116.4c5.3-17.7,10.8-35.3,15.7-53.2c0.1-0.4-0.4-0.7-0.5-0.3
					c-5.5,17.5-10.6,35.4-15.8,53.1C852.8,116.4,853.4,116.8,853.6,116.4L853.6,116.4z"/>
			</g>
			<g id="XMLID_1885_">
				<path id="XMLID_1886_" class="st1" d="M904.2,83.7c3-10.3,6.2-20.5,9.1-30.8c0.1-0.3-0.3-0.5-0.4-0.2
					c-3.2,10.2-6.2,20.5-9.2,30.7C903.5,83.8,904.1,84.1,904.2,83.7L904.2,83.7z"/>
			</g>
			<g id="XMLID_1883_">
				<path id="XMLID_1884_" class="st1" d="M945.4,68.4c1.4-4.7,2.7-9.3,4-14.1c0.1-0.3-0.3-0.5-0.4-0.2c-1.5,4.6-2.9,9.2-4.3,13.9
					C944.6,68.4,945.2,68.8,945.4,68.4L945.4,68.4z"/>
			</g>
			<g id="XMLID_1881_">
				<path id="XMLID_1882_" class="st1" d="M943.4,153.5c6.8-22.8,13.7-45.6,20.2-68.6c0-0.2-0.2-0.3-0.2-0.1
					c-7,22.7-13.7,45.6-20.4,68.5C942.9,153.6,943.3,153.8,943.4,153.5L943.4,153.5z"/>
			</g>
			<g id="XMLID_1879_">
				<path id="XMLID_1880_" class="st1" d="M981.3,161.8c5.9-20,11.9-40.1,17.7-60.2c0.1-0.2-0.3-0.4-0.3-0.2
					c-6.1,19.9-12.1,40-18,60C980.5,161.9,981.2,162.3,981.3,161.8L981.3,161.8z"/>
			</g>
			<g id="XMLID_1877_">
				<path id="XMLID_1878_" class="st1" d="M1009.1,173.7c17-57.3,34.5-114.4,51-172c0.1-0.3-0.3-0.6-0.4-0.3
					c-17.5,57-34.1,114.6-51.1,172C1008.5,173.8,1009,174.1,1009.1,173.7L1009.1,173.7z"/>
			</g>
			<g id="XMLID_1875_">
				<path id="XMLID_1876_" class="st1" d="M978.6,247.4c3.6-12.1,7.3-24.2,10.7-36.4c0.1-0.3-0.3-0.6-0.4-0.3
					c-3.8,12-7.3,24.2-10.9,36.3C977.8,247.5,978.5,247.9,978.6,247.4L978.6,247.4z"/>
			</g>
			<g id="XMLID_1873_">
				<path id="XMLID_1874_" class="st1" d="M1028.1,239c6.9-23.3,14-46.5,20.5-70.1c0.1-0.3-0.3-0.6-0.4-0.3
					c-7.4,23-14.1,46.5-21,69.7C1026.9,239.1,1027.9,239.7,1028.1,239L1028.1,239z"/>
			</g>
			<g id="XMLID_1871_">
				<path id="XMLID_1872_" class="st1" d="M1066.9,234.6c8.7-33.2,19.3-65.3,28.7-98.1c0.1-0.4-0.4-0.7-0.5-0.3
					c-10,32.4-18.8,65.7-29.5,97.6C1065.3,234.7,1066.7,235.5,1066.9,234.6L1066.9,234.6z"/>
			</g>
			<g id="XMLID_1869_">
				<path id="XMLID_1870_" class="st1" d="M1086.3,384.9c8.9-29.8,17.8-59.6,26.5-89.6c0.1-0.4-0.4-0.7-0.5-0.3
					c-9,29.7-17.8,59.6-26.7,89.4C1085.4,385,1086.2,385.4,1086.3,384.9L1086.3,384.9z"/>
			</g>
			<g id="XMLID_1867_">
				<path id="XMLID_1868_" class="st1" d="M1115.1,401.5c4.6-15.4,9.4-30.6,13.5-46.3c0.1-0.3-0.3-0.5-0.4-0.3
					c-5,15.1-9.3,30.7-13.9,46C1114.2,401.6,1114.9,402.1,1115.1,401.5L1115.1,401.5z"/>
			</g>
			<g id="XMLID_1865_">
				<path id="XMLID_1866_" class="st1" d="M1122.8,462.1c3.6-12.1,7.2-24.3,10.5-36.6c0.1-0.3-0.3-0.5-0.4-0.2
					c-3.9,11.9-7.5,24-11.1,36.2C1121.6,462.2,1122.6,462.9,1122.8,462.1L1122.8,462.1z"/>
			</g>
			<g id="XMLID_1863_">
				<path id="XMLID_1864_" class="st1" d="M1040.1,434.5c5.8-19.6,12-38.9,17.3-58.8c0.1-0.3-0.3-0.6-0.4-0.3
					c-6.3,19.3-11.8,39.1-17.5,58.7C1039.3,434.5,1040,434.9,1040.1,434.5L1040.1,434.5z"/>
			</g>
			<g id="XMLID_1861_">
				<path id="XMLID_1862_" class="st1" d="M983,399.8c6.9-23.3,14.1-46.5,20.7-70c0.1-0.3-0.3-0.5-0.4-0.2
					c-7.2,23.1-13.9,46.6-20.8,69.9C982.4,399.9,982.9,400.2,983,399.8L983,399.8z"/>
			</g>
			<g id="XMLID_1859_">
				<path id="XMLID_1860_" class="st1" d="M952.6,381.3c1.2-4.2,2.5-8.4,3.6-12.6c0.1-0.2-0.2-0.4-0.3-0.2
					c-1.3,4.1-2.6,8.3-3.8,12.5C952,381.4,952.5,381.7,952.6,381.3L952.6,381.3z"/>
			</g>
			<g id="XMLID_1857_">
				<path id="XMLID_1858_" class="st1" d="M1016.8,276.7c3.2-10.7,6.4-21.4,9.4-32.3c0.1-0.3-0.3-0.5-0.4-0.2
					c-3.4,10.6-6.5,21.3-9.7,32.1C1015.9,276.7,1016.6,277.2,1016.8,276.7L1016.8,276.7z"/>
			</g>
			<g id="XMLID_1855_">
				<path id="XMLID_1856_" class="st1" d="M1104.6,278.5c7.4-24.9,14.9-49.8,22.3-74.8c7.4-24.9,15.2-49.6,22.1-74.9
					c0.1-0.4-0.4-0.7-0.5-0.3c-7.9,24.6-14.9,49.8-22.3,74.8c-7.4,24.9-14.8,49.9-22.1,74.9C1104,278.6,1104.5,278.9,1104.6,278.5
					L1104.6,278.5z"/>
			</g>
			<g id="XMLID_1853_">
				<path id="XMLID_1854_" class="st1" d="M1151,279.8c6.1-20.5,12.3-40.9,18.2-61.6c0.1-0.3-0.3-0.5-0.3-0.2
					c-6.3,20.4-12.2,41-18.3,61.5C1150.5,279.8,1150.9,280.1,1151,279.8L1151,279.8z"/>
			</g>
			<g id="XMLID_1851_">
				<path id="XMLID_1852_" class="st1" d="M1191.2,248.8c6.4-21.5,12.7-42.9,18.9-64.4c0.1-0.4-0.4-0.7-0.5-0.3
					c-6.5,21.3-12.9,42.8-19.3,64.2C1190.2,248.9,1191,249.4,1191.2,248.8L1191.2,248.8z"/>
			</g>
			<g id="XMLID_1849_">
				<path id="XMLID_1850_" class="st1" d="M1135.4,54.6c2.6-8.8,5.4-17.6,7.7-26.7c0.1-0.4-0.4-0.7-0.5-0.3
					c-2.9,8.6-5.4,17.6-8,26.5C1134.4,54.6,1135.3,55.2,1135.4,54.6L1135.4,54.6z"/>
			</g>
			<g id="XMLID_1847_">
				<path id="XMLID_1848_" class="st1" d="M1090.8,60.3c2-7,4-14.1,5.9-21.2c0.1-0.5-0.5-0.8-0.6-0.4c-2.3,6.8-4.4,13.8-6.6,20.8
					C1089.3,60.4,1090.6,61.2,1090.8,60.3L1090.8,60.3z"/>
			</g>
			<g id="XMLID_1845_">
				<path id="XMLID_1846_" class="st1" d="M1058,100.9c3.2-10.7,6.4-21.4,9.4-32.2c0.1-0.3-0.4-0.6-0.5-0.3
					c-3.4,10.6-6.5,21.4-9.7,32.1C1057.1,101,1057.8,101.4,1058,100.9L1058,100.9z"/>
			</g>
			<g id="XMLID_1843_">
				<path id="XMLID_1844_" class="st1" d="M991.9,44.7c6.8-22.8,13.6-45.7,20.2-68.6c0.1-0.2-0.2-0.4-0.3-0.2
					c-7,22.7-13.7,45.6-20.5,68.4C991.1,44.8,991.8,45.2,991.9,44.7L991.9,44.7z"/>
			</g>
			<g id="XMLID_1841_">
				<path id="XMLID_1842_" class="st1" d="M962.9-2.8c3-10.3,6-20.5,9-30.9c0.1-0.3-0.3-0.5-0.4-0.2c-3.2,10.2-6.3,20.4-9.3,30.7
					C962-2.7,962.7-2.3,962.9-2.8L962.9-2.8z"/>
			</g>
			<g id="XMLID_1839_">
				<path id="XMLID_1840_" class="st1" d="M912.2-5.9c0.7-2.9,1.5-5.7,2.2-8.6c0.1-0.5-0.5-0.9-0.7-0.4c-1,2.7-1.9,5.4-2.8,8.2
					C910.6-5.8,912-5,912.2-5.9L912.2-5.9z"/>
			</g>
			<g id="XMLID_1837_">
				<path id="XMLID_1838_" class="st1" d="M898.3-9.8c0.7-2.3,1.4-4.7,2-7c0.1-0.3-0.3-0.6-0.4-0.3c-0.7,2.3-1.5,4.6-2.2,6.9
					C897.6-9.7,898.2-9.4,898.3-9.8L898.3-9.8z"/>
			</g>
			<g id="XMLID_1831_">
				<path id="XMLID_1832_" class="st1" d="M1152.2,350.3c5.5-18.1,10.9-36.3,16.1-54.6c0.1-0.4-0.4-0.7-0.5-0.3
					c-5.6,18-11,36.2-16.3,54.5C1151.3,350.4,1152,350.8,1152.2,350.3L1152.2,350.3z"/>
			</g>
			<g id="XMLID_1829_">
				<path id="XMLID_1830_" class="st1" d="M1156.5,380.5c3.9-13.3,7.8-26.6,11.6-40c0.1-0.3-0.3-0.5-0.4-0.3
					c-4.1,13.2-8.1,26.4-12,39.7C1155.5,380.5,1156.3,381.1,1156.5,380.5L1156.5,380.5z"/>
			</g>
			<g id="XMLID_1827_">
				<path id="XMLID_1828_" class="st1" d="M1160.8,128.9c5.8-19.6,11.6-39.1,17.3-58.8c0.1-0.3-0.3-0.6-0.4-0.3
					c-5.9,19.5-11.8,39.1-17.6,58.7C1160,129,1160.7,129.4,1160.8,128.9L1160.8,128.9z"/>
			</g>
			<g id="XMLID_1825_">
				<path id="XMLID_1826_" class="st1" d="M1081.1-24.1c9.4-31.4,18.8-62.9,27.9-94.4c0.1-0.3-0.3-0.6-0.4-0.3
					c-9.5,31.4-18.8,62.8-28.1,94.3C1080.4-24,1080.9-23.6,1081.1-24.1L1081.1-24.1z"/>
			</g>
			<g id="XMLID_1823_">
				<path id="XMLID_1824_" class="st1" d="M1110,4.3c7.1-23.8,14.4-47.4,21-71.4c0.1-0.3-0.3-0.5-0.4-0.2
					c-7.5,23.5-14.3,47.5-21.3,71.2C1109.2,4.4,1109.9,4.8,1110,4.3L1110,4.3z"/>
			</g>
			<g id="XMLID_1821_">
				<path id="XMLID_1822_" class="st1" d="M1050.4-38.6c1.5-4.9,2.9-9.8,4.2-14.8c0.1-0.3-0.3-0.6-0.5-0.3c-1.6,4.8-3,9.7-4.5,14.6
					C1049.5-38.5,1050.2-38.1,1050.4-38.6L1050.4-38.6z"/>
			</g>
		</g>
	</g>
	<g id="XMLID_1_">
		<g id="XMLID_93_">
			<g id="XMLID_168_" class="st0">
				<path id="XMLID_169_" class="st2" d="M413-26.5c3.6-12.1,7.2-24.3,10.5-36.6c0.1-0.3-0.3-0.5-0.4-0.2
					c-3.9,11.9-7.5,24-11.1,36.2C411.8-26.4,412.8-25.8,413-26.5L413-26.5z"/>
			</g>
			<g id="XMLID_166_" class="st0">
				<path id="XMLID_167_" class="st2" d="M502.9,23.5c5.8-19.6,11.8-39.1,17.3-58.8c0.1-0.2-0.3-0.4-0.3-0.2
					c-6.1,19.4-11.8,39.1-17.5,58.7C502.2,23.6,502.7,23.9,502.9,23.5L502.9,23.5z"/>
			</g>
			<g id="XMLID_164_" class="st0">
				<path id="XMLID_165_" class="st2" d="M511.7,84c4.3-15.6,9-30.9,13.2-46.4c0.1-0.3-0.3-0.5-0.4-0.2
					c-4.9,15.2-9.3,30.7-14.2,45.9C510.1,84.1,511.4,85,511.7,84L511.7,84z"/>
			</g>
			<g id="XMLID_162_" class="st0">
				<path id="XMLID_163_" class="st2" d="M535.5,95.4c2.1-7,4.1-14,6-21.1c0.1-0.3-0.3-0.5-0.4-0.2c-2.3,6.9-4.4,13.8-6.4,20.8
					C534.5,95.5,535.3,96,535.5,95.4L535.5,95.4z"/>
			</g>
			<g id="XMLID_160_" class="st0">
				<path id="XMLID_161_" class="st2" d="M554.2,160.9c1-3.5,2.1-7,3.1-10.5c0.1-0.3-0.3-0.5-0.4-0.2c-1.1,3.5-2.1,7-3.1,10.5
					C553.7,161,554.1,161.2,554.2,160.9L554.2,160.9z"/>
			</g>
			<g id="XMLID_158_" class="st0">
				<path id="XMLID_159_" class="st2" d="M577.5,234.3c17.5-58.7,35-117.4,52.2-176.3c0.1-0.2-0.3-0.5-0.3-0.2
					c-17.7,58.6-35,117.4-52.4,176.1C576.8,234.4,577.3,234.7,577.5,234.3L577.5,234.3z"/>
			</g>
			<g id="XMLID_156_" class="st0">
				<path id="XMLID_157_" class="st2" d="M610.4,197.9c10.8-36.3,21.7-72.6,32.2-109.2c0.1-0.4-0.4-0.7-0.5-0.3
					c-11.1,36.2-21.7,72.6-32.5,109C609.4,197.9,610.2,198.4,610.4,197.9L610.4,197.9z"/>
			</g>
			<g id="XMLID_154_" class="st0">
				<path id="XMLID_155_" class="st2" d="M644.3,168.3c1.7-5.6,3.3-11.2,4.8-16.9c0.1-0.3-0.3-0.5-0.3-0.2
					c-1.8,5.5-3.5,11.1-5.1,16.7C643.5,168.4,644.1,168.8,644.3,168.3L644.3,168.3z"/>
			</g>
			<g id="XMLID_152_" class="st0">
				<path id="XMLID_153_" class="st2" d="M667.9,163.4c2.5-8.4,4.9-16.8,7.3-25.3c0.1-0.5-0.5-0.8-0.6-0.4
					c-2.6,8.3-5.1,16.7-7.6,25.1C666.8,163.5,667.7,164,667.9,163.4L667.9,163.4z"/>
			</g>
			<g id="XMLID_150_" class="st0">
				<path id="XMLID_151_" class="st2" d="M586,54c6.7-22.4,13.3-44.7,19.8-67.2c0.1-0.3-0.3-0.6-0.4-0.3
					c-6.8,22.3-13.4,44.7-20,67.1C585.3,54.1,585.9,54.5,586,54L586,54z"/>
			</g>
			<g id="XMLID_146_">
				<path id="XMLID_147_" class="st1" d="M784.9,48.8c2.5-8.4,5-16.7,7.4-25.2c0.1-0.2-0.2-0.4-0.3-0.2c-2.6,8.3-5.1,16.7-7.5,25.1
					C784.4,48.8,784.8,49.1,784.9,48.8L784.9,48.8z"/>
			</g>
			<g id="XMLID_144_">
				<path id="XMLID_145_" class="st1" d="M796.4,67c1.5-5.1,3-10.3,4.5-15.4c0.1-0.3-0.3-0.5-0.4-0.2c-1.6,5.1-3.1,10.2-4.7,15.3
					C795.7,67,796.3,67.4,796.4,67L796.4,67z"/>
			</g>
			<g id="XMLID_142_">
				<path id="XMLID_143_" class="st1" d="M856.7,77.9c4.7-15.8,9.4-31.7,14-47.6c0.1-0.2-0.2-0.3-0.3-0.2
					c-4.8,15.8-9.5,31.6-14.2,47.5C856.2,77.9,856.6,78.2,856.7,77.9L856.7,77.9z"/>
			</g>
			<g id="XMLID_140_">
				<path id="XMLID_141_" class="st1" d="M896.3,65.7c8.3-27.9,16.8-55.8,24.8-84c0.1-0.3-0.3-0.6-0.4-0.3
					c-8.6,27.8-16.8,55.8-25,83.8C895.5,65.7,896.2,66.2,896.3,65.7L896.3,65.7z"/>
			</g>
			<g id="XMLID_138_" class="st0">
				<path id="XMLID_139_" class="st2" d="M393.2,134.7c8.9-29.8,17.8-59.6,26.5-89.6c0.1-0.4-0.4-0.7-0.5-0.3
					c-9,29.7-17.8,59.6-26.7,89.4C392.3,134.7,393,135.2,393.2,134.7L393.2,134.7z"/>
			</g>
			<g id="XMLID_136_" class="st0">
				<path id="XMLID_137_" class="st2" d="M421.9,151.3c4.6-15.4,9.4-30.6,13.5-46.3c0.1-0.3-0.3-0.5-0.4-0.3
					c-5,15.1-9.3,30.7-13.9,46C421,151.3,421.7,151.8,421.9,151.3L421.9,151.3z"/>
			</g>
			<g id="XMLID_134_" class="st0">
				<path id="XMLID_135_" class="st2" d="M429.7,211.9c3.6-12.1,7.2-24.3,10.5-36.6c0.1-0.3-0.3-0.5-0.4-0.2
					c-3.9,11.9-7.5,24-11.1,36.2C428.4,212,429.4,212.7,429.7,211.9L429.7,211.9z"/>
			</g>
			<g id="XMLID_132_" class="st0">
				<path id="XMLID_133_" class="st2" d="M346.9,184.2c5.8-19.6,12-38.9,17.3-58.8c0.1-0.3-0.3-0.6-0.4-0.3
					c-6.3,19.3-11.8,39.1-17.5,58.7C346.1,184.3,346.8,184.7,346.9,184.2L346.9,184.2z"/>
			</g>
			<g id="XMLID_130_">
				<path id="XMLID_131_" class="st1" d="M822.9,142.8c6.9-23.3,14.1-46.5,20.7-70c0.1-0.3-0.3-0.5-0.4-0.2
					c-7.2,23.1-13.9,46.6-20.8,69.9C822.3,142.8,822.8,143.2,822.9,142.8L822.9,142.8z"/>
			</g>
			<g id="XMLID_128_">
				<path id="XMLID_129_" class="st1" d="M792.5,124.3c1.2-4.2,2.5-8.4,3.6-12.6c0.1-0.2-0.2-0.4-0.3-0.2c-1.3,4.1-2.6,8.3-3.8,12.5
					C791.9,124.4,792.4,124.7,792.5,124.3L792.5,124.3z"/>
			</g>
			<g id="XMLID_126_">
				<path id="XMLID_127_" class="st1" d="M856.6,19.6c3.2-10.7,6.4-21.4,9.4-32.3c0.1-0.3-0.3-0.5-0.4-0.2
					c-3.4,10.6-6.5,21.3-9.7,32.1C855.8,19.7,856.5,20.2,856.6,19.6L856.6,19.6z"/>
			</g>
			<g id="XMLID_124_" class="st0">
				<path id="XMLID_125_" class="st2" d="M457.9,29.5C464,9,470.2-11.4,476.1-32c0.1-0.3-0.3-0.5-0.3-0.2
					c-6.3,20.4-12.2,41-18.3,61.5C457.3,29.6,457.8,29.8,457.9,29.5L457.9,29.5z"/>
			</g>
			<g id="XMLID_122_" class="st0">
				<path id="XMLID_123_" class="st2" d="M498-1.5c6.4-21.5,12.7-42.9,18.9-64.4c0.1-0.4-0.4-0.7-0.5-0.3
					c-6.5,21.3-12.9,42.8-19.3,64.2C497-1.4,497.8-0.8,498-1.5L498-1.5z"/>
			</g>
			<g id="XMLID_120_" class="st0">
				<path id="XMLID_121_" class="st2" d="M483.2,258.8c10.8-36.3,21.9-72.5,32.3-109.1c0.1-0.3-0.3-0.5-0.4-0.2
					c-11.2,36.1-21.7,72.6-32.5,109C482.4,258.9,483,259.2,483.2,258.8L483.2,258.8z"/>
			</g>
			<g id="XMLID_118_" class="st0">
				<path id="XMLID_119_" class="st2" d="M519.5,262c5.8-19.6,11.8-39.1,17.3-58.8c0.1-0.2-0.3-0.4-0.3-0.2
					c-6.1,19.4-11.7,39.1-17.5,58.7C518.8,262,519.4,262.4,519.5,262L519.5,262z"/>
			</g>
			<g id="XMLID_116_" class="st0">
				<path id="XMLID_117_" class="st2" d="M528.3,322.4c4.3-15.6,9-30.9,13.2-46.4c0.1-0.3-0.3-0.5-0.4-0.2
					c-4.9,15.2-9.3,30.7-14.2,45.9C526.7,322.6,528.1,323.4,528.3,322.4L528.3,322.4z"/>
			</g>
			<g id="XMLID_114_" class="st0">
				<path id="XMLID_115_" class="st2" d="M552.1,333.8c2.1-7,4.1-14,6-21.1c0.1-0.3-0.3-0.5-0.4-0.2c-2.3,6.9-4.4,13.8-6.4,20.8
					C551.1,333.9,551.9,334.4,552.1,333.8L552.1,333.8z"/>
			</g>
			<g id="XMLID_112_" class="st0">
				<path id="XMLID_113_" class="st2" d="M570.8,399.4c1-3.5,2.1-7,3.1-10.5c0.1-0.3-0.3-0.5-0.4-0.2c-1.1,3.5-2.1,7-3.1,10.5
					C570.3,399.4,570.8,399.7,570.8,399.4L570.8,399.4z"/>
			</g>
			<g id="XMLID_110_" class="st0">
				<path id="XMLID_111_" class="st2" d="M594.1,472.7c17.5-58.7,35-117.4,52.2-176.3c0.1-0.2-0.3-0.5-0.3-0.2
					c-17.7,58.6-35,117.4-52.4,176.1C593.5,472.8,594,473.1,594.1,472.7L594.1,472.7z"/>
			</g>
			<g id="XMLID_108_" class="st0">
				<path id="XMLID_109_" class="st2" d="M627,436.3c10.8-36.3,21.7-72.6,32.2-109.2c0.1-0.4-0.4-0.7-0.5-0.3
					c-11.1,36.2-21.7,72.6-32.5,109C626.1,436.4,626.8,436.9,627,436.3L627,436.3z"/>
			</g>
			<g id="XMLID_106_" class="st0">
				<path id="XMLID_107_" class="st2" d="M602.7,292.4c6.7-22.4,13.3-44.7,19.8-67.2c0.1-0.3-0.3-0.6-0.4-0.3
					c-6.8,22.3-13.4,44.7-20,67.1C601.9,292.5,602.6,292.9,602.7,292.4L602.7,292.4z"/>
			</g>
			<g id="XMLID_104_" class="st0">
				<path id="XMLID_105_" class="st2" d="M560.8,168.6c9.9-35.3,20.5-70.1,30.7-105.2c0.1-0.3-0.3-0.5-0.3-0.2
					c-10.6,34.8-20.8,69.9-31.6,104.6C559.3,168.7,560.6,169.5,560.8,168.6L560.8,168.6z"/>
			</g>
			<g id="XMLID_102_" class="st0">
				<path id="XMLID_103_" class="st2" d="M524.9,107.1c10-33.5,20.2-67,29.8-100.7c0.1-0.3-0.4-0.6-0.5-0.3
					c-10.3,33.3-20,67.1-30,100.6C524.1,107.1,524.8,107.6,524.9,107.1L524.9,107.1z"/>
			</g>
			<g id="XMLID_100_" class="st0">
				<path id="XMLID_101_" class="st2" d="M339.9,319.5c10-33.5,20.2-67,29.8-100.7c0.1-0.3-0.4-0.6-0.5-0.3
					c-10.3,33.3-20,67.1-30,100.6C339.1,319.6,339.7,320,339.9,319.5L339.9,319.5z"/>
			</g>
			<g id="XMLID_98_" class="st0">
				<path id="XMLID_99_" class="st2" d="M459,100.1c5.5-18.1,10.9-36.3,16.1-54.6c0.1-0.4-0.4-0.7-0.5-0.3
					c-5.6,18-11,36.2-16.3,54.5C458.1,100.1,458.9,100.6,459,100.1L459,100.1z"/>
			</g>
			<g id="XMLID_96_">
				<path id="XMLID_97_" class="st1" d="M828.6,9.2c5.5-18.1,10.9-36.3,16.1-54.6c0.1-0.4-0.4-0.7-0.5-0.3
					c-5.6,18-11,36.2-16.3,54.5C827.7,9.3,828.5,9.8,828.6,9.2L828.6,9.2z"/>
			</g>
			<g id="XMLID_94_" class="st0">
				<path id="XMLID_95_" class="st2" d="M463.3,130.2c3.9-13.3,7.8-26.6,11.6-40c0.1-0.3-0.3-0.5-0.4-0.3
					c-4.1,13.2-8.1,26.4-12,39.7C462.3,130.3,463.1,130.8,463.3,130.2L463.3,130.2z"/>
			</g>
		</g>
		<g id="XMLID_2_">
			<g id="XMLID_91_">
				<path id="XMLID_92_" class="st1" d="M570.7,267c5.5-18.6,11.4-37.1,16.5-56c0.1-0.3-0.3-0.6-0.4-0.3
					c-6,18.3-11.2,37.2-16.7,55.9C569.9,267,570.5,267.4,570.7,267L570.7,267z"/>
			</g>
			<g id="XMLID_89_">
				<path id="XMLID_90_" class="st1" d="M583.3,277.5c5.6-22.4,12.6-44.1,19-66.1c0.1-0.2-0.2-0.4-0.3-0.2
					c-6.6,21.8-12.7,44.1-20,65.4C581.7,277.6,583.1,278.5,583.3,277.5L583.3,277.5z"/>
			</g>
			<g id="XMLID_87_">
				<path id="XMLID_88_" class="st1" d="M586,340.7c2.5-8.4,5-16.7,7.4-25.2c0.1-0.2-0.2-0.4-0.3-0.2c-2.6,8.3-5.1,16.7-7.5,25.1
					C585.5,340.8,585.9,341,586,340.7L586,340.7z"/>
			</g>
			<g id="XMLID_85_">
				<path id="XMLID_86_" class="st1" d="M597.5,358.9c1.5-5.1,3-10.3,4.5-15.4c0.1-0.3-0.3-0.5-0.4-0.2c-1.6,5.1-3.1,10.2-4.7,15.3
					C596.8,358.9,597.4,359.3,597.5,358.9L597.5,358.9z"/>
			</g>
			<g id="XMLID_83_">
				<path id="XMLID_84_" class="st1" d="M611.8,392.1c7.6-25.6,15.3-51.2,22.9-76.9c7.6-25.6,16-50.9,22.7-77
					c0.1-0.4-0.4-0.6-0.5-0.3c-8.4,25-15.4,51.2-23,76.8c-7.6,25.6-15.1,51.3-22.7,77C611.1,392.1,611.7,392.4,611.8,392.1
					L611.8,392.1z"/>
			</g>
			<g id="XMLID_81_">
				<path id="XMLID_82_" class="st1" d="M657.9,369.8c4.7-15.8,9.4-31.7,14-47.6c0.1-0.2-0.2-0.3-0.3-0.2
					c-4.8,15.8-9.5,31.6-14.2,47.5C657.3,369.8,657.8,370.1,657.9,369.8L657.9,369.8z"/>
			</g>
			<g id="XMLID_79_">
				<path id="XMLID_80_" class="st1" d="M697.5,357.6c8.3-27.9,16.8-55.8,24.8-84c0.1-0.3-0.3-0.6-0.4-0.3
					c-8.6,27.8-16.8,55.8-25,83.8C696.6,357.7,697.3,358.1,697.5,357.6L697.5,357.6z"/>
			</g>
			<g id="XMLID_77_">
				<path id="XMLID_78_" class="st1" d="M709.9,263.3c2.5-8.4,5.1-16.7,7.4-25.2c0-0.2-0.2-0.3-0.2-0.1c-2.6,8.3-5,16.8-7.5,25.1
					C709.5,263.3,709.8,263.5,709.9,263.3L709.9,263.3z"/>
			</g>
			<g id="XMLID_75_">
				<path id="XMLID_76_" class="st1" d="M738,157.3c2.9-9.8,5.8-19.6,8.5-29.5c0.1-0.3-0.3-0.5-0.4-0.2c-3.1,9.6-6,19.4-8.9,29.2
					C737,157.3,737.8,157.8,738,157.3L738,157.3z"/>
			</g>
			<g id="XMLID_73_">
				<path id="XMLID_74_" class="st1" d="M504.1,174.8c1.4-4.7,2.8-9.3,4.1-14c0-0.1-0.1-0.2-0.1-0.1c-1.4,4.6-2.8,9.3-4.2,14
					C503.9,174.8,504.1,174.9,504.1,174.8L504.1,174.8z"/>
			</g>
			<g id="XMLID_71_">
				<path id="XMLID_72_" class="st1" d="M523,111.7c-0.5-1.5-1.1-2.9-1.7-4.3c-0.1-0.3-0.5-0.2-0.4,0.1c0.5,1.5,1,2.9,1.5,4.4
					C522.6,112.4,523.2,112.2,523,111.7L523,111.7z"/>
			</g>
			<g id="XMLID_69_">
				<path id="XMLID_70_" class="st1" d="M494.6,151.3c5.3-17.7,10.8-35.3,15.7-53.2c0.1-0.4-0.4-0.7-0.5-0.3
					c-5.5,17.5-10.6,35.4-15.8,53.1C493.8,151.3,494.4,151.7,494.6,151.3L494.6,151.3z"/>
			</g>
			<g id="XMLID_67_">
				<path id="XMLID_68_" class="st1" d="M545.2,118.6c3-10.3,6.2-20.5,9.1-30.8c0.1-0.3-0.3-0.5-0.4-0.2
					c-3.2,10.2-6.2,20.5-9.2,30.7C544.5,118.7,545.1,119,545.2,118.6L545.2,118.6z"/>
			</g>
			<g id="XMLID_65_">
				<path id="XMLID_66_" class="st1" d="M586.4,103.2c1.4-4.7,2.7-9.3,4-14.1c0.1-0.3-0.3-0.5-0.4-0.2c-1.5,4.6-2.9,9.2-4.3,13.9
					C585.6,103.3,586.2,103.7,586.4,103.2L586.4,103.2z"/>
			</g>
			<g id="XMLID_63_">
				<path id="XMLID_64_" class="st1" d="M584.4,188.4c6.8-22.8,13.7-45.6,20.2-68.6c0-0.2-0.2-0.3-0.2-0.1
					c-7,22.7-13.7,45.6-20.4,68.5C583.9,188.5,584.3,188.7,584.4,188.4L584.4,188.4z"/>
			</g>
			<g id="XMLID_61_">
				<path id="XMLID_62_" class="st1" d="M622.3,196.7c5.9-20,11.9-40.1,17.7-60.2c0.1-0.2-0.3-0.4-0.3-0.2c-6.1,19.9-12.1,40-18,60
					C621.5,196.8,622.1,197.2,622.3,196.7L622.3,196.7z"/>
			</g>
			<g id="XMLID_59_">
				<path id="XMLID_60_" class="st1" d="M650.1,208.6c17-57.3,34.5-114.4,51-172c0.1-0.3-0.3-0.6-0.4-0.3
					c-17.5,57-34.1,114.6-51.1,172C649.5,208.7,650,209,650.1,208.6L650.1,208.6z"/>
			</g>
			<g id="XMLID_57_">
				<path id="XMLID_58_" class="st1" d="M619.6,282.3c3.6-12.1,7.3-24.2,10.7-36.4c0.1-0.3-0.3-0.6-0.4-0.3
					c-3.8,12-7.3,24.2-10.9,36.3C618.8,282.4,619.4,282.8,619.6,282.3L619.6,282.3z"/>
			</g>
			<g id="XMLID_55_">
				<path id="XMLID_56_" class="st1" d="M669.1,273.9c6.9-23.3,14-46.5,20.5-70.1c0.1-0.3-0.3-0.6-0.4-0.3
					c-7.4,23-14.1,46.5-21,69.7C667.9,274,668.9,274.6,669.1,273.9L669.1,273.9z"/>
			</g>
			<g id="XMLID_53_">
				<path id="XMLID_54_" class="st1" d="M707.9,269.5c8.7-33.2,19.3-65.3,28.7-98.1c0.1-0.4-0.4-0.7-0.5-0.3
					c-10,32.4-18.8,65.7-29.5,97.6C706.3,269.6,707.6,270.4,707.9,269.5L707.9,269.5z"/>
			</g>
			<g id="XMLID_51_">
				<path id="XMLID_52_" class="st1" d="M727.3,419.8c8.9-29.8,17.8-59.6,26.5-89.6c0.1-0.4-0.4-0.7-0.5-0.3
					c-9,29.7-17.8,59.6-26.7,89.4C726.4,419.9,727.2,420.3,727.3,419.8L727.3,419.8z"/>
			</g>
			<g id="XMLID_49_">
				<path id="XMLID_50_" class="st1" d="M756.1,436.4c4.6-15.4,9.4-30.6,13.5-46.3c0.1-0.3-0.3-0.5-0.4-0.3
					c-5,15.1-9.3,30.7-13.9,46C755.1,436.5,755.9,437,756.1,436.4L756.1,436.4z"/>
			</g>
			<g id="XMLID_47_">
				<path id="XMLID_48_" class="st1" d="M763.8,497c3.6-12.1,7.2-24.3,10.5-36.6c0.1-0.3-0.3-0.5-0.4-0.2
					c-3.9,11.9-7.5,24-11.1,36.2C762.6,497.1,763.6,497.8,763.8,497L763.8,497z"/>
			</g>
			<g id="XMLID_45_">
				<path id="XMLID_46_" class="st1" d="M681.1,469.4c5.8-19.6,12-38.9,17.3-58.8c0.1-0.3-0.3-0.6-0.4-0.3
					c-6.3,19.3-11.8,39.1-17.5,58.7C680.3,469.4,681,469.8,681.1,469.4L681.1,469.4z"/>
			</g>
			<g id="XMLID_43_">
				<path id="XMLID_44_" class="st1" d="M624,434.7c6.9-23.3,14.1-46.5,20.7-70c0.1-0.3-0.3-0.5-0.4-0.2
					c-7.2,23.1-13.9,46.6-20.8,69.9C623.4,434.8,623.9,435.1,624,434.7L624,434.7z"/>
			</g>
			<g id="XMLID_41_">
				<path id="XMLID_42_" class="st1" d="M593.6,416.2c1.2-4.2,2.5-8.4,3.6-12.6c0.1-0.2-0.2-0.4-0.3-0.2c-1.3,4.1-2.6,8.3-3.8,12.5
					C593,416.3,593.5,416.6,593.6,416.2L593.6,416.2z"/>
			</g>
			<g id="XMLID_39_">
				<path id="XMLID_40_" class="st1" d="M657.7,311.6c3.2-10.7,6.4-21.4,9.4-32.3c0.1-0.3-0.3-0.5-0.4-0.2
					c-3.4,10.6-6.5,21.3-9.7,32.1C656.9,311.6,657.6,312.1,657.7,311.6L657.7,311.6z"/>
			</g>
			<g id="XMLID_37_">
				<path id="XMLID_38_" class="st1" d="M745.6,313.4c7.4-24.9,14.9-49.8,22.3-74.8c7.4-24.9,15.2-49.6,22.1-74.9
					c0.1-0.4-0.4-0.7-0.5-0.3c-7.9,24.6-14.9,49.8-22.3,74.8c-7.4,24.9-14.8,49.9-22.1,74.9C745,313.5,745.5,313.8,745.6,313.4
					L745.6,313.4z"/>
			</g>
			<g id="XMLID_35_">
				<path id="XMLID_36_" class="st1" d="M792,314.7c6.1-20.5,12.3-40.9,18.2-61.6c0.1-0.3-0.3-0.5-0.3-0.2
					c-6.3,20.4-12.2,41-18.3,61.5C791.5,314.7,791.9,315,792,314.7L792,314.7z"/>
			</g>
			<g id="XMLID_33_">
				<path id="XMLID_34_" class="st1" d="M832.2,283.7c6.4-21.5,12.7-42.9,18.9-64.4c0.1-0.4-0.4-0.7-0.5-0.3
					c-6.5,21.3-12.9,42.8-19.3,64.2C831.1,283.8,832,284.3,832.2,283.7L832.2,283.7z"/>
			</g>
			<g id="XMLID_31_">
				<path id="XMLID_32_" class="st1" d="M776.4,89.5c2.6-8.8,5.4-17.6,7.7-26.7c0.1-0.4-0.4-0.7-0.5-0.3c-2.9,8.6-5.4,17.6-8,26.5
					C775.4,89.5,776.2,90.1,776.4,89.5L776.4,89.5z"/>
			</g>
			<g id="XMLID_29_">
				<path id="XMLID_30_" class="st1" d="M731.8,95.2c2-7,4-14.1,5.9-21.2c0.1-0.5-0.5-0.8-0.6-0.4c-2.3,6.8-4.4,13.8-6.6,20.8
					C730.2,95.3,731.6,96.1,731.8,95.2L731.8,95.2z"/>
			</g>
			<g id="XMLID_27_">
				<path id="XMLID_28_" class="st1" d="M699,135.8c3.2-10.7,6.4-21.4,9.4-32.2c0.1-0.3-0.4-0.6-0.5-0.3
					c-3.4,10.6-6.5,21.4-9.7,32.1C698.1,135.9,698.8,136.3,699,135.8L699,135.8z"/>
			</g>
			<g id="XMLID_25_">
				<path id="XMLID_26_" class="st1" d="M632.9,79.6c6.8-22.8,13.6-45.7,20.2-68.6c0.1-0.2-0.2-0.4-0.3-0.2
					c-7,22.7-13.7,45.6-20.5,68.4C632.1,79.7,632.7,80.1,632.9,79.6L632.9,79.6z"/>
			</g>
			<g id="XMLID_23_">
				<path id="XMLID_24_" class="st1" d="M603.9,32.1c3-10.3,6-20.5,9-30.9c0.1-0.3-0.3-0.5-0.4-0.2c-3.2,10.2-6.3,20.4-9.3,30.7
					C603,32.2,603.7,32.6,603.9,32.1L603.9,32.1z"/>
			</g>
			<g id="XMLID_21_">
				<path id="XMLID_22_" class="st1" d="M553.2,29c0.7-2.9,1.5-5.7,2.2-8.6c0.1-0.5-0.5-0.9-0.7-0.4c-1,2.7-1.9,5.4-2.8,8.2
					C551.6,29.1,553,29.9,553.2,29L553.2,29z"/>
			</g>
			<g id="XMLID_19_">
				<path id="XMLID_20_" class="st1" d="M539.3,25.1c0.7-2.3,1.4-4.7,2-7c0.1-0.3-0.3-0.6-0.4-0.3c-0.7,2.3-1.5,4.6-2.2,6.9
					C538.6,25.2,539.2,25.5,539.3,25.1L539.3,25.1z"/>
			</g>
			<g id="XMLID_17_">
				<path id="XMLID_18_" class="st1" d="M895,453.7c9.9-35.3,20.5-70.1,30.7-105.2c0.1-0.3-0.3-0.5-0.3-0.2
					c-10.6,34.8-20.8,69.9-31.6,104.6C893.4,453.8,894.7,454.7,895,453.7L895,453.7z"/>
			</g>
			<g id="XMLID_15_">
				<path id="XMLID_16_" class="st1" d="M859.1,392.2c10-33.5,20.2-67,29.8-100.7c0.1-0.3-0.4-0.6-0.5-0.3
					c-10.3,33.3-20,67.1-30,100.6C858.3,392.3,859,392.7,859.1,392.2L859.1,392.2z"/>
			</g>
			<g id="XMLID_13_">
				<path id="XMLID_14_" class="st1" d="M793.2,385.2c5.5-18.1,10.9-36.3,16.1-54.6c0.1-0.4-0.4-0.7-0.5-0.3
					c-5.6,18-11,36.2-16.3,54.5C792.3,385.3,793,385.7,793.2,385.2L793.2,385.2z"/>
			</g>
			<g id="XMLID_11_">
				<path id="XMLID_12_" class="st1" d="M797.5,415.4c3.9-13.3,7.8-26.6,11.6-40c0.1-0.3-0.3-0.5-0.4-0.3
					c-4.1,13.2-8.1,26.4-12,39.7C796.5,415.4,797.3,416,797.5,415.4L797.5,415.4z"/>
			</g>
			<g id="XMLID_9_">
				<path id="XMLID_10_" class="st1" d="M801.8,163.8c5.8-19.6,11.6-39.1,17.3-58.8c0.1-0.3-0.3-0.6-0.4-0.3
					c-5.9,19.5-11.8,39.1-17.6,58.7C801,163.9,801.7,164.3,801.8,163.8L801.8,163.8z"/>
			</g>
			<g id="XMLID_7_">
				<path id="XMLID_8_" class="st1" d="M722.1,10.8c9.4-31.4,18.8-62.9,27.9-94.4c0.1-0.3-0.3-0.6-0.4-0.3
					c-9.5,31.4-18.8,62.8-28.1,94.3C721.3,10.9,721.9,11.3,722.1,10.8L722.1,10.8z"/>
			</g>
			<g id="XMLID_3_">
				<path id="XMLID_4_" class="st1" d="M691.4-3.7c1.5-4.9,2.9-9.8,4.2-14.8c0.1-0.3-0.3-0.6-0.5-0.3c-1.6,4.8-3,9.7-4.5,14.6
					C690.4-3.6,691.2-3.2,691.4-3.7L691.4-3.7z"/>
			</g>
		</g>
	</g>
	<g id="XMLID_170_">
		<g id="XMLID_262_">
			<g id="XMLID_337_" class="st0">
				<path id="XMLID_338_" class="st2" d="M163.9-29.4c3.6-12.1,7.2-24.3,10.5-36.6c0.1-0.3-0.3-0.5-0.4-0.2
					c-3.9,11.9-7.5,24-11.1,36.2C162.7-29.3,163.7-28.7,163.9-29.4L163.9-29.4z"/>
			</g>
			<g id="XMLID_335_" class="st0">
				<path id="XMLID_336_" class="st2" d="M253.8,20.6c5.8-19.6,11.8-39.1,17.3-58.8c0.1-0.2-0.3-0.4-0.3-0.2
					C264.7-19,259,0.7,253.2,20.3C253.1,20.7,253.6,21,253.8,20.6L253.8,20.6z"/>
			</g>
			<g id="XMLID_333_" class="st0">
				<path id="XMLID_334_" class="st2" d="M262.6,81.1c4.3-15.6,9-30.9,13.2-46.4c0.1-0.3-0.3-0.5-0.4-0.2
					c-4.9,15.2-9.3,30.7-14.2,45.9C261,81.2,262.3,82.1,262.6,81.1L262.6,81.1z"/>
			</g>
			<g id="XMLID_331_" class="st0">
				<path id="XMLID_332_" class="st2" d="M286.4,92.5c2.1-7,4.1-14,6-21.1c0.1-0.3-0.3-0.5-0.4-0.2c-2.3,6.9-4.4,13.8-6.4,20.8
					C285.4,92.6,286.2,93.1,286.4,92.5L286.4,92.5z"/>
			</g>
			<g id="XMLID_329_" class="st0">
				<path id="XMLID_330_" class="st2" d="M305.1,158c1-3.5,2.1-7,3.1-10.5c0.1-0.3-0.3-0.5-0.4-0.2c-1.1,3.5-2.1,7-3.1,10.5
					C304.6,158.1,305,158.3,305.1,158L305.1,158z"/>
			</g>
			<g id="XMLID_327_" class="st0">
				<path id="XMLID_328_" class="st2" d="M328.4,231.4c17.5-58.7,35-117.4,52.2-176.3c0.1-0.2-0.3-0.5-0.3-0.2
					c-17.7,58.6-35,117.4-52.4,176.1C327.7,231.5,328.2,231.8,328.4,231.4L328.4,231.4z"/>
			</g>
			<g id="XMLID_325_" class="st0">
				<path id="XMLID_326_" class="st2" d="M361.3,195c10.8-36.3,21.7-72.6,32.2-109.2c0.1-0.4-0.4-0.7-0.5-0.3
					c-11.1,36.2-21.7,72.6-32.5,109C360.3,195,361.1,195.5,361.3,195L361.3,195z"/>
			</g>
			<g id="XMLID_323_" class="st0">
				<path id="XMLID_324_" class="st2" d="M395.2,165.4c1.7-5.6,3.3-11.2,4.8-16.9c0.1-0.3-0.3-0.5-0.3-0.2
					c-1.8,5.5-3.5,11.1-5.1,16.7C394.4,165.5,395.1,165.9,395.2,165.4L395.2,165.4z"/>
			</g>
			<g id="XMLID_321_" class="st0">
				<path id="XMLID_322_" class="st2" d="M418.8,160.5c2.5-8.4,4.9-16.8,7.3-25.3c0.1-0.5-0.5-0.8-0.6-0.4
					c-2.6,8.3-5.1,16.7-7.6,25.1C417.7,160.6,418.6,161.1,418.8,160.5L418.8,160.5z"/>
			</g>
			<g id="XMLID_319_" class="st0">
				<path id="XMLID_320_" class="st2" d="M336.9,51.1c6.7-22.4,13.3-44.7,19.8-67.2c0.1-0.3-0.3-0.6-0.4-0.3
					c-6.8,22.3-13.4,44.7-20,67.1C336.2,51.2,336.8,51.6,336.9,51.1L336.9,51.1z"/>
			</g>
			<g id="XMLID_315_">
				<path id="XMLID_316_" class="st1" d="M535.8,45.9c2.5-8.4,5-16.7,7.4-25.2c0.1-0.2-0.2-0.4-0.3-0.2c-2.6,8.3-5.1,16.7-7.5,25.1
					C535.3,45.9,535.7,46.2,535.8,45.9L535.8,45.9z"/>
			</g>
			<g id="XMLID_313_">
				<path id="XMLID_314_" class="st1" d="M547.3,64.1c1.5-5.1,3-10.3,4.5-15.4c0.1-0.3-0.3-0.5-0.4-0.2c-1.6,5.1-3.1,10.2-4.7,15.3
					C546.6,64.1,547.2,64.5,547.3,64.1L547.3,64.1z"/>
			</g>
			<g id="XMLID_311_">
				<path id="XMLID_312_" class="st1" d="M607.6,75c4.7-15.8,9.4-31.7,14-47.6c0.1-0.2-0.2-0.3-0.3-0.2
					c-4.8,15.8-9.5,31.6-14.2,47.5C607.1,75,607.5,75.3,607.6,75L607.6,75z"/>
			</g>
			<g id="XMLID_309_">
				<path id="XMLID_310_" class="st1" d="M647.2,62.8C655.6,34.8,664,7,672-21.2c0.1-0.3-0.3-0.6-0.4-0.3
					c-8.6,27.8-16.8,55.8-25,83.8C646.4,62.8,647.1,63.3,647.2,62.8L647.2,62.8z"/>
			</g>
			<g id="XMLID_307_" class="st0">
				<path id="XMLID_308_" class="st2" d="M144.1,131.8c8.9-29.8,17.8-59.6,26.5-89.6c0.1-0.4-0.4-0.7-0.5-0.3
					c-9,29.7-17.8,59.6-26.7,89.4C143.2,131.8,143.9,132.3,144.1,131.8L144.1,131.8z"/>
			</g>
			<g id="XMLID_305_" class="st0">
				<path id="XMLID_306_" class="st2" d="M172.8,148.4c4.6-15.4,9.4-30.6,13.5-46.3c0.1-0.3-0.3-0.5-0.4-0.3
					c-5,15.1-9.3,30.7-13.9,46C171.9,148.4,172.6,148.9,172.8,148.4L172.8,148.4z"/>
			</g>
			<g id="XMLID_303_" class="st0">
				<path id="XMLID_304_" class="st2" d="M180.6,209c3.6-12.1,7.2-24.3,10.5-36.6c0.1-0.3-0.3-0.5-0.4-0.2
					c-3.9,11.9-7.5,24-11.1,36.2C179.3,209.1,180.3,209.8,180.6,209L180.6,209z"/>
			</g>
			<g id="XMLID_301_" class="st0">
				<path id="XMLID_302_" class="st2" d="M97.8,181.3c5.8-19.6,12-38.9,17.3-58.8c0.1-0.3-0.3-0.6-0.4-0.3
					c-6.3,19.3-11.8,39.1-17.5,58.7C97,181.4,97.7,181.8,97.8,181.3L97.8,181.3z"/>
			</g>
			<g id="XMLID_299_">
				<path id="XMLID_300_" class="st1" d="M573.8,139.9c6.9-23.3,14.1-46.5,20.7-70c0.1-0.3-0.3-0.5-0.4-0.2
					c-7.2,23.1-13.9,46.6-20.8,69.9C573.2,139.9,573.7,140.3,573.8,139.9L573.8,139.9z"/>
			</g>
			<g id="XMLID_297_">
				<path id="XMLID_298_" class="st1" d="M543.4,121.4c1.2-4.2,2.5-8.4,3.6-12.6c0.1-0.2-0.2-0.4-0.3-0.2c-1.3,4.1-2.6,8.3-3.8,12.5
					C542.8,121.5,543.3,121.8,543.4,121.4L543.4,121.4z"/>
			</g>
			<g id="XMLID_295_">
				<path id="XMLID_296_" class="st1" d="M607.5,16.7c3.2-10.7,6.4-21.4,9.4-32.3c0.1-0.3-0.3-0.5-0.4-0.2
					c-3.4,10.6-6.5,21.3-9.7,32.1C606.7,16.8,607.4,17.3,607.5,16.7L607.5,16.7z"/>
			</g>
			<g id="XMLID_293_" class="st0">
				<path id="XMLID_294_" class="st2" d="M208.8,26.6c6.1-20.5,12.3-40.9,18.2-61.6c0.1-0.3-0.3-0.5-0.3-0.2
					c-6.3,20.4-12.2,41-18.3,61.5C208.2,26.7,208.7,26.9,208.8,26.6L208.8,26.6z"/>
			</g>
			<g id="XMLID_291_" class="st0">
				<path id="XMLID_292_" class="st2" d="M248.9-4.4c6.4-21.5,12.7-42.9,18.9-64.4c0.1-0.4-0.4-0.7-0.5-0.3
					c-6.5,21.3-12.9,42.8-19.3,64.2C247.9-4.3,248.7-3.7,248.9-4.4L248.9-4.4z"/>
			</g>
			<g id="XMLID_289_" class="st0">
				<path id="XMLID_290_" class="st2" d="M234.1,255.9c10.8-36.3,21.9-72.5,32.3-109.1c0.1-0.3-0.3-0.5-0.4-0.2
					c-11.2,36.1-21.7,72.6-32.5,109C233.3,256,233.9,256.3,234.1,255.9L234.1,255.9z"/>
			</g>
			<g id="XMLID_287_" class="st0">
				<path id="XMLID_288_" class="st2" d="M270.4,259.1c5.8-19.6,11.8-39.1,17.3-58.8c0.1-0.2-0.3-0.4-0.3-0.2
					c-6.1,19.4-11.7,39.1-17.5,58.7C269.7,259.1,270.3,259.5,270.4,259.1L270.4,259.1z"/>
			</g>
			<g id="XMLID_285_" class="st0">
				<path id="XMLID_286_" class="st2" d="M279.2,319.5c4.3-15.6,9-30.9,13.2-46.4c0.1-0.3-0.3-0.5-0.4-0.2
					c-4.9,15.2-9.3,30.7-14.2,45.9C277.6,319.7,279,320.5,279.2,319.5L279.2,319.5z"/>
			</g>
			<g id="XMLID_283_" class="st0">
				<path id="XMLID_284_" class="st2" d="M303,330.9c2.1-7,4.1-14,6-21.1c0.1-0.3-0.3-0.5-0.4-0.2c-2.3,6.9-4.4,13.8-6.4,20.8
					C302,331,302.8,331.5,303,330.9L303,330.9z"/>
			</g>
			<g id="XMLID_281_" class="st0">
				<path id="XMLID_282_" class="st2" d="M321.8,396.5c1-3.5,2.1-7,3.1-10.5c0.1-0.3-0.3-0.5-0.4-0.2c-1.1,3.5-2.1,7-3.1,10.5
					C321.2,396.5,321.7,396.8,321.8,396.5L321.8,396.5z"/>
			</g>
			<g id="XMLID_279_" class="st0">
				<path id="XMLID_280_" class="st2" d="M345,469.8c17.5-58.7,35-117.4,52.2-176.3c0.1-0.2-0.3-0.5-0.3-0.2
					c-17.7,58.6-35,117.4-52.4,176.1C344.4,469.9,344.9,470.2,345,469.8L345,469.8z"/>
			</g>
			<g id="XMLID_277_" class="st0">
				<path id="XMLID_278_" class="st2" d="M377.9,433.4c10.8-36.3,21.7-72.6,32.2-109.2c0.1-0.4-0.4-0.7-0.5-0.3
					c-11.1,36.2-21.7,72.6-32.5,109C377,433.5,377.7,434,377.9,433.4L377.9,433.4z"/>
			</g>
			<g id="XMLID_275_" class="st0">
				<path id="XMLID_276_" class="st2" d="M353.6,289.5c6.7-22.4,13.3-44.7,19.8-67.2c0.1-0.3-0.3-0.6-0.4-0.3
					c-6.8,22.3-13.4,44.7-20,67.1C352.8,289.6,353.5,290,353.6,289.5L353.6,289.5z"/>
			</g>
			<g id="XMLID_273_" class="st0">
				<path id="XMLID_274_" class="st2" d="M311.7,165.7c9.9-35.3,20.5-70.1,30.7-105.2c0.1-0.3-0.3-0.5-0.3-0.2
					c-10.6,34.8-20.8,69.9-31.6,104.6C310.2,165.8,311.5,166.6,311.7,165.7L311.7,165.7z"/>
			</g>
			<g id="XMLID_271_" class="st0">
				<path id="XMLID_272_" class="st2" d="M275.8,104.2c10-33.5,20.2-67,29.8-100.7c0.1-0.3-0.4-0.6-0.5-0.3
					c-10.3,33.3-20,67.1-30,100.6C275,104.2,275.7,104.7,275.8,104.2L275.8,104.2z"/>
			</g>
			<g id="XMLID_269_" class="st0">
				<path id="XMLID_270_" class="st2" d="M90.8,316.6c10-33.5,20.2-67,29.8-100.7c0.1-0.3-0.4-0.6-0.5-0.3
					c-10.3,33.3-20,67.1-30,100.6C90,316.7,90.6,317.1,90.8,316.6L90.8,316.6z"/>
			</g>
			<g id="XMLID_267_" class="st0">
				<path id="XMLID_268_" class="st2" d="M209.9,97.2c5.5-18.1,10.9-36.3,16.1-54.6c0.1-0.4-0.4-0.7-0.5-0.3
					c-5.6,18-11,36.2-16.3,54.5C209,97.2,209.8,97.7,209.9,97.2L209.9,97.2z"/>
			</g>
			<g id="XMLID_265_">
				<path id="XMLID_266_" class="st1" d="M579.5,6.3c5.5-18.1,10.9-36.3,16.1-54.6c0.1-0.4-0.4-0.7-0.5-0.3
					c-5.6,18-11,36.2-16.3,54.5C578.6,6.4,579.4,6.9,579.5,6.3L579.5,6.3z"/>
			</g>
			<g id="XMLID_263_" class="st0">
				<path id="XMLID_264_" class="st2" d="M214.2,127.3c3.9-13.3,7.8-26.6,11.6-40c0.1-0.3-0.3-0.5-0.4-0.3
					c-4.1,13.2-8.1,26.4-12,39.7C213.2,127.4,214,127.9,214.2,127.3L214.2,127.3z"/>
			</g>
		</g>
		<g id="XMLID_171_">
			<g id="XMLID_260_">
				<path id="XMLID_261_" class="st1" d="M321.6,264.1c5.5-18.6,11.4-37.1,16.5-56c0.1-0.3-0.3-0.6-0.4-0.3
					c-6,18.3-11.2,37.2-16.7,55.9C320.8,264.1,321.4,264.5,321.6,264.1L321.6,264.1z"/>
			</g>
			<g id="XMLID_258_">
				<path id="XMLID_259_" class="st1" d="M334.2,274.6c5.6-22.4,12.6-44.1,19-66.1c0.1-0.2-0.2-0.4-0.3-0.2
					c-6.6,21.8-12.7,44.1-20,65.4C332.6,274.7,334,275.6,334.2,274.6L334.2,274.6z"/>
			</g>
			<g id="XMLID_256_">
				<path id="XMLID_257_" class="st1" d="M336.9,337.8c2.5-8.4,5-16.7,7.4-25.2c0.1-0.2-0.2-0.4-0.3-0.2c-2.6,8.3-5.1,16.7-7.5,25.1
					C336.4,337.9,336.8,338.1,336.9,337.8L336.9,337.8z"/>
			</g>
			<g id="XMLID_254_">
				<path id="XMLID_255_" class="st1" d="M348.4,356c1.5-5.1,3-10.3,4.5-15.4c0.1-0.3-0.3-0.5-0.4-0.2c-1.6,5.1-3.1,10.2-4.7,15.3
					C347.7,356,348.3,356.4,348.4,356L348.4,356z"/>
			</g>
			<g id="XMLID_252_">
				<path id="XMLID_253_" class="st1" d="M362.7,389.2c7.6-25.6,15.3-51.2,22.9-76.9c7.6-25.6,16-50.9,22.7-77
					c0.1-0.4-0.4-0.6-0.5-0.3c-8.4,25-15.4,51.2-23,76.8c-7.6,25.6-15.1,51.3-22.7,77C362,389.2,362.6,389.5,362.7,389.2
					L362.7,389.2z"/>
			</g>
			<g id="XMLID_250_">
				<path id="XMLID_251_" class="st1" d="M408.8,366.9c4.7-15.8,9.4-31.7,14-47.6c0.1-0.2-0.2-0.3-0.3-0.2
					c-4.8,15.8-9.5,31.6-14.2,47.5C408.2,366.9,408.7,367.2,408.8,366.9L408.8,366.9z"/>
			</g>
			<g id="XMLID_248_">
				<path id="XMLID_249_" class="st1" d="M448.4,354.7c8.3-27.9,16.8-55.8,24.8-84c0.1-0.3-0.3-0.6-0.4-0.3
					c-8.6,27.8-16.8,55.8-25,83.8C447.5,354.8,448.2,355.2,448.4,354.7L448.4,354.7z"/>
			</g>
			<g id="XMLID_246_">
				<path id="XMLID_247_" class="st1" d="M460.8,260.4c2.5-8.4,5.1-16.7,7.4-25.2c0-0.2-0.2-0.3-0.2-0.1c-2.6,8.3-5,16.8-7.5,25.1
					C460.4,260.4,460.7,260.6,460.8,260.4L460.8,260.4z"/>
			</g>
			<g id="XMLID_244_">
				<path id="XMLID_245_" class="st1" d="M488.9,154.4c2.9-9.8,5.8-19.6,8.5-29.5c0.1-0.3-0.3-0.5-0.4-0.2c-3.1,9.6-6,19.4-8.9,29.2
					C487.9,154.4,488.7,154.9,488.9,154.4L488.9,154.4z"/>
			</g>
			<g id="XMLID_242_">
				<path id="XMLID_243_" class="st1" d="M255,171.9c1.4-4.7,2.8-9.3,4.1-14c0-0.1-0.1-0.2-0.1-0.1c-1.4,4.6-2.8,9.3-4.2,14
					C254.8,171.9,255,172,255,171.9L255,171.9z"/>
			</g>
			<g id="XMLID_240_">
				<path id="XMLID_241_" class="st1" d="M273.9,108.8c-0.5-1.5-1.1-2.9-1.7-4.3c-0.1-0.3-0.5-0.2-0.4,0.1c0.5,1.5,1,2.9,1.5,4.4
					C273.5,109.5,274.1,109.3,273.9,108.8L273.9,108.8z"/>
			</g>
			<g id="XMLID_238_">
				<path id="XMLID_239_" class="st1" d="M245.5,148.4c5.3-17.7,10.8-35.3,15.7-53.2c0.1-0.4-0.4-0.7-0.5-0.3
					c-5.5,17.5-10.6,35.4-15.8,53.1C244.7,148.4,245.3,148.8,245.5,148.4L245.5,148.4z"/>
			</g>
			<g id="XMLID_236_">
				<path id="XMLID_237_" class="st1" d="M296.1,115.7c3-10.3,6.2-20.5,9.1-30.8c0.1-0.3-0.3-0.5-0.4-0.2
					c-3.2,10.2-6.2,20.5-9.2,30.7C295.4,115.8,296,116.1,296.1,115.7L296.1,115.7z"/>
			</g>
			<g id="XMLID_234_">
				<path id="XMLID_235_" class="st1" d="M337.3,100.3c1.4-4.7,2.7-9.3,4-14.1c0.1-0.3-0.3-0.5-0.4-0.2c-1.5,4.6-2.9,9.2-4.3,13.9
					C336.5,100.4,337.1,100.8,337.3,100.3L337.3,100.3z"/>
			</g>
			<g id="XMLID_232_">
				<path id="XMLID_233_" class="st1" d="M335.3,185.5c6.8-22.8,13.7-45.6,20.2-68.6c0-0.2-0.2-0.3-0.2-0.1
					c-7,22.7-13.7,45.6-20.4,68.5C334.8,185.6,335.2,185.8,335.3,185.5L335.3,185.5z"/>
			</g>
			<g id="XMLID_230_">
				<path id="XMLID_231_" class="st1" d="M373.2,193.8c5.9-20,11.9-40.1,17.7-60.2c0.1-0.2-0.3-0.4-0.3-0.2c-6.1,19.9-12.1,40-18,60
					C372.4,193.9,373,194.3,373.2,193.8L373.2,193.8z"/>
			</g>
			<g id="XMLID_228_">
				<path id="XMLID_229_" class="st1" d="M401,205.7c17-57.3,34.5-114.4,51-172c0.1-0.3-0.3-0.6-0.4-0.3
					c-17.5,57-34.1,114.6-51.1,172C400.4,205.8,400.9,206.1,401,205.7L401,205.7z"/>
			</g>
			<g id="XMLID_226_">
				<path id="XMLID_227_" class="st1" d="M370.5,279.4c3.6-12.1,7.3-24.2,10.7-36.4c0.1-0.3-0.3-0.6-0.4-0.3
					c-3.8,12-7.3,24.2-10.9,36.3C369.7,279.5,370.3,279.9,370.5,279.4L370.5,279.4z"/>
			</g>
			<g id="XMLID_224_">
				<path id="XMLID_225_" class="st1" d="M420,271c6.9-23.3,14-46.5,20.5-70.1c0.1-0.3-0.3-0.6-0.4-0.3c-7.4,23-14.1,46.5-21,69.7
					C418.8,271.1,419.8,271.7,420,271L420,271z"/>
			</g>
			<g id="XMLID_222_">
				<path id="XMLID_223_" class="st1" d="M458.8,266.6c8.7-33.2,19.3-65.3,28.7-98.1c0.1-0.4-0.4-0.7-0.5-0.3
					c-10,32.4-18.8,65.7-29.5,97.6C457.2,266.7,458.5,267.5,458.8,266.6L458.8,266.6z"/>
			</g>
			<g id="XMLID_220_">
				<path id="XMLID_221_" class="st1" d="M478.2,416.9c8.9-29.8,17.8-59.6,26.5-89.6c0.1-0.4-0.4-0.7-0.5-0.3
					c-9,29.7-17.8,59.6-26.7,89.4C477.3,417,478.1,417.4,478.2,416.9L478.2,416.9z"/>
			</g>
			<g id="XMLID_218_">
				<path id="XMLID_219_" class="st1" d="M507,433.5c4.6-15.4,9.4-30.6,13.5-46.3c0.1-0.3-0.3-0.5-0.4-0.3c-5,15.1-9.3,30.7-13.9,46
					C506,433.6,506.8,434.1,507,433.5L507,433.5z"/>
			</g>
			<g id="XMLID_216_">
				<path id="XMLID_217_" class="st1" d="M514.7,494.1c3.6-12.1,7.2-24.3,10.5-36.6c0.1-0.3-0.3-0.5-0.4-0.2
					c-3.9,11.9-7.5,24-11.1,36.2C513.5,494.2,514.5,494.9,514.7,494.1L514.7,494.1z"/>
			</g>
			<g id="XMLID_214_">
				<path id="XMLID_215_" class="st1" d="M432,466.5c5.8-19.6,12-38.9,17.3-58.8c0.1-0.3-0.3-0.6-0.4-0.3
					c-6.3,19.3-11.8,39.1-17.5,58.7C431.2,466.5,431.9,466.9,432,466.5L432,466.5z"/>
			</g>
			<g id="XMLID_212_">
				<path id="XMLID_213_" class="st1" d="M374.9,431.8c6.9-23.3,14.1-46.5,20.7-70c0.1-0.3-0.3-0.5-0.4-0.2
					c-7.2,23.1-13.9,46.6-20.8,69.9C374.3,431.9,374.8,432.2,374.9,431.8L374.9,431.8z"/>
			</g>
			<g id="XMLID_210_">
				<path id="XMLID_211_" class="st1" d="M344.5,413.3c1.2-4.2,2.5-8.4,3.6-12.6c0.1-0.2-0.2-0.4-0.3-0.2c-1.3,4.1-2.6,8.3-3.8,12.5
					C343.9,413.4,344.4,413.7,344.5,413.3L344.5,413.3z"/>
			</g>
			<g id="XMLID_208_">
				<path id="XMLID_209_" class="st1" d="M408.6,308.7c3.2-10.7,6.4-21.4,9.4-32.3c0.1-0.3-0.3-0.5-0.4-0.2
					c-3.4,10.6-6.5,21.3-9.7,32.1C407.8,308.7,408.5,309.2,408.6,308.7L408.6,308.7z"/>
			</g>
			<g id="XMLID_206_">
				<path id="XMLID_207_" class="st1" d="M496.5,310.5c7.4-24.9,14.9-49.8,22.3-74.8c7.4-24.9,15.2-49.6,22.1-74.9
					c0.1-0.4-0.4-0.7-0.5-0.3c-7.9,24.6-14.9,49.8-22.3,74.8c-7.4,24.9-14.8,49.9-22.1,74.9C495.9,310.6,496.4,310.9,496.5,310.5
					L496.5,310.5z"/>
			</g>
			<g id="XMLID_204_">
				<path id="XMLID_205_" class="st1" d="M542.9,311.8c6.1-20.5,12.3-40.9,18.2-61.6c0.1-0.3-0.3-0.5-0.3-0.2
					c-6.3,20.4-12.2,41-18.3,61.5C542.4,311.8,542.8,312.1,542.9,311.8L542.9,311.8z"/>
			</g>
			<g id="XMLID_202_">
				<path id="XMLID_203_" class="st1" d="M583.1,280.8c6.4-21.5,12.7-42.9,18.9-64.4c0.1-0.4-0.4-0.7-0.5-0.3
					c-6.5,21.3-12.9,42.8-19.3,64.2C582.1,280.9,582.9,281.4,583.1,280.8L583.1,280.8z"/>
			</g>
			<g id="XMLID_200_">
				<path id="XMLID_201_" class="st1" d="M527.3,86.6c2.6-8.8,5.4-17.6,7.7-26.7c0.1-0.4-0.4-0.7-0.5-0.3c-2.9,8.6-5.4,17.6-8,26.5
					C526.3,86.6,527.1,87.2,527.3,86.6L527.3,86.6z"/>
			</g>
			<g id="XMLID_198_">
				<path id="XMLID_199_" class="st1" d="M482.7,92.3c2-7,4-14.1,5.9-21.2c0.1-0.5-0.5-0.8-0.6-0.4c-2.3,6.8-4.4,13.8-6.6,20.8
					C481.1,92.4,482.5,93.2,482.7,92.3L482.7,92.3z"/>
			</g>
			<g id="XMLID_196_">
				<path id="XMLID_197_" class="st1" d="M449.9,132.9c3.2-10.7,6.4-21.4,9.4-32.2c0.1-0.3-0.4-0.6-0.5-0.3
					c-3.4,10.6-6.5,21.4-9.7,32.1C449,133,449.7,133.4,449.9,132.9L449.9,132.9z"/>
			</g>
			<g id="XMLID_194_">
				<path id="XMLID_195_" class="st1" d="M383.8,76.7c6.8-22.8,13.6-45.7,20.2-68.6c0.1-0.2-0.2-0.4-0.3-0.2
					c-7,22.7-13.7,45.6-20.5,68.4C383,76.8,383.6,77.2,383.8,76.7L383.8,76.7z"/>
			</g>
			<g id="XMLID_192_">
				<path id="XMLID_193_" class="st1" d="M354.8,29.2c3-10.3,6-20.5,9-30.9c0.1-0.3-0.3-0.5-0.4-0.2c-3.2,10.2-6.3,20.4-9.3,30.7
					C353.9,29.3,354.6,29.7,354.8,29.2L354.8,29.2z"/>
			</g>
			<g id="XMLID_190_">
				<path id="XMLID_191_" class="st1" d="M304.1,26.1c0.7-2.9,1.5-5.7,2.2-8.6c0.1-0.5-0.5-0.9-0.7-0.4c-1,2.7-1.9,5.4-2.8,8.2
					C302.5,26.2,303.9,27,304.1,26.1L304.1,26.1z"/>
			</g>
			<g id="XMLID_188_">
				<path id="XMLID_189_" class="st1" d="M290.2,22.2c0.7-2.3,1.4-4.7,2-7c0.1-0.3-0.3-0.6-0.4-0.3c-0.7,2.3-1.5,4.6-2.2,6.9
					C289.5,22.3,290.1,22.6,290.2,22.2L290.2,22.2z"/>
			</g>
			<g id="XMLID_186_">
				<path id="XMLID_187_" class="st1" d="M645.9,450.8c9.9-35.3,20.5-70.1,30.7-105.2c0.1-0.3-0.3-0.5-0.3-0.2
					c-10.6,34.8-20.8,69.9-31.6,104.6C644.3,450.9,645.6,451.8,645.9,450.8L645.9,450.8z"/>
			</g>
			<g id="XMLID_184_">
				<path id="XMLID_185_" class="st1" d="M610,389.3c10-33.5,20.2-67,29.8-100.7c0.1-0.3-0.4-0.6-0.5-0.3
					c-10.3,33.3-20,67.1-30,100.6C609.2,389.4,609.9,389.8,610,389.3L610,389.3z"/>
			</g>
			<g id="XMLID_182_">
				<path id="XMLID_183_" class="st1" d="M544.1,382.3c5.5-18.1,10.9-36.3,16.1-54.6c0.1-0.4-0.4-0.7-0.5-0.3
					c-5.6,18-11,36.2-16.3,54.5C543.2,382.4,543.9,382.8,544.1,382.3L544.1,382.3z"/>
			</g>
			<g id="XMLID_180_">
				<path id="XMLID_181_" class="st1" d="M548.4,412.5c3.9-13.3,7.8-26.6,11.6-40c0.1-0.3-0.3-0.5-0.4-0.3
					c-4.1,13.2-8.1,26.4-12,39.7C547.4,412.5,548.2,413.1,548.4,412.5L548.4,412.5z"/>
			</g>
			<g id="XMLID_178_">
				<path id="XMLID_179_" class="st1" d="M552.7,160.9c5.8-19.6,11.6-39.1,17.3-58.8c0.1-0.3-0.3-0.6-0.4-0.3
					c-5.9,19.5-11.8,39.1-17.6,58.7C551.9,161,552.6,161.4,552.7,160.9L552.7,160.9z"/>
			</g>
			<g id="XMLID_176_">
				<path id="XMLID_177_" class="st1" d="M473,7.9c9.4-31.4,18.8-62.9,27.9-94.4c0.1-0.3-0.3-0.6-0.4-0.3
					C491-55.4,481.6-24,472.4,7.6C472.2,8,472.8,8.4,473,7.9L473,7.9z"/>
			</g>
			<g id="XMLID_174_">
				<path id="XMLID_175_" class="st1" d="M501.9,36.3c7.1-23.8,14.4-47.4,21-71.4c0.1-0.3-0.3-0.5-0.4-0.2
					c-7.5,23.5-14.3,47.5-21.3,71.2C501.1,36.4,501.7,36.8,501.9,36.3L501.9,36.3z"/>
			</g>
			<g id="XMLID_172_">
				<path id="XMLID_173_" class="st1" d="M442.3-6.6c1.5-4.9,2.9-9.8,4.2-14.8c0.1-0.3-0.3-0.6-0.5-0.3c-1.6,4.8-3,9.7-4.5,14.6
					C441.3-6.5,442.1-6.1,442.3-6.6L442.3-6.6z"/>
			</g>
		</g>
	</g>
	<g id="XMLID_339_">
		<g id="XMLID_431_">
			<g id="XMLID_502_" class="st0">
				<path id="XMLID_503_" class="st2" d="M-17.3,62.3C-13,46.7-8.3,31.4-4,15.8c0.1-0.3-0.3-0.5-0.4-0.2
					c-4.9,15.2-9.3,30.7-14.2,45.9C-18.9,62.4-17.5,63.2-17.3,62.3L-17.3,62.3z"/>
			</g>
			<g id="XMLID_500_" class="st0">
				<path id="XMLID_501_" class="st2" d="M6.5,73.6c2.1-7,4.1-14,6-21.1c0.1-0.3-0.3-0.5-0.4-0.2c-2.3,6.9-4.4,13.8-6.4,20.8
					C5.5,73.7,6.3,74.2,6.5,73.6L6.5,73.6z"/>
			</g>
			<g id="XMLID_498_" class="st0">
				<path id="XMLID_499_" class="st2" d="M25.2,139.2c1-3.5,2.1-7,3.1-10.5c0.1-0.3-0.3-0.5-0.4-0.2c-1.1,3.5-2.1,7-3.1,10.5
					C24.7,139.2,25.1,139.5,25.2,139.2L25.2,139.2z"/>
			</g>
			<g id="XMLID_496_" class="st0">
				<path id="XMLID_497_" class="st2" d="M48.5,212.6c17.5-58.7,35-117.4,52.2-176.3c0.1-0.2-0.3-0.5-0.3-0.2
					C82.7,94.7,65.3,153.4,48,212.2C47.9,212.6,48.4,212.9,48.5,212.6L48.5,212.6z"/>
			</g>
			<g id="XMLID_494_" class="st0">
				<path id="XMLID_495_" class="st2" d="M81.4,176.1c10.8-36.3,21.7-72.6,32.2-109.2c0.1-0.4-0.4-0.7-0.5-0.3
					c-11.1,36.2-21.7,72.6-32.5,109C80.5,176.2,81.2,176.7,81.4,176.1L81.4,176.1z"/>
			</g>
			<g id="XMLID_492_" class="st0">
				<path id="XMLID_493_" class="st2" d="M115.3,146.6c1.7-5.6,3.3-11.2,4.8-16.9c0.1-0.3-0.3-0.5-0.3-0.2
					c-1.8,5.5-3.5,11.1-5.1,16.7C114.6,146.6,115.2,147,115.3,146.6L115.3,146.6z"/>
			</g>
			<g id="XMLID_490_" class="st0">
				<path id="XMLID_491_" class="st2" d="M138.9,141.6c2.5-8.4,4.9-16.8,7.3-25.3c0.1-0.5-0.5-0.8-0.6-0.4
					c-2.6,8.3-5.1,16.7-7.6,25.1C137.8,141.7,138.7,142.3,138.9,141.6L138.9,141.6z"/>
			</g>
			<g id="XMLID_488_" class="st0">
				<path id="XMLID_489_" class="st2" d="M57.1,32.3c6.7-22.4,13.3-44.7,19.8-67.2c0.1-0.3-0.3-0.6-0.4-0.3
					c-6.8,22.3-13.4,44.7-20,67.1C56.3,32.3,57,32.7,57.1,32.3L57.1,32.3z"/>
			</g>
			<g id="XMLID_484_">
				<path id="XMLID_485_" class="st1" d="M255.9,27.1c2.5-8.4,5-16.7,7.4-25.2c0.1-0.2-0.2-0.4-0.3-0.2c-2.6,8.3-5.1,16.7-7.5,25.1
					C255.4,27.1,255.8,27.3,255.9,27.1L255.9,27.1z"/>
			</g>
			<g id="XMLID_482_">
				<path id="XMLID_483_" class="st1" d="M267.5,45.2c1.5-5.1,3-10.3,4.5-15.4c0.1-0.3-0.3-0.5-0.4-0.2c-1.6,5.1-3.1,10.2-4.7,15.3
					C266.7,45.3,267.3,45.6,267.5,45.2L267.5,45.2z"/>
			</g>
			<g id="XMLID_480_">
				<path id="XMLID_481_" class="st1" d="M327.8,56.1c4.7-15.8,9.4-31.7,14-47.6c0.1-0.2-0.2-0.3-0.3-0.2
					c-4.8,15.8-9.5,31.6-14.2,47.5C327.2,56.2,327.7,56.5,327.8,56.1L327.8,56.1z"/>
			</g>
			<g id="XMLID_478_">
				<path id="XMLID_479_" class="st1" d="M367.4,43.9c8.3-27.9,16.8-55.8,24.8-84c0.1-0.3-0.3-0.6-0.4-0.3
					c-8.6,27.8-16.8,55.8-25,83.8C366.6,44,367.2,44.4,367.4,43.9L367.4,43.9z"/>
			</g>
			<g id="XMLID_468_">
				<path id="XMLID_469_" class="st1" d="M293.9,121c6.9-23.3,14.1-46.5,20.7-70c0.1-0.3-0.3-0.5-0.4-0.2
					c-7.2,23.1-13.9,46.6-20.8,69.9C293.3,121.1,293.8,121.4,293.9,121L293.9,121z"/>
			</g>
			<g id="XMLID_466_">
				<path id="XMLID_467_" class="st1" d="M263.5,102.6c1.2-4.2,2.5-8.4,3.6-12.6c0.1-0.2-0.2-0.4-0.3-0.2c-1.3,4.1-2.6,8.3-3.8,12.5
					C263,102.6,263.4,102.9,263.5,102.6L263.5,102.6z"/>
			</g>
			<g id="XMLID_464_">
				<path id="XMLID_465_" class="st1" d="M327.7-2.1c3.2-10.7,6.4-21.4,9.4-32.3c0.1-0.3-0.3-0.5-0.4-0.2
					c-3.4,10.6-6.5,21.3-9.7,32.1C326.8-2,327.5-1.6,327.7-2.1L327.7-2.1z"/>
			</g>
			<g id="XMLID_456_" class="st0">
				<path id="XMLID_457_" class="st2" d="M-9.5,240.2c5.8-19.6,11.8-39.1,17.3-58.8c0.1-0.2-0.3-0.4-0.3-0.2
					C1.5,200.6-4.2,220.3-10,239.9C-10.1,240.3-9.6,240.6-9.5,240.2L-9.5,240.2z"/>
			</g>
			<g id="XMLID_454_" class="st0">
				<path id="XMLID_455_" class="st2" d="M-0.6,300.7c4.3-15.6,9-30.9,13.2-46.4c0.1-0.3-0.3-0.5-0.4-0.2
					c-4.9,15.2-9.3,30.7-14.2,45.9C-2.2,300.8-0.9,301.7-0.6,300.7L-0.6,300.7z"/>
			</g>
			<g id="XMLID_452_" class="st0">
				<path id="XMLID_453_" class="st2" d="M23.2,312.1c2.1-7,4.1-14,6-21.1c0.1-0.3-0.3-0.5-0.4-0.2c-2.3,6.9-4.4,13.8-6.4,20.8
					C22.2,312.2,23,312.7,23.2,312.1L23.2,312.1z"/>
			</g>
			<g id="XMLID_450_" class="st0">
				<path id="XMLID_451_" class="st2" d="M41.9,377.6c1-3.5,2.1-7,3.1-10.5c0.1-0.3-0.3-0.5-0.4-0.2c-1.1,3.5-2.1,7-3.1,10.5
					C41.3,377.6,41.8,377.9,41.9,377.6L41.9,377.6z"/>
			</g>
			<g id="XMLID_448_" class="st0">
				<path id="XMLID_449_" class="st2" d="M65.1,451c17.5-58.7,35-117.4,52.2-176.3c0.1-0.2-0.3-0.5-0.3-0.2
					c-17.7,58.6-35,117.4-52.4,176.1C64.5,451,65,451.4,65.1,451L65.1,451z"/>
			</g>
			<g id="XMLID_446_" class="st0">
				<path id="XMLID_447_" class="st2" d="M98,414.6c10.8-36.3,21.7-72.6,32.2-109.2c0.1-0.4-0.4-0.7-0.5-0.3
					c-11.1,36.2-21.7,72.6-32.5,109C97.1,414.6,97.9,415.1,98,414.6L98,414.6z"/>
			</g>
			<g id="XMLID_444_" class="st0">
				<path id="XMLID_445_" class="st2" d="M73.7,270.7c6.7-22.4,13.3-44.7,19.8-67.2c0.1-0.3-0.3-0.6-0.4-0.3
					c-6.8,22.3-13.4,44.7-20,67.1C73,270.7,73.6,271.1,73.7,270.7L73.7,270.7z"/>
			</g>
			<g id="XMLID_442_" class="st0">
				<path id="XMLID_443_" class="st2" d="M31.9,146.8c9.9-35.3,20.5-70.1,30.7-105.2c0.1-0.3-0.3-0.5-0.3-0.2
					C51.6,76.2,41.4,111.3,30.6,146C30.3,146.9,31.6,147.8,31.9,146.8L31.9,146.8z"/>
			</g>
			<g id="XMLID_440_" class="st0">
				<path id="XMLID_441_" class="st2" d="M-4,85.3c10-33.5,20.2-67,29.8-100.7c0.1-0.3-0.4-0.6-0.5-0.3C15,17.6,5.3,51.3-4.7,84.9
					C-4.8,85.4-4.2,85.8-4,85.3L-4,85.3z"/>
			</g>
			<g id="XMLID_434_">
				<path id="XMLID_435_" class="st1" d="M299.7-12.5c5.5-18.1,10.9-36.3,16.1-54.6c0.1-0.4-0.4-0.7-0.5-0.3
					c-5.6,18-11,36.2-16.3,54.5C298.8-12.4,299.5-12,299.7-12.5L299.7-12.5z"/>
			</g>
		</g>
		<g id="XMLID_340_">
			<g id="XMLID_429_">
				<path id="XMLID_430_" class="st1" d="M41.7,245.2c5.5-18.6,11.4-37.1,16.5-56c0.1-0.3-0.3-0.6-0.4-0.3
					c-6,18.3-11.2,37.2-16.7,55.9C41,245.3,41.6,245.7,41.7,245.2L41.7,245.2z"/>
			</g>
			<g id="XMLID_427_">
				<path id="XMLID_428_" class="st1" d="M54.4,255.8c5.6-22.4,12.6-44.1,19-66.1c0.1-0.2-0.2-0.4-0.3-0.2
					c-6.6,21.8-12.7,44.1-20,65.4C52.8,255.9,54.1,256.8,54.4,255.8L54.4,255.8z"/>
			</g>
			<g id="XMLID_425_">
				<path id="XMLID_426_" class="st1" d="M57,319c2.5-8.4,5-16.7,7.4-25.2c0.1-0.2-0.2-0.4-0.3-0.2c-2.6,8.3-5.1,16.7-7.5,25.1
					C56.5,319,56.9,319.3,57,319L57,319z"/>
			</g>
			<g id="XMLID_423_">
				<path id="XMLID_424_" class="st1" d="M68.6,337.1c1.5-5.1,3-10.3,4.5-15.4c0.1-0.3-0.3-0.5-0.4-0.2c-1.6,5.1-3.1,10.2-4.7,15.3
					C67.9,337.2,68.4,337.5,68.6,337.1L68.6,337.1z"/>
			</g>
			<g id="XMLID_421_">
				<path id="XMLID_422_" class="st1" d="M82.8,370.3c7.6-25.6,15.3-51.2,22.9-76.9c7.6-25.6,16-50.9,22.7-77
					c0.1-0.4-0.4-0.6-0.5-0.3c-8.4,25-15.4,51.2-23,76.8c-7.6,25.6-15.1,51.3-22.7,77C82.2,370.4,82.7,370.7,82.8,370.3L82.8,370.3z
					"/>
			</g>
			<g id="XMLID_419_">
				<path id="XMLID_420_" class="st1" d="M128.9,348.1c4.7-15.8,9.4-31.7,14-47.6c0.1-0.2-0.2-0.3-0.3-0.2
					c-4.8,15.8-9.5,31.6-14.2,47.5C128.4,348.1,128.8,348.4,128.9,348.1L128.9,348.1z"/>
			</g>
			<g id="XMLID_417_">
				<path id="XMLID_418_" class="st1" d="M168.5,335.8c8.3-27.9,16.8-55.8,24.8-84c0.1-0.3-0.3-0.6-0.4-0.3
					c-8.6,27.8-16.8,55.8-25,83.8C167.7,335.9,168.4,336.3,168.5,335.8L168.5,335.8z"/>
			</g>
			<g id="XMLID_415_">
				<path id="XMLID_416_" class="st1" d="M180.9,241.5c2.5-8.4,5.1-16.7,7.4-25.2c0-0.2-0.2-0.3-0.2-0.1c-2.6,8.3-5,16.8-7.5,25.1
					C180.5,241.5,180.9,241.7,180.9,241.5L180.9,241.5z"/>
			</g>
			<g id="XMLID_413_">
				<path id="XMLID_414_" class="st1" d="M209,135.5c2.9-9.8,5.8-19.6,8.5-29.5c0.1-0.3-0.3-0.5-0.4-0.2c-3.1,9.6-6,19.4-8.9,29.2
					C208.1,135.6,208.8,136.1,209,135.5L209,135.5z"/>
			</g>
			<g id="XMLID_411_">
				<path id="XMLID_412_" class="st1" d="M-24.8,153c1.4-4.7,2.8-9.3,4.1-14c0-0.1-0.1-0.2-0.1-0.1c-1.4,4.6-2.8,9.3-4.2,14
					C-25,153.1-24.9,153.2-24.8,153L-24.8,153z"/>
			</g>
			<g id="XMLID_409_">
				<path id="XMLID_410_" class="st1" d="M-6,90c-0.5-1.5-1.1-2.9-1.7-4.3c-0.1-0.3-0.5-0.2-0.4,0.1c0.5,1.5,1,2.9,1.5,4.4
					C-6.3,90.7-5.8,90.4-6,90L-6,90z"/>
			</g>
			<g id="XMLID_405_">
				<path id="XMLID_406_" class="st1" d="M16.2,96.9c3-10.3,6.2-20.5,9.1-30.8c0.1-0.3-0.3-0.5-0.4-0.2c-3.2,10.2-6.2,20.5-9.2,30.7
					C15.6,96.9,16.1,97.3,16.2,96.9L16.2,96.9z"/>
			</g>
			<g id="XMLID_403_">
				<path id="XMLID_404_" class="st1" d="M57.4,81.5c1.4-4.7,2.7-9.3,4-14.1c0.1-0.3-0.3-0.5-0.4-0.2c-1.5,4.6-2.9,9.2-4.3,13.9
					C56.7,81.6,57.3,82,57.4,81.5L57.4,81.5z"/>
			</g>
			<g id="XMLID_401_">
				<path id="XMLID_402_" class="st1" d="M55.4,166.7c6.8-22.8,13.7-45.6,20.2-68.6c0-0.2-0.2-0.3-0.2-0.1
					c-7,22.7-13.7,45.6-20.4,68.5C54.9,166.7,55.3,167,55.4,166.7L55.4,166.7z"/>
			</g>
			<g id="XMLID_399_">
				<path id="XMLID_400_" class="st1" d="M93.3,175c5.9-20,11.9-40.1,17.7-60.2c0.1-0.2-0.3-0.4-0.3-0.2c-6.1,19.9-12.1,40-18,60
					C92.5,175.1,93.2,175.5,93.3,175L93.3,175z"/>
			</g>
			<g id="XMLID_397_">
				<path id="XMLID_398_" class="st1" d="M121.2,186.9c17-57.3,34.5-114.4,51-172c0.1-0.3-0.3-0.6-0.4-0.3
					c-17.5,57-34.1,114.6-51.1,172C120.6,186.9,121.1,187.2,121.2,186.9L121.2,186.9z"/>
			</g>
			<g id="XMLID_395_">
				<path id="XMLID_396_" class="st1" d="M90.6,260.6c3.6-12.1,7.3-24.2,10.7-36.4c0.1-0.3-0.3-0.6-0.4-0.3
					c-3.8,12-7.3,24.2-10.9,36.3C89.8,260.6,90.5,261.1,90.6,260.6L90.6,260.6z"/>
			</g>
			<g id="XMLID_393_">
				<path id="XMLID_394_" class="st1" d="M140.1,252.1c6.9-23.3,14-46.5,20.5-70.1c0.1-0.3-0.3-0.6-0.4-0.3
					c-7.4,23-14.1,46.5-21,69.7C139,252.2,139.9,252.8,140.1,252.1L140.1,252.1z"/>
			</g>
			<g id="XMLID_391_">
				<path id="XMLID_392_" class="st1" d="M178.9,247.7c8.7-33.2,19.3-65.3,28.7-98.1c0.1-0.4-0.4-0.7-0.5-0.3
					c-10,32.4-18.8,65.7-29.5,97.6C177.3,247.8,178.7,248.7,178.9,247.7L178.9,247.7z"/>
			</g>
			<g id="XMLID_389_">
				<path id="XMLID_390_" class="st1" d="M198.4,398.1c8.9-29.8,17.8-59.6,26.5-89.6c0.1-0.4-0.4-0.7-0.5-0.3
					c-9,29.7-17.8,59.6-26.7,89.4C197.5,398.1,198.2,398.6,198.4,398.1L198.4,398.1z"/>
			</g>
			<g id="XMLID_387_">
				<path id="XMLID_388_" class="st1" d="M227.1,414.7c4.6-15.4,9.4-30.6,13.5-46.3c0.1-0.3-0.3-0.5-0.4-0.3
					c-5,15.1-9.3,30.7-13.9,46C226.2,414.7,226.9,415.2,227.1,414.7L227.1,414.7z"/>
			</g>
			<g id="XMLID_385_">
				<path id="XMLID_386_" class="st1" d="M234.9,475.3c3.6-12.1,7.2-24.3,10.5-36.6c0.1-0.3-0.3-0.5-0.4-0.2
					c-3.9,11.9-7.5,24-11.1,36.2C233.6,475.4,234.7,476.1,234.9,475.3L234.9,475.3z"/>
			</g>
			<g id="XMLID_383_">
				<path id="XMLID_384_" class="st1" d="M152.1,447.6c5.8-19.6,12-38.9,17.3-58.8c0.1-0.3-0.3-0.6-0.4-0.3
					c-6.3,19.3-11.8,39.1-17.5,58.7C151.4,447.7,152,448.1,152.1,447.6L152.1,447.6z"/>
			</g>
			<g id="XMLID_381_">
				<path id="XMLID_382_" class="st1" d="M95,413c6.9-23.3,14.1-46.5,20.7-70c0.1-0.3-0.3-0.5-0.4-0.2
					c-7.2,23.1-13.9,46.6-20.8,69.9C94.4,413,94.9,413.3,95,413L95,413z"/>
			</g>
			<g id="XMLID_379_">
				<path id="XMLID_380_" class="st1" d="M64.7,394.5c1.2-4.2,2.5-8.4,3.6-12.6c0.1-0.2-0.2-0.4-0.3-0.2c-1.3,4.1-2.6,8.3-3.8,12.5
					C64.1,394.5,64.5,394.8,64.7,394.5L64.7,394.5z"/>
			</g>
			<g id="XMLID_377_">
				<path id="XMLID_378_" class="st1" d="M128.8,289.8c3.2-10.7,6.4-21.4,9.4-32.3c0.1-0.3-0.3-0.5-0.4-0.2
					c-3.4,10.6-6.5,21.3-9.7,32.1C127.9,289.9,128.6,290.3,128.8,289.8L128.8,289.8z"/>
			</g>
			<g id="XMLID_375_">
				<path id="XMLID_376_" class="st1" d="M216.7,291.7c7.4-24.9,14.9-49.8,22.3-74.8c7.4-24.9,15.2-49.6,22.1-74.9
					c0.1-0.4-0.4-0.7-0.5-0.3c-7.9,24.6-14.9,49.8-22.3,74.8c-7.4,24.9-14.8,49.9-22.1,74.9C216,291.7,216.5,292.1,216.7,291.7
					L216.7,291.7z"/>
			</g>
			<g id="XMLID_373_">
				<path id="XMLID_374_" class="st1" d="M263.1,292.9c6.1-20.5,12.3-40.9,18.2-61.6c0.1-0.3-0.3-0.5-0.3-0.2
					c-6.3,20.4-12.2,41-18.3,61.5C262.5,292.9,263,293.2,263.1,292.9L263.1,292.9z"/>
			</g>
			<g id="XMLID_371_">
				<path id="XMLID_372_" class="st1" d="M303.2,261.9c6.4-21.5,12.7-42.9,18.9-64.4c0.1-0.4-0.4-0.7-0.5-0.3
					c-6.5,21.3-12.9,42.8-19.3,64.2C302.2,262,303,262.5,303.2,261.9L303.2,261.9z"/>
			</g>
			<g id="XMLID_369_">
				<path id="XMLID_370_" class="st1" d="M247.5,67.7c2.6-8.8,5.4-17.6,7.7-26.7c0.1-0.4-0.4-0.7-0.5-0.3c-2.9,8.6-5.4,17.6-8,26.5
					C246.4,67.8,247.3,68.3,247.5,67.7L247.5,67.7z"/>
			</g>
			<g id="XMLID_367_">
				<path id="XMLID_368_" class="st1" d="M202.9,73.4c2-7,4-14.1,5.9-21.2c0.1-0.5-0.5-0.8-0.6-0.4c-2.3,6.8-4.4,13.8-6.6,20.8
					C201.3,73.5,202.6,74.4,202.9,73.4L202.9,73.4z"/>
			</g>
			<g id="XMLID_365_">
				<path id="XMLID_366_" class="st1" d="M170,114c3.2-10.7,6.4-21.4,9.4-32.2c0.1-0.3-0.4-0.6-0.5-0.3c-3.4,10.6-6.5,21.4-9.7,32.1
					C169.1,114.1,169.8,114.6,170,114L170,114z"/>
			</g>
			<g id="XMLID_363_">
				<path id="XMLID_364_" class="st1" d="M103.9,57.9c6.8-22.8,13.6-45.7,20.2-68.6c0.1-0.2-0.2-0.4-0.3-0.2
					c-7,22.7-13.7,45.6-20.5,68.4C103.2,57.9,103.8,58.3,103.9,57.9L103.9,57.9z"/>
			</g>
			<g id="XMLID_361_">
				<path id="XMLID_362_" class="st1" d="M74.9,10.4c3-10.3,6-20.5,9-30.9c0.1-0.3-0.3-0.5-0.4-0.2c-3.2,10.2-6.3,20.4-9.3,30.7
					C74,10.4,74.8,10.9,74.9,10.4L74.9,10.4z"/>
			</g>
			<g id="XMLID_359_">
				<path id="XMLID_360_" class="st1" d="M24.3,7.2c0.7-2.9,1.5-5.7,2.2-8.6c0.1-0.5-0.5-0.9-0.7-0.4c-1,2.7-1.9,5.4-2.8,8.2
					C22.6,7.3,24,8.2,24.3,7.2L24.3,7.2z"/>
			</g>
			<g id="XMLID_357_">
				<path id="XMLID_358_" class="st1" d="M10.3,3.4c0.7-2.3,1.4-4.7,2-7C12.4-4,12-4.2,11.9-3.9C11.2-1.6,10.5,0.7,9.8,3
					C9.6,3.4,10.2,3.8,10.3,3.4L10.3,3.4z"/>
			</g>
			<g id="XMLID_355_">
				<path id="XMLID_356_" class="st1" d="M366.1,432c9.9-35.3,20.5-70.1,30.7-105.2c0.1-0.3-0.3-0.5-0.3-0.2
					c-10.6,34.8-20.8,69.9-31.6,104.6C364.5,432.1,365.8,432.9,366.1,432L366.1,432z"/>
			</g>
			<g id="XMLID_353_">
				<path id="XMLID_354_" class="st1" d="M330.1,370.5c10-33.5,20.2-67,29.8-100.7c0.1-0.3-0.4-0.6-0.5-0.3
					c-10.3,33.3-20,67.1-30,100.6C329.4,370.5,330,371,330.1,370.5L330.1,370.5z"/>
			</g>
			<g id="XMLID_351_">
				<path id="XMLID_352_" class="st1" d="M264.2,363.5c5.5-18.1,10.9-36.3,16.1-54.6c0.1-0.4-0.4-0.7-0.5-0.3
					c-5.6,18-11,36.2-16.3,54.5C263.3,363.5,264.1,364,264.2,363.5L264.2,363.5z"/>
			</g>
			<g id="XMLID_349_">
				<path id="XMLID_350_" class="st1" d="M268.5,393.6c3.9-13.3,7.8-26.6,11.6-40c0.1-0.3-0.3-0.5-0.4-0.3
					c-4.1,13.2-8.1,26.4-12,39.7C267.5,393.7,268.3,394.2,268.5,393.6L268.5,393.6z"/>
			</g>
			<g id="XMLID_347_">
				<path id="XMLID_348_" class="st1" d="M272.9,142c5.8-19.6,11.6-39.1,17.3-58.8c0.1-0.3-0.3-0.6-0.4-0.3
					c-5.9,19.5-11.8,39.1-17.6,58.7C272,142.1,272.7,142.5,272.9,142L272.9,142z"/>
			</g>
			<g id="XMLID_345_">
				<path id="XMLID_346_" class="st1" d="M193.1-10.9c9.4-31.4,18.8-62.9,27.9-94.4c0.1-0.3-0.3-0.6-0.4-0.3
					c-9.5,31.4-18.8,62.8-28.1,94.3C192.4-10.9,193-10.5,193.1-10.9L193.1-10.9z"/>
			</g>
			<g id="XMLID_343_">
				<path id="XMLID_344_" class="st1" d="M222,17.5c7.1-23.8,14.4-47.4,21-71.4c0.1-0.3-0.3-0.5-0.4-0.2
					c-7.5,23.5-14.3,47.5-21.3,71.2C221.3,17.5,221.9,17.9,222,17.5L222,17.5z"/>
			</g>
			<g id="XMLID_341_">
				<path id="XMLID_342_" class="st1" d="M162.4-25.5c1.5-4.9,2.9-9.8,4.2-14.8c0.1-0.3-0.3-0.6-0.5-0.3c-1.6,4.8-3,9.7-4.5,14.6
					C161.5-25.4,162.2-24.9,162.4-25.5L162.4-25.5z"/>
			</g>
		</g>
	</g>
</g>
</svg>
