<?xml version="1.0" encoding="utf-8"?>
<!-- Generator: Adobe Illustrator 16.0.0, SVG Export Plug-In . SVG Version: 6.00 Build 0)  -->
<!DOCTYPE svg PUBLIC "-//W3C//DTD SVG 1.1//EN" "http://www.w3.org/Graphics/SVG/1.1/DTD/svg11.dtd" [
	<!ENTITY ns_flows "http://ns.adobe.com/Flows/1.0/">
	<!ENTITY ns_extend "http://ns.adobe.com/Extensibility/1.0/">
	<!ENTITY ns_ai "http://ns.adobe.com/AdobeIllustrator/10.0/">
	<!ENTITY ns_graphs "http://ns.adobe.com/Graphs/1.0/">
]>
<svg version="1.1" id="Layer_1" xmlns:x="&ns_extend;" xmlns:i="&ns_ai;" xmlns:graph="&ns_graphs;"
	 xmlns="http://www.w3.org/2000/svg" xmlns:xlink="http://www.w3.org/1999/xlink" xmlns:a="http://ns.adobe.com/AdobeSVGViewerExtensions/3.0/"
	 x="0px" y="0px" width="1200px" height="800px" viewBox="0 0 1200 800" style="enable-background:new 0 0 1200 800;"
	 xml:space="preserve">
<style type="text/css">
<![CDATA[
	.st0{opacity:5.000000e-02;adobe-blending-mode:multiply;enable-background:new    ;}
	.st1{fill:#F1D183;}
	.st2{fill:#27B0EC;}
	.st3{fill:#2F8FCC;}
	.st4{fill:#2FA5CC;}
	.st5{fill:#FFFFFF;}
	.st6{fill:#70D4FF;}
]]>
</style>
<g id="Layer_4">
	<path class="st3" d="M1200,397.3c-105.5-4-215.3-9.9-254.6-17.8c-7.1-1.4-49.3-17.1-60.4-22.2c-0.5-0.2-1-0.4-1.4-0.7
		c-0.1,0-0.2-0.1-0.3-0.1c-0.4-0.2-0.9-0.4-1.3-0.6c-0.1,0-0.1-0.1-0.2-0.1c-0.4-0.2-0.7-0.4-1.1-0.6c-0.1,0-0.1-0.1-0.2-0.1
		c-0.4-0.2-0.7-0.4-1.1-0.6c-0.1,0-0.1-0.1-0.2-0.1c-0.7-0.4-1.3-0.8-1.9-1.3l-0.1-0.1c-0.3-0.2-0.6-0.4-0.9-0.7l0,0
		c-0.3-0.2-0.5-0.5-0.8-0.7l-0.1-0.1c-0.3-0.2-0.5-0.5-0.8-0.8l-0.1-0.1c-0.3-0.3-0.5-0.5-0.8-0.8l0,0c-0.3-0.3-0.6-0.6-0.8-0.9
		c0-0.1-0.1-0.1-0.2-0.2c-0.3-0.3-0.6-0.6-0.9-1l0,0c-0.3-0.3-0.6-0.7-0.9-1c-0.1-0.1-0.1-0.1-0.2-0.2c-0.3-0.4-0.6-0.7-1-1.1
		c-0.1-0.1-0.1-0.1-0.2-0.2c-0.4-0.5-0.8-1-1.3-1.5c-0.3-0.3-0.5-0.6-0.8-1c-0.1-0.1-0.2-0.2-0.2-0.3l0,0c-1.9-2.2-4.2-4.9-7.1-8.2
		c-14.2-15.9-10.4-34.4-5.6-45c4.8-10.6,31.8-21,43.7-21.2c11.9-0.3,20.5,2.8,31.8,12.1c11.4,9.4,29.6,14.4,34.1,8.6
		c3.2-4.1-22.5-39.2-41.7-61.2c0,0,0,0-0.1-0.1c-0.3-0.4-0.6-0.7-1-1.1l-0.1-0.1c-1-1.1-1.9-2.1-2.8-3.2c0,0,0,0-0.1-0.1
		c-0.2-0.3-0.5-0.5-0.7-0.8c-0.1-0.1-0.2-0.2-0.3-0.3c-0.2-0.2-0.4-0.5-0.7-0.7c-0.1-0.1-0.3-0.3-0.4-0.4c-0.2-0.2-0.4-0.4-0.6-0.7
		c-0.1-0.1-0.3-0.3-0.4-0.4c-0.3-0.3-0.6-0.7-1-1c-0.2-0.2-0.3-0.3-0.5-0.5c-0.2-0.2-0.3-0.3-0.5-0.5c-0.2-0.2-0.3-0.3-0.5-0.5
		c-0.1-0.2-0.3-0.3-0.4-0.4c-0.2-0.2-0.3-0.3-0.5-0.5c-0.1-0.1-0.3-0.3-0.4-0.4c-0.2-0.2-0.5-0.5-0.7-0.7c-0.1-0.1-0.2-0.2-0.3-0.3
		c-0.2-0.2-0.5-0.4-0.7-0.7c-0.1-0.1-0.2-0.2-0.3-0.3c-0.2-0.2-0.4-0.3-0.5-0.5c-0.1-0.1-0.2-0.2-0.3-0.3c-0.2-0.2-0.3-0.3-0.5-0.5
		c-0.1-0.1-0.2-0.1-0.2-0.2c-0.2-0.2-0.5-0.4-0.7-0.6l0,0c-0.2-0.2-0.4-0.4-0.7-0.5c-0.1-0.1-0.1-0.1-0.2-0.1
		c-0.1-0.1-0.3-0.2-0.4-0.3c-0.1,0-0.1-0.1-0.2-0.1c-0.1-0.1-0.3-0.2-0.4-0.3c-0.1,0-0.1-0.1-0.2-0.1c-0.2-0.1-0.4-0.2-0.5-0.3
		c-11.4-6.1-39.2-11.1-47.3-10.4c-8.1,0.8-17.2,2.3-31.1,3.3c-13.9,1-21.2,6.3-29.8,9.4c-8.6,3-25,12.9-30.3,19.7
		c-5.3,6.8-18.5,18-25.5,26.5s-13.4,40.1-20.2,71c-7.5,33.7-223.1,82.1-258.2,87.5c0,0,15.3,10.1,21,12.1
		c35.7,11.9,149.6,18.3,149.6,18.3H1200V397.3z"/>
	<g>
		<path class="st4" d="M619.4,448.8h541.5c-8.5-2.3-17.5-3.2-26.2-3.9c-26.6-2.4-52.8-1.5-79.5-0.8c-13.5,0.4-26.9,0.3-40.4-0.8
			c-14-1.2-27.1-4.6-40.5-8.4c-23.7-6.7-49.1-10.2-73.5-5c-12.3,2.6-24,7.5-36.1,10.7c-13.4,3.5-27,3.4-40.5,0.7
			c-13.8-2.7-26.6-8.5-39.1-14.7c-8.5-4.2-17.4-7.3-26.9-8.4c-11.3-1.3-23.1-0.4-34.4,0.6c-13.1,1.1-26.1,3.3-39,5.6
			c-21.8,4-100,17.5-122,20.2L619.4,448.8z"/>
		<path class="st2" d="M800.8,363.1c0,0-14.9-7.6-23.2-24.4c-8.3-16.8-10-19.5-10-17.1c0,2.4,5.3,39,43.5,51.2L800.8,363.1z"/>
		<path class="st2" d="M844.3,385.5c0,0-22.3-0.7-40.6-16.4c-18.3-15.8-24.6-42-13.9-63.4c10.7-21.4,35.4-39,44.4-31.4
			c9,7.6-0.2,23.5-1.2,30.4c-1,6.9-8.4,40.1,26.7,56.5c35.1,16.3-4.7,23.4-4.7,23.4L844.3,385.5z"/>
		<path class="st5" d="M927.5,278.2c0,0,6.8,1.9,10.3,4.4s11.9,3,12.9,2s0.5-3.6-3.3-6.5c-3.8-2.9-9.1-6.7-10.6-14.3
			c-1.5-7.6-2.3-10.1-7.1-13.4c-4.8-3.3-14.2-10.9-19.2-17.2c-5.1-6.3-22.2-13.1-30.3-16.4c-8.1-3.3-23.1-16.9-25.6-16.6
			c0,0,10.4-4.1,15.4-2.8c5,1.3,11.1,1.1,15.4,2.5c4.3,1.3,27.8-0.1,37.2,0c9.4,0.1,21,8.4,23.3,18.3c2.3,9.9,2.5,20.5,10.4,23
			c7.9,2.5,14.2,7.6,14.2,10.9c0,3.3-1.8,12.1,2.3,15.7c4,3.5,5.8,10.9,4,15.2s-1,8.8-1.3,10.6c-0.3,1.8-11.1,4-21.7,1.5
			C943.1,292.5,938.4,288.9,927.5,278.2z"/>
		<g>
			<path class="st0" d="M854.9,200.2c-0.1,0-0.2,0.1-0.2,0.1c0.1,0,0.3,0,0.5,0.1C855,200.3,855,200.2,854.9,200.2z"/>
			<path class="st0" d="M936.8,263.9c1.5,7.6,6.8,11.4,10.6,14.3c3.8,2.9,4.3,5.4,3.3,6.5c-1,1-9.4,0.5-12.9-2s-10.3-4.4-10.3-4.4
				c4.2,4.2,7.5,7.2,10.6,9.6c5.2,1.2,18.8-2.2,19.8-3.1c1-1,0.5-3.6-3.3-6.5c-3.8-2.9-9.1-6.7-10.6-14.3s-2.3-10.1-7.1-13.4
				c-4.8-3.3-14.2-10.9-19.2-17.2c-5.1-6.3-22.2-13.1-30.3-16.4c-4.5-1.8-18.4-9.3-30.1-15.4c5.3,3.3,16.4,12.8,22.9,15.4
				c8.1,3.3,25.3,10.1,30.3,16.4c5.1,6.3,14.4,13.9,19.2,17.2C934.5,253.8,935.3,256.3,936.8,263.9z"/>
		</g>
		<path class="st6" d="M822.3,266.2c0,0,9.6-6.3,16.4-7.3s14.9-3.8,19.2-3.8c4.3,0,16.9-4.8,23.8-5.1c0,0-10.1-1.3-19.2,0
			s-16.7,4-21.2,4.8C836.7,255.6,829.1,258.6,822.3,266.2z"/>
	</g>
</g>
<rect x="1199" y="799" class="st1" width="1" height="1"/>
</svg>
