<?xml version="1.0" encoding="utf-8"?>
<!-- Generator: Adobe Illustrator 16.0.0, SVG Export Plug-In . SVG Version: 6.00 Build 0)  -->
<!DOCTYPE svg PUBLIC "-//W3C//DTD SVG 1.1//EN" "http://www.w3.org/Graphics/SVG/1.1/DTD/svg11.dtd" [
	<!ENTITY ns_flows "http://ns.adobe.com/Flows/1.0/">
	<!ENTITY ns_extend "http://ns.adobe.com/Extensibility/1.0/">
	<!ENTITY ns_ai "http://ns.adobe.com/AdobeIllustrator/10.0/">
	<!ENTITY ns_graphs "http://ns.adobe.com/Graphs/1.0/">
]>
<svg version="1.1" id="Layer_3" xmlns:x="&ns_extend;" xmlns:i="&ns_ai;" xmlns:graph="&ns_graphs;"
	 xmlns="http://www.w3.org/2000/svg" xmlns:xlink="http://www.w3.org/1999/xlink" xmlns:a="http://ns.adobe.com/AdobeSVGViewerExtensions/3.0/"
	 x="0px" y="0px" width="1200px" height="800px" viewBox="0 0 1200 800" style="enable-background:new 0 0 1200 800;"
	 xml:space="preserve">
<style type="text/css">
<![CDATA[
	.st0{opacity:0.4;fill:#46FF52;}
	.st1{fill:#F1D183;}
	.st2{fill:#F2F0F0;}
	.st3{fill:#959495;}
	.st4{fill:#C8C8C8;}
	.st5{fill:#FFE19F;}
	.st6{opacity:0.16;fill:#50FF78;}
	.st7{fill:#CECACA;}
	.st8{fill:#007727;}
	.st9{fill:#009503;}
]]>
</style>
<g>
	<g>
		<path class="st9" d="M310.3,189.8c0,0-66.7,60.6-66.7,221.5c0,79.4,10.4,150,21.3,201.6h90.9c10.9-51.5,21.3-122.1,21.3-201.6
			C377,250.4,310.3,189.8,310.3,189.8z"/>
		<g>
			<g>
				<path class="st0" d="M249.6,332.3c29.5,56,36.2,134,9.6,251.6c1.5,8.6,3.1,16.8,4.8,24.6c57.4-125.3,42.8-299.9,7.9-356.8
					C263.1,272.6,254.9,299.2,249.6,332.3z"/>
			</g>
			<g>
				<path class="st2" d="M246.6,354.3c27.3,66.2,26.7,161.2,10.4,217.1c1.5,8.8,3,17.2,4.5,25.2c45-140.7,28.8-273.7-0.8-313.9
					C254.7,302.9,249.6,326.6,246.6,354.3z"/>
			</g>
		</g>
		<g>
			<g>
				<path class="st0" d="M348.8,251.7c-34.8,56.9-49.4,231.5,7.9,356.8c1.6-7.8,3.2-16,4.8-24.6c-26.6-117.6-19.9-195.7,9.6-251.6
					C365.8,299.2,357.6,272.6,348.8,251.7z"/>
			</g>
			<g>
				<path class="st2" d="M359.9,282.8c-29.5,40.2-45.8,173.2-0.8,313.9c1.6-8,3.1-16.5,4.5-25.2c-16.3-55.9-16.9-150.9,10.4-217.1
					C371,326.6,365.9,302.9,359.9,282.8z"/>
			</g>
		</g>
	</g>
</g>
<g>
	<g>
		<path class="st7" d="M470.7,189.8c0,0-66.7,60.6-66.7,221.5c0,79.4,10.4,150,21.3,201.6h90.9c10.9-51.5,21.3-122.1,21.3-201.6
			C537.4,250.4,470.7,189.8,470.7,189.8z"/>
	</g>
	<g>
		<g>
			<path class="st2" d="M404,411.4c0,79.4,10.4,150,21.3,201.6h44.9l0.5-423.1C470.7,189.8,404,250.4,404,411.4z"/>
		</g>
	</g>
	<g>
		<g>
			<g>
				<path class="st4" d="M448.2,612.9h13.7V199.8c-3.8,4.8-8.6,11.5-13.7,20.1V612.9z"/>
				<path class="st9" d="M429,612.9h15.5V226.2c-5.1,9.2-10.5,20.4-15.5,33.6V612.9z"/>
			</g>
		</g>
	</g>
	<g>
		<g>
			<g>
				<path class="st3" d="M480.1,612.9h13.7V219.8c-5.1-8.6-9.9-15.3-13.7-20.1V612.9z"/>
				<path class="st8" d="M497.5,612.9H513V259.8c-5.1-13.2-10.4-24.3-15.5-33.6V612.9z"/>
			</g>
		</g>
	</g>
</g>
<g>
	<g>
		<g>
			<path class="st7" d="M631.1,189.8c0,0-66.7,60.6-66.7,221.5c0,79.4,10.4,150,21.3,201.6h90.9c10.9-51.5,21.3-122.1,21.3-201.6
				C697.8,250.4,631.1,189.8,631.1,189.8z"/>
		</g>
		<g>
			<g>
				<path class="st2" d="M564.4,411.4c0,79.4,10.4,150,21.3,201.6h44.9l0.5-423.1C631.1,189.8,564.4,250.4,564.4,411.4z"/>
			</g>
		</g>
	</g>
	<g>
		<g>
			<path class="st8" d="M581.9,594.3h98.4c3.3-17.5,6.5-36.8,9.2-57.5H572.7C575.4,557.5,578.5,576.8,581.9,594.3z"/>
		</g>
		<g>
			<g>
				<path class="st9" d="M581.9,594.3h48.7l0.1-57.5h-58C575.4,557.5,578.5,576.8,581.9,594.3z"/>
			</g>
		</g>
	</g>
</g>
<path class="st6" d="M270.2,255.6c0,0.1-0.1,0.2-0.1,0.2c-0.5,1.2-1,2.5-1.5,3.8c-0.1,0.1-0.1,0.3-0.2,0.4c-0.5,1.2-0.9,2.5-1.4,3.8
	c-0.1,0.2-0.1,0.4-0.2,0.5c-0.5,1.2-0.9,2.5-1.4,3.8c-0.1,0.2-0.1,0.4-0.2,0.6c-0.4,1.3-0.9,2.6-1.3,3.9c-0.1,0.2-0.1,0.4-0.2,0.6
	c-0.4,1.3-0.9,2.7-1.3,4.1c-0.1,0.2-0.1,0.4-0.2,0.6c-0.4,1.4-0.9,2.8-1.3,4.3c0,0.2-0.1,0.3-0.1,0.5c0,0.1,0,0.1-0.1,0.2v0
	c-0.4,1.5-0.9,3-1.3,4.5c0,0.1,0,0.2-0.1,0.2c-0.3,0.9-0.5,1.9-0.8,2.9c0,0.1-0.1,0.2-0.1,0.3c-1.4,5.1-2.8,10.5-4,16
	c0,0.1-0.1,0.3-0.1,0.4c-0.6,2.8-1.2,5.6-1.8,8.5c0,0.1,0,0.1,0,0.2c-1.2,5.8-2.3,11.9-3.2,18.2c0,0.2-0.1,0.4-0.1,0.5
	c-3.5,22.6-5.6,48.1-5.6,76.8c0,68.2,7.6,129.9,16.7,178.6c0.1,0.4,0.2,0.8,0.2,1.2c0.3,1.6,0.6,3.2,0.9,4.8
	c0.1,0.4,0.1,0.7,0.2,1.1c0.3,1.7,0.7,3.4,1,5.1c0,0.2,0.1,0.4,0.1,0.7c0.7,3.4,1.4,6.7,2.1,10h46V190.3c-0.3-0.3-0.5-0.5-0.5-0.5
	S288.8,209.3,270.2,255.6z"/>
<g>
	<path class="st5" d="M410.6,623.2h132.2C542.9,623.2,467,563.2,410.6,623.2z"/>
	<path class="st5" d="M267.7,606c-16.2-8.8-40.5-12.3-67.1,17.1h40.6h47.1h114.9C403.2,623.2,331.8,577.1,267.7,606z"/>
	<path class="st5" d="M700.9,613.2c-15.6-3.9-33.9-12.1-52.3-11.9c-64,0.5-84.1,21.9-84.1,21.9h255.2
		C819.7,623.2,784.1,576,700.9,613.2z"/>
</g>
<rect x="1199" y="799" class="st1" width="1" height="1"/>
</svg>
