<?xml version="1.0" encoding="utf-8"?>
<!-- Generator: Adobe Illustrator 16.0.0, SVG Export Plug-In . SVG Version: 6.00 Build 0)  -->
<!DOCTYPE svg PUBLIC "-//W3C//DTD SVG 1.1//EN" "http://www.w3.org/Graphics/SVG/1.1/DTD/svg11.dtd" [
	<!ENTITY ns_flows "http://ns.adobe.com/Flows/1.0/">
	<!ENTITY ns_extend "http://ns.adobe.com/Extensibility/1.0/">
	<!ENTITY ns_ai "http://ns.adobe.com/AdobeIllustrator/10.0/">
	<!ENTITY ns_graphs "http://ns.adobe.com/Graphs/1.0/">
]>
<svg version="1.1" xmlns:x="&ns_extend;" xmlns:i="&ns_ai;" xmlns:graph="&ns_graphs;"
	 xmlns="http://www.w3.org/2000/svg" xmlns:xlink="http://www.w3.org/1999/xlink" xmlns:a="http://ns.adobe.com/AdobeSVGViewerExtensions/3.0/"
	 x="0px" y="0px" width="1200px" height="869.4px" viewBox="0 0 1200 869.4" style="enable-background:new 0 0 1200 869.4;"
	 xml:space="preserve">
<style type="text/css">
<![CDATA[
	.st0{fill:#E5AF59;}
	.st1{fill:#EBE1D4;}
	.st2{fill:#EC2024;}
	.st3{fill:#EFF1D2;}
	.st4{fill:#523421;}
	.st5{display:inline;fill:#F1D183;}
	.st6{fill:#8E5E32;}
	.st7{fill:#8E6737;}
	.st8{fill:#BF2525;}
	.st9{fill:#F1D183;}
	.st10{fill:#F2F0F0;}
	.st11{fill:#5C3C18;}
	.st12{display:inline;fill-rule:evenodd;clip-rule:evenodd;fill:#51C6DB;}
	.st13{fill:#925F22;}
	.st14{display:inline;fill:#FFE19F;}
	.st15{display:inline;fill-rule:evenodd;clip-rule:evenodd;fill:#F1D183;}
	.st16{fill:#FEFCE6;}
	.st17{fill:#FFE19F;}
	.st18{display:inline;fill-rule:evenodd;clip-rule:evenodd;fill:#F5DA9A;}
	.st19{fill:#65A43F;}
	.st20{display:inline;fill-rule:evenodd;clip-rule:evenodd;fill:#F8D992;}
	.st21{fill:#CB9D4D;}
	.st22{display:inline;}
	.st23{fill-rule:evenodd;clip-rule:evenodd;fill:#F8D992;}
	.st24{fill:#9EBD37;}
	.st25{fill:#CECACA;}
	.st26{fill:#312018;}
	.st27{display:inline;fill-rule:evenodd;clip-rule:evenodd;fill:#C8E7DF;}
	.st28{fill:#372500;}
	.st29{display:inline;fill-rule:evenodd;clip-rule:evenodd;fill:#2FA5CC;}
	.st30{display:inline;fill-rule:evenodd;clip-rule:evenodd;fill:#FFE19F;}
	.st31{display:inline;fill-rule:evenodd;clip-rule:evenodd;fill:#FFFFFF;}
	.st32{fill:#007727;}
	.st33{fill:#009503;}
	.st34{display:none;}
	.st35{fill:#A17540;}
	.st36{fill:#A26928;}
	.st37{fill:#732300;}
]]>
</style>
<g id="Layer_6">
	<g>
		<path class="st7" d="M341.3,268.9c0,0,92.1,128.8,102.7,269.9c-17.6,5.1-24.1-5.6-24.1-5.6S392.6,371,347.3,283.2
			C334.7,258.8,355.6,287.5,341.3,268.9z"/>
		<g>
			<path class="st19" d="M295.7,160c0,0,35.4,8.4,48.6,30.9c-9.9,0.6-9.9,0.6-9.9,0.6s9.6-0.2,15.1,2.6c-4.1,1.2-10.1-0.9-16.5,1.8
				c7,0.4,22.9,3.5,24.3,14.2c-10-1.7-19.5-3.4-19.5-3.4s18.5,5.7,18.6,8.8c0.1,3.2,2.3,11.9,2.3,11.9l-13.8-0.7l15.3,2.6l-15-0.7
				l14.3,4.5l-11.1-1.9l11.4,8c0,0-13.2,17-12.5,32.8c-5.3-5.3-16-25.5-19.2-26.9c-3.2-1.4-5.3-17.2-5.3-17.2l7-0.9l-6.5-2
				c0,0,4.7-2.1,5.3-4.5c0.6-2.4-5.8,0.3-5.8,0.3s-2.2-6.9-5.1-9c2.2-1.1,9.7-4.8,9.7-4.8s-10.6-1-13.9-0.3c2-2.2,8.7-5.6,8.7-5.6
				l-9.8,2.7C312.6,204,313.6,173.8,295.7,160z"/>
			<path class="st19" d="M346.5,271.1c-1.3,1.4,33-76.2,84.6-67.4c16.2,2.8,25.2,22.8,22.2,31.1c0,0-2.7,11.7-6,13.8
				c1-7.2,2.2-18.2,2.2-18.2s-2.6,12.7-6.6,12c-1.5-5.7-7.8-10.2-10.5-10.6c-0.1-3.6-2.3-12.6-2.3-12.6s-1.1,10.2-2,11.9
				c-0.5-3.2-1.9-9.1-2.9-9.5c0.4,2.4,0.3,10.4,0,11.7c-2.7-0.5-11.5-4.4-22.4,6c-3.6-3.1-9.4-9.6-9.4-9.6l8.2,12.6
				c0,0-11.8-10.8-16.2-12.2c-3.4-0.4,8.3,13.8,7.8,19.3c-3.2-1.2-8-13-12.7-13.9c-0.5,2.2,6.1,13.3,6.6,16.8
				c-4.3,0.6-14,4.3-15.5,3.7c-1.5-0.6-2.5-1.1-2.5-1.1l5.4,6.6l-7.6-6.5c0,0,2.8,6.1,2.3,6C368.9,261,351.2,265.8,346.5,271.1z"/>
			<path class="st19" d="M346.5,271.1l18.4-6.7c0,0,6,4.1,9.9,4.8c3.9,0.7,6.5-0.6,6.5-0.6l-1,6l9.1-8.8l-4,10.8l10.2-6.3
				c0,0,17.4,10.8,22.2,18c-8,2-11.9,5.2-11.9,5.2s10.4-0.4,13.9,0.4c3.1,3.3,15,17.6,11.4,38.5c-1.8,10.7-4.3,14.5-4.3,14.5
				s-4.4-20.7-13-22c0.1-2.5-0.8-3.3-0.8-3.3l-0.7,2.5L404,319c0,0,0.6-5.1-0.1-6.7c-1,3.2-1.5,5.9-1.5,5.9s-7.2-14.8-24.9-17.2
				c0.4-3.2,1.1-5.6,2.9-7.1c-3.8,2.3-6.1,5-6.1,5s-0.4-4.3,1.9-8.4c-3.1,2.7-5.5,3.7-5.5,3.7s-6.7-6.5-12.1-7.4
				C354.2,286.3,346.6,275.2,346.5,271.1z"/>
			<path class="st19" d="M349.2,270.3c0,0-3.5,24.9-0.4,35.2c-4.9-1-11-0.6-14.7,1.2c6.4,1.1,14.5,3.5,14.6,5.7
				c-7.1-1.9-14.8-3.5-16.6-2.8c4.8,1.2,14.6,8.8,16.4,9.1c-2.9,2.7-8.1,8.2-8.8,19.4c-2.9-1.5-0.4,2.2-0.4,2.2s-7.5-4.4-11.6-4.9
				c-4.2-0.6-5.2,2-5.2,2s14.7,5.2,14.1,9.3c-0.8,2.2-9,0-12.4-0.6c4.4,3,9.6,7.2,9.1,9.9c-4.7-1.7-7.9-5.4-12.7-4
				c5.3,1.2,14,6.2,13.2,10.2c-3.1,1.8-16.8,12.9-19.6,19.8c-3.7-3.2-21.1-29-15.6-46.1c1.1-5.5,1.9-4,1.9-4l5.5-1.1l-5.5-1.9
				l-2.8-3.3c0,0,9.9,0.2,11.1,0.1c-1.5-1.2-6.1-3.9-5.8-6.2c0.4-0.4,2-0.5,2-0.5l0.9-3.7c0,0-0.8-2.2-0.3-5.5
				c0.6-3.3,6.6-0.9,6.6-0.9l0.6-1.9c0,0-5.6-1.9-5.1-4.2c1.1,0,5.5,0.6,5.5,0.6l0.3-1.1l-5.2-4.4
				C308.3,297.9,325.6,270.7,349.2,270.3z"/>
			<path class="st19" d="M255,333.5c0,0,3.1-15.6,7.8-20.2c-2.1-1.2-1.7-2.8-1.7-2.8l5.7,1c0,0,3.9-3.9,5.1-7.1
				c-1.3-4.4-5.2-14.9-5.2-14.9l10.4,11.6c0,0,9-8.5,14.7-7.3c-3.3-4.5-5.8-15.6-5.8-15.6l8,15c0,0,6.2-23,8.4-22.4
				c2.2,0.6,5.1,15.3,5.1,15.3l-1-11.1l4.7,8.1c0,0,17.2-12,35-13.3c0,0-9.7-6-20.6-7.9c-10.9-1.9-64.2-6.6-73.1,45.2
				c-3.5,25.7,1.7,26.2,1.7,26.2"/>
			<path class="st19" d="M347.3,272.3c0,0-33-41.9-38.7-44.7c-1.2,4.6-3.3,12.4-3.3,12.4l-2.3-13.4l-3.6,11.7l-2.8-14.1
				c0,0-4.4-1-11.5-2c-7.1-1-30.3,1.4-30.3,1.4l1.6,12.4l-10-17.6l6.4,14.2l-6.8-8.2l2.1,9.6l-5.4-7.6c0,0-25.7,14.6-39.8,12.3
				c3.1,5,17.9,19,29.7,20.5c3.5,0.7,5.1,0.9,5.1,0.9l0.9-6.4l3.4,8.2l3-8.4l-0.4,5.2c0,0,6.2-1.2,8.7-0.8c2.6,0.4,7.3,2.7,7.3,2.7
				l1.5-15.5l3.6,14.6l4.1-15.6l6.5,14.9c0,0,7.2-2.4,12.3-1.6c5.1,0.9,10.6,4.9,10.6,4.9l4.8-7.9l1.7,7.8l6.2-4.9l-0.6,6.2
				C311.1,263.3,339,267.6,347.3,272.3z"/>
			<path class="st3" d="M299,161c0,0,39.4,11.3,48.5,106.5C342.8,253.5,338.2,185.2,299,161z"/>
			<path class="st3" d="M338.9,264.9c0,0-32.6-32.8-70-30.9c-37.4,1.8-54.4,11-66.6,5.5c12.1,4.8,60.1-3.6,67.4-3.1
				C286.8,237.6,306.3,243.5,338.9,264.9z"/>
			<path class="st3" d="M345.7,272.2c0,0-16.2,4.1-29.3,48.5c-13.1,44.4-4,49.7-3,57.7c0.7-10.2-8.7-19.2,7.1-59.1
				C336.4,279.3,341,276.9,345.7,272.2z"/>
			<path class="st3" d="M350.8,271.8c0,0,23.1,3.5,38.2,14.2c15.1,10.7,37.7,24.4,39,50.9c-3.9-13.3-10.5-32.4-39.4-46.9
				C359.8,275.4,357.3,273.1,350.8,271.8z"/>
			<path class="st3" d="M340.2,268.8c0,0-12.4-8.2-35.3-6.1c-22.9,2.1-44.4,14.8-49.9,43.2c-5.5,28.3-0.6,27.1-0.6,27.1
				s-3.5-33.5,12.2-50.5C282.3,265.5,304.5,258.3,340.2,268.8z"/>
			<path class="st3" d="M448.8,244.7c0,0,16.3-27.3-17.9-40.4c-30.6-11.7-74.8,43.5-82.4,62.2c2.9-1.6,46.1-74.2,83.2-61
				C443.8,209.8,457.2,218.9,448.8,244.7z"/>
		</g>
	</g>
	<g>
		<path class="st7" d="M697.2,151.1c0,0-152.3,175.1-153.1,464c32.7,11.7,48-15.4,48-15.4S581.2,328.2,697.2,151.1z"/>
		<g>
			<g>
				<g>
					<path class="st19" d="M479.7,79.7c0,0-7.3-36,44.7-64.4c52-28.4,119.4-15.2,151.3,54.9c31.9,70.1,21.4,84.2,21.4,84.2
						s-35.2-43-57.7-48.5c-3.9-6.6-5.1-13.1-5.1-13.1s2-0.6,4.4-1.9c2.4-1.3,21.3-21.8,19.1-26.7c-6.2,5.8-22,28.5-30.4,27.8
						c1.7-3.6,20.1-15.7,21.1-25.4c-7.4,2.5-17.2,14.3-26.1,21.3c1.9-5.1,5.8-20.3,14.1-25.1c-2.4-0.6-13.3-1.5-23.2,20.7
						c-4.9-8.5-23.8-35.5-42.6-25.1c-1.5-2.2-4.6-28-4.6-28l-5.3,28.8c0,0-9.4-9.1-3.8-32.4c-1.6,4.7-4.6,21.9-2.5,31.7
						c-7.8-0.7-35.5-1-47.7,8.2c-0.1-2.7,4.9-15.4,4.9-15.4s-2.2-1.8-7.5,1.1C498.8,55.4,482.4,75,479.7,79.7z"/>
					<path class="st19" d="M701.7,154.2c0,0-25.2-21.3-41.9-26.4c-16.8-5.1-38.9,3-47.4-3.5c8.6,12,10.5,17.8,10.5,17.8l-4.9,2.6
						c0,0-9.2-17.4-16.9-14.3c-7.8,3.2-27.6,15.6-31.6,12.2c3.6,6.5,13.6,22.9,13.6,22.9s-17.4-16.6-23.1-17.8
						c3.1,2.8,11.3,12.6,12.9,16.7c-7.4-6-16-13.2-19-11.8c-3,1.4-12.2,19.9-25.9,26.3c-3.8,2.1-0.1,10.6-0.1,10.6
						s-12.8-4.4-17.9-7.1c3.5,3.9,15.3,19.4,16.9,23.5c-10.6-5-21.9-8.4-24.1-7.2c2,0.5,11.9,5.4,11.9,5.4s-29.6,25.9-0.3,73.9
						c2.6-8,19.2-41.1,32.6-46.6c1.2,3,4.7,5.9,4.7,5.9s-1.8-22.8-0.6-30c1.5,6.5,1.3,24.9,6.9,32.4c-0.7-5.1,1.1-21.7,1.6-25.9
						c3.5,7.9,5.6,13.9,13.4,10.5c7.8-3.3,7.5-8.7,14.5-12.3c7-3.5,14.6-6.1,14.6-6.1l-6.4-15l2.6-2l9.6,16.3l19.6-7.9l4-2.7
						c0,0-1.6-11.5,6.9-17c-3.6,6.2-3.7,18.4-3.7,18.4S687.1,154.7,701.7,154.2z"/>
					<path class="st19" d="M698.1,153.8c0,0,35.6,7.5,52.6,30.3c-14.8,5.3-16.2,8.9-16.2,8.9s13.1-2.4,25.5-3.6
						c-10.7,7-18.8,8.3-17.8,7.7c1-0.5,22.5-2.8,25.8,5.7c3.3,8.5,6.3,23.9-1.7,28.2c-7.9,4.3-14.3,4.7-14.3,4.7l23.5,1l-22,6.8
						l20.9-0.3c0,0-0.5,27.7-4.3,31.9c-3.8,4.2-11,4.4-11,4.4l13.9-0.2l0.2,6.2c0,0-14.6,1.9-17.1-1.2c4.9,4.7,12,4,13.7,6.8
						c1.7,2.8-2,29.1-28.7,44.2c-3.9-6.6-17.7-31.8-22.4-37.7c-4.7-5.9-13.4-8.3-13.4-8.3s16.5-8.7,25.5-10.2
						c-11.4-0.4-20.6-7.2-30.9,1c0.6-8.3-0.1-39-0.1-39s9.9-8.9,17.1-13c-10.3,5.3-22.7,11.6-22.7,11.6s8-17,13.1-19.8
						c-9.2,4.7-16.6,9.9-16.6,9.9s19.4-15.6,23.7-17.7c-9.1,3.4-26.7,12.2-26.7,12.2S681.7,169.7,698.1,153.8z"/>
					<path class="st24" d="M698.1,153.8"/>
					<path class="st19" d="M696.3,152.6c20.5-9.8,123.5-45.3,169.9,18.3c37.4,54.5,23.7,73,21.4,83.1c-4.3-2.8-27.2-21-27.2-21
						s0.3-15.9-0.6-24.6c-4.4,20.6-6.9,25.9-6.9,25.9s0.2-25.1,0.5-35.5c-6.3,22.2-11.6,35.2-11.6,35.2s-19.5-28.4-33.3-26.6
						c1.6-7.5,3.1-34.4-4.2-43.6c0,21.7-1.5,39.4-1.5,39.4s-10.9-17.3-16.1-17.9c-5.2-0.6-4.4-14.7-6.7-18.2
						c-2.3-3.5-11.6-12-11.6-12s7.7,17,5.4,30.9c-8.4-9-20-23.7-20-23.7s7.9,11,3.7,21.1c-5.8-6.8-22.5-20-25.9-16.4
						c3.3,4,4.2,8.9,6.2,10.7C732.5,181.6,719,155.9,696.3,152.6z"/>
					<path class="st19" d="M698.1,153.8c0,0,5.4-39,52.4-64.6c47-25.7,109.5-20.9,130.1,13.8c20.6,34.7,16.8,48.9,15,58.9
						c-4.3-6.3-11.3-27.9-18.5-36.6c4.2,12.5,6.2,18.3,4.6,25.5c-3.6-5.1-10-12.5-11-12.7c-1-0.2-17.6-5.5-20.2-4
						c-2.1-3.1-2.6-15.2-2.6-15.2l-3.1,15.4l-5.2-14.3l-6.8,12.7c0,0-14.1-18.4-34.7-16.2c-2.9-7.4-7-11.3-7-11.3s4.5,12.6,2.2,17
						c-3-5.5-10.8-14.7-13.5-15.9c2.5,5.2,3.8,7.4,3.8,7.4l-2.2,1.2c0,0,2.1,5.2,2.9,7.4c-3.8-1.9-27.7-9.7-54,6
						c-26.3,15.7-26.3,19.7-32.9,25.9"/>
				</g>
			</g>
			<path class="st3" d="M705.1,151.5c0,0,84.6-37.1,137.4-2.6c52.8,34.5,52.6,82.6,46.3,101.3c-5.6-40,0.6-66.8-54.4-98.2
				C779.2,120.5,716,147.8,705.1,151.5z"/>
			<path class="st3" d="M699.6,147.6c0,0,14-52.3,77.6-69.5c63.6-17.2,98.7,11.1,109.5,36c10.8,24.9,12.4,35.7,8.8,47.7
				c-1.1-9.6,2.2-43.1-33.9-73.9c-29.7-25.4-97.4-0.5-110,4.9C739,98.2,701.8,131.3,699.6,147.6z"/>
		</g>
		<path class="st3" d="M702.5,156.8c0,0,67.7,67.1,43.2,170.5c-0.7-42.6,4.9-95.1-44.5-172.9"/>
		<path class="st3" d="M690.1,153.7c0,0-41.7-11.4-106.5,18.9c-64.7,30.3-80.9,63-73,99.3c1.9-14.3-9.2-63.1,77.4-97.7
			C674.6,139.5,675.6,158.3,690.1,153.7z"/>
		<path class="st3" d="M485.4,56.2c0,0,34.7-49.8,92.4-50.3C671.5,5.1,692.2,144.4,698.7,145C695,113.7,665.3-9.3,571.8,1.5
			C506,9.1,491,44.1,485.4,56.2z"/>
	</g>
	<path class="st9" d="M927,668.4c0,16.3-92.1,52.6-265.4,52.6c-173.3,0-362.3-36.3-362.3-52.6c0-16.3,140.5-29.4,313.9-29.4
		C786.5,639,927,652.1,927,668.4z"/>
	<g>
		<path class="st28" d="M892.3,369.1c-21.9-89.8-139.5-158.3-281.4-158.3c-141.8,0-259.4,68.5-281.4,158.3H892.3z"/>
		<path class="st11" d="M345.2,331.2c-7.1,12.1-12.4,24.8-15.6,37.9h562.7c-3.2-13.1-8.5-25.8-15.6-37.9H345.2z"/>
		<rect x="340.2" y="520.3" class="st35" width="542.7" height="19"/>
		<rect x="391.4" y="539.3" class="st35" width="430.8" height="113"/>
		<rect x="500.9" y="369.1" class="st26" width="214.2" height="151.2"/>
		<rect x="329.6" y="369.1" class="st35" width="562.7" height="24.8"/>
		<rect x="391.4" y="539.3" class="st28" width="430.8" height="19.2"/>
		<rect x="751.6" y="613.3" class="st6" width="50.8" height="15.5"/>
		<rect x="664.3" y="593.6" class="st6" width="50.8" height="15.5"/>
		<g>
			<path class="st21" d="M538.1,596.2c0,4.8-3.9,8.7-8.7,8.7h-41.3c-4.8,0-8.7-3.9-8.7-8.7l0,0c0-4.8,3.9-8.7,8.7-8.7h41.3
				C534.2,587.5,538.1,591.4,538.1,596.2L538.1,596.2z"/>
			<rect x="504.6" y="604.9" class="st36" width="7.7" height="54.2"/>
			<rect x="492.9" y="659.1" class="st11" width="31.8" height="8.9"/>
			<path class="st0" d="M480.8,591.7h56.1c-1.5-2.5-4.3-4.2-7.4-4.2h-41.3C485,587.5,482.3,589.2,480.8,591.7z"/>
			<rect x="504.6" y="604.9" class="st13" width="7.7" height="8.3"/>
		</g>
		<g>
			<path class="st21" d="M460.3,596.2c0,4.8-3.9,8.7-8.7,8.7h-41.3c-4.8,0-8.7-3.9-8.7-8.7l0,0c0-4.8,3.9-8.7,8.7-8.7h41.3
				C456.4,587.5,460.3,591.4,460.3,596.2L460.3,596.2z"/>
			<rect x="426.8" y="604.9" class="st36" width="7.7" height="54.2"/>
			<rect x="415.1" y="659.1" class="st11" width="31.8" height="8.9"/>
			<path class="st0" d="M402.9,591.7H459c-1.5-2.5-4.3-4.2-7.4-4.2h-41.3C407.2,587.5,404.5,589.2,402.9,591.7z"/>
			<rect x="426.8" y="604.9" class="st13" width="7.7" height="8.3"/>
		</g>
		<g>
			<path class="st21" d="M636.1,596.2c0,4.8-3.9,8.7-8.7,8.7h-41.3c-4.8,0-8.7-3.9-8.7-8.7l0,0c0-4.8,3.9-8.7,8.7-8.7h41.3
				C632.2,587.5,636.1,591.4,636.1,596.2L636.1,596.2z"/>
			<rect x="602.6" y="604.9" class="st36" width="7.7" height="54.2"/>
			<rect x="590.9" y="659.1" class="st11" width="31.8" height="8.9"/>
			<path class="st0" d="M578.7,591.7h56.1c-1.5-2.5-4.3-4.2-7.4-4.2h-41.3C583,587.5,580.3,589.2,578.7,591.7z"/>
			<rect x="602.6" y="604.9" class="st13" width="7.7" height="8.3"/>
		</g>
		<g>
			<path class="st21" d="M715.1,596.2c0,4.8-3.9,8.7-8.7,8.7h-41.3c-4.8,0-8.7-3.9-8.7-8.7l0,0c0-4.8,3.9-8.7,8.7-8.7h41.3
				C711.2,587.5,715.1,591.4,715.1,596.2L715.1,596.2z"/>
			<rect x="681.6" y="604.9" class="st36" width="7.7" height="54.2"/>
			<rect x="669.8" y="659.1" class="st11" width="31.8" height="8.9"/>
			<path class="st0" d="M657.7,591.7h56.1c-1.5-2.5-4.3-4.2-7.4-4.2h-41.3C662,587.5,659.2,589.2,657.7,591.7z"/>
			<rect x="681.6" y="604.9" class="st13" width="7.7" height="8.3"/>
		</g>
		<g>
			<path class="st21" d="M810.3,596.2c0,4.8-3.9,8.7-8.7,8.7h-41.3c-4.8,0-8.7-3.9-8.7-8.7l0,0c0-4.8,3.9-8.7,8.7-8.7h41.3
				C806.4,587.5,810.3,591.4,810.3,596.2L810.3,596.2z"/>
			<rect x="776.8" y="604.9" class="st36" width="7.7" height="54.2"/>
			<rect x="765" y="659.1" class="st11" width="31.8" height="8.9"/>
			<path class="st0" d="M752.9,591.7H809c-1.5-2.5-4.3-4.2-7.4-4.2h-41.3C757.2,587.5,754.4,589.2,752.9,591.7z"/>
			<rect x="776.8" y="604.9" class="st13" width="7.7" height="8.3"/>
		</g>
		<g>
			<rect x="518.3" y="408.2" class="st4" width="72.6" height="86.5"/>
			<rect x="538.1" y="415.1" class="st6" width="31.5" height="7.1"/>
			<rect x="526.6" y="427.6" class="st6" width="27.9" height="30.9"/>
			<rect x="563.1" y="427.6" class="st6" width="20.2" height="4"/>
			<rect x="563.1" y="436.7" class="st6" width="20.2" height="4"/>
			<rect x="563.1" y="444.7" class="st6" width="20.2" height="4"/>
			<rect x="526.6" y="463.3" class="st6" width="56.7" height="22.2"/>
		</g>
		<g>
			<rect x="616.8" y="408.2" class="st4" width="72.6" height="86.5"/>
			<rect x="636.6" y="415.1" class="st6" width="31.5" height="7.1"/>
			<rect x="625.1" y="427.6" class="st6" width="27.9" height="30.9"/>
			<rect x="661.6" y="427.6" class="st6" width="20.2" height="4"/>
			<rect x="661.6" y="436.7" class="st6" width="20.2" height="4"/>
			<rect x="661.6" y="444.7" class="st6" width="20.2" height="4"/>
			<rect x="625.1" y="463.3" class="st6" width="56.7" height="22.2"/>
		</g>
	</g>
	<g>
		<polygon class="st37" points="876.3,343.5 788.9,682.5 797.5,683.4 883,344.2 		"/>
		<g>
			<polygon class="st16" points="712.9,316.4 899.9,265.5 1036.7,400.1 1024.1,413 997.4,406.1 991.4,387.6 977.9,401 949.1,393.6 
				944.4,376.2 931.1,388.9 902.2,381.5 898.2,364.3 884.9,377 856.8,369.7 851.7,353.8 838.1,364.9 810.7,357.8 806.5,341.3 
				793.4,353.3 763.8,345.7 758.5,327.4 745.1,340.8 716.9,333.6 			"/>
			<polygon class="st2" points="758.5,327.4 763.8,345.7 793.4,353.3 806.5,341.3 899.9,265.5 			"/>
			<polygon class="st2" points="977.9,401 991.4,387.6 899.9,265.5 944.4,376.2 949.1,393.6 			"/>
			<polygon class="st2" points="851.7,353.8 856.8,369.7 884.9,377 898.2,364.3 899.9,265.5 			"/>
			<g>
				<polygon class="st1" points="997.4,406.1 1024.1,413 1036.7,400.1 1035.6,399 991.4,387.6 				"/>
				<polygon class="st1" points="763.8,345.7 793.4,353.3 806.5,341.3 810.7,357.8 838.1,364.9 851.7,353.8 856.8,369.7 884.9,377 
					898.2,364.3 902.2,381.5 931.1,388.9 944.4,376.2 949.1,393.6 977.9,401 991.4,387.6 758.5,327.4 				"/>
				<polygon class="st1" points="712.9,316.4 716.9,333.6 745.1,340.8 758.5,327.4 714.4,316 				"/>
			</g>
			<polygon class="st8" points="793.4,353.3 806.5,341.3 807.9,340.1 758.5,327.4 763.8,345.7 			"/>
			<polygon class="st8" points="851.7,353.8 856.8,369.7 884.9,377 898.2,364.3 898.2,363.5 852.8,351.8 			"/>
			<polygon class="st8" points="944.4,376.2 949.1,393.6 977.9,401 991.4,387.6 944,375.3 			"/>
		</g>
	</g>
	<g>
		<g>
			<g>
				<path class="st25" d="M738.3,360.3c0,0-52.5,47.7-52.5,174.4c0,62.5,8.2,118.1,16.7,158.6h71.6c8.6-40.6,16.7-96.1,16.7-158.6
					C790.8,408,738.3,360.3,738.3,360.3z"/>
			</g>
			<g>
				<g>
					<path class="st10" d="M685.8,534.7c0,62.5,8.2,118.1,16.7,158.6h35.4l0.4-333C738.3,360.3,685.8,408,685.8,534.7z"/>
				</g>
			</g>
		</g>
		<g>
			<g>
				<path class="st32" d="M699.6,678.6H777c2.6-13.8,5.1-29,7.3-45.3h-92C694.4,649.7,696.9,664.9,699.6,678.6z"/>
			</g>
			<g>
				<g>
					<path class="st33" d="M699.6,678.6h38.3l0.1-45.3h-45.7C694.4,649.7,696.9,664.9,699.6,678.6z"/>
				</g>
			</g>
		</g>
	</g>
	<path class="st17" d="M692.8,699.3h102.8C795.7,699.3,736.6,652.6,692.8,699.3z"/>
	<path class="st23" d="M585.6,949.4c-17.1,0-31.1-4.1-31.1-9.1c0-5,14-9,31.1-9s31.1,4.1,31.1,9
		C616.7,945.4,602.7,949.4,585.6,949.4z"/>
</g>
<g id="Layer_2" class="st34">
	<rect y="486.9" class="st12" width="1200" height="382.6"/>
	<rect y="69.5" class="st27" width="1200" height="427.7"/>
	<path class="st29" d="M1200,486.9v34.3c-151.5-1.3-451.4,21.4-696.2,1.3C353.4,510.2,170,505.6,0,516.3v-29.4H1200z"/>
	<path class="st31" d="M1200,567.6C712.7,608,317.8,496,0,561.9v307.6h1200V567.6z"/>
	<path class="st30" d="M1200,571.3c-417.1,43.4-820.6-49.1-1200,0v298.2h1200V571.3z"/>
	<path class="st20" d="M0,698.4v171h1200V629.6c-506.4-44-673,84-802.1,64.3C268.8,674.2,107.5,666.3,0,698.4z"/>
	<path class="st15" d="M0,723.9v145.5h1200V756.7c-168.4-46.6-461.3-5.7-594.7,14.7C471.8,791.8,231.2,700.8,0,723.9z"/>
	<path class="st30" d="M371.5,680.6c-53.3,0-96.8-7.8-96.8-17.3s43.5-17.3,96.8-17.3c53.3,0,96.8,7.8,96.8,17.3
		S424.8,680.6,371.5,680.6z"/>
	<path class="st20" d="M831.3,669c-57.7,0-104.8-7.6-104.8-16.8c0-9.3,47.1-16.8,104.8-16.8c57.7,0,104.8,7.6,104.8,16.8
		C936,661.5,889,669,831.3,669z"/>
	<path class="st18" d="M887.9,710.6c-14.4,0-26.1-5.9-26.1-13.1c0-7.2,11.7-13.1,26.1-13.1c14.4,0,26.1,5.9,26.1,13.1
		C913.9,704.7,902.2,710.6,887.9,710.6z"/>
	<path class="st20" d="M747.1,744.8c-16.6,0-30.1-4-30.1-8.9s13.5-8.9,30.1-8.9s30.1,4,30.1,8.9S763.6,744.8,747.1,744.8z"/>
	<g class="st22">
		<path class="st7" d="M343.5,268.1c0,0,92.1,128.8,102.7,269.9c-17.6,5.1-24.1-5.6-24.1-5.6s-27.2-162.3-72.6-250.1
			C336.9,258,357.8,286.7,343.5,268.1z"/>
		<g>
			<path class="st19" d="M297.9,159.2c0,0,35.4,8.4,48.6,30.9c-9.9,0.6-9.9,0.6-9.9,0.6s9.6-0.2,15.1,2.6
				c-4.1,1.2-10.1-0.9-16.5,1.8c7,0.4,22.9,3.5,24.3,14.2c-10-1.7-19.5-3.4-19.5-3.4s18.5,5.7,18.6,8.8c0.1,3.2,2.3,11.9,2.3,11.9
				L347,226l15.3,2.6l-15-0.7l14.3,4.5l-11.1-1.9l11.4,8c0,0-13.2,17-12.5,32.8c-5.3-5.3-16-25.5-19.2-26.9
				c-3.2-1.4-5.3-17.2-5.3-17.2l7-0.9l-6.5-2c0,0,4.7-2.1,5.3-4.5c0.6-2.4-5.8,0.3-5.8,0.3s-2.2-6.9-5.1-9c2.2-1.1,9.7-4.8,9.7-4.8
				s-10.6-1-13.9-0.3c2-2.2,8.7-5.6,8.7-5.6l-9.8,2.7C314.8,203.1,315.9,173,297.9,159.2z"/>
			<path class="st19" d="M348.7,270.2c-1.3,1.4,33-76.2,84.6-67.4c16.2,2.8,25.2,22.8,22.2,31.1c0,0-2.7,11.7-6,13.8
				c1-7.2,2.2-18.2,2.2-18.2s-2.6,12.7-6.6,12c-1.5-5.7-7.8-10.2-10.5-10.6c-0.1-3.6-2.3-12.6-2.3-12.6s-1.1,10.2-2,11.9
				c-0.5-3.2-1.9-9.1-2.9-9.5c0.4,2.4,0.3,10.4,0,11.7c-2.7-0.5-11.5-4.4-22.4,6c-3.6-3.1-9.4-9.6-9.4-9.6l8.2,12.6
				c0,0-11.8-10.8-16.2-12.2c-3.4-0.4,8.3,13.8,7.8,19.3c-3.2-1.2-8-13-12.7-13.9c-0.5,2.2,6.1,13.3,6.6,16.8
				c-4.3,0.6-14,4.3-15.5,3.7c-1.5-0.6-2.5-1.1-2.5-1.1l5.4,6.6l-7.6-6.5c0,0,2.8,6.1,2.3,6C371.1,260.1,353.4,265,348.7,270.2z"/>
			<path class="st19" d="M348.7,270.2l18.4-6.7c0,0,6,4.1,9.9,4.8c3.9,0.7,6.5-0.6,6.5-0.6l-1,6l9.1-8.8l-4,10.8l10.2-6.3
				c0,0,17.4,10.8,22.2,18c-8,2-11.9,5.2-11.9,5.2s10.4-0.4,13.9,0.4c3.1,3.3,15,17.6,11.4,38.5c-1.8,10.7-4.3,14.5-4.3,14.5
				s-4.4-20.7-13-22c0.1-2.5-0.8-3.3-0.8-3.3l-0.7,2.5l-8.5-4.9c0,0,0.6-5.1-0.1-6.7c-1,3.2-1.5,5.9-1.5,5.9s-7.2-14.8-24.9-17.2
				c0.4-3.2,1.1-5.6,2.9-7.1c-3.8,2.3-6.1,5-6.1,5s-0.4-4.3,1.9-8.4c-3.1,2.7-5.5,3.7-5.5,3.7s-6.7-6.5-12.1-7.4
				C356.4,285.4,348.8,274.3,348.7,270.2z"/>
			<path class="st19" d="M351.4,269.5c0,0-3.5,24.9-0.4,35.2c-4.9-1-11-0.6-14.7,1.2c6.4,1.1,14.5,3.5,14.6,5.7
				c-7.1-1.9-14.8-3.5-16.6-2.8c4.8,1.2,14.6,8.8,16.4,9.1c-2.9,2.7-8.1,8.2-8.8,19.4c-2.9-1.5-0.4,2.2-0.4,2.2s-7.5-4.4-11.6-4.9
				c-4.2-0.6-5.2,2-5.2,2s14.7,5.2,14.1,9.3c-0.8,2.2-9,0-12.4-0.6c4.4,3,9.6,7.2,9.1,9.9c-4.7-1.7-7.9-5.4-12.7-4
				c5.3,1.2,14,6.2,13.2,10.2c-3.1,1.8-16.8,12.9-19.6,19.8c-3.7-3.2-21.1-29-15.6-46.1c1.1-5.5,1.9-4,1.9-4l5.5-1.1l-5.5-1.9
				l-2.8-3.3c0,0,9.9,0.2,11.1,0.1c-1.5-1.2-6.1-3.9-5.8-6.2c0.4-0.4,2-0.5,2-0.5l0.9-3.7c0,0-0.8-2.2-0.3-5.5
				c0.6-3.3,6.6-0.9,6.6-0.9l0.6-1.9c0,0-5.6-1.9-5.1-4.2c1.1,0,5.5,0.6,5.5,0.6l0.3-1.1l-5.2-4.4
				C310.5,297,327.9,269.9,351.4,269.5z"/>
			<path class="st19" d="M257.2,332.7c0,0,3.1-15.6,7.8-20.2c-2.1-1.2-1.7-2.8-1.7-2.8l5.7,1c0,0,3.9-3.9,5.1-7.1
				c-1.3-4.4-5.2-14.9-5.2-14.9l10.4,11.6c0,0,9-8.5,14.7-7.3c-3.3-4.5-5.8-15.6-5.8-15.6l8,15c0,0,6.2-23,8.4-22.4
				c2.2,0.6,5.1,15.3,5.1,15.3l-1-11.1l4.7,8.1c0,0,17.2-12,35-13.3c0,0-9.7-6-20.6-7.9c-10.9-1.9-64.2-6.6-73.1,45.2
				c-3.5,25.7,1.7,26.2,1.7,26.2"/>
			<path class="st19" d="M349.5,271.4c0,0-33-41.9-38.7-44.7c-1.2,4.6-3.3,12.4-3.3,12.4l-2.3-13.4l-3.6,11.7l-2.8-14.1
				c0,0-4.4-1-11.5-2c-7.1-1-30.3,1.4-30.3,1.4l1.6,12.4l-10-17.6l6.4,14.2l-6.8-8.2l2.1,9.6l-5.4-7.6c0,0-25.7,14.6-39.8,12.3
				c3.1,5,17.9,19,29.7,20.5c3.5,0.7,5.1,0.9,5.1,0.9l0.9-6.4l3.4,8.2l3-8.4l-0.4,5.2c0,0,6.2-1.2,8.7-0.8c2.6,0.4,7.3,2.7,7.3,2.7
				l1.5-15.5l3.6,14.6l4.1-15.6l6.5,14.9c0,0,7.2-2.4,12.3-1.6c5.1,0.9,10.6,4.9,10.6,4.9l4.8-7.9l1.7,7.8l6.2-4.9l-0.6,6.2
				C313.3,262.5,341.3,266.8,349.5,271.4z"/>
			<path class="st3" d="M301.2,160.1c0,0,39.4,11.3,48.5,106.5C345,252.6,340.4,184.4,301.2,160.1z"/>
			<path class="st3" d="M341.1,264c0,0-32.6-32.8-70-30.9c-37.4,1.8-54.4,11-66.6,5.5c12.1,4.8,60.1-3.6,67.4-3.1
				C289,236.8,308.5,242.7,341.1,264z"/>
			<path class="st3" d="M348,271.3c0,0-16.2,4.1-29.3,48.5c-13.1,44.4-4,49.7-3,57.7c0.7-10.2-8.7-19.2,7.1-59.1
				C338.7,278.5,343.3,276,348,271.3z"/>
			<path class="st3" d="M353,271c0,0,23.1,3.5,38.2,14.2c15.1,10.7,37.7,24.4,39,50.9c-3.9-13.3-10.5-32.4-39.4-46.9
				C362.1,274.5,359.5,272.3,353,271z"/>
			<path class="st3" d="M342.4,267.9c0,0-12.4-8.2-35.3-6.1c-22.9,2.1-44.4,14.8-49.9,43.2c-5.5,28.3-0.6,27.1-0.6,27.1
				s-3.5-33.5,12.2-50.5C284.5,264.7,306.7,257.5,342.4,267.9z"/>
			<path class="st3" d="M451,243.9c0,0,16.3-27.3-17.9-40.4c-30.6-11.7-74.8,43.5-82.4,62.2c2.9-1.6,46.1-74.2,83.2-61
				C446,209,459.4,218,451,243.9z"/>
		</g>
	</g>
	<g class="st22">
		<path class="st7" d="M699.4,150.2c0,0-152.3,175.1-153.1,464c32.7,11.7,48-15.4,48-15.4S583.5,327.4,699.4,150.2z"/>
		<g>
			<g>
				<g>
					<path class="st19" d="M481.9,78.9c0,0-7.3-36,44.7-64.4c52-28.4,119.4-15.2,151.3,54.9c31.9,70.1,21.4,84.2,21.4,84.2
						s-35.2-43-57.7-48.5c-3.9-6.6-5.1-13.1-5.1-13.1s2-0.6,4.4-1.9c2.4-1.3,21.3-21.8,19.1-26.7c-6.2,5.8-22,28.5-30.4,27.8
						c1.7-3.6,20.1-15.7,21.1-25.4c-7.4,2.5-17.2,14.3-26.1,21.3c1.9-5.1,5.8-20.3,14.1-25.1c-2.4-0.6-13.3-1.5-23.2,20.7
						c-4.9-8.5-23.8-35.5-42.6-25.1c-1.5-2.2-4.6-28-4.6-28l-5.3,28.8c0,0-9.4-9.1-3.8-32.4c-1.6,4.7-4.6,21.9-2.5,31.7
						c-7.8-0.7-35.5-1-47.7,8.2c-0.1-2.7,4.9-15.4,4.9-15.4s-2.2-1.8-7.5,1.1C501,54.6,484.6,74.2,481.9,78.9z"/>
					<path class="st19" d="M703.9,153.4c0,0-25.2-21.3-41.9-26.4c-16.8-5.1-38.9,3-47.4-3.5c8.6,12,10.5,17.8,10.5,17.8l-4.9,2.6
						c0,0-9.2-17.4-16.9-14.3c-7.8,3.2-27.6,15.6-31.6,12.2c3.6,6.5,13.6,22.9,13.6,22.9s-17.4-16.6-23.1-17.8
						c3.1,2.8,11.3,12.6,12.9,16.7c-7.4-6-16-13.2-19-11.8c-3,1.4-12.2,19.9-25.9,26.3c-3.8,2.1-0.1,10.6-0.1,10.6
						s-12.8-4.4-17.9-7.1c3.5,3.9,15.3,19.4,16.9,23.5c-10.6-5-21.9-8.4-24.1-7.2c2,0.5,11.9,5.4,11.9,5.4s-29.6,25.9-0.3,73.9
						c2.6-8,19.2-41.1,32.6-46.6c1.2,3,4.7,5.9,4.7,5.9s-1.8-22.8-0.6-30c1.5,6.5,1.3,24.9,6.9,32.4c-0.7-5.1,1.1-21.7,1.6-25.9
						c3.5,7.9,5.6,13.9,13.4,10.5c7.8-3.3,7.5-8.7,14.5-12.3c7-3.5,14.6-6.1,14.6-6.1l-6.4-15l2.6-2l9.6,16.3l19.6-7.9l4-2.7
						c0,0-1.6-11.5,6.9-17c-3.6,6.2-3.7,18.4-3.7,18.4S689.3,153.8,703.9,153.4z"/>
					<path class="st19" d="M700.3,153c0,0,35.6,7.5,52.6,30.3c-14.8,5.3-16.2,8.9-16.2,8.9s13.1-2.4,25.5-3.6
						c-10.7,7-18.8,8.3-17.8,7.7c1-0.5,22.5-2.8,25.8,5.7c3.3,8.5,6.3,23.9-1.7,28.2c-7.9,4.3-14.3,4.7-14.3,4.7l23.5,1l-22,6.8
						l20.9-0.3c0,0-0.5,27.7-4.3,31.9c-3.8,4.2-11,4.4-11,4.4l13.9-0.2l0.2,6.2c0,0-14.6,1.9-17.1-1.2c4.9,4.7,12,4,13.7,6.8
						c1.7,2.8-2,29.1-28.7,44.2c-3.9-6.6-17.7-31.8-22.4-37.7c-4.7-5.9-13.4-8.3-13.4-8.3s16.5-8.7,25.5-10.2
						c-11.4-0.4-20.6-7.2-30.9,1c0.6-8.3-0.1-39-0.1-39s9.9-8.9,17.1-13c-10.3,5.3-22.7,11.6-22.7,11.6s8-17,13.1-19.8
						c-9.2,4.7-16.6,9.9-16.6,9.9s19.4-15.6,23.7-17.7c-9.1,3.4-26.7,12.2-26.7,12.2S683.9,168.9,700.3,153z"/>
					<path class="st24" d="M700.3,153"/>
					<path class="st19" d="M698.5,151.7C719,141.9,822,106.4,868.5,170c37.4,54.5,23.7,73,21.4,83.1c-4.3-2.8-27.2-21-27.2-21
						s0.3-15.9-0.6-24.6c-4.4,20.6-6.9,25.9-6.9,25.9s0.2-25.1,0.5-35.5C849.3,220.1,844,233,844,233s-19.5-28.4-33.3-26.6
						c1.6-7.5,3.1-34.4-4.2-43.6c0,21.7-1.5,39.4-1.5,39.4s-10.9-17.3-16.1-17.9c-5.2-0.6-4.4-14.7-6.7-18.2
						c-2.3-3.5-11.6-12-11.6-12s7.7,17,5.4,30.9c-8.4-9-20-23.7-20-23.7s7.9,11,3.7,21.1c-5.8-6.8-22.5-20-25.9-16.4
						c3.3,4,4.2,8.9,6.2,10.7C734.7,180.8,721.3,155.1,698.5,151.7z"/>
					<path class="st19" d="M700.3,153c0,0,5.4-39,52.4-64.6c47-25.7,109.5-20.9,130.1,13.8c20.6,34.7,16.8,48.9,15,58.9
						c-4.3-6.3-11.3-27.9-18.5-36.6c4.2,12.5,6.2,18.3,4.6,25.5c-3.6-5.1-10-12.5-11-12.7c-1-0.2-17.6-5.5-20.2-4
						c-2.1-3.1-2.6-15.2-2.6-15.2l-3.1,15.4l-5.2-14.3l-6.8,12.7c0,0-14.1-18.4-34.7-16.2c-2.9-7.4-7-11.3-7-11.3s4.5,12.6,2.2,17
						c-3-5.5-10.8-14.7-13.5-15.9c2.5,5.2,3.8,7.4,3.8,7.4l-2.2,1.2c0,0,2.1,5.2,2.9,7.4c-3.8-1.9-27.7-9.7-54,6
						c-26.3,15.7-26.3,19.7-32.9,25.9"/>
				</g>
			</g>
			<path class="st3" d="M707.4,150.7c0,0,84.6-37.1,137.4-2.6c52.8,34.5,52.6,82.6,46.3,101.3c-5.6-40,0.6-66.8-54.4-98.2
				C781.4,119.7,718.3,146.9,707.4,150.7z"/>
			<path class="st3" d="M701.8,146.8c0,0,14-52.3,77.6-69.5c63.6-17.2,98.7,11.1,109.5,36c10.8,24.9,12.4,35.7,8.8,47.7
				c-1.1-9.6,2.2-43.1-33.9-73.9c-29.7-25.4-97.4-0.5-110,4.9C741.2,97.3,704,130.5,701.8,146.8z"/>
		</g>
		<path class="st3" d="M704.7,156c0,0,67.7,67.1,43.2,170.5c-0.7-42.6,4.9-95.1-44.5-172.9"/>
		<path class="st3" d="M692.3,152.8c0,0-41.7-11.4-106.5,18.9c-64.7,30.3-80.9,63-73,99.3c1.9-14.3-9.2-63.1,77.4-97.7
			C676.8,138.7,677.8,157.5,692.3,152.8z"/>
		<path class="st3" d="M487.6,55.4c0,0,34.7-49.8,92.4-50.3C673.7,4.2,694.4,143.5,701,144.2C697.2,112.9,667.5-10.1,574,0.7
			C508.2,8.3,493.2,43.3,487.6,55.4z"/>
	</g>
	<path class="st5" d="M929.2,667.6c0,16.3-92.1,52.6-265.4,52.6c-173.3,0-362.3-36.3-362.3-52.6c0-16.3,140.5-29.4,313.9-29.4
		C788.7,638.1,929.2,651.3,929.2,667.6z"/>
	<g class="st22">
		<path class="st28" d="M894.5,368.3C872.6,278.5,755,210,613.2,210c-141.8,0-259.4,68.5-281.4,158.3H894.5z"/>
		<path class="st11" d="M347.4,330.4c-7.1,12.1-12.4,24.8-15.6,37.9h562.7c-3.2-13.1-8.5-25.8-15.6-37.9H347.4z"/>
		<rect x="342.4" y="519.4" class="st35" width="542.7" height="19"/>
		<rect x="393.6" y="538.5" class="st35" width="430.8" height="113"/>
		<rect x="503.1" y="368.3" class="st26" width="214.2" height="151.2"/>
		<rect x="331.8" y="368.3" class="st35" width="562.7" height="24.8"/>
		<rect x="393.6" y="538.5" class="st28" width="430.8" height="19.2"/>
		<rect x="753.8" y="612.4" class="st6" width="50.8" height="15.5"/>
		<rect x="666.5" y="592.8" class="st6" width="50.8" height="15.5"/>
		<g>
			<path class="st21" d="M540.4,595.4c0,4.8-3.9,8.7-8.7,8.7h-41.3c-4.8,0-8.7-3.9-8.7-8.7l0,0c0-4.8,3.9-8.7,8.7-8.7h41.3
				C536.5,586.6,540.4,590.6,540.4,595.4L540.4,595.4z"/>
			<rect x="506.8" y="604.1" class="st36" width="7.7" height="54.2"/>
			<rect x="495.1" y="658.3" class="st11" width="31.8" height="8.9"/>
			<path class="st0" d="M483,590.8H539c-1.5-2.5-4.3-4.2-7.4-4.2h-41.3C487.2,586.6,484.5,588.3,483,590.8z"/>
			<rect x="506.8" y="604.1" class="st13" width="7.7" height="8.3"/>
		</g>
		<g>
			<path class="st21" d="M462.6,595.4c0,4.8-3.9,8.7-8.7,8.7h-41.3c-4.8,0-8.7-3.9-8.7-8.7l0,0c0-4.8,3.9-8.7,8.7-8.7h41.3
				C458.6,586.6,462.6,590.6,462.6,595.4L462.6,595.4z"/>
			<rect x="429" y="604.1" class="st36" width="7.7" height="54.2"/>
			<rect x="417.3" y="658.3" class="st11" width="31.8" height="8.9"/>
			<path class="st0" d="M405.2,590.8h56.1c-1.5-2.5-4.3-4.2-7.4-4.2h-41.3C409.4,586.6,406.7,588.3,405.2,590.8z"/>
			<rect x="429" y="604.1" class="st13" width="7.7" height="8.3"/>
		</g>
		<g>
			<path class="st21" d="M638.4,595.4c0,4.8-3.9,8.7-8.7,8.7h-41.3c-4.8,0-8.7-3.9-8.7-8.7l0,0c0-4.8,3.9-8.7,8.7-8.7h41.3
				C634.4,586.6,638.4,590.6,638.4,595.4L638.4,595.4z"/>
			<rect x="604.8" y="604.1" class="st36" width="7.7" height="54.2"/>
			<rect x="593.1" y="658.3" class="st11" width="31.8" height="8.9"/>
			<path class="st0" d="M581,590.8H637c-1.5-2.5-4.3-4.2-7.4-4.2h-41.3C585.2,586.6,582.5,588.3,581,590.8z"/>
			<rect x="604.8" y="604.1" class="st13" width="7.7" height="8.3"/>
		</g>
		<g>
			<path class="st21" d="M717.3,595.4c0,4.8-3.9,8.7-8.7,8.7h-41.3c-4.8,0-8.7-3.9-8.7-8.7l0,0c0-4.8,3.9-8.7,8.7-8.7h41.3
				C713.4,586.6,717.3,590.6,717.3,595.4L717.3,595.4z"/>
			<rect x="683.8" y="604.1" class="st36" width="7.7" height="54.2"/>
			<rect x="672" y="658.3" class="st11" width="31.8" height="8.9"/>
			<path class="st0" d="M659.9,590.8H716c-1.5-2.5-4.3-4.2-7.4-4.2h-41.3C664.2,586.6,661.4,588.3,659.9,590.8z"/>
			<rect x="683.8" y="604.1" class="st13" width="7.7" height="8.3"/>
		</g>
		<g>
			<path class="st21" d="M812.5,595.4c0,4.8-3.9,8.7-8.7,8.7h-41.3c-4.8,0-8.7-3.9-8.7-8.7l0,0c0-4.8,3.9-8.7,8.7-8.7h41.3
				C808.6,586.6,812.5,590.6,812.5,595.4L812.5,595.4z"/>
			<rect x="779" y="604.1" class="st36" width="7.7" height="54.2"/>
			<rect x="767.2" y="658.3" class="st11" width="31.8" height="8.9"/>
			<path class="st0" d="M755.1,590.8h56.1c-1.5-2.5-4.3-4.2-7.4-4.2h-41.3C759.4,586.6,756.7,588.3,755.1,590.8z"/>
			<rect x="779" y="604.1" class="st13" width="7.7" height="8.3"/>
		</g>
		<g>
			<rect x="520.5" y="407.3" class="st4" width="72.6" height="86.5"/>
			<rect x="540.4" y="414.3" class="st6" width="31.5" height="7.1"/>
			<rect x="528.9" y="426.8" class="st6" width="27.9" height="30.9"/>
			<rect x="565.4" y="426.8" class="st6" width="20.2" height="4"/>
			<rect x="565.4" y="435.9" class="st6" width="20.2" height="4"/>
			<rect x="565.4" y="443.9" class="st6" width="20.2" height="4"/>
			<rect x="528.9" y="462.5" class="st6" width="56.7" height="22.2"/>
		</g>
		<g>
			<rect x="619" y="407.3" class="st4" width="72.6" height="86.5"/>
			<rect x="638.8" y="414.3" class="st6" width="31.5" height="7.1"/>
			<rect x="627.3" y="426.8" class="st6" width="27.9" height="30.9"/>
			<rect x="663.8" y="426.8" class="st6" width="20.2" height="4"/>
			<rect x="663.8" y="435.9" class="st6" width="20.2" height="4"/>
			<rect x="663.8" y="443.9" class="st6" width="20.2" height="4"/>
			<rect x="627.3" y="462.5" class="st6" width="56.7" height="22.2"/>
		</g>
	</g>
	<g class="st22">
		<polygon class="st37" points="878.5,342.6 791.1,681.6 799.7,682.5 885.2,343.3 		"/>
		<g>
			<polygon class="st16" points="715.1,315.5 902.1,264.6 1038.9,399.2 1026.3,412.1 999.6,405.2 993.6,386.8 980.2,400.2 
				951.3,392.7 946.6,375.4 933.3,388.1 904.5,380.6 900.4,363.4 887.2,376.1 859,368.9 853.9,352.9 840.3,364 812.9,356.9 
				808.7,340.5 795.6,352.5 766,344.8 760.7,326.5 747.3,340 719.2,332.7 			"/>
			<polygon class="st2" points="760.8,326.5 766,344.8 795.6,352.5 808.7,340.5 902.1,264.6 			"/>
			<polygon class="st2" points="980.2,400.2 993.6,386.8 902.1,264.6 946.6,375.4 951.3,392.7 			"/>
			<polygon class="st2" points="853.9,352.9 859,368.9 887.2,376.1 900.4,363.4 902.1,264.6 			"/>
			<g>
				<polygon class="st1" points="999.6,405.2 1026.3,412.1 1038.9,399.2 1037.8,398.2 993.6,386.8 				"/>
				<polygon class="st1" points="766,344.8 795.6,352.5 808.7,340.5 812.9,356.9 840.3,364 853.9,352.9 859,368.9 887.2,376.1 
					900.4,363.4 904.5,380.6 933.3,388.1 946.6,375.4 951.3,392.7 980.2,400.2 993.6,386.8 760.7,326.5 				"/>
				<polygon class="st1" points="715.1,315.5 719.2,332.7 747.3,340 760.7,326.5 716.6,315.1 				"/>
			</g>
			<polygon class="st8" points="795.6,352.5 808.7,340.5 810.1,339.3 760.8,326.5 766,344.8 			"/>
			<polygon class="st8" points="853.9,352.9 859,368.9 887.2,376.1 900.4,363.4 900.5,362.7 855,350.9 			"/>
			<polygon class="st8" points="946.6,375.4 951.3,392.7 980.2,400.2 993.6,386.8 946.2,374.5 			"/>
		</g>
	</g>
	<g class="st22">
		<g>
			<g>
				<path class="st25" d="M740.5,359.5c0,0-52.5,47.7-52.5,174.4c0,62.5,8.2,118.1,16.7,158.6h71.6c8.6-40.6,16.7-96.1,16.7-158.6
					C793,407.2,740.5,359.5,740.5,359.5z"/>
			</g>
			<g>
				<g>
					<path class="st10" d="M688,533.8c0,62.5,8.2,118.1,16.7,158.6h35.4l0.4-333C740.5,359.5,688,407.2,688,533.8z"/>
				</g>
			</g>
		</g>
		<g>
			<g>
				<path class="st32" d="M701.8,677.8h77.5c2.6-13.8,5.1-29,7.3-45.3h-92C696.6,648.8,699.1,664,701.8,677.8z"/>
			</g>
			<g>
				<g>
					<path class="st33" d="M701.8,677.8h38.3l0.1-45.3h-45.7C696.6,648.8,699.1,664,701.8,677.8z"/>
				</g>
			</g>
		</g>
	</g>
	<path class="st14" d="M695.1,698.4h102.8C797.9,698.4,738.8,651.8,695.1,698.4z"/>
</g>
</svg>
