<?xml version="1.0" encoding="utf-8"?>
<!-- Generator: Adobe Illustrator 16.0.0, SVG Export Plug-In . SVG Version: 6.00 Build 0)  -->
<!DOCTYPE svg PUBLIC "-//W3C//DTD SVG 1.1//EN" "http://www.w3.org/Graphics/SVG/1.1/DTD/svg11.dtd" [
	<!ENTITY ns_flows "http://ns.adobe.com/Flows/1.0/">
	<!ENTITY ns_extend "http://ns.adobe.com/Extensibility/1.0/">
	<!ENTITY ns_ai "http://ns.adobe.com/AdobeIllustrator/10.0/">
	<!ENTITY ns_graphs "http://ns.adobe.com/Graphs/1.0/">
]>
<svg version="1.1" xmlns:x="&ns_extend;" xmlns:i="&ns_ai;" xmlns:graph="&ns_graphs;"
	 xmlns="http://www.w3.org/2000/svg" xmlns:xlink="http://www.w3.org/1999/xlink" xmlns:a="http://ns.adobe.com/AdobeSVGViewerExtensions/3.0/"
	 x="0px" y="0px" width="1200px" height="800px" viewBox="0 0 1200 800" style="enable-background:new 0 0 1200 800;"
	 xml:space="preserve">
<style type="text/css">
<![CDATA[
	.st0{fill:#488427;}
	.st1{opacity:0.3;fill:#488427;adobe-blending-mode:multiply;}
	.st2{display:inline;fill:#4D472F;}
	.st3{fill:url(#SVGID_2_);stroke:#00418E;stroke-width:2;stroke-miterlimit:10;}
	.st4{display:inline;fill:#9D6F37;stroke:#9D6F37;stroke-miterlimit:10;}
	.st5{display:inline;fill:none;stroke:#D39613;stroke-width:2;stroke-linecap:round;stroke-linejoin:round;stroke-miterlimit:10;}
	.st6{fill:#4AAE42;}
	.st7{opacity:0.3;fill:#FFFEE2;}
	.st8{fill:none;stroke:#00418E;stroke-width:3;stroke-miterlimit:10;}
	.st9{fill-rule:evenodd;clip-rule:evenodd;fill:#776C4C;}
	.st10{fill:#4C3511;}
	.st11{opacity:0.3;fill:#4AAE42;adobe-blending-mode:multiply;}
	.st12{fill-rule:evenodd;clip-rule:evenodd;fill:#DCECC4;}
	.st13{adobe-knockout:true;}
	.st14{fill:#1A1A1A;}
	.st15{fill:#B58F6F;}
	.st16{fill:#7D501B;adobe-knockout:false;adobe-blending-mode:normal;}
	.st17{display:inline;fill:#F1D183;}
	.st18{fill:#91581F;adobe-knockout:false;adobe-blending-mode:normal;}
	.st19{opacity:0.3;adobe-knockout:true;adobe-blending-mode:multiply;}
	.st20{fill:#F8B375;}
	.st21{display:inline;fill:#614200;}
	.st22{fill:#C1282D;}
	.st23{opacity:0.2;fill:#FFFEE2;}
	.st24{display:inline;fill:#FFCA72;}
	.st25{fill:url(#SVGID_1_);}
	.st26{fill:#FCC698;}
	.st27{display:inline;fill:#9D6F37;}
	.st28{fill:#2F2635;}
	.st29{fill-rule:evenodd;clip-rule:evenodd;fill:#8ECEA2;}
	.st30{fill:#FEE232;}
	.st31{fill:#FFCA72;}
	.st32{fill:#FFCD03;}
	.st33{fill:#FFE400;}
	.st34{fill:#FFF5DF;}
	.st35{fill:#FFFEE2;}
	.st36{fill:#FFFFFF;}
	.st37{display:inline;fill:#CFA65F;}
	.st38{fill-rule:evenodd;clip-rule:evenodd;fill:#F5DA9A;}
	.st39{display:inline;}
	.st40{fill-rule:evenodd;clip-rule:evenodd;fill:#F8D992;}
	.st41{fill-rule:evenodd;clip-rule:evenodd;fill:#5F573C;}
	.st42{fill:#7D501B;adobe-knockout:false;}
	.st43{fill:#FDFEFF;stroke:#DFD7E1;stroke-width:2;stroke-miterlimit:10;}
	.st44{fill:#6A4E26;}
	.st45{fill-rule:evenodd;clip-rule:evenodd;fill:#FAA834;}
	.st46{fill-rule:evenodd;clip-rule:evenodd;fill:#998962;}
	.st47{fill:#00418E;}
	.st48{fill:#91581F;adobe-knockout:false;}
	.st49{fill-rule:evenodd;clip-rule:evenodd;fill:#FFE19F;}
	.st50{fill-rule:evenodd;clip-rule:evenodd;fill:#FFFFFF;}
	.st51{fill:url(#SVGID_3_);stroke:#00418E;stroke-width:2;stroke-miterlimit:10;}
	.st52{display:inline;fill:#DDC079;}
	.st53{display:none;}
	.st54{fill:#A36629;}
	.st55{fill:#412312;}
	.st56{fill:#C06915;stroke:#7E380E;stroke-miterlimit:10;}
	.st57{fill:none;stroke:#F05123;stroke-width:3;stroke-miterlimit:10;}
]]>
</style>
<g id="artboard2">
	<rect y="0" class="st45" width="1200" height="427.7"/>
	<g>
		<path class="st23" d="M-39.9,187.4c18.6,0,34.4,11.9,40.3,28.4c2.4-1.2,5.1-1.8,8-1.8c6.6,0,12.4,3.5,15.7,8.8
			c3.5-7,10.7-11.8,19-11.8c8.6,0,15.9,5.1,19.3,12.4c6.9-14.3,21.5-24.2,38.5-24.2c21.2,0,38.8,15.5,42.1,35.8
			c4.8-6.2,12.4-10.2,20.9-10.2c13.3,0,24.3,9.8,26.2,22.6c5.3-13.2,18.2-22.6,33.2-22.6c11.9,0,22.4,5.8,28.9,14.7
			c6.3-6,14.8-9.7,24.2-9.7c10.9,0,20.7,5,27.1,12.8c3.7-16.4,18.4-28.6,35.9-28.6c16,0,29.5,10.1,34.7,24.3
			c3.1-1.1,6.4-1.8,9.8-1.8c7.1,0,13.5,2.6,18.5,6.9c5.5-14.2,19.3-24.3,35.5-24.3c15.9,0,29.5,9.7,35.2,23.5
			c3.6-1.8,7.7-2.8,12-2.8c8,0,15.3,3.5,20.3,9c7-16.5,23.4-28.1,42.4-28.1c16.7,0,31.3,8.9,39.4,22.2c7.5-16,23.8-27,42.6-27
			c6.6,0,12.8,1.3,18.5,3.8c8.2-14.2,23.5-23.9,41.1-23.9c26,0,47,20.9,47.3,46.8c8.4-9.1,20.4-14.8,33.7-14.8
			c12.5,0,23.8,5,32.1,13.2c9.5-15.1,26.3-25.1,45.4-25.1c7.7,0,15,1.6,21.6,4.6c6.3-23.2,27.4-40.2,52.6-40.2
			c24.8,0,45.7,16.5,52.3,39.2c6.9-4.9,15.3-7.8,24.4-7.8c7.8,0,15.1,2.1,21.4,5.9c2-9.5,10.5-16.7,20.6-16.7c7.5,0,14,3.9,17.8,9.8
			c-0.1-0.8-0.1-1.5-0.1-2.3c0-12.8,10.4-23.2,23.2-23.2c4,0,7.7,1,10.9,2.7c-0.1-1-0.1-2-0.1-3c0-23.2,18.8-42,42-42
			c14.9,0,28.1,7.8,35.5,19.6c3.3-8.8,11.8-15.1,21.7-15.1c0,0,0.1,0,0.1,0v398.8H-57V191C-51.8,188.7-46,187.4-39.9,187.4z"/>
	</g>
	<rect y="417.4" class="st29" width="1200" height="382.6"/>
	<path class="st12" d="M1200,349.4v102.3c-151.5-1.3-451.4,21.4-696.2,1.3C353.4,440.7,170,436.1,0,446.8v-97.4H1200z"/>
	<path class="st50" d="M1200,498.2c-487.3,40.3-882.2-71.6-1200-5.8V800h1200V498.2z"/>
	<path class="st40" d="M598.4,702.6c-17.1,0-31.1-4.1-31.1-9.1c0-5,14-9,31.1-9s31.1,4.1,31.1,9
		C629.5,698.5,615.5,702.6,598.4,702.6z"/>
	<path class="st49" d="M371.5,611.1c-53.3,0-96.8-7.8-96.8-17.3s43.5-17.3,96.8-17.3c53.3,0,96.8,7.8,96.8,17.3
		S424.8,611.1,371.5,611.1z"/>
	<path class="st40" d="M831.3,599.5c-57.7,0-104.8-7.6-104.8-16.8c0-9.3,47.1-16.8,104.8-16.8c57.7,0,104.8,7.6,104.8,16.8
		C936,592,889,599.5,831.3,599.5z"/>
	<path class="st38" d="M887.9,641.1c-14.4,0-26.1-5.9-26.1-13.1c0-7.2,11.7-13.1,26.1-13.1c14.4,0,26.1,5.9,26.1,13.1
		C913.9,635.2,902.2,641.1,887.9,641.1z"/>
	<path class="st40" d="M747.1,675.3c-16.6,0-30.1-4-30.1-8.9s13.5-8.9,30.1-8.9s30.1,4,30.1,8.9S763.6,675.3,747.1,675.3z"/>
	<g class="st53">
		<g class="st39">
			<g class="st13">
				<path class="st48" d="M522.7,403.5c1.6,0.1,7.7,4.9,6.5,7.8c-1.2,2.8-5,3.7-6.9,3.4c-1.9-0.4-5.5-3.2-5-5.1
					S519.4,404,522.7,403.5z"/>
				<path class="st48" d="M515.6,407c1.6,0.1,9.5,5,8.4,7.9c-1.1,2.8-5.6,6.9-7.5,6.6c-1.9-0.3-7-3.2-6.5-5.1
					C510.6,414.4,512.3,407.6,515.6,407z"/>
				<path class="st48" d="M509.1,415c1.6,0,11.4,5.1,10.4,8c-1,2.9-6.2,10-8,9.7c-1.9-0.2-8.5-3.2-8.1-5.1
					C503.8,425.7,505.9,415.8,509.1,415z"/>
				<path class="st48" d="M499.5,425.2c1.6,0,13.2,5.2,12.3,8.1c-0.9,2.9-6.8,13.1-8.6,12.9c-1.9-0.2-10-3.3-9.6-5.2
					C493.9,439.1,496.2,426,499.5,425.2z"/>
				<path class="st48" d="M490.4,439.2c1.6-0.1,15,5.3,14.2,8.3c-0.8,2.9-7.3,16.2-9.2,16.1c-1.9-0.1-11.4-3.3-11.2-5.2
					C484.6,456.4,487.3,440.2,490.4,439.2z"/>
				<path class="st48" d="M481.1,455.5c1.6-0.2,16.8,5.4,16.2,8.4c-0.7,2.9-7.9,19.3-9.8,19.3c-1.9,0-12.9-3.4-12.7-5.3
					C475,475.9,478,456.6,481.1,455.5z"/>
				<path class="st48" d="M470.9,473.4c1.6-0.2,18.6,5.5,18.1,8.5c-0.6,3-8.5,22.5-10.3,22.5c-1.9,0-14.4-3.4-14.2-5.3
					C464.6,497.1,467.9,474.6,470.9,473.4z"/>
				<path class="st48" d="M462.9,496.7c1.6-0.3,20.5,5.6,20,8.6c-0.4,3-9,25.6-10.9,25.7c-1.9,0.1-15.9-3.4-15.8-5.4
					C456.3,523.7,459.8,498,462.9,496.7z"/>
				<path class="st48" d="M451.8,523.3c1.6-0.3,22.3,5.7,22,8.7c-0.3,3-9.6,28.7-11.5,28.9c-1.9,0.2-17.3-3.5-17.3-5.4
					C444.9,553.5,448.8,524.7,451.8,523.3z"/>
				<path class="st48" d="M442.3,551.2c1.6-0.4,24.1,5.8,23.9,8.9c-0.2,3-10.2,31.8-12,32.1c-1.9,0.3-18.8-3.5-18.9-5.5
					C435.2,584.7,439.3,552.8,442.3,551.2z"/>
				<path class="st48" d="M430.9,581.6c1.6-0.5,25.9,5.9,25.8,9c-0.1,3.1-10.7,34.9-12.6,35.2c-1.9,0.3-20.3-3.6-20.4-5.5
					C423.6,618.4,428,583.3,430.9,581.6z"/>
				<path class="st48" d="M420.7,616.1c1.6-0.5,27.8,6,27.7,9.1c0,3.1-11.3,38-13.2,38.4c-1.9,0.4-21.8-3.6-22-5.6
					C413.1,656.1,417.8,617.9,420.7,616.1z"/>
			</g>
			<g class="st19">
				<path class="st18" d="M527.6,406.9c1.3,1.4,2.2,3.1,1.6,4.3c-1.2,2.8-5,3.7-6.9,3.4c-0.4-0.1-0.9-0.3-1.5-0.6
					C522.8,411.5,525.1,409.1,527.6,406.9z"/>
				<path class="st18" d="M522.8,411.7c1,1.1,1.6,2.3,1.3,3.2c-1.1,2.8-5.6,6.9-7.5,6.6c-0.2,0-0.6-0.1-0.9-0.3
					C517.8,417.8,520.1,414.7,522.8,411.7z"/>
				<path class="st18" d="M517,419.2c1.7,1.3,2.9,2.8,2.5,3.9c-1,2.9-6.2,10-8,9.7c-0.4,0-1.1-0.2-1.8-0.5
					C511.8,427.7,514.2,423.3,517,419.2z"/>
				<path class="st18" d="M510.4,430.8c1,0.9,1.6,1.8,1.4,2.5c-0.8,2.8-6.2,12.1-8.3,12.9C505.7,441,507.9,435.8,510.4,430.8z"/>
				<path class="st18" d="M503.7,445.5c0.7,0.7,1.1,1.4,1,1.9c-0.8,2.9-7.3,16.2-9.2,16.1c0,0-0.1,0-0.1,0
					C498.4,457.8,501.1,451.6,503.7,445.5z"/>
				<path class="st18" d="M485.5,475.1c2.1-0.6,4.2-1.9,5.8-4.5c1.8-2.8,3.4-5.7,4.9-8.6c0.8,0.7,1.2,1.3,1.1,1.8
					c-0.7,2.9-7.9,19.3-9.8,19.3c-0.9,0-3.7-0.8-6.5-1.7C482.4,479.2,484,477.1,485.5,475.1z"/>
				<path class="st18" d="M483.6,477.7c3.2,1.5,5.6,3.1,5.4,4.2c-0.6,3-8.5,22.5-10.3,22.5c-1,0-5-1-8.5-2.2
					C473.2,493.5,478.3,484.9,483.6,477.7z"/>
				<path class="st18" d="M468.1,524.6c-2.1-7.8-0.3-16.8,3.3-25.6c5.6,1.9,11.8,4.6,11.5,6.3c-0.4,3-9,25.6-10.9,25.7
					c-0.6,0-2.2-0.3-4.2-0.7C468.5,528.6,468.7,526.6,468.1,524.6z"/>
				<path class="st18" d="M456.2,556.2c3.4-6.3,3.6-13,4.4-19.6c3.8-1.1,7.2-4.2,7.8-8.3c3.2,1.4,5.5,2.7,5.4,3.8
					c-0.3,3-9.6,28.7-11.5,28.9c-0.9,0.1-4.7-0.7-8.6-1.7C454.6,558.5,455.5,557.5,456.2,556.2z"/>
				<path class="st18" d="M449.9,560.9c2.5-0.4,4.7-1.9,6.3-4.7c0.2-0.4,0.4-0.8,0.6-1.2c5.1,1.8,9.5,3.7,9.4,5.1
					c-0.2,3-10.2,31.8-12,32.1c-0.9,0.1-5.4-0.7-9.8-1.8C446.2,580.8,447.2,570.4,449.9,560.9z"/>
				<path class="st18" d="M434.3,599c4.3,0,8.7-2.6,9.6-7.1c0.5-2.2,0.9-4.5,1.3-6.9c6,1.9,11.6,4.1,11.5,5.6
					c-0.1,3.1-10.7,34.9-12.6,35.2c-1,0.2-6.7-0.9-11.9-2.2C432.6,615.6,432.6,606.8,434.3,599z"/>
				<path class="st18" d="M423.9,659.2c0.9-5.4,0.6-12.9,1.1-19.6c3.3-0.7,6.1-3,6.6-6.7c0.6-4.5,0.8-9.3,0.9-14.3
					c7.6,2.1,16,4.9,16,6.7c0,3.1-11.3,38-13.2,38.4c-1,0.2-6.6-0.7-11.9-2C423.5,660.8,423.7,660,423.9,659.2z"/>
			</g>
			<path class="st6" d="M523.6,397.9c0,0-34.2-27.2-80.2-28.8l7.1,9.5c0,0-38.5-2.9-59.9,16.2c0,0,23.9,3.2,28.1,7
				c0,0-22.4,26.7-57.4,30.5c0,0,44.4,5.1,81.9-14.7c0,0-9.7,17.3-20.4,25.7c0,0,74.4-15.9,99.5-41.1c0,0-38.7-6.9-68.9,2.8
				C453.4,405,476.5,387.9,523.6,397.9z"/>
			<path class="st11" d="M409.2,419.8c12.1-2.4,23.4-7.2,35.3-10.2c2.1,3.7,6.3,6.3,11,4.8c11.2-3.5,24-11.5,36.1-9
				c7.7,1.6,14.9,3.5,22.4,3.7c-30.1,21.2-91.2,34.2-91.2,34.2c10.7-8.4,20.4-25.7,20.4-25.7c-37.4,19.8-81.9,14.7-81.9,14.7
				c12.2-1.3,22.8-5.4,31.5-10.1C398.3,421.6,403.8,420.9,409.2,419.8z"/>
			<path class="st6" d="M525.8,401.6c0,0,30.2-31.6,75.5-39.5l-5.7,10.4c0,0,37.7-8.2,61.6,7.8c0,0-23.3,6.5-26.9,10.8
				c0,0,25.9,23.4,61.1,22.3c0,0-43.3,11.1-83.1-3.4c0,0,12,15.8,23.7,22.7c0,0-75.9-5.5-104.2-27c0,0,37.4-12.1,68.6-6.7
				C596.3,399,571.1,385.1,525.8,401.6z"/>
			<path class="st11" d="M631.9,432.8c0,0-73.6-5.4-102.8-26.1c0.9,0.4,1.8,0.6,2.9,0.7c22.5,2.5,44.6,7.8,67.3,8.8
				c7.8,0.4,12.1-9.6,8.2-15.3c6,2.4,11.9,5,17.7,7.5c9,3.9,18.5,6.6,28,9c-13.7-0.1-29.6-1.8-45-7.4
				C608.2,410.1,620.1,425.9,631.9,432.8z"/>
			<path class="st6" d="M524.4,395.3c0,0-31.4-37.1-78.9-35c0,0,5-7.3,9-7.4c0,0-26.3-22-65.9-11.5c0,0,7.7-18.3,53.9-17.2
				c0,0-2.9-10.4-12.4-14.3c0,0,46.7-3.1,72.2,23.4c0,0,5.3-6.9,2.3-12.4c0,0,37.8,23.8,22.9,75.4c0,0,0-39.4-31.1-53
				C496.5,343.3,517.1,360.1,524.4,395.3z"/>
			<path class="st11" d="M421.7,331.8c13.6,0.1,26.2,4.2,38.9,8.7c1.2,0.4,2.3,0.6,3.3,0.6c23.5,7.9,45.9,20.5,57.4,42.7
				c1.2,3.6,2.2,7.5,3.1,11.6c0,0-31.4-37.1-78.9-35c0,0,5-7.3,9-7.4c0,0-26.3-22-65.9-11.5c0,0,0.4-1,1.7-2.6
				C400.8,336.9,411,331.8,421.7,331.8z"/>
			<path class="st6" d="M527.4,413.9c0,0,15.4,46.1-11.1,85.6c0,0,8.8-0.5,11-3.8c0,0,5.1,33.8-24.4,62.3c0,0,19.6,2.9,42.7-37.1
				c0,0,7.4,7.9,5.8,18c0,0,26.9-38.3,17.5-73.8c0,0,8.7-0.9,11.8,4.5c0,0-0.7-44.7-52.5-58.8c0,0,33.7,20.5,29.1,54.1
				C557.3,464.9,553.6,438.5,527.4,413.9z"/>
			<path class="st11" d="M527.3,495.7c-2.1,3.3-11,3.8-11,3.8c15.2-22.7,16.6-47.6,15-64.7c2.7,12.9,4,26,0.1,38.6
				c-2.3,7.2,3.9,12.2,9.9,12c2.7,14,2.7,30.5-1.3,44.4c-20.6,30.6-37.1,28.2-37.1,28.2C532.4,529.5,527.3,495.7,527.3,495.7z"/>
		</g>
		<g class="st39">
			<g>
				<g class="st13">
					<path class="st42" d="M272.1,245.8c-2.7,0.2-12.6,7.6-10.8,12.2c1.8,4.6,8,6.3,11,5.7c3-0.5,9.1-4.8,8.2-7.9
						C279.7,252.8,277.5,246.8,272.1,245.8z"/>
					<path class="st42" d="M283.4,251.8c-2.6,0.1-15.6,7.7-13.9,12.3c1.7,4.6,8.7,11.3,11.8,10.9c3-0.4,11.4-4.8,10.7-7.9
						C291.2,264.1,288.7,253,283.4,251.8z"/>
					<path class="st42" d="M293.5,265.1c-2.6,0-18.5,7.8-17,12.4c1.5,4.7,9.5,16.4,12.5,16.1c3-0.3,13.8-4.8,13.2-7.9
						C301.6,282.5,298.7,266.4,293.5,265.1z"/>
					<path class="st42" d="M308.6,281.8c-2.6-0.1-21.5,7.8-20.2,12.5c1.3,4.7,10.3,21.4,13.3,21.2c3-0.2,16.2-4.8,15.7-7.9
						C317,304.6,313.8,283.3,308.6,281.8z"/>
					<path class="st42" d="M322.5,304.9c-2.6-0.2-24.4,7.9-23.3,12.7c1.1,4.7,11.1,26.5,14.1,26.4c3-0.1,18.6-4.8,18.2-8
						C331.2,332.9,327.6,306.6,322.5,304.9z"/>
					<path class="st42" d="M336.9,331.5c-2.6-0.3-27.4,8-26.4,12.8c0.9,4.8,11.9,31.5,14.9,31.6c3,0,21-4.8,20.7-8
						C345.8,364.8,341.8,333.4,336.9,331.5z"/>
					<path class="st42" d="M352.4,360.8c-2.6-0.4-30.3,8.1-29.5,12.9c0.8,4.8,12.6,36.6,15.6,36.7c3,0.2,23.3-4.8,23.2-8
						C361.6,399.3,357.3,362.9,352.4,360.8z"/>
					<path class="st42" d="M364.4,398.8c-2.5-0.5-33.2,8.2-32.7,13c0.6,4.8,13.4,41.6,16.4,41.9c3,0.3,25.7-4.8,25.7-8
						C373.8,442.5,369.2,401,364.4,398.8z"/>
					<path class="st42" d="M381,442.2c-2.5-0.6-36.2,8.2-35.8,13.1c0.4,4.9,14.2,46.7,17.2,47.1c3,0.4,28.1-4.8,28.2-8
						C390.8,491.2,385.8,444.6,381,442.2z"/>
					<path class="st42" d="M395.1,487.6c-2.5-0.7-39.1,8.3-38.9,13.2c0.2,4.9,15,51.7,18,52.2c3,0.5,30.5-4.8,30.7-8
						C405,541.9,399.8,490.2,395.1,487.6z"/>
					<path class="st42" d="M412,537.1c-2.5-0.8-42.1,8.4-42,13.3c0,4.9,15.7,56.8,18.7,57.4c3,0.6,32.9-4.8,33.2-8
						C422.3,596.7,416.6,539.9,412,537.1z"/>
					<path class="st42" d="M426.9,593.2c-2.5-0.9-45,8.5-45.1,13.4c-0.1,5,16.5,61.8,19.5,62.5c3,0.7,35.2-4.8,35.7-8
						C437.5,658,431.5,596.2,426.9,593.2z"/>
				</g>
				<g class="st19">
					<path class="st16" d="M280.3,255.2c-0.9-3.2-3.2-8.5-8.2-9.4c-0.4,0-1.1,0.3-1.8,0.6c0.2,1,0.5,1.9,0.8,2.7
						C274.4,251,277.5,253,280.3,255.2z"/>
					<path class="st16" d="M291.9,268.1c0.1-0.3,0.1-0.7,0.1-1c-0.7-3.1-3.3-14.2-8.6-15.3c-0.8,0-2.7,0.8-4.8,2
						C283.8,257.7,288.3,262.3,291.9,268.1z"/>
					<path class="st16" d="M296,276.2c1.8,4.5,2.8,8.8,3.2,13.1c1.9-1.3,3.3-2.6,3-3.7c-0.6-3.1-3.5-19.2-8.7-20.6
						c-0.5,0-1.6,0.3-3,0.9C292.6,269,294.5,272.4,296,276.2z"/>
					<path class="st16" d="M299.4,295.1c0.5,0.4,1,0.7,1.5,1c7.2,4.4,11.5,9,14,14.6c1.7-1.1,2.8-2.1,2.7-3.1
						c-0.5-3.1-3.7-24.3-8.9-25.8c-1.2-0.1-5.6,1.5-10,3.7C299.2,288.7,299.4,291.9,299.4,295.1z"/>
					<path class="st16" d="M318.2,331.5c0,3.5,2.1,6.7,4.8,9.9c4.5-1.6,8.7-3.7,8.5-5.4c-0.4-3.1-3.9-29.4-9-31.1
						c-1-0.1-4.9,1.1-9.3,2.9C317.1,314.1,318.1,321.6,318.2,331.5z"/>
					<path class="st16" d="M334.4,354.4c3,5.4,5.5,10.9,7.6,16.7c2.4-1.1,4.1-2.2,4-3.2c-0.2-3.1-4.2-34.5-9.2-36.4
						c-1.5-0.2-10,2.4-17,5.5C323.3,343.2,331.2,348.8,334.4,354.4z"/>
					<path class="st16" d="M345.7,382.6c2.2,8.3,4,16.7,5.8,25c5.4-1.6,10.3-3.6,10.2-5.1c-0.1-3.1-4.4-39.6-9.3-41.6
						c-1.1-0.2-7,1.3-13.2,3.5C341.8,370.2,344,376.3,345.7,382.6z"/>
					<path class="st16" d="M352.7,412.9c0.9,4.2,0.3,8.3,2.3,12.2c1.9,3.9,4.7,8.4,5.5,12.7c0.8,4,0.5,9.2,2.7,12.7
						c5.7-1.6,10.7-3.5,10.7-5c0-3.1-4.6-44.7-9.5-46.9c-1.1-0.2-7.3,1.2-14.1,3.4C351.1,405.7,351.9,409.3,352.7,412.9z"/>
					<path class="st16" d="M363.1,450.7c2.1,3.3,5.5,6.4,7.1,10c3,6.8,1.7,12.1,0.3,19.2c-1.2,6.2,0.1,2.1,4.7,3.5
						c2.8,0.9,6,2,7.9,4.3c2.4,2.9,3.6,5.8,4.2,9c2-0.8,3.4-1.7,3.4-2.4c0.1-3.1-4.8-49.7-9.6-52.2c-1.3-0.3-10.6,1.8-19.4,4.6
						C362,448.2,362.4,449.6,363.1,450.7z"/>
					<path class="st16" d="M387.4,504.3c-0.9,8.1-3.7,13,2.6,19.1c4.2,4.1,4.8,12.9,3.3,18.3c-0.5,1.9,1.2,4.4,3.6,7.1
						c4.5-1.3,7.8-2.6,7.9-3.7c0.2-3.1-5.1-54.8-9.8-57.4c-0.8-0.2-5.2,0.6-10.7,1.9C387.4,494,388,498.5,387.4,504.3z"/>
					<path class="st16" d="M412,537.1c-1.1-0.4-9.5,1.2-18.5,3.6c-0.1,0.3-0.1,0.7-0.2,1c-1.3,4.5,10.7,12.8,12.6,18.2
						c1.7,4.8,2.1,9,1.4,13.2c4.2,1.9,7.9,4.9,8.9,9.7c1.3,6.9-0.9,13.1-0.5,19.9c0,0.1,0,0.2,0,0.3c3.6-1.1,6.1-2.2,6.2-3.1
						C422.3,596.7,416.6,539.9,412,537.1z"/>
					<path class="st16" d="M426.9,593.2c-0.8-0.3-5.1,0.4-10.8,1.6c-0.3,2.6-0.5,5.2-0.4,7.9c0.5,9,4.6,16.7,3.6,26.1
						c-1,9.8-1.2,19.5-5,28.7c-3.1,7.7-13.2,6.4-14.1-1.9c-0.2-1.7-0.3-3.4-0.4-5.1c0-0.1-0.1-0.1-0.1-0.2c-0.7-1.3-1.3-2.6-2-3.9
						c0,0.1,0,0.1,0,0.2c-0.3,2.4-1.6,4.3-3.3,5.6c3.1,9.5,5.9,16.8,7,17.1c3,0.7,35.2-4.8,35.7-8
						C437.5,658,431.5,596.2,426.9,593.2z"/>
				</g>
			</g>
			<g>
				<path class="st0" d="M270.9,236.8c0,0,56.4-42.3,130.5-42.8l-11.9,15c0,0,62.1-3,95.9,28.8c0,0-38.7,4.1-45.6,10.1
					c0,0,34.9,44,91.2,51.7c0,0-71.9,6.2-131.3-27.4c0,0,14.8,28.4,31.7,42.4c0,0-119.3-29-158.5-70.7c0,0,62.6-9.3,111,7.5
					C383.8,251.5,347.4,222.7,270.9,236.8z"/>
				<path class="st1" d="M470,275c-16.9-1.6-33.6-4.4-50.5-6.8c-4.1-0.6-16.1-2.2-17.8-2.5c-0.6-0.1-1.3-0.2-1.9-0.3
					c-10.7,10.9-27.4,16.4-42.3,11.7c-20.7-6.6-41.4-12.6-62.9-15.8c49.9,32.1,136.8,53.2,136.8,53.2c-16.8-14-31.7-42.4-31.7-42.4
					c59.4,33.6,131.3,27.4,131.3,27.4C506.1,296.2,485.3,285.7,470,275z"/>
			</g>
			<g>
				<path class="st0" d="M267.3,242.6c0,0-47.2-52.3-119.8-67.1l8.8,17c0,0-60.4-14.9-99.6,9.8c0,0,37.2,11.5,42.8,18.6
					c0,0-42.7,36.5-99.4,33.2c0,0,69.3,19.9,134.1-1.7c0,0-20,25-39.2,35.5c0,0,122.6-5.5,169.2-38.9c0,0-59.7-21.2-110.3-13.9
					C153.7,235.3,195,214.1,267.3,242.6z"/>
				<path class="st1" d="M130.9,253.6c-3.1-3.2-5.7-6.9-7.6-11.2c-8.7,2.7-17.4,5.4-26.2,7.9c-17.8,5.1-35.6,9.2-53.4,11.3
					C68.1,263.7,99.9,263.2,130.9,253.6z"/>
				<path class="st1" d="M245.7,252.7c-1.7,0.2-2.8,0.3-3.5,0.3c-0.4,0.1-0.9,0.1-1.5,0.2c-2.8,0.4-5.6,0.9-8.5,1.3
					c-7.2,1.2-14.3,2.5-21.4,3.9c-12.4,2.4-24.8,5-37.3,7.3c-15.4,2.9-30.9-0.9-41.4-10.9c-5.5,6.4-21.6,24.6-37.3,33.2
					c0,0,122.6-5.5,169.2-38.9c0,0-0.6-0.2-1.8-0.6C257.1,250.7,251.5,252.1,245.7,252.7z"/>
			</g>
			<g>
				<path class="st0" d="M269.8,232.6c0,0,52.2-58.4,128.7-52.9c0,0-7.8-12-14.1-12.3c0,0,43.3-34.2,106.7-15.5
					c0,0-11.6-29.8-86.1-30.2c0,0,5.2-16.6,20.6-22.5c0,0-75.2-7-117.4,34.5c0,0-8.2-11.4-3.2-20.2c0,0-62,36.6-40.4,120.5
					c0,0,1.8-63.5,52.5-84C317.2,150,283.2,176.2,269.8,232.6z"/>
				<path class="st1" d="M470.2,136.1c-1.5-0.2-2.5-0.4-3.2-0.6c-0.5,0-1-0.1-1.6-0.1c-8.5-0.8-17-1.1-25.5-1
					c-8.2,0.1-16.4,0.2-24.6,0.3c-5.7,8.1-14,14.2-23.8,16.6c-7,1.7-13.9,3.5-20.7,5.9c-3,1-5.9,2.1-8.9,3.2
					c-0.2,0.1-1.4,0.7-3.7,1.7c-11.1,5.4-21.9,11.4-32.1,18.4c-3.4,2.3-6.8,4.7-10.1,7.2c-1,0.7-1.7,1.3-2.3,1.7
					c-3.9,3.2-7.8,6.4-11.7,9.8c-9.7,8.6-19,17.5-28.2,26.6c-1,1-2.1,2-3.2,2.9c-0.3,1.3-0.7,2.6-1,3.9c0,0,52.2-58.4,128.7-52.9
					c0,0-7.8-12-14.1-12.3c0,0,43.3-34.2,106.7-15.5c0,0-2.8-7.2-14.5-14.5C474.5,136.9,472.3,136.5,470.2,136.1z"/>
			</g>
			<g>
				<path class="st0" d="M264.2,262.5c0,0-26.9,73.6,14,138.5c0,0-14.2-1.2-17.5-6.7c0,0-9.8,54.3,36.6,101.5
					c0,0-31.8,3.8-67.2-61.7c0,0-12.2,12.4-10.2,28.8c0,0-41.6-63-24.9-119.8c0,0-13.9-1.8-19.3,6.7c0,0,3.1-72,87.3-92.4
					c0,0-55.2,31.5-49.4,85.9C213.6,343.2,220.7,300.9,264.2,262.5z"/>
				<path class="st1" d="M247.7,290.9c-0.6,1-1.3,2.6-1.8,3.7c-1.1,3.5-2.1,7.1-2.8,10.7c-0.3,1.4-0.7,5.1-0.9,6
					c-0.1,1.3-0.2,2.5-0.3,3.8c-0.3,5.2-0.5,10.4-0.5,15.7c0.1,9.6,0.6,19.1,1.6,28.6c0.3,1.8,1.5,9.7,1.9,11.9
					c0.7,3.6,1.5,7.1,2.4,10.7c4,15.4-0.4,28.7-8.9,38.3c2.1,4.4,4.3,8.8,6.7,13.1c9,16.1,17.1,32.6,26,48.7c1.1,2,2.2,4,3.3,5.9
					c13.8,8.9,22.8,7.8,22.8,7.8c-46.4-47.2-36.6-101.5-36.6-101.5c3.3,5.4,17.5,6.7,17.5,6.7c-40.9-64.9-14-138.5-14-138.5
					c-2.1,1.9-4.1,3.8-6.1,5.7C256.8,276.3,253.2,284.2,247.7,290.9z"/>
			</g>
		</g>
		<path class="st52" d="M429.6,671.1c-31.5-74.4-90.4-8.8-90.4-8.8L429.6,671.1z"/>
		<path class="st17" d="M491.1,661c-80.6-58.6-127.2,23.5-127.2,23.5L491.1,661z"/>
	</g>
	<path class="st34" d="M491.6,348.8h-34.7c0,0,21.7,9.8,43.1,9.8s-43.1,7.5-43.1,7.5s89.1,1.2,92.2,6.2c3.1,5-76.3,3.7-76.3,7.5
		c0,3.7,83.7,2.5,80.6,6.2c-3.1,3.7-56.3,1.2-56.3,5s130-2.6,121.5,4.9c-8.4,7.5-114,6.9-108,10.3c6.1,3.4,131.6,8.4,140.8,8.4
		c9.2,0-117.5,6.2-117.7,13.7c-0.2,7.5,75.7,10,75.7,10s-62.5-2.6-60.3,3c2.2,5.6,152.4,0.6,148.3,0c-4.1-0.6-71.6-6.8-64.9-9.3
		c6.6-2.5,102.9,1.2,104.8-8.7c1.9-10-98.4,0-98.4,0s70.7-7.5,70.1-11.2c-0.6-3.7-55.4-5.9-55.4-5.9s77.2-3.1,80-9.8
		c2.8-6.7-63.7-10.4-63.7-10.4s60.9-5,78.6-8.7s-82.3-21.2-82.3-21.2l107.5-7.3H491.6z"/>
	<path class="st35" d="M941.6,407.6c0,0.4-6.2,0.8-13.8,0.8c-7.6,0-13.8-0.3-13.8-0.8c0-0.4,6.2-0.8,13.8-0.8
		C935.4,406.8,941.6,407.1,941.6,407.6"/>
	<g>
		<ellipse class="st35" cx="886.2" cy="377.9" rx="23.1" ry="1.3"/>
		<ellipse class="st35" cx="812.6" cy="372.4" rx="13.5" ry="0.8"/>
		<ellipse class="st35" cx="789.6" cy="383.6" rx="23.1" ry="1.3"/>
		<ellipse class="st35" cx="836" cy="391" rx="13.8" ry="0.8"/>
		<ellipse class="st35" cx="756" cy="398.1" rx="13.8" ry="0.8"/>
		<ellipse class="st35" cx="906.5" cy="391.8" rx="13.8" ry="0.8"/>
		<ellipse class="st35" cx="852.7" cy="365.2" rx="13.8" ry="0.8"/>
		<ellipse class="st35" cx="846.9" cy="398.1" rx="13.8" ry="0.8"/>
	</g>
	<ellipse class="st35" cx="181.5" cy="409.7" rx="13.8" ry="0.8"/>
	<g>
		<ellipse class="st35" cx="382.2" cy="376" rx="23.1" ry="1.3"/>
		<ellipse class="st35" cx="308.6" cy="370.5" rx="13.5" ry="0.8"/>
		<ellipse class="st35" cx="285.6" cy="381.7" rx="23.1" ry="1.3"/>
		<ellipse class="st35" cx="332" cy="389.1" rx="13.8" ry="0.8"/>
		<ellipse class="st35" cx="252" cy="396.2" rx="13.8" ry="0.8"/>
		<ellipse class="st35" cx="402.5" cy="389.9" rx="13.8" ry="0.8"/>
		<ellipse class="st35" cx="348.7" cy="363.4" rx="13.8" ry="0.8"/>
		<ellipse class="st35" cx="342.9" cy="396.2" rx="13.8" ry="0.8"/>
	</g>
	<path class="st7" d="M1137.6,0.2c6.9,27-1297.2,70.2-1297.8,36.4C-160.8,2.7,1130.7-26.8,1137.6,0.2z"/>
	<path class="st7" d="M1253.7,108c6.6,21.1-1311.9,39.4-1312,13.1C-58.3,94.8,1247.2,86.9,1253.7,108z"/>
	<path class="st32" d="M457.8,349c0-86.6,70.2-156.9,156.9-156.9c86.6,0,156.9,70.2,156.9,156.9H457.8z"/>
	<path class="st7" d="M1262.4,194.7c0,0-404.6-12.3-434.3,0c-29.7,12.3,162.6,9.9,162.7,22.2s-836.7,11-822,25.8
		c14.7,14.8,774.5,3.9,810,10c35.5,6.2-320.7,12.1-323.2,21.6s550.9,24.5,546.3-17.9c-1.9-17.5-170-4.9-168.9-19.6
		c1.1-14.7,228.7,9.6,246-15.1C1296.2,197,1330.2,196.5,1262.4,194.7z"/>
	<path class="st7" d="M627.5,303.5c3.2,21.1-637.7,39.4-637.7,13.1C-10.3,290.3,624.3,282.5,627.5,303.5z"/>
	<g>
		<g>
			<path class="st36" d="M617.3,96.9c0.8,1.4,1,3.7,1.7,5.4c-0.3,0.2-0.6,0.3-0.9,0.4c-0.5,0.2-1.4,0.6-2,0.6c-0.1,0-0.1,0.1,0,0.1
				c0.1,0,0.1,0.1,0.2,0.1c0.2,1.2,1.2,2,1.9,2.9c0.2,0.2,0.5,0.2,0.7,0.2c1.8-0.4,3.5-1.5,5.3-1.9c1.6-0.3,3.3-0.2,4.8-0.8
				c0.5-0.2,1-0.4,1.5-0.7c0.7-0.1,1.4-0.3,2-0.6c1-0.5,1.9-1.3,2.9-1.9c1.4-0.7,3.1-1.6,4.8-2.1c0.5,0,0.9-0.1,1.4-0.1
				c1,0,2.1,0.1,3.1,0.2c0.7,0.1,1.5,0.2,2.2,0.4c0.8,0.3,1.6,0.7,2.4,1.2c0,0,0,0,0,0c0.5,0.4,0.9,0.7,1.7,0.8
				c0.1,0,0.1-0.1,0.1-0.1c-1-0.9-1.5-2.1-2.6-2.9c-1-0.8-2.2-1.4-3.3-1.8c-2.7-1.1-5.5-2-8.4-1.9c-2.9,0.1-5.9,0.8-8.4,2.4
				c-1.2,0.7-2.5,1.7-3.4,2.8c-0.2-1-0.4-1.9-0.8-2.9c-1-2.2-2.5-4.4-4.5-5.8c-2.1-1.4-4.4-2.2-6.8-2.6c-1.9-0.4-5.1-1.1-6.7,0.1
				c0,0,0,0,0,0.1c0.1,0.1,0.2,0.1,0.3,0.2c0,0.1,0.1,0.2,0.2,0.2C610.5,90.3,615.3,93.2,617.3,96.9z M622.2,101.2
				c0.1,0.2,0.1,0.3,0.2,0.5c0,0,0,0,0,0C622.3,101.6,622.2,101.4,622.2,101.2z M622.7,102.9C622.7,102.9,622.7,102.9,622.7,102.9
				L622.7,102.9C622.7,102.9,622.7,102.9,622.7,102.9z M622.9,103.1C622.9,103.1,622.8,103.1,622.9,103.1
				C622.8,103.1,622.8,103,622.9,103.1C622.8,103,622.8,103,622.9,103.1C622.8,103,622.8,103.1,622.9,103.1z"/>
			<path class="st36" d="M674.4,168.8c0.1,0,0.2-0.1,0.2-0.2c0.1-0.1,0.3-0.1,0.4-0.2c0,0,0,0,0-0.1c-1.9-1.4-5.6-0.8-7.8-0.4
				c-2.8,0.4-5.6,1.3-8,2.8c-2.4,1.5-4.2,4-5.5,6.5c-0.5,1.1-0.8,2.1-1,3.3c-1.1-1.3-2.5-2.4-3.9-3.3c-2.8-1.9-6.2-2.9-9.6-3.1
				c-3.4-0.2-6.7,0.7-9.8,1.9c-1.4,0.5-2.7,1.1-3.9,2c-1.2,1-1.9,2.3-3.1,3.3c-0.1,0,0,0.1,0.1,0.1c0.8-0.1,1.3-0.4,1.9-0.9
				c0,0,0,0,0,0c0.9-0.5,1.9-0.9,2.8-1.3c0.8-0.2,1.7-0.3,2.5-0.4c1.1-0.1,2.3-0.2,3.5-0.2c0.5,0,1.1,0.1,1.6,0.1
				c1.9,0.6,3.8,1.7,5.5,2.6c1.2,0.6,2.1,1.6,3.3,2.2c0.7,0.4,1.5,0.6,2.3,0.8c0.6,0.3,1.2,0.6,1.7,0.8c1.7,0.7,3.8,0.7,5.6,1.1
				c2.1,0.5,3.9,1.8,6,2.4c0.3,0.1,0.6,0,0.8-0.2c0.8-1,2.1-1.9,2.3-3.2c0.1,0,0.1-0.1,0.2-0.1c0.1,0,0-0.1,0-0.1
				c-0.7,0-1.7-0.5-2.3-0.8c-0.3-0.2-0.7-0.3-1-0.5c1-1.9,1.3-4.6,2.2-6.2C664.1,173.2,669.8,170,674.4,168.8z M655.7,182.8
				C655.7,182.8,655.7,182.8,655.7,182.8c0-0.2,0.1-0.4,0.2-0.6C655.9,182.4,655.8,182.6,655.7,182.8z M655.2,184.1L655.2,184.1
				C655.2,184.1,655.3,184.1,655.2,184.1C655.3,184.1,655.2,184.1,655.2,184.1z M655.1,184.2C655.1,184.2,655.1,184.2,655.1,184.2
				C655.1,184.3,655.1,184.3,655.1,184.2C655.1,184.3,655.1,184.3,655.1,184.2C655.1,184.3,655.1,184.3,655.1,184.2z"/>
			<path class="st36" d="M582,239.5c-1.6-0.6-2.9-1.4-4.1-2.4c-0.5-0.3-1-0.6-1.4-1.1c-0.2-0.2,0-0.5,0.3-0.4
				c2.5,0.6,5.2,0.8,7.7,1.6c2.2,0.7,3.7,2.4,4.9,4.3c1.4,2.1,2.2,4.8,3.9,6.8c0.5,0.6,2.5-0.2,3.2-0.1c0.4,0.1,0.8,0.2,1.2,0.4
				c0,0,0,0,0.1,0c0.2-0.1,0.4-0.1,0.5-0.2c1-0.5,1.6-1.5,2.2-2.4c0.6-0.9,1.3-1.6,2.4-1.8c0.8-0.2,1.6-0.1,2.3-0.1
				c1.3,0,2.6-0.1,3.9-0.3c2.2-0.4,4.3-1.1,6.3-2c0.1,0,0.2,0,0.1,0.1c-0.4,0.6-0.9,1-1.5,1.4c-1.6,2.1-4.8,3.6-7.2,3.9
				c-0.8,0.1-2-0.1-2.7,0.6c-0.6,0.6-1.1,1.1-1.7,1.6c-0.4,0.3-0.8,0.5-1.2,0.7c-0.5,0.6-1.1,1-2,1.4c-0.5,0.6-1.1,1.2-1.5,1.9
				c-0.7,1.2-1.3,2.3-2.7,2.7c-1.9,0.5-2.7-1.1-2.8-2.7c-1.6-0.9-3-1.9-4-3.4c-1.4-1.9-1.3-4.5-1.6-6.7
				C586.1,240.4,584.1,240.3,582,239.5z"/>
			<path class="st36" d="M564.8,139.8c-3.7,2-5.8,5.3-8.1,8.6c-0.2,0.2-0.3,0.6-0.5,0.9c-3.6-4.1-9.5-5-15.2-4.6
				c-8.7,0.5-15.5,7.8-19.2,15.1c-0.2,0.3,0.2,0.7,0.5,0.4c3.2-3.2,6.7-6.5,10.8-8.2c0.1,0.1,0.3,0.1,0.4,0.1
				c3.9,0.4,7.2,0.1,11,1.4c2.9,1,5.7,2.4,8.5,3.6c0,1,0.6,1.6,1.5,2c3.4,1.4,5.9-4.5,6.8-6.8c1.6-3.8,5-6.7,8.8-8.2
				c2-0.8,4.4-0.9,6.5-1.2c3.3-0.4,5.9,1.1,9,1.6c0.5,0.1,0.8-0.3,0.6-0.7C582.7,135.6,571.3,136.3,564.8,139.8z"/>
		</g>
	</g>
	<path class="st46" d="M1200.8,502.6c-417.1,43.4-820.6-49.1-1200,0v298.2h1200V502.6z"/>
	<path class="st9" d="M0.8,629.7v171h1200V560.9c-506.4-44-673,84-802.1,64.3C269.6,605.5,108.3,597.6,0.8,629.7z"/>
	<path class="st41" d="M0.8,655.2v145.5h1200V688.1c-168.4-46.6-461.3-5.7-594.7,14.7C472.6,723.1,232,632.1,0.8,655.2z"/>
</g>
<g id="avatar" class="st53">
	<ellipse class="st2" cx="227.8" cy="680" rx="52.5" ry="22.1"/>
	<g id="caucasic" class="st39">
		<g id="body_4_">
			
				<linearGradient id="SVGID_1_" gradientUnits="userSpaceOnUse" x1="138.9385" y1="349.062" x2="138.9385" y2="349.062" gradientTransform="matrix(1 0 0 1 49.8896 37.7188)">
				<stop  offset="0" style="stop-color:#378840"/>
				<stop  offset="1" style="stop-color:#6BBD45"/>
				<a:midPointStop  offset="0" style="stop-color:#378840"/>
				<a:midPointStop  offset="0.5" style="stop-color:#378840"/>
				<a:midPointStop  offset="1" style="stop-color:#6BBD45"/>
			</linearGradient>
			<path class="st25" d="M188.8,386.8"/>
			<path class="st20" d="M216.5,262.3c-8.1-2.6-20.8-15.7-24.2-29.9c-3.4-14.3,8.3,1.2,8.3,1.2l11.9,11.1c0,0,3.2,4.4,3.8,4.4
				c0.3,0,4.1,2.8,7.2,5.1l1.1,3.8c0,0-0.3,2.1-0.4,4.7C222.6,263.3,220.1,263.5,216.5,262.3z"/>
			<path class="st26" d="M280.7,404.1c0-0.1,0-0.1,0-0.2c6-13.2,14.3-31.7,13.7-33c-1-2.2-11.5-33.1-15.5-44s-14.7-39.2-23.2-45.2
				c-7.8-5.4-20.4-4.1-26.4-6.6c-0.6-0.2-1.1-0.5-1.5-0.8c-3.1-2.1-3.6-7.7-3.5-11.7c-1.6,0.6-4.1,0.8-7.8-0.4
				c-7.6-2.4-19.3-14.1-23.5-27.4c13.9,24.5,35.8,24.9,35.8,24.9c21.6-7.1,29.5-32.5,29.3-40.2c-0.2-7.7,0.8-20-0.4-27.9
				c-1.2-7.9-6.9-20.2-6.9-20.2s-18.4-24.8-55.3-12.9c-36.9,12-26.1,56.9-16.7,67.8c0,0,0.8,3.7,10.6,7.3c1.9,5.1,4,12.3,5.1,21.4
				c0.8,6.1-0.3,11-2.4,14.8c-4.5,8.3-13.5,12.1-19,14.3c-8,3.3-13.7,14.3-16.6,21.7c-3,7.4-11.9,22.9-18.1,43.4
				c-6.2,20.5-5.4,28.5-0.9,36.3c3,5.2,18.9,18.9,29.1,27.4c5,4.2,8.7,7.1,8.7,7.1l9.5-11.9c0,0-5.3-4.9-8.9-8.2
				c-0.7-0.6-1.3-1.2-1.8-1.6c-9.5-8.8-20.8-27.3-20.8-27.3c4.8-17.8,26.5-53.2,26.5-53.2c5.1,2.2,21.1,34.2,26,52.8
				c1.1,4.1,1.6,7.6,1.4,10c-0.7,6.2-6.7,14.9-12.5,25.2c-6.2,10.9-12.4,25.1-12.2,44.4c0.3,37.5,23.8,99.3,24.7,105.2
				c0.9,5.9-3.6,15.2-4.5,31.8c-0.9,16.6,2.4,31.5,3.6,48.5c0,0,4.8,31.6,4.1,34.1c-0.8,3.2-10.6,16.9-8.8,22.7
				c1.2,3.8,6.6,4.7,16.6,4.9c0,0,19.6-1.9,15.1-14.5c0,0-0.5-8.2-0.5-9c1.7,0.4,1.5,9.1,3.1,9.3c4.9,0.6,11.1,3.9,19.2,4.3
				c8.2,0.4,17.6-1,15.2-5.7c-2.6-5.2-21.2-11.8-23.2-17c-8.1-13.9-7.3-71.6,10.5-127.2c17.8-55.6,17.4-105.2,9.3-128l-0.6-2.1
				l5.1,13.9C271.3,421.3,277.4,411.5,280.7,404.1z M258.3,372c0-0.4,0-0.8,0-1.3c0.4-8.1,5.6-27.7,5.6-27.7l13.1,29.7
				c0,0-6,17.5-8.4,22.5l0,0c-0.8,2.1-2.8,6.6-3.5,8C259,385.4,258,378.9,258.3,372z"/>
			<path class="st15" d="M230.8,661.6c-2.5-8.1-5.1-44.2-5.1-44.2c2.7-35.7,12.8-84.4,13.4-116.8c0.6-32.4-1.8-52.2-1.8-52.2
				s5.6,28.4,3.6,57.5c-1.5,22.6-11,87.4-12.2,100.8c-1.2,13.4-2.1,44.9,5.9,55.3l-1.1,11.5l-1.5-0.7L230.8,661.6z"/>
			<path class="st20" d="M190.1,212.2c-2.8-11.7-16.1-17.4-15.3-4c0.8,13.5,12.1,17.2,12.1,17.2"/>
			<path class="st54" d="M181.3,207.4c0,0,5.8,2.8,5.7,10.1C186.9,217.5,184.1,209.4,181.3,207.4z"/>
			<path class="st15" d="M218.3,697.7c-10.1-0.2-15.8-1.1-17.1-5.3c-1.3-4.2,3-12,6.2-17.7c1.3-2.3,2.4-4.3,2.6-5.2
				c0.4-1.7-2.2-21.2-4.2-33.9c-0.4-5.9-1.1-11.6-1.7-17.1c-1.2-10.6-2.4-20.6-1.8-31.5c0.5-8.8,1.9-15.5,3.1-20.8
				c1-4.7,1.8-8.2,1.4-10.9c-0.2-1.3-1.6-5.7-3.6-11.8c-6.8-21-20.9-64.6-21.1-93.5c-0.1-8.5,1.2-17.3,3.8-25.6l-10.7-4.1
				c-1.3-1.1-32.7-28-37.8-34.5c-5.6-7.2-5.4-16.1,0.8-36.7c4.4-14.6,10.1-26.4,14.3-35.1c1.7-3.5,3-6.2,3.9-8.4
				c2.7-6.7,8.5-18.5,16.9-22c5.4-2.2,14.4-5.8,18.8-14.1c2.2-4.2,3-9.1,2.3-14.6c-0.9-7.5-2.6-14.6-5-21.1
				c-8.9-3.3-10.5-6.7-10.7-7.4c-6.2-7.4-12-27.5-7.4-43.9c3.4-12,11.8-20.5,24.4-24.6c36.8-11.9,55.6,12.8,55.8,13
				c0.1,0.2,5.8,12.5,7,20.4c0.8,5.3,0.6,12.5,0.5,18.8c-0.1,3.4-0.1,6.5-0.1,9.2c0.2,8.7-8.2,33.6-29.6,40.6
				c-0.6,0.4-3.6,1.6-14.4-3.8l0.4-0.8c10.9,5.5,13.5,3.8,13.5,3.8l0.1-0.1c22.3-7.4,29.2-33.5,29-39.8c-0.1-2.7,0-5.8,0.1-9.2
				c0.1-6.3,0.3-13.5-0.5-18.7c-1.2-7.8-6.8-19.9-6.9-20c-0.1-0.2-18.6-24.3-54.7-12.6c-12.5,4-20.5,12.1-23.8,24
				c-4.5,16.1,1.2,36,7.3,43.1l0.1,0.1v0.1c0,0,0.9,3.5,10.4,6.9l0.2,0.1l0.1,0.2c2.5,6.6,4.2,13.9,5.1,21.5
				c0.7,5.7-0.1,10.8-2.4,15.1c-4.6,8.5-13.7,12.3-19.2,14.5c-8.1,3.3-13.8,14.9-16.4,21.5c-0.9,2.2-2.2,4.9-3.9,8.4
				c-4.1,8.6-9.8,20.4-14.2,34.9c-6.1,20.2-6.4,28.9-1,35.9c5,6.4,36.1,33,37.6,34.4l11.2,4.3l10.6,5.3l1-0.8l-12.7-9.1l7.1,0.6
				l11.7,5.3l0.6-0.9l-10-6.9l-6.8-3.9l7.4-0.4h0.1l13.7,6.6l0.1-1.2l-11.8-10l-6.1-1l6-2.8l13.1,5.3l0.1-1.5l-13.3-7.6l-15.6,7.2
				l-6.5-7.7l-1.7-1.6c-9.5-8.8-20.8-27.3-20.9-27.4L153,371v-0.2c4.7-17.7,26.3-53,26.5-53.3l0.2-0.3l0.4,0.2
				c5.5,2.3,21.4,34.6,26.3,53.1c1.2,4.5,1.6,7.9,1.4,10.1c-0.5,4.7-4.2,10.8-8.4,18l-0.9,1.6l13.5,8.1l-0.2,3.3l-13.9-5.9l-2.9,1.4
				l3.4,0.5l12.3,10.5l-0.2,3l-14.8-7.1l-4.1,0.2l4.2,2.4l10.8,7.4l-1.5,2.3l-12.4-5.6l-3.6-0.3l11,7.9l-2.4,1.9l-10.9-5.4
				c-2.5,8.2-3.8,16.9-3.7,25.3c0.2,28.9,14.3,72.4,21.1,93.3c2,6.3,3.4,10.5,3.6,11.9c0.4,2.9-0.3,6.4-1.4,11.2
				c-1.2,5.3-2.6,11.9-3.1,20.7c-0.6,10.8,0.6,20.8,1.8,31.3c0.6,5.5,1.3,11.2,1.7,17.1c0.5,3.2,4.7,31.8,4.1,34.2
				c-0.3,1-1.3,3-2.7,5.4c-2.9,5.2-7.3,13.2-6.1,17c1.1,3.6,6.5,4.4,16.2,4.6c0.1,0,10.7-1.1,14.3-6.6c1.3-2,1.4-4.5,0.5-7.2v-0.1
				c0-0.3-0.5-8.2-0.5-9.1v-0.5l0.5,0.1c1.1,0.2,1.4,2.1,1.9,5.1c0.2,1.3,0.7,4.2,1.1,4.2c2,0.3,4,0.9,6.4,1.6
				c3.7,1.1,7.8,2.4,12.8,2.6c6.3,0.3,13.3-0.5,14.8-2.9c0.4-0.6,0.4-1.3,0-2.2c-1.2-2.4-6.3-5.3-11.2-8c-5.6-3.2-10.9-6.2-12-9
				c-4.1-7.1-5.9-25.6-4.5-48.1c1.6-25.9,6.9-54.1,15-79.3c12.5-38.9,17.4-80.1,13.2-110.6l-2.8,7l-1.5-4.7l3.7-12.2l-7.7,10.1
				l-1.3-4.3l7.1-11l-9.2,7.8l-1.3-3.6l8.6-10.4l-9.6,7.1l-0.8-3.4l8.3-9.2l0,0c-5.3-15.9-6.2-21.2-6-28l0,0c0-0.4,0-0.8,0-1.3
				c0.4-8.1,5.4-27,5.6-27.8l0.3-1.2l13.8,31l-0.1,0.2c-0.2,0.7-5.9,17.2-8.3,22.3v0.1c-0.1,0.2-0.2,0.4-0.2,0.6l0,0l-0.1,0.1
				c-0.6,1.1-1.5,1.9-2.4,2.6l-9.9,10.8l0.4,1.6l14.4-10.6L258.8,416l0.7,1.9l12.9-10.9l-10.3,15.7l0.7,2.2l9.6-12.8l-5.1,16.8
				l0.7,2.1l6.3-15.8l6.4-11.5c11.5-25.4,13.8-31.8,13.6-32.7c-0.5-1.1-3.6-10.1-7.2-20.4c-3.2-9.1-6.4-18.5-8.3-23.6
				c-9.1-25-17.3-40.9-23-45c-4.7-3.3-11.2-4.1-17-4.7c-3.6-0.4-7-0.8-9.3-1.8c-0.7-0.3-1.2-0.5-1.6-0.8c-3.2-2.2-3.8-7.8-3.7-12.1
				h0.9c-0.1,4.1,0.4,9.3,3.3,11.3c0.3,0.2,0.8,0.5,1.4,0.7c2.3,0.9,5.6,1.3,9.1,1.7c5.9,0.7,12.5,1.5,17.4,4.9
				c7.6,5.3,16.9,27.6,23.4,45.4c1.9,5.1,5.1,14.5,8.3,23.6c3.4,9.9,6.7,19.2,7.2,20.3c0.2,0.5,0.8,1.7-13.7,33.4l-6.4,11.5
				l-3.9,9.8h0.2c4.5,30.7-0.4,72.6-13.1,112.2c-18,56.1-18.3,113.5-10.5,126.8c1,2.6,6.4,5.7,11.6,8.6c5.3,3,10.2,5.8,11.6,8.4
				c0.6,1.1,0.6,2.2,0,3.1c-1.8,2.9-9.3,3.6-15.6,3.3c-5-0.2-9.2-1.5-13-2.7c-2.4-0.7-4.4-1.4-6.3-1.6c-1.1-0.1-1.4-2-1.9-5
				c-0.1-0.9-0.4-2.3-0.6-3.2c0.1,2,0.3,5.3,0.4,7.3c1.1,3,0.9,5.7-0.6,8C229.6,696.5,218.8,697.6,218.3,697.7z M154,370.9
				c1.2,1.8,11.8,18.8,20.7,27l1.8,1.6l6.1,7.2l15-6.9l1.1-1.8c4.2-7,7.8-13.1,8.3-17.6c0.3-2.2-0.2-5.5-1.3-9.8
				c-4.9-18.8-20.2-49-25.4-52.3C177.9,322.1,158.6,354.2,154,370.9z M264.4,344.3c-1.1,4.5-4.9,19.6-5.2,26.4c0,0.4,0,0.8,0,1.2
				l0,0c-0.2,6.6,0.6,11.7,5.7,27c0.3-0.3,0.6-0.5,1-0.8c0.1-0.1,0.2-0.2,0.3-0.3l2.2-2.4l0.2-0.5c2.2-4.6,7.7-20.4,8.3-22.2
				L264.4,344.3z"/>
			<path class="st15" d="M231.2,661.6c-2.5-8.1-5.1-44.2-5.1-44.2c2.7-35.7,12.8-84.4,13.4-116.8c0.6-32.4-1.8-52.2-1.8-52.2
				s5.6,28.4,3.6,57.5c-1.5,22.6-11,87.4-12.2,100.8c-1.2,13.4-2.1,44.9,5.9,55.3l-1.1,11.5l-1.5-0.7L231.2,661.6z"/>
		</g>
		<g id="cara_4_">
			<path class="st14" d="M245.2,198.4c0,0,6.8-6.8,9.5-2.2C254.7,196.1,252.2,187.2,245.2,198.4z"/>
			<path class="st14" d="M225.3,196.4c0,0-11-8.3-22.6-5.4C202.7,191.1,213.1,183.3,225.3,196.4z"/>
			<path class="st54" d="M243.5,221.3c0,0,3.1,2,3.1,4.5s-2.6,4.1-2.6,4.1s4.7-1.7,5.2-4.4C249.9,222.8,246,220,243.5,221.3z"/>
			<path class="st36" d="M238.9,236.3c0,0-3.2,4.6-3.8,8.5c-0.6,3.9-6.4,3.3-6.4,3.3s-3.4-1.1-3.9-1.6s-6.7-9.8-6.8-10.1
				c-0.2-0.9-0.3-1.8-0.3-1.8s2.4,2.5,11,1.6C237.2,235.3,238.5,235.7,238.9,236.3z"/>
			<path class="st22" d="M217.2,234.2c0,0,4.2,11.7,13,12c0,0,2.7,0.6,4.9-1.3c0,0,1.7,0.5,1.3,3.3s-3.9,4.5-8.2,4
				C223.7,251.6,217.1,245.6,217.2,234.2z"/>
			<path class="st22" d="M216.6,233.7c0,0,1.9,2.4,5.3,3.2c3.4,0.8,14.7-1.4,19.2-0.1c0,0,1.9-1.6-8.7-1.2
				C221.7,236,220.1,237.2,216.6,233.7z"/>
			<g>
				<path class="st36" d="M245.2,209.1c0,0-1.2,2-0.9,5c0.4,3.5,4.1,2.9,6.6-0.8c2.4-3.6,3-7.2,0.8-8.5
					C249.4,203.6,246.1,207.2,245.2,209.1z"/>
				<path class="st36" d="M223,210c0,0,2.2,2.9-0.1,5.6c-1.6,1.8-5.9,1.9-9.2,1.5c-1.7-0.2-3.1-0.5-3.7-0.7c-2.5-0.9-4.4-5-3-7.6
					c1.4-2.6,4.1-3.4,4.4-3.4c0.3,0,3-0.7,3.5-0.5C215.3,205,220.7,206.1,223,210z"/>
				<path class="st55" d="M218.7,206.1c0,0,2.7,9.4-3.5,10.6c-6.1,1.2-7.6-8.9-5.9-10.8C210.9,204.1,218.7,205.7,218.7,206.1z"/>
				<path class="st55" d="M248.4,205.7c0,0,1.1,8.6-1.9,9.9s-1.4-6.4-0.9-7.1C246.1,207.8,248.4,205.7,248.4,205.7z"/>
				<path class="st14" d="M204,200.3c0.1,2.5,2.9,4,4.1,4.6c0.6-0.5,1.3-0.8,2.2-1.1c6.8-1.9,12.3,4.4,13.2,7.1c0,0-5-6.5-10.7-5.5
					s-6.3,4.8-6.3,5.4c0,0-0.6-2.1,0.3-4.1C203.3,204.1,204,200.3,204,200.3z"/>
				<path class="st14" d="M251.1,203.5c1.8,0.1,2.1,2,2,3.8c0.2,0,1.6,0.2,3-1.1c0,0-1.6,2.5-3.3,3.2c-0.1,0.6-0.3,1.1-0.3,1.1
					s0.9-5.6-2.1-5.1c-3.7,0.7-6.2,5.4-6.2,5.4S247.6,203.4,251.1,203.5z"/>
			</g>
		</g>
	</g>
	<path class="st24" d="M210.4,669.7c-0.8,3.2-10.6,16.9-8.8,22.7c1.2,3.8,6.6,4.7,16.6,4.9c0,0,19.6-1.9,15.1-14.5
		c0,0-0.5-8.2-0.5-9c1.7,0.4,1.5,9.1,3.1,9.3c4.9,0.6,11.1,3.9,19.2,4.3c8.2,0.4,17.6-1,15.2-5.7"/>
	<path class="st37" d="M233.5,673.5l-1.5-0.7"/>
	<path class="st21" d="M231.6,662.3c-0.2,2,1.8,11.9,1.8,11.9c3.2,13.3,0.1,16.2,0.1,16.2c-3.8,6.1-14.6,7.2-15.1,7.3
		c-10.1-0.2-15.8-1.1-17.1-5.3c-1.3-4.2,3-12,6.2-17.7c0,0,2.5-3.1,2.4-9.2c0.5-1.9,5.3-0.1,10.6-0.4
		C220.4,665.1,231.8,660.3,231.6,662.3z"/>
	<path class="st21" d="M242.4,660.9c4.3-2.1,5.1-1.8,5.8,1.9s11.2,10.1,11.2,10.1c5.3,3,10.2,5.8,11.6,8.4c0.6,1.1,0.6,2.2,0,3.1
		c-1.8,2.9-9.3,3.6-15.6,3.3c-5-0.2-9.2-1.5-13-2.7c-2.4-0.7-4.4-1.4-6.3-1.6c-1.1-0.1-1.4-2-1.9-5c0,0-3.5-15.5-2.5-16.2
		C232.6,661.4,236.2,663.6,242.4,660.9"/>
	<path class="st5" d="M212.9,669.7c0,0,6.4,1.1,9.5,0"/>
	<path class="st5" d="M211.7,674.6c0,0,6.4,1.1,9.5,0"/>
	<path class="st5" d="M242.5,667.7c0,0,5.4-0.2,7.7-1.7"/>
	<path class="st5" d="M245.8,671.4c0,0,5.3-1,7.4-2.8"/>
	<path class="st4" d="M204.2,693.1c-2.3-0.3-2.2-7.3-2.2-7.3c-2.1,4.9-4.2,12,12.3,11.9c16.5-0.1,18.1-5.9,20-9.3s-0.8-8.4-0.8-8.4
		s-2.9,7.5-6.7,10.6C226.8,690.6,225.4,695.8,204.2,693.1z"/>
	<path class="st27" d="M269.9,685.4c-5.8,2.2-6.4,3.5-23,0.8c-16.6-2.7-12.6-7.3-12.6-7.3s15.7,8.5,32.6,5.9c2.9-0.7,4.9-2.2,3.6-4
		C270.5,680.8,273.7,683.9,269.9,685.4z"/>
	<g id="dungarees_pants" class="st39">
		
			<linearGradient id="SVGID_2_" gradientUnits="userSpaceOnUse" x1="203.2754" y1="371.29" x2="202.3975" y2="138.8566" gradientTransform="matrix(1 0 0 -1 24.9448 791.2793)">
			<stop  offset="0" style="stop-color:#1595C3"/>
			<stop  offset="0.9988" style="stop-color:#0050A2"/>
			<a:midPointStop  offset="0" style="stop-color:#1595C3"/>
			<a:midPointStop  offset="0.5" style="stop-color:#1595C3"/>
			<a:midPointStop  offset="0.9988" style="stop-color:#0050A2"/>
		</linearGradient>
		<path class="st3" d="M263.2,393.4l2.9,7.5c0,0,13.6,28.3,5.3,85.7c-8.3,57.3-33.3,133.7-23.7,169.5c-2.5,4.5-9.2,7.8-16.4,5.5
			c0,0-20,7.4-24.2,0.8s-9.6-69.1,0.5-101.4c-8.6-30.7-48.2-111.3-6.9-167.4C200.7,393.5,222.5,401.2,263.2,393.4z"/>
		<path class="st56" d="M263.4,391.6l3.1,8.6c0,0-21.2,14.3-73.3,3.5c0.4-2,4.5-7,8.3-12.1C206.9,393,232.7,398.7,263.4,391.6z"/>
		<path class="st47" d="M189.4,432.4c0,0,14-0.4,24.8-13.8"/>
		<path class="st47" d="M252.7,415c0,0,5.3,5.9,15.6,7.3"/>
		<path class="st8" d="M231,407.7l2.5,30.4c0,0,0,10.3,6.4,10.2"/>
		<g>
			<g>
				<ellipse class="st30" cx="234.9" cy="405.1" rx="6.8" ry="7.8"/>
				<ellipse class="st57" cx="234.9" cy="405.1" rx="6.8" ry="7.8"/>
			</g>
		</g>
		<path class="st47" d="M231.2,661.6c-2.5-8.1-5.1-44.2-5.1-44.2c2.7-35.7,12.8-84.4,13.4-116.8c0.6-32.4-1.8-52.2-1.8-52.2
			s5.6,28.4,3.6,57.5c-1.5,22.6-11,87.4-12.2,100.8c-1.2,13.4-2.1,45.2,5.9,55.6C235,662.3,233,662.3,231.2,661.6z"/>
		<path class="st47" d="M218.3,407.5c0,0.7-0.7,1.3-1.4,1.3l0,0c-0.7,0-1.3-0.7-1.3-1.4l0.6-13.2c0-0.7,0.7-1.3,1.4-1.3l0,0
			c0.7,0,1.3,0.7,1.3,1.4L218.3,407.5z"/>
		<path class="st47" d="M205.1,405.9c-0.1,0.7-0.9,1.2-1.9,1.1l0,0c-0.9-0.1-1.5-0.9-1.4-1.6l2.1-13c0.1-0.7,0.9-1.2,1.9-1.1l0,0
			c0.9,0.1,1.5,0.9,1.4,1.6L205.1,405.9z"/>
		<path class="st47" d="M252.2,406c0.1,0.7-0.4,1.4-1.2,1.5l0,0c-0.8,0.1-1.5-0.4-1.6-1.1l-2-12.7c-0.1-0.7,0.4-1.4,1.2-1.5l0,0
			c0.8-0.1,1.5,0.4,1.6,1.1L252.2,406z"/>
		<path class="st47" d="M263.6,402.2c0.2,0.6-0.4,1.3-1.2,1.5l0,0c-0.8,0.2-1.6-0.1-1.8-0.7l-2.9-10.6c-0.2-0.6,0.4-1.3,1.2-1.5l0,0
			c0.8-0.2,1.6,0.1,1.8,0.7L263.6,402.2z"/>
	</g>
	<g id="dungarees_top" class="st39">
		<path id="shirt_1_" class="st43" d="M264.5,311.6c2.4,4.2,12,22.1,1.3,32.5c0,0,0.6,33.4-3,47.2c-30.4,3.8-36.2,3.7-60.1-0.2
			c0-8.6,2.9-25.3-5.7-41c-9.3-7.6-8.3-15.6-10-20.8c-1.7-5.2-4.8-9.2-4.8-9.2c-2.6-2.7-5.3,5-12.6,16.8
			c-5.4-0.9-18.5-19.9-18.5-19.9s5.4-11.4,11-22.6c5.6-11.2,20.1-15,20.1-15c19.4,6.6,41.3,6.8,41.3,6.8c11.6-1,10.4-9.9,10.4-9.9
			l3.6-0.1c0,0,12.5-1.4,23,8.1c3.9,3.9,11.6,23.1,11.6,23.1S267.8,311.2,264.5,311.6z"/>
		
			<linearGradient id="SVGID_3_" gradientUnits="userSpaceOnUse" x1="204.6729" y1="512.8789" x2="204.2587" y2="403.2126" gradientTransform="matrix(1 0 0 -1 24.9448 791.2793)">
			<stop  offset="0" style="stop-color:#1595C3"/>
			<stop  offset="0.9988" style="stop-color:#0050A2"/>
			<a:midPointStop  offset="0" style="stop-color:#1595C3"/>
			<a:midPointStop  offset="0.5" style="stop-color:#1595C3"/>
			<a:midPointStop  offset="0.9988" style="stop-color:#0050A2"/>
		</linearGradient>
		<path class="st51" d="M206.1,392.3c8.7-25.4-15.4-122-15.4-122l3.3-4.7c0,0,17.4,60,21.6,65.5c13.9,5.3,41,2.2,44.3-2.4
			c1.9-34.1-30.9-58.2-30.9-58.2l-1.3-3.9c37.3,24.5,40.7,63.7,40.7,63.7s-6.1,46.2-9.2,61.5C259.2,391.7,238.9,396.6,206.1,392.3z"
			/>
		<path class="st47" d="M215.7,347.3c0,0,17.3,3.8,40.3-0.8c0.2,10.4-1.7,19-5.2,22.8C247.1,373,216.2,382.9,215.7,347.3z"/>
		<ellipse class="st33" cx="206.6" cy="334.2" rx="7.4" ry="7"/>
		<ellipse class="st33" cx="261.7" cy="331.9" rx="6.7" ry="6.4"/>
	</g>
	<g id="long_brown_2_" class="st39">
		<g>
			<path class="st10" d="M274.5,315.2c0.3-16.5-9.1-35.8-16.6-45.8c2.7,0.3,5.6-0.5,7.9-2.5c-0.5-0.6-0.9-1.2-1.3-1.8
				c0.1,0,0.1-0.1,0.2-0.1c-0.3-0.3-0.6-0.7-0.8-1.1c-5.9-11.9,5.2-30.6,12.4-53.8c7.8-25.2-13.7-52.3-26.2-52.3
				c-7.8-8.3-37.1-18.1-59.8-6.4S151.2,192,151.6,227c0.2,13.9-2.1,37.3-10,43.4c3.4,2.7,8.5,2.5,11.2,1
				c1.2,15.4,0.3,73.6,60.6,72.9c-23.7-6.6-18.3-33.6-17.5-47.5c4.3,2.5,14.5,11.9,12.4,8.4s-6.5-17.8-6.5-17.8
				c-7.3-16.4-8.1-56.3-2.7-59.6c5.4-3.3,12.3-9.6,19.4-22c7.1-12.4,6.8-41.2,14-40.9c7.1,0.3,7.1-0.8,9.1,1.1
				c6.8,3.8,13.4,11.4,15.4,20.9c3.9,18.3,1.5,33.6,1.5,33.6c0.2,7.7-7.7,33.1-29.3,40.2c0,0-1.6,0-4.3-0.6
				c-0.1,0.9-0.2,2.1-0.2,3.5c-0.1,4.1,0.4,9.6,3.5,11.7c0.4,0.3,1,0.5,1.5,0.8c0,0-2,1.2,16.8,3.3c7.8,0.7,13.4,5.1,18.2,14.7
				C269.5,303.7,274.5,315.2,274.5,315.2z M256.3,267.4c0.1,0,0.2,0,0.3,0c0.1,0.2,0.2,0.4,0.2,0.6
				C256.7,267.9,256.5,267.6,256.3,267.4z"/>
			<path d="M212.4,345.3c-56.3,0-59.2-51-60.3-70.2c0-0.8-0.1-1.6-0.1-2.3c-1.2,0.4-2.5,0.6-3.9,0.6c-2.7,0-5.2-0.8-7.1-2.3
				l-0.9-0.7l0.9-0.7c6.9-5.4,9.9-25.9,9.7-42.7c-0.4-34,15-64,39.2-76.4c7-3.6,15.1-5.5,24-5.5c15.7,0,30.8,5.9,36.6,11.8
				c5.6,0.2,12.6,5.2,18.3,13c9.2,12.5,12.3,27.6,8.3,40.4c-2,6.5-4.3,12.5-6.5,18.4c-5.6,14.8-10,26.5-6,34.7
				c0.2,0.3,0.5,0.6,0.7,0.9l0.6,0.7l-0.2,0.2c0.2,0.4,0.5,0.7,0.8,1l0.6,0.7l-0.7,0.6c-2,1.6-4.3,2.6-6.7,2.8
				c7.9,11.3,16,29.6,15.7,44.9l-0.1,4.1l-1.7-3.8c0-0.1-5-11.6-9.8-21c-4.6-9.1-10-13.5-17.5-14.2c-15.4-1.7-17.2-2.8-17.6-3.6
				c-0.5-0.2-0.8-0.4-1.2-0.6c-3.4-2.4-4-8.1-3.9-12.5c0-1.2,0.1-2.4,0.2-3.6l0.1-1l1,0.2c2.1,0.4,3.6,0.5,4,0.6
				c22-7.4,28.7-33,28.6-39.3v-0.1v-0.1c0-0.2,2.2-15.3-1.5-33.2c-2.1-9.9-9.1-17-15-20.3l-0.2-0.1c-0.9-0.8-1.2-0.9-2-0.9
				c-0.3,0-0.7,0-1.2,0c-1.2,0.1-2.8,0.1-5.4,0l0,0c-3.2,0-4.9,9-6.6,17.7c-1.5,8-3.3,17.1-6.6,22.7c-6.1,10.5-12.7,18-19.7,22.3
				c-4.6,2.8-4.5,41.5,3.1,58.5v0.1c0,0.1,4.4,14.3,6.4,17.6c0.3,0.5,0.6,1.1,0.3,1.6c-0.2,0.3-0.5,0.5-0.9,0.5
				c-0.8,0-1.9-0.8-5.9-4.1c-2-1.6-4.1-3.3-5.8-4.4c-0.1,1.1-0.2,2.4-0.3,3.6c-1.2,14.3-3.1,35.8,17.3,41.4l6.1,1.7l-6.3,0.1
				C213.1,345.3,212.7,345.3,212.4,345.3z M153.5,270l0.1,1.4c0.1,1,0.1,2.2,0.2,3.5c1,18.2,3.8,65.9,54.3,68.4
				c-16.4-7.9-14.7-27.9-13.6-41.5c0.2-1.8,0.3-3.5,0.4-5.1l0.1-1.5l1.3,0.7c1.9,1.1,4.7,3.4,7.3,5.4c0.9,0.8,2,1.6,2.9,2.3
				c-2.2-5-5.3-15.1-5.6-16c-7.1-16-8.7-56.8-2.3-60.7c6.7-4.1,13.2-11.4,19.1-21.6c3.1-5.4,4.8-14.3,6.4-22.2
				c2.1-10.7,3.7-19.2,8.3-19.2h0.1c2.5,0.1,4.1,0,5.2,0c0.5,0,0.9,0,1.2,0c1.4,0,2.1,0.3,3.2,1.3c6.2,3.5,13.5,11,15.7,21.4
				c3.7,17.6,1.7,32.6,1.6,33.8c0.2,8.9-8.4,33.9-29.9,41h-0.1h-0.2c-0.1,0-1.4,0-3.5-0.4c-0.1,0.8-0.1,1.7-0.1,2.5
				c-0.1,5.6,1,9.5,3.2,11c0.3,0.2,0.7,0.4,1.3,0.7l1.6,0.7l-0.3,0.2c1.6,0.5,5.5,1.3,15.2,2.3c8.2,0.8,14,5.4,18.9,15.2
				c3,5.9,6,12.6,7.9,16.8c-1.2-14.5-9-30.8-16.3-40.7l-1-1.3c-0.2-0.2-0.3-0.4-0.5-0.6l-1.5-1.8l3.1,0.4l0.2,0.5
				c0.1,0.2,0.2,0.4,0.2,0.6l0.3,0.8c2.2,0.2,4.6-0.4,6.5-1.8c-0.3-0.4-0.5-0.7-0.8-1.1l-0.4-0.7l0.1-0.1c-0.1-0.1-0.2-0.3-0.3-0.4
				l-0.1-0.1c-4.4-8.9,0.1-21,5.9-36.2c2.2-5.8,4.5-11.8,6.5-18.3c3.8-12.3,0.8-26.8-8-38.8c-5.5-7.3-12.2-12.1-17.3-12.1h-0.4
				l-0.3-0.3c-6.8-7.2-23.4-11.5-35.5-11.5c-8.6,0-16.4,1.8-23.2,5.3C167,164.3,152,193.7,152.4,227c0.1,12.8-1.7,35.8-9.5,43.4
				c1.4,0.8,3.2,1.3,5,1.3c1.6,0,3.2-0.3,4.3-1L153.5,270z"/>
		</g>
		<g>
			<path class="st44" d="M146.6,268.7c54.2-1.1,52.7-113,98.8-110.8C194.3,155.6,191.6,265.3,146.6,268.7z"/>
			<path d="M146.7,269.6l-0.1-1.8c20.9-1.6,32.4-26.7,44.6-53.2c13-28.3,26.4-57.7,52.7-57.7h0.3c0.4,0,0.8,0,1.2,0l0,0l-0.1,1.8
				c-0.4,0-0.8,0-1.1,0h-0.1c-20.9,0-31.6,24.8-43,51C188.3,238.9,175.2,269,146.7,269.6z M223.2,166.5
				c-12.8,10.4-21.7,29.9-30.4,48.9c-9.3,20.3-18.2,39.7-31.3,48.9c17.7-8.8,27.9-32.3,37.9-55.2
				C206.7,192.3,213.7,176.2,223.2,166.5z"/>
		</g>
		<g>
			<path class="st44" d="M158.1,235.3c2.1-68.8,46.1-86.2,66-86.6C208.5,150.7,165.3,168.2,158.1,235.3z"/>
			<path d="M159,235.4l-1.8-0.1c0.9-29.9,10.1-54,26.6-69.6c13.6-12.9,29.7-17.7,40.3-17.9l0.1,1.8c-9,1.2-23.1,6.7-35.6,18.7
				C172.1,184,162.1,206.6,159,235.4z M207.6,152.9c-7.4,2.7-15.3,7.2-22.6,14.1c-11.3,10.7-19.1,25.5-23.1,43.6
				c5.1-17.8,13.6-32.4,25.4-43.6C194,160.6,201,156,207.6,152.9z"/>
		</g>
		<g>
			<path class="st44" d="M252.3,165.9c37,47.4-8.3,83.7,9.5,99.1C247.3,246.9,294.8,209,252.3,165.9z"/>
			<path d="M261.3,265.7c-7.5-6.5-4.5-16.3-0.7-28.7c5.5-17.9,13.1-42.4-8.9-70.6l1.3-1.2c26.9,27.3,18,53.1,11.6,72
				c-4,11.6-7.1,20.8-2,27.2L261.3,265.7z M261.8,179.2c11.3,23,5.2,43.1,0.5,58.3c-0.9,3-1.8,5.9-2.5,8.5c0.8-3,1.9-6.1,3.1-9.4
				C268.4,220.4,275.2,200.7,261.8,179.2z"/>
		</g>
		<g>
			<path class="st44" d="M193.9,232.5c-8.2,14.1-11.1,47.9,10.2,67.8C188.5,279.6,190.1,246,193.9,232.5z"/>
			<path d="M203.5,300.9c-12.3-11.4-15.7-26.2-16.5-36.7c-0.9-12,1.5-24.3,6.1-32.2l3.5-6l-1.8,6.7c-3.4,12.2-5.7,46.1,10,67
				L203.5,300.9z M191.4,240.6c-4.2,13.5-4.5,34.7,6.4,51C189.9,274.7,189.6,253.8,191.4,240.6z"/>
		</g>
		<g>
			<path class="st44" d="M196.6,339.2C155,320,177.2,264.1,186.1,249C171.6,264.1,150.7,320.1,196.6,339.2z"/>
			<path d="M196.2,340.1c-15.1-6.4-24.4-17.1-27.5-31.9c-4.7-22.7,6.7-49.3,16.8-59.7l5.4-5.6l-4,6.7c-5.4,9.1-19.2,40.5-11.6,64.8
				c3.4,10.9,10.7,19,21.7,24.1L196.2,340.1z M180.6,258c-7.5,12.6-13.7,32.6-10.1,49.8c1.3,6.3,3.8,11.8,7.4,16.5
				c-1.8-2.9-3.2-6.1-4.3-9.5c-3.3-10.5-3-23.7,0.7-38.3C176,269.7,178.3,263.3,180.6,258z"/>
		</g>
	</g>
	<g id="asian_1_" class="st39">
		<polygon class="st31" points="264,400.4 268.4,395.6 274.3,415.4 267.5,432.4 266.4,429 270.8,414.5 262.2,425.9 261.2,422.7 
			269.8,409.2 258.8,418.6 257.8,415.9 268.5,402.9 256.5,411.7 255.9,409.3 		"/>
		<path class="st31" d="M182,407.3l15.5-7.1l13.7,8.2l-0.1,2.4l-13.5-5.5l-4.5,2.1l4.8,0.7l12,10.3l-0.2,2.1l-14.3-6.8l-5.8,0.3
			l5.5,3.1l10.4,7.1l-1,1.6l-12-5.5l-5.4-0.4l11.9,8.5l-1.7,1.4l-10.8-5.4l-11.3-4.3c0,0,0-5.6,0.3-6.1
			C175.8,413.4,182,407.3,182,407.3z"/>
	</g>
</g>
<g id="palm_trees">
	<g>
		<path class="st28" d="M1118.9,165.5c0,0,160.8,206.8,141.4,533c-42,6.3-53.5-20.2-53.5-20.2S1238.2,372.5,1118.9,165.5z"/>
		<g>
			<path class="st28" d="M1048-97.8c0,0,78.4,30.1,101.8,85.8c-22.9-1.7-22.9-1.7-22.9-1.7s22.1,2.5,33.8,10.6
				c-9.7,1.4-22.9-5.2-38.4-1.1c16,3,51.4,15.1,51.3,40c-22.3-7-43.7-13.7-43.7-13.7s40.5,18.7,39.8,26c-0.6,7.3,1.6,27.9,1.6,27.9
				l-31.4-5.9l34.3,10.8l-34-6.2l31.3,14.8l-24.8-7.8l23.7,21.9c0,0-35.5,34.8-38.7,71.2c-10.4-13.7-28.6-63.4-35.5-67.5
				c-6.9-4.2-6.8-41-6.8-41l16.3,0.1l-14.3-6.5c0,0,11.4-3.4,13.6-8.7c2.2-5.3-13.3-1.2-13.3-1.2s-3-16.4-8.8-22.2
				c5.5-1.8,23.8-8,23.8-8s-23.9-5.5-31.7-5c5.2-4.4,21.7-10.2,21.7-10.2l-23.4,3.2C1073.2,7.9,1084.9-60.8,1048-97.8z"/>
			<path class="st28" d="M1130.1,172c-3.3,2.8,99.1-164.3,214.4-128.1c36.2,11.4,50.7,60.1,41.2,78.1c0,0-9.8,25.9-18.1,29.8
				c4.5-16.1,10.7-40.9,10.7-40.9s-9.9,28.2-18.7,25.4c-1.6-13.5-14.6-25.7-20.8-27.5c0.8-8.2-1.3-29.5-1.3-29.5s-5.8,23-8.2,26.6
				c-0.2-7.5-1.6-21.5-3.6-22.6c0.1,5.5-2.6,23.8-3.5,26.8c-6.1-1.9-25-13.5-53.2,6.8c-7.2-8.2-18.6-24.8-18.6-24.8l14.8,31.3
				c0,0-23.7-28.4-33.4-32.9c-7.5-2,14.7,34.2,12,46.5c-6.9-3.6-14.3-32.1-24.8-35.7c-1.9,4.9,9.9,32.2,10,40.6
				c-10,0-33.4,5.5-36.6,3.7c-3.2-1.9-5.4-3.2-5.4-3.2l10.2,16.7l-15.4-17.1c0,0,4.5,14.7,3.5,14.4
				C1184.5,155.8,1142.5,161.4,1130.1,172z"/>
			<path class="st28" d="M1130.1,172l44.2-9.8c0,0,12.5,11.2,21.1,13.9c8.6,2.7,15,0.7,15,0.7l-4.2,13.3l23.6-17.2l-12.4,23.4
				l25.4-11.3c0,0,36.4,30,45.3,48.1c-18.8,2.1-28.8,8.3-28.8,8.3s24,2.2,31.8,5.3c6,8.6,28.8,45,14.2,91.6
				c-7.5,23.9-14.3,31.8-14.3,31.8s-3.6-48.7-22.9-54.4c1-5.7-0.8-7.9-0.8-7.9l-2.5,5.5l-17.8-13.9c0,0,2.9-11.4,1.9-15.4
				c-3.3,7-5.2,13-5.2,13s-12-36-51.8-47c1.9-7.2,4.2-12.5,8.9-15.3c-9.4,4-15.6,9.6-15.6,9.6s0.4-9.9,6.9-18.5
				c-7.9,5.2-13.8,6.6-13.8,6.6s-13.2-16.9-25.4-20.7C1143,209.2,1129.1,181.4,1130.1,172z"/>
			<path class="st28" d="M1136.5,171.1c0,0-15.7,56-11.8,80.5c-10.8-3.7-25-4.9-34-1.7c14.2,4.5,32.1,12.4,31.6,17.6
				c-15.7-6.6-32.8-12.6-37.1-11.6c10.6,4.3,30.8,24.6,34.8,25.9c-7.5,5.3-21.1,16.3-26.2,41.7c-6.3-4.3-1.5,4.9-1.5,4.9
				s-15.8-12.3-25.1-14.9c-9.4-2.6-12.6,3-12.6,3s32,16.4,29.4,25.5c-2.6,4.8-20.6-2.8-28.2-5.2c9.1,8.2,19.7,19.5,17.8,25.5
				c-10.3-5.2-16.4-14.8-27.9-13.1c11.7,4.3,30.2,18.5,27,27.4c-7.6,3.3-42.5,24.3-50.9,39.3c-7.6-8.4-39.3-72.9-21.4-110.2
				c4.2-12.3,5.6-8.6,5.6-8.6l13-0.9l-11.9-6.1l-5.4-8.3c0,0,22.5,3.6,25.4,3.6c-3.1-3.3-12.8-10.8-11.3-16c0.9-0.7,4.7-0.5,4.7-0.5
				l3.1-8.2c0,0-1.3-5.2,1.1-12.6c2.3-7.4,15.3,0,15.3,0l2-4.2c0,0-12.2-6.2-10.5-11.3c2.6,0.3,12.5,3.1,12.5,3.1l0.9-2.4
				l-10.5-11.8C1034.5,221.6,1082.5,164.8,1136.5,171.1z"/>
			<path class="st28" d="M901.4,286.6c0,0,12-34.7,24.1-43.8c-4.4-3.4-3-6.9-3-6.9l12.7,4c0,0,10.1-7.8,13.9-14.6
				c-1.6-10.5-7.3-35.7-7.3-35.7l20.1,29.8c0,0,23.2-16.7,36-12.2c-6.2-11.4-8.4-37.6-8.4-37.6l13.6,36.7c0,0,21.4-50.7,26.2-48.7
				c4.8,2,7,36.6,7,36.6l1.1-25.6l8.2,20.1c0,0,43-22.3,84.2-19.7c0,0-20.4-16.7-44.7-24.3c-24.3-7.6-145-35-181.3,80.9
				c-15.9,57.8-4.3,60.6-4.3,60.6"/>
			<path class="st28" d="M1131.5,175c0,0-62.7-106-74.8-114.3c-4.3,10.1-11.3,27.4-11.3,27.4l-1.1-31.3l-11.9,25.7l-2.2-33.1
				c0,0-9.8-3.6-25.8-8.1c-16-4.5-69.8-6.2-69.8-6.2L934.5,64l-17.5-43.4L927.3,55l-13.1-20.8l1.9,22.6L906,37.6
				c0,0-63.3,25.5-94.9,15.9c5.6,12.4,35,48.9,61.7,56c7.9,2.7,11.4,3.6,11.4,3.6l4-14.5l5.2,19.8l9.5-18.2l-2.6,11.7
				c0,0,14.5-0.9,20.2,0.8c5.7,1.8,15.9,8.3,15.9,8.3l8.3-35l3.7,34.4L962.5,86l10.2,36.1c0,0,17.1-3.4,28.6,0.2
				c11.4,3.6,22.8,14.4,22.8,14.4l13.4-16.5l1.6,18.5l15.7-9.3l-3.3,13.9C1051.4,143.4,1114.1,161.8,1131.5,175z"/>
			<path class="st28" d="M1055.4-94.6c0,0,86.8,38,78.1,258.6C1127.1,130.6,1137.5-27.1,1055.4-94.6z"/>
			<path class="st28" d="M1114.7,155.5c0,0-64.5-85-150.7-92.4c-86.1-7.3-127.8,8.3-154.1-7.9C836.2,70,948.5,65.4,965,68.9
				C1003.9,77,1046.6,96.6,1114.7,155.5z"/>
			<path class="st28" d="M1128,174.3c0,0-38.3,4.4-82,102c-43.7,97.6-24.5,112.4-24.6,131.1c4.7-23.2-14-46.5,34.5-133.1
				C1104.5,187.7,1115.8,183.6,1128,174.3z"/>
			<path class="st28" d="M1139.7,175c0,0,51.8,15.2,83.1,44.2c31.4,29.1,78.6,67.5,73.5,128.5c-4.8-31.5-14.2-77.3-75.6-119.6
				C1159.3,186,1154.3,180,1139.7,175z"/>
			<path class="st28" d="M1116.4,164.8c0,0-25.9-22.5-79-24.8c-53.1-2.3-106.2,20.2-127.4,83.4c-21.2,63.2-9.7,61.9-9.7,61.9
				s2.4-77.8,43.5-111.8C984.9,139.5,1037.8,129.8,1116.4,164.8z"/>
			<path class="st28" d="M1372.4,143.3c0,0,45.8-57.5-28.6-98.1c-66.5-36.3-184.6,76.5-207.8,117c7.2-2.8,128.4-155.7,209.3-114
				C1371.6,61.8,1399.6,86.6,1372.4,143.3z"/>
		</g>
	</g>
	<g>
		<path class="st28" d="M1134.2,368.9c0,0,95.8,93.8,109.6,260.2c-18.3,8.2-28.4-6.6-28.4-6.6S1209.2,465.6,1134.2,368.9z"/>
		<g>
			<g>
				<g>
					<path class="st28" d="M1256.2,317.8c0,0,2.6-21.1-28.7-35c-31.3-13.9-69.5-3.3-84.6,38.6c-15.2,41.9-8.5,49.5-8.5,49.5
						s18.3-26.4,31-30.6c1.9-4,2.3-7.8,2.3-7.8s-1.2-0.2-2.6-0.9c-1.5-0.7-13.3-11.6-12.2-14.5c3.8,3,14,15.4,18.8,14.6
						c-1.1-2-12.3-8.1-13.3-13.6c4.4,1.1,10.6,7.4,16,11c-1.3-2.9-4.3-11.4-9.2-13.8c1.3-0.4,7.6-1.5,14.3,10.8
						c2.4-5.1,12.1-21.6,23.4-16.4c0.8-1.3,1.3-16.3,1.3-16.3l4.4,16.4c0,0,5-5.7,0.7-18.8c1.1,2.6,3.6,12.4,2.9,18.1
						c4.5-0.7,20.4-2.2,27.9,2.5c-0.1-1.6-3.5-8.6-3.5-8.6s1.2-1.1,4.3,0.3C1244.1,304.7,1254.4,315.2,1256.2,317.8z"/>
					<path class="st28" d="M1131.8,371c0,0,13.5-13.4,22.9-17.1c9.4-3.7,22.5-0.1,27.1-4.2c-4.4,7.3-5.2,10.7-5.2,10.7l2.9,1.3
						c0,0,4.5-10.5,9.1-9c4.6,1.5,16.6,7.7,18.8,5.6c-1.8,3.9-6.8,13.8-6.8,13.8s9.3-10.4,12.5-11.3c-1.7,1.7-5.9,7.8-6.6,10.2
						c4-3.8,8.6-8.3,10.4-7.7c1.8,0.6,7.9,10.9,16.1,13.9c2.3,1,0.6,6.1,0.6,6.1s7.2-3.1,10-4.9c-1.8,2.4-7.9,11.9-8.6,14.3
						c5.9-3.4,12.2-5.8,13.6-5.2c-1.1,0.4-6.6,3.6-6.6,3.6s18.3,13.6,3.6,42.5c-1.8-4.5-12.9-22.8-20.9-25.3
						c-0.6,1.8-2.4,3.6-2.4,3.6s0-13.2-1.1-17.3c-0.6,3.8,0.4,14.4-2.5,19c0.2-3-1.7-12.5-2.1-14.9c-1.6,4.7-2.6,8.2-7.2,6.7
						c-4.7-1.6-4.7-4.7-8.9-6.4c-4.2-1.7-8.7-2.9-8.7-2.9l3-8.9l-1.6-1l-4.8,9.8l-11.6-3.7l-2.4-1.4c0,0,0.4-6.7-4.8-9.5
						c2.4,3.4,3,10.4,3,10.4S1140.2,370.5,1131.8,371z"/>
					<path class="st28" d="M1133.8,370.5c0,0-20.1,6-28.9,19.9c8.8,2.4,9.8,4.4,9.8,4.4s-7.6-0.8-14.8-0.9
						c6.5,3.6,11.2,3.9,10.6,3.6c-0.6-0.3-13.1-0.6-14.6,4.5c-1.5,5-2.5,14.1,2.3,16.2c4.8,2.1,8.5,2,8.5,2l-13.5,1.7l13,2.9
						l-12,0.8c0,0,1.6,15.9,4,18.2c2.4,2.2,6.5,2,6.5,2l-8,0.5l0.2,3.6c0,0,8.5,0.4,9.8-1.5c-2.6,3-6.7,2.9-7.6,4.5
						c-0.8,1.7,2.5,16.7,18.6,24.1c1.9-4,8.7-19.1,11.1-22.7c2.4-3.6,7.3-5.4,7.3-5.4s-9.9-4.3-15.2-4.7c6.5-0.8,11.6-5.1,17.9-0.8
						c-0.8-4.7-1.8-22.5-1.8-22.5s-6.1-4.6-10.5-6.7c6.2,2.6,13.6,5.6,13.6,5.6s-5.4-9.4-8.5-10.8c5.5,2.3,10,4.9,10,4.9
						s-11.9-8.1-14.5-9.1c5.4,1.5,15.9,5.8,15.9,5.8S1144,379,1133.8,370.5z"/>
					<path class="st28" d="M1133.8,370.5"/>
					<path class="st28" d="M1134.8,369.8c-12.2-4.7-73.2-20.4-97,18.4c-19,33.1-10.3,43.1-8.5,48.8c2.3-1.8,14.7-13.4,14.7-13.4
						s-0.9-9.1-0.8-14.2c3.5,11.6,5.2,14.6,5.2,14.6s-1.3-14.4-1.9-20.5c4.7,12.5,8.3,19.7,8.3,19.7s9.9-17.3,17.9-16.8
						c-1.3-4.2-3.4-19.7,0.4-25.3c1,12.5,2.7,22.6,2.7,22.6s5.5-10.5,8.5-11.1c3-0.6,1.8-8.7,3-10.8c1.2-2.1,6.1-7.4,6.1-7.4
						s-3.7,10.2-1.7,18c4.4-5.6,10.4-14.6,10.4-14.6s-4,6.7-1.2,12.3c3-4.2,12-12.6,14.2-10.6c-1.7,2.5-2,5.3-3.1,6.4
						C1115.3,388.2,1121.9,372.8,1134.8,369.8z"/>
					<path class="st28" d="M1133.8,370.5c0,0-4.9-22.2-33.2-34.8c-28.3-12.6-64-7-74.3,13.9c-10.3,20.9-7.4,29-5.9,34.6
						c2.2-3.9,5.2-16.6,9-22c-1.8,7.4-2.7,10.8-1.5,14.9c1.9-3.1,5.2-7.7,5.8-7.8c0.6-0.2,9.9-4,11.5-3.2c1.1-1.9,0.8-8.9,0.8-8.9
						l2.5,8.7l2.4-8.5l4.5,7c0,0,7.3-11.3,19.3-10.9c1.3-4.4,3.5-6.8,3.5-6.8s-2,7.5-0.5,9.9c1.5-3.3,5.5-9,7-9.8
						c-1.2,3.1-1.9,4.5-1.9,4.5l1.3,0.6c0,0-1,3.1-1.3,4.4c2.1-1.3,15.5-6.9,31.4,1c15.9,7.8,16.1,10.1,20.1,13.4"/>
				</g>
			</g>
			<path class="st28" d="M1129.7,369.6c0,0-50.4-17.5-79.2,4.8c-28.8,22.3-26.5,50-22,60.5c1.4-23.3-3.5-38.4,26.8-59.1
				C1085.6,355.1,1123.2,367.9,1129.7,369.6z"/>
			<path class="st28" d="M1132.7,367c0,0-10.5-29.5-47.9-36.4c-37.4-7-56.3,11-61.4,25.8c-5.1,14.8-5.5,21.1-2.9,27.9
				c0.2-5.6-3.2-24.7,16.1-44.1c16-16,56.1-4.8,63.6-2.3C1107.7,340.4,1130.7,357.8,1132.7,367z"/>
		</g>
		<path class="st28" d="M1131.4,372.5c0,0-35.9,41.8-17,100.2c-1.6-24.6-7.2-54.6,17.7-101.6"/>
		<path class="st28" d="M1138.4,370.1c0,0,23.5-8.5,62.2,6c38.7,14.5,49.5,32.6,46.6,53.8c-1.8-8.1,2.4-36.8-49.1-52.7
			C1146.7,361.2,1147,372.1,1138.4,370.1z"/>
		<path class="st28" d="M1251.8,304.5c0,0-22.3-27.1-55.6-24.7c-54,3.9-59.4,85-63.2,85.7c0.7-18.2,12.1-90.4,66.5-88.5
			C1237.8,278.4,1248,297.8,1251.8,304.5z"/>
	</g>
</g>
</svg>
